%TF.GenerationSoftware,KiCad,Pcbnew,10.0.5*%
%TF.CreationDate,2026-09-02T17:36:26+09:00*%
%TF.ProjectId,first_right,66697273-745f-4726-9967-68742e6b6963,0.2.0*%
%TF.SameCoordinates,Original*%
%TF.FileFunction,Drillmap*%
%TF.FilePolarity,Positive*%
%FSLAX45Y45*%
G04 Gerber Fmt 4.5, Leading zero omitted, Abs format (unit mm)*
G04 Created by KiCad (PCBNEW 10.0.5) date 2026-09-02 17:36:26*
%MOMM*%
%LPD*%
G01*
G04 APERTURE LIST*
%ADD10C,0.150000*%
%ADD11C,0.200000*%
%ADD12C,0.100000*%
%ADD13C,0.190000*%
%ADD14C,0.220000*%
%ADD15C,0.300000*%
%ADD16C,0.500000*%
G04 APERTURE END LIST*
D10*
X22800000Y-5266000D02*
G75*
G02*
X23100000Y-4966000I300000J0D01*
G01*
X22800000Y-10414287D02*
X22777453Y-12388810D01*
X22800000Y-10414287D02*
X22800000Y-5266000D01*
X22803369Y-12514257D02*
G75*
G02*
X22777453Y-12388810I274091J122027D01*
G01*
X22803369Y-12514257D02*
X23535495Y-14158638D01*
X23931580Y-14310681D02*
G75*
G02*
X23535498Y-14158637I-122020J274061D01*
G01*
X23931580Y-14310681D02*
X25566391Y-13582816D01*
X24874604Y-4966000D02*
X23100000Y-4966000D01*
X25566391Y-13582816D02*
X25576777Y-13579036D01*
X25576777Y-13579036D02*
X27266845Y-13094417D01*
X27266845Y-13094417D02*
X30881292Y-12837243D01*
X28649570Y-4322269D02*
X24874604Y-4966000D01*
X28649570Y-4322269D02*
G75*
G02*
X28700000Y-4318001I50430J-295771D01*
G01*
X30500000Y-4318000D02*
X28700000Y-4318000D01*
X30500000Y-4318000D02*
G75*
G02*
X30541594Y-4320898I0J-299980D01*
G01*
X31085312Y-12736077D02*
G75*
G02*
X30881292Y-12837243I-225312J198077D01*
G01*
X31085312Y-12736077D02*
X32435709Y-11200000D01*
X32341594Y-4572898D02*
X30541594Y-4320898D01*
X32341594Y-4572898D02*
G75*
G02*
X32351714Y-4574491I-41604J-297153D01*
G01*
X32435709Y-11200000D02*
X35900000Y-11200000D01*
X35951714Y-5204491D02*
X32351714Y-4574491D01*
X35951714Y-5204491D02*
G75*
G02*
X36200000Y-5500000I-51714J-295509D01*
G01*
X36200000Y-10900000D02*
G75*
G02*
X35900000Y-11200000I-300000J0D01*
G01*
X36200000Y-10900000D02*
X36200000Y-5500000D01*
D11*
D12*
X22962500Y-8121000D02*
X23052500Y-8211000D01*
X23052500Y-8121000D02*
X22962500Y-8211000D01*
X22962500Y-8421000D02*
X23052500Y-8511000D01*
X23052500Y-8421000D02*
X22962500Y-8511000D01*
D13*
X24136985Y-12345910D02*
G75*
G02*
X23946985Y-12345910I-95000J0D01*
G01*
X23946985Y-12345910D02*
G75*
G02*
X24136985Y-12345910I95000J0D01*
G01*
X24584395Y-13350810D02*
G75*
G02*
X24394395Y-13350810I-95000J0D01*
G01*
X24394395Y-13350810D02*
G75*
G02*
X24584395Y-13350810I95000J0D01*
G01*
X25545000Y-6166000D02*
G75*
G02*
X25355000Y-6166000I-95000J0D01*
G01*
X25355000Y-6166000D02*
G75*
G02*
X25545000Y-6166000I95000J0D01*
G01*
X25545000Y-7966000D02*
G75*
G02*
X25355000Y-7966000I-95000J0D01*
G01*
X25355000Y-7966000D02*
G75*
G02*
X25545000Y-7966000I95000J0D01*
G01*
X25545000Y-9766000D02*
G75*
G02*
X25355000Y-9766000I-95000J0D01*
G01*
X25355000Y-9766000D02*
G75*
G02*
X25545000Y-9766000I95000J0D01*
G01*
X26044479Y-11651646D02*
G75*
G02*
X25854479Y-11651646I-95000J0D01*
G01*
X25854479Y-11651646D02*
G75*
G02*
X26044479Y-11651646I95000J0D01*
G01*
X26347680Y-12709034D02*
G75*
G02*
X26157680Y-12709034I-95000J0D01*
G01*
X26157680Y-12709034D02*
G75*
G02*
X26347680Y-12709034I95000J0D01*
G01*
X26645000Y-6166000D02*
G75*
G02*
X26455000Y-6166000I-95000J0D01*
G01*
X26455000Y-6166000D02*
G75*
G02*
X26645000Y-6166000I95000J0D01*
G01*
X26645000Y-7966000D02*
G75*
G02*
X26455000Y-7966000I-95000J0D01*
G01*
X26455000Y-7966000D02*
G75*
G02*
X26645000Y-7966000I95000J0D01*
G01*
X26645000Y-9766000D02*
G75*
G02*
X26455000Y-9766000I-95000J0D01*
G01*
X26455000Y-9766000D02*
G75*
G02*
X26645000Y-9766000I95000J0D01*
G01*
X27345000Y-5968000D02*
G75*
G02*
X27155000Y-5968000I-95000J0D01*
G01*
X27155000Y-5968000D02*
G75*
G02*
X27345000Y-5968000I95000J0D01*
G01*
X27345000Y-7768000D02*
G75*
G02*
X27155000Y-7768000I-95000J0D01*
G01*
X27155000Y-7768000D02*
G75*
G02*
X27345000Y-7768000I95000J0D01*
G01*
X27345000Y-9568000D02*
G75*
G02*
X27155000Y-9568000I-95000J0D01*
G01*
X27155000Y-9568000D02*
G75*
G02*
X27345000Y-9568000I95000J0D01*
G01*
X28030035Y-11229603D02*
G75*
G02*
X27840035Y-11229603I-95000J0D01*
G01*
X27840035Y-11229603D02*
G75*
G02*
X28030035Y-11229603I95000J0D01*
G01*
X28183125Y-12318897D02*
G75*
G02*
X27993125Y-12318897I-95000J0D01*
G01*
X27993125Y-12318897D02*
G75*
G02*
X28183125Y-12318897I95000J0D01*
G01*
X28445000Y-5968000D02*
G75*
G02*
X28255000Y-5968000I-95000J0D01*
G01*
X28255000Y-5968000D02*
G75*
G02*
X28445000Y-5968000I95000J0D01*
G01*
X28445000Y-7768000D02*
G75*
G02*
X28255000Y-7768000I-95000J0D01*
G01*
X28255000Y-7768000D02*
G75*
G02*
X28445000Y-7768000I95000J0D01*
G01*
X28445000Y-9568000D02*
G75*
G02*
X28255000Y-9568000I-95000J0D01*
G01*
X28255000Y-9568000D02*
G75*
G02*
X28445000Y-9568000I95000J0D01*
G01*
X29145000Y-5518000D02*
G75*
G02*
X28955000Y-5518000I-95000J0D01*
G01*
X28955000Y-5518000D02*
G75*
G02*
X29145000Y-5518000I95000J0D01*
G01*
X29145000Y-7318000D02*
G75*
G02*
X28955000Y-7318000I-95000J0D01*
G01*
X28955000Y-7318000D02*
G75*
G02*
X29145000Y-7318000I95000J0D01*
G01*
X29145000Y-9118000D02*
G75*
G02*
X28955000Y-9118000I-95000J0D01*
G01*
X28955000Y-9118000D02*
G75*
G02*
X29145000Y-9118000I95000J0D01*
G01*
X30055000Y-11088000D02*
G75*
G02*
X29865000Y-11088000I-95000J0D01*
G01*
X29865000Y-11088000D02*
G75*
G02*
X30055000Y-11088000I95000J0D01*
G01*
X30055000Y-12188000D02*
G75*
G02*
X29865000Y-12188000I-95000J0D01*
G01*
X29865000Y-12188000D02*
G75*
G02*
X30055000Y-12188000I95000J0D01*
G01*
X30245000Y-5518000D02*
G75*
G02*
X30055000Y-5518000I-95000J0D01*
G01*
X30055000Y-5518000D02*
G75*
G02*
X30245000Y-5518000I95000J0D01*
G01*
X30245000Y-7318000D02*
G75*
G02*
X30055000Y-7318000I-95000J0D01*
G01*
X30055000Y-7318000D02*
G75*
G02*
X30245000Y-7318000I95000J0D01*
G01*
X30245000Y-9118000D02*
G75*
G02*
X30055000Y-9118000I-95000J0D01*
G01*
X30055000Y-9118000D02*
G75*
G02*
X30245000Y-9118000I95000J0D01*
G01*
X30945000Y-5770000D02*
G75*
G02*
X30755000Y-5770000I-95000J0D01*
G01*
X30755000Y-5770000D02*
G75*
G02*
X30945000Y-5770000I95000J0D01*
G01*
X30945000Y-7570000D02*
G75*
G02*
X30755000Y-7570000I-95000J0D01*
G01*
X30755000Y-7570000D02*
G75*
G02*
X30945000Y-7570000I95000J0D01*
G01*
X30945000Y-9370000D02*
G75*
G02*
X30755000Y-9370000I-95000J0D01*
G01*
X30755000Y-9370000D02*
G75*
G02*
X30945000Y-9370000I95000J0D01*
G01*
X32045000Y-5770000D02*
G75*
G02*
X31855000Y-5770000I-95000J0D01*
G01*
X31855000Y-5770000D02*
G75*
G02*
X32045000Y-5770000I95000J0D01*
G01*
X32045000Y-7570000D02*
G75*
G02*
X31855000Y-7570000I-95000J0D01*
G01*
X31855000Y-7570000D02*
G75*
G02*
X32045000Y-7570000I95000J0D01*
G01*
X32045000Y-9370000D02*
G75*
G02*
X31855000Y-9370000I-95000J0D01*
G01*
X31855000Y-9370000D02*
G75*
G02*
X32045000Y-9370000I95000J0D01*
G01*
X32745000Y-6400000D02*
G75*
G02*
X32555000Y-6400000I-95000J0D01*
G01*
X32555000Y-6400000D02*
G75*
G02*
X32745000Y-6400000I95000J0D01*
G01*
X32745000Y-8200000D02*
G75*
G02*
X32555000Y-8200000I-95000J0D01*
G01*
X32555000Y-8200000D02*
G75*
G02*
X32745000Y-8200000I95000J0D01*
G01*
X32745000Y-10000000D02*
G75*
G02*
X32555000Y-10000000I-95000J0D01*
G01*
X32555000Y-10000000D02*
G75*
G02*
X32745000Y-10000000I95000J0D01*
G01*
X33845000Y-6400000D02*
G75*
G02*
X33655000Y-6400000I-95000J0D01*
G01*
X33655000Y-6400000D02*
G75*
G02*
X33845000Y-6400000I95000J0D01*
G01*
X33845000Y-8200000D02*
G75*
G02*
X33655000Y-8200000I-95000J0D01*
G01*
X33655000Y-8200000D02*
G75*
G02*
X33845000Y-8200000I95000J0D01*
G01*
X33845000Y-10000000D02*
G75*
G02*
X33655000Y-10000000I-95000J0D01*
G01*
X33655000Y-10000000D02*
G75*
G02*
X33845000Y-10000000I95000J0D01*
G01*
X34545000Y-6400000D02*
G75*
G02*
X34355000Y-6400000I-95000J0D01*
G01*
X34355000Y-6400000D02*
G75*
G02*
X34545000Y-6400000I95000J0D01*
G01*
X34545000Y-8200000D02*
G75*
G02*
X34355000Y-8200000I-95000J0D01*
G01*
X34355000Y-8200000D02*
G75*
G02*
X34545000Y-8200000I95000J0D01*
G01*
X34545000Y-10000000D02*
G75*
G02*
X34355000Y-10000000I-95000J0D01*
G01*
X34355000Y-10000000D02*
G75*
G02*
X34545000Y-10000000I95000J0D01*
G01*
X35645000Y-6400000D02*
G75*
G02*
X35455000Y-6400000I-95000J0D01*
G01*
X35455000Y-6400000D02*
G75*
G02*
X35645000Y-6400000I95000J0D01*
G01*
X35645000Y-8200000D02*
G75*
G02*
X35455000Y-8200000I-95000J0D01*
G01*
X35455000Y-8200000D02*
G75*
G02*
X35645000Y-8200000I95000J0D01*
G01*
X35645000Y-10000000D02*
G75*
G02*
X35455000Y-10000000I-95000J0D01*
G01*
X35455000Y-10000000D02*
G75*
G02*
X35645000Y-10000000I95000J0D01*
G01*
D14*
X26000000Y-10952000D02*
X26000000Y-11172000D01*
X25890000Y-11062000D02*
X26110000Y-11062000D01*
X29600000Y-10304000D02*
X29600000Y-10524000D01*
X29490000Y-10414000D02*
X29710000Y-10414000D01*
X34100000Y-7190000D02*
X34100000Y-7410000D01*
X33990000Y-7300000D02*
X34210000Y-7300000D01*
X34100000Y-8990000D02*
X34100000Y-9210000D01*
X33990000Y-9100000D02*
X34210000Y-9100000D01*
D15*
X23825809Y-12650180D02*
X23825809Y-12438046D01*
X23613675Y-12438046D01*
X23613675Y-12650180D01*
X23825809Y-12650180D01*
X23828197Y-13196435D02*
X23828197Y-12984301D01*
X23616063Y-12984301D01*
X23616063Y-13196435D01*
X23828197Y-13196435D01*
X25635196Y-12450411D02*
X25635196Y-12238277D01*
X25423062Y-12238277D01*
X25423062Y-12450411D01*
X25635196Y-12450411D01*
X25708855Y-11909140D02*
X25708855Y-11697006D01*
X25496721Y-11697006D01*
X25496721Y-11909140D01*
X25708855Y-11909140D01*
X26106067Y-5677067D02*
X26106067Y-5464933D01*
X25893933Y-5464933D01*
X25893933Y-5677067D01*
X26106067Y-5677067D01*
X26106067Y-7477067D02*
X26106067Y-7264933D01*
X25893933Y-7264933D01*
X25893933Y-7477067D01*
X26106067Y-7477067D01*
X26106067Y-9277067D02*
X26106067Y-9064933D01*
X25893933Y-9064933D01*
X25893933Y-9277067D01*
X26106067Y-9277067D01*
X26606067Y-5897067D02*
X26606067Y-5684933D01*
X26393933Y-5684933D01*
X26393933Y-5897067D01*
X26606067Y-5897067D01*
X26606067Y-7697067D02*
X26606067Y-7484933D01*
X26393933Y-7484933D01*
X26393933Y-7697067D01*
X26606067Y-7697067D01*
X26606067Y-9497067D02*
X26606067Y-9284933D01*
X26393933Y-9284933D01*
X26393933Y-9497067D01*
X26606067Y-9497067D01*
X27528437Y-11963125D02*
X27528437Y-11750991D01*
X27316303Y-11750991D01*
X27316303Y-11963125D01*
X27528437Y-11963125D01*
X27676710Y-11437373D02*
X27676710Y-11225239D01*
X27464576Y-11225239D01*
X27464576Y-11437373D01*
X27676710Y-11437373D01*
X27906067Y-5479067D02*
X27906067Y-5266933D01*
X27693933Y-5266933D01*
X27693933Y-5479067D01*
X27906067Y-5479067D01*
X27906067Y-7279067D02*
X27906067Y-7066933D01*
X27693933Y-7066933D01*
X27693933Y-7279067D01*
X27906067Y-7279067D01*
X27906067Y-9079067D02*
X27906067Y-8866933D01*
X27693933Y-8866933D01*
X27693933Y-9079067D01*
X27906067Y-9079067D01*
X28406067Y-5699067D02*
X28406067Y-5486933D01*
X28193933Y-5486933D01*
X28193933Y-5699067D01*
X28406067Y-5699067D01*
X28406067Y-7499067D02*
X28406067Y-7286933D01*
X28193933Y-7286933D01*
X28193933Y-7499067D01*
X28406067Y-7499067D01*
X28406067Y-9299067D02*
X28406067Y-9086933D01*
X28193933Y-9086933D01*
X28193933Y-9299067D01*
X28406067Y-9299067D01*
X29471067Y-11744067D02*
X29471067Y-11531933D01*
X29258933Y-11531933D01*
X29258933Y-11744067D01*
X29471067Y-11744067D01*
X29691067Y-11244067D02*
X29691067Y-11031933D01*
X29478933Y-11031933D01*
X29478933Y-11244067D01*
X29691067Y-11244067D01*
X29706067Y-5029067D02*
X29706067Y-4816933D01*
X29493933Y-4816933D01*
X29493933Y-5029067D01*
X29706067Y-5029067D01*
X29706067Y-6829067D02*
X29706067Y-6616933D01*
X29493933Y-6616933D01*
X29493933Y-6829067D01*
X29706067Y-6829067D01*
X29706067Y-8629067D02*
X29706067Y-8416933D01*
X29493933Y-8416933D01*
X29493933Y-8629067D01*
X29706067Y-8629067D01*
X30206067Y-5249067D02*
X30206067Y-5036933D01*
X29993933Y-5036933D01*
X29993933Y-5249067D01*
X30206067Y-5249067D01*
X30206067Y-7049067D02*
X30206067Y-6836933D01*
X29993933Y-6836933D01*
X29993933Y-7049067D01*
X30206067Y-7049067D01*
X30206067Y-8849067D02*
X30206067Y-8636933D01*
X29993933Y-8636933D01*
X29993933Y-8849067D01*
X30206067Y-8849067D01*
X31506067Y-5281067D02*
X31506067Y-5068933D01*
X31293933Y-5068933D01*
X31293933Y-5281067D01*
X31506067Y-5281067D01*
X31506067Y-7081067D02*
X31506067Y-6868933D01*
X31293933Y-6868933D01*
X31293933Y-7081067D01*
X31506067Y-7081067D01*
X31506067Y-8881067D02*
X31506067Y-8668933D01*
X31293933Y-8668933D01*
X31293933Y-8881067D01*
X31506067Y-8881067D01*
X32006067Y-5501067D02*
X32006067Y-5288933D01*
X31793933Y-5288933D01*
X31793933Y-5501067D01*
X32006067Y-5501067D01*
X32006067Y-7301067D02*
X32006067Y-7088933D01*
X31793933Y-7088933D01*
X31793933Y-7301067D01*
X32006067Y-7301067D01*
X32006067Y-9101067D02*
X32006067Y-8888933D01*
X31793933Y-8888933D01*
X31793933Y-9101067D01*
X32006067Y-9101067D01*
X33306067Y-5911067D02*
X33306067Y-5698933D01*
X33093933Y-5698933D01*
X33093933Y-5911067D01*
X33306067Y-5911067D01*
X33306067Y-7711067D02*
X33306067Y-7498933D01*
X33093933Y-7498933D01*
X33093933Y-7711067D01*
X33306067Y-7711067D01*
X33306067Y-9511067D02*
X33306067Y-9298933D01*
X33093933Y-9298933D01*
X33093933Y-9511067D01*
X33306067Y-9511067D01*
X33806067Y-6131067D02*
X33806067Y-5918933D01*
X33593933Y-5918933D01*
X33593933Y-6131067D01*
X33806067Y-6131067D01*
X33806067Y-7931067D02*
X33806067Y-7718933D01*
X33593933Y-7718933D01*
X33593933Y-7931067D01*
X33806067Y-7931067D01*
X33806067Y-9731067D02*
X33806067Y-9518933D01*
X33593933Y-9518933D01*
X33593933Y-9731067D01*
X33806067Y-9731067D01*
X35106067Y-5911067D02*
X35106067Y-5698933D01*
X34893933Y-5698933D01*
X34893933Y-5911067D01*
X35106067Y-5911067D01*
X35106067Y-7711067D02*
X35106067Y-7498933D01*
X34893933Y-7498933D01*
X34893933Y-7711067D01*
X35106067Y-7711067D01*
X35106067Y-9511067D02*
X35106067Y-9298933D01*
X34893933Y-9298933D01*
X34893933Y-9511067D01*
X35106067Y-9511067D01*
X35606067Y-6131067D02*
X35606067Y-5918933D01*
X35393933Y-5918933D01*
X35393933Y-6131067D01*
X35606067Y-6131067D01*
X35606067Y-7931067D02*
X35606067Y-7718933D01*
X35393933Y-7718933D01*
X35393933Y-7931067D01*
X35606067Y-7931067D01*
X35606067Y-9731067D02*
X35606067Y-9518933D01*
X35393933Y-9518933D01*
X35393933Y-9731067D01*
X35606067Y-9731067D01*
D16*
X24265690Y-13098360D02*
X24515690Y-12848360D01*
X24265690Y-12598360D01*
X24015690Y-12848360D01*
X24265690Y-13098360D01*
X26000000Y-6416000D02*
X26250000Y-6166000D01*
X26000000Y-5916000D01*
X25750000Y-6166000D01*
X26000000Y-6416000D01*
X26000000Y-8216000D02*
X26250000Y-7966000D01*
X26000000Y-7716000D01*
X25750000Y-7966000D01*
X26000000Y-8216000D01*
X26000000Y-10016000D02*
X26250000Y-9766000D01*
X26000000Y-9516000D01*
X25750000Y-9766000D01*
X26000000Y-10016000D01*
X26101080Y-12430340D02*
X26351080Y-12180340D01*
X26101080Y-11930340D01*
X25851080Y-12180340D01*
X26101080Y-12430340D01*
X27800000Y-6218000D02*
X28050000Y-5968000D01*
X27800000Y-5718000D01*
X27550000Y-5968000D01*
X27800000Y-6218000D01*
X27800000Y-8018000D02*
X28050000Y-7768000D01*
X27800000Y-7518000D01*
X27550000Y-7768000D01*
X27800000Y-8018000D01*
X27800000Y-9818000D02*
X28050000Y-9568000D01*
X27800000Y-9318000D01*
X27550000Y-9568000D01*
X27800000Y-9818000D01*
X28011580Y-12024250D02*
X28261580Y-11774250D01*
X28011580Y-11524250D01*
X27761580Y-11774250D01*
X28011580Y-12024250D01*
X29600000Y-5768000D02*
X29850000Y-5518000D01*
X29600000Y-5268000D01*
X29350000Y-5518000D01*
X29600000Y-5768000D01*
X29600000Y-7568000D02*
X29850000Y-7318000D01*
X29600000Y-7068000D01*
X29350000Y-7318000D01*
X29600000Y-7568000D01*
X29600000Y-9368000D02*
X29850000Y-9118000D01*
X29600000Y-8868000D01*
X29350000Y-9118000D01*
X29600000Y-9368000D01*
X29960000Y-11888000D02*
X30210000Y-11638000D01*
X29960000Y-11388000D01*
X29710000Y-11638000D01*
X29960000Y-11888000D01*
X31400000Y-6020000D02*
X31650000Y-5770000D01*
X31400000Y-5520000D01*
X31150000Y-5770000D01*
X31400000Y-6020000D01*
X31400000Y-7820000D02*
X31650000Y-7570000D01*
X31400000Y-7320000D01*
X31150000Y-7570000D01*
X31400000Y-7820000D01*
X31400000Y-9620000D02*
X31650000Y-9370000D01*
X31400000Y-9120000D01*
X31150000Y-9370000D01*
X31400000Y-9620000D01*
X33200000Y-6650000D02*
X33450000Y-6400000D01*
X33200000Y-6150000D01*
X32950000Y-6400000D01*
X33200000Y-6650000D01*
X33200000Y-8450000D02*
X33450000Y-8200000D01*
X33200000Y-7950000D01*
X32950000Y-8200000D01*
X33200000Y-8450000D01*
X33200000Y-10250000D02*
X33450000Y-10000000D01*
X33200000Y-9750000D01*
X32950000Y-10000000D01*
X33200000Y-10250000D01*
X35000000Y-6650000D02*
X35250000Y-6400000D01*
X35000000Y-6150000D01*
X34750000Y-6400000D01*
X35000000Y-6650000D01*
X35000000Y-8450000D02*
X35250000Y-8200000D01*
X35000000Y-7950000D01*
X34750000Y-8200000D01*
X35000000Y-8450000D01*
X35000000Y-10250000D02*
X35250000Y-10000000D01*
X35000000Y-9750000D01*
X34750000Y-10000000D01*
X35000000Y-10250000D01*
D11*
X23030710Y-14655601D02*
X23030710Y-14455601D01*
X23030710Y-14455601D02*
X23078329Y-14455601D01*
X23078329Y-14455601D02*
X23106900Y-14465125D01*
X23106900Y-14465125D02*
X23125948Y-14484172D01*
X23125948Y-14484172D02*
X23135472Y-14503220D01*
X23135472Y-14503220D02*
X23144996Y-14541315D01*
X23144996Y-14541315D02*
X23144996Y-14569887D01*
X23144996Y-14569887D02*
X23135472Y-14607982D01*
X23135472Y-14607982D02*
X23125948Y-14627030D01*
X23125948Y-14627030D02*
X23106900Y-14646077D01*
X23106900Y-14646077D02*
X23078329Y-14655601D01*
X23078329Y-14655601D02*
X23030710Y-14655601D01*
X23230710Y-14655601D02*
X23230710Y-14522268D01*
X23230710Y-14560363D02*
X23240234Y-14541315D01*
X23240234Y-14541315D02*
X23249757Y-14531791D01*
X23249757Y-14531791D02*
X23268805Y-14522268D01*
X23268805Y-14522268D02*
X23287853Y-14522268D01*
X23354519Y-14655601D02*
X23354519Y-14522268D01*
X23354519Y-14455601D02*
X23344996Y-14465125D01*
X23344996Y-14465125D02*
X23354519Y-14474649D01*
X23354519Y-14474649D02*
X23364043Y-14465125D01*
X23364043Y-14465125D02*
X23354519Y-14455601D01*
X23354519Y-14455601D02*
X23354519Y-14474649D01*
X23478329Y-14655601D02*
X23459281Y-14646077D01*
X23459281Y-14646077D02*
X23449757Y-14627030D01*
X23449757Y-14627030D02*
X23449757Y-14455601D01*
X23583091Y-14655601D02*
X23564043Y-14646077D01*
X23564043Y-14646077D02*
X23554519Y-14627030D01*
X23554519Y-14627030D02*
X23554519Y-14455601D01*
X23811662Y-14655601D02*
X23811662Y-14455601D01*
X23811662Y-14455601D02*
X23878329Y-14598458D01*
X23878329Y-14598458D02*
X23944996Y-14455601D01*
X23944996Y-14455601D02*
X23944996Y-14655601D01*
X24125948Y-14655601D02*
X24125948Y-14550839D01*
X24125948Y-14550839D02*
X24116424Y-14531791D01*
X24116424Y-14531791D02*
X24097377Y-14522268D01*
X24097377Y-14522268D02*
X24059281Y-14522268D01*
X24059281Y-14522268D02*
X24040234Y-14531791D01*
X24125948Y-14646077D02*
X24106900Y-14655601D01*
X24106900Y-14655601D02*
X24059281Y-14655601D01*
X24059281Y-14655601D02*
X24040234Y-14646077D01*
X24040234Y-14646077D02*
X24030710Y-14627030D01*
X24030710Y-14627030D02*
X24030710Y-14607982D01*
X24030710Y-14607982D02*
X24040234Y-14588934D01*
X24040234Y-14588934D02*
X24059281Y-14579411D01*
X24059281Y-14579411D02*
X24106900Y-14579411D01*
X24106900Y-14579411D02*
X24125948Y-14569887D01*
X24221186Y-14522268D02*
X24221186Y-14722268D01*
X24221186Y-14531791D02*
X24240234Y-14522268D01*
X24240234Y-14522268D02*
X24278329Y-14522268D01*
X24278329Y-14522268D02*
X24297377Y-14531791D01*
X24297377Y-14531791D02*
X24306900Y-14541315D01*
X24306900Y-14541315D02*
X24316424Y-14560363D01*
X24316424Y-14560363D02*
X24316424Y-14617506D01*
X24316424Y-14617506D02*
X24306900Y-14636553D01*
X24306900Y-14636553D02*
X24297377Y-14646077D01*
X24297377Y-14646077D02*
X24278329Y-14655601D01*
X24278329Y-14655601D02*
X24240234Y-14655601D01*
X24240234Y-14655601D02*
X24221186Y-14646077D01*
X24402138Y-14636553D02*
X24411662Y-14646077D01*
X24411662Y-14646077D02*
X24402138Y-14655601D01*
X24402138Y-14655601D02*
X24392615Y-14646077D01*
X24392615Y-14646077D02*
X24402138Y-14636553D01*
X24402138Y-14636553D02*
X24402138Y-14655601D01*
X24402138Y-14531791D02*
X24411662Y-14541315D01*
X24411662Y-14541315D02*
X24402138Y-14550839D01*
X24402138Y-14550839D02*
X24392615Y-14541315D01*
X24392615Y-14541315D02*
X24402138Y-14531791D01*
X24402138Y-14531791D02*
X24402138Y-14550839D01*
D12*
X22679933Y-14939117D02*
X22769933Y-15029117D01*
X22769933Y-14939117D02*
X22679933Y-15029117D01*
D11*
X23068805Y-14875601D02*
X23087853Y-14875601D01*
X23087853Y-14875601D02*
X23106900Y-14885125D01*
X23106900Y-14885125D02*
X23116424Y-14894649D01*
X23116424Y-14894649D02*
X23125948Y-14913696D01*
X23125948Y-14913696D02*
X23135472Y-14951791D01*
X23135472Y-14951791D02*
X23135472Y-14999411D01*
X23135472Y-14999411D02*
X23125948Y-15037506D01*
X23125948Y-15037506D02*
X23116424Y-15056553D01*
X23116424Y-15056553D02*
X23106900Y-15066077D01*
X23106900Y-15066077D02*
X23087853Y-15075601D01*
X23087853Y-15075601D02*
X23068805Y-15075601D01*
X23068805Y-15075601D02*
X23049757Y-15066077D01*
X23049757Y-15066077D02*
X23040234Y-15056553D01*
X23040234Y-15056553D02*
X23030710Y-15037506D01*
X23030710Y-15037506D02*
X23021186Y-14999411D01*
X23021186Y-14999411D02*
X23021186Y-14951791D01*
X23021186Y-14951791D02*
X23030710Y-14913696D01*
X23030710Y-14913696D02*
X23040234Y-14894649D01*
X23040234Y-14894649D02*
X23049757Y-14885125D01*
X23049757Y-14885125D02*
X23068805Y-14875601D01*
X23221186Y-15056553D02*
X23230710Y-15066077D01*
X23230710Y-15066077D02*
X23221186Y-15075601D01*
X23221186Y-15075601D02*
X23211662Y-15066077D01*
X23211662Y-15066077D02*
X23221186Y-15056553D01*
X23221186Y-15056553D02*
X23221186Y-15075601D01*
X23325948Y-15075601D02*
X23364043Y-15075601D01*
X23364043Y-15075601D02*
X23383091Y-15066077D01*
X23383091Y-15066077D02*
X23392615Y-15056553D01*
X23392615Y-15056553D02*
X23411662Y-15027982D01*
X23411662Y-15027982D02*
X23421186Y-14989887D01*
X23421186Y-14989887D02*
X23421186Y-14913696D01*
X23421186Y-14913696D02*
X23411662Y-14894649D01*
X23411662Y-14894649D02*
X23402138Y-14885125D01*
X23402138Y-14885125D02*
X23383091Y-14875601D01*
X23383091Y-14875601D02*
X23344996Y-14875601D01*
X23344996Y-14875601D02*
X23325948Y-14885125D01*
X23325948Y-14885125D02*
X23316424Y-14894649D01*
X23316424Y-14894649D02*
X23306900Y-14913696D01*
X23306900Y-14913696D02*
X23306900Y-14961315D01*
X23306900Y-14961315D02*
X23316424Y-14980363D01*
X23316424Y-14980363D02*
X23325948Y-14989887D01*
X23325948Y-14989887D02*
X23344996Y-14999411D01*
X23344996Y-14999411D02*
X23383091Y-14999411D01*
X23383091Y-14999411D02*
X23402138Y-14989887D01*
X23402138Y-14989887D02*
X23411662Y-14980363D01*
X23411662Y-14980363D02*
X23421186Y-14961315D01*
X23544996Y-14875601D02*
X23564043Y-14875601D01*
X23564043Y-14875601D02*
X23583091Y-14885125D01*
X23583091Y-14885125D02*
X23592615Y-14894649D01*
X23592615Y-14894649D02*
X23602138Y-14913696D01*
X23602138Y-14913696D02*
X23611662Y-14951791D01*
X23611662Y-14951791D02*
X23611662Y-14999411D01*
X23611662Y-14999411D02*
X23602138Y-15037506D01*
X23602138Y-15037506D02*
X23592615Y-15056553D01*
X23592615Y-15056553D02*
X23583091Y-15066077D01*
X23583091Y-15066077D02*
X23564043Y-15075601D01*
X23564043Y-15075601D02*
X23544996Y-15075601D01*
X23544996Y-15075601D02*
X23525948Y-15066077D01*
X23525948Y-15066077D02*
X23516424Y-15056553D01*
X23516424Y-15056553D02*
X23506900Y-15037506D01*
X23506900Y-15037506D02*
X23497377Y-14999411D01*
X23497377Y-14999411D02*
X23497377Y-14951791D01*
X23497377Y-14951791D02*
X23506900Y-14913696D01*
X23506900Y-14913696D02*
X23516424Y-14894649D01*
X23516424Y-14894649D02*
X23525948Y-14885125D01*
X23525948Y-14885125D02*
X23544996Y-14875601D01*
X23735472Y-14875601D02*
X23754519Y-14875601D01*
X23754519Y-14875601D02*
X23773567Y-14885125D01*
X23773567Y-14885125D02*
X23783091Y-14894649D01*
X23783091Y-14894649D02*
X23792615Y-14913696D01*
X23792615Y-14913696D02*
X23802138Y-14951791D01*
X23802138Y-14951791D02*
X23802138Y-14999411D01*
X23802138Y-14999411D02*
X23792615Y-15037506D01*
X23792615Y-15037506D02*
X23783091Y-15056553D01*
X23783091Y-15056553D02*
X23773567Y-15066077D01*
X23773567Y-15066077D02*
X23754519Y-15075601D01*
X23754519Y-15075601D02*
X23735472Y-15075601D01*
X23735472Y-15075601D02*
X23716424Y-15066077D01*
X23716424Y-15066077D02*
X23706900Y-15056553D01*
X23706900Y-15056553D02*
X23697377Y-15037506D01*
X23697377Y-15037506D02*
X23687853Y-14999411D01*
X23687853Y-14999411D02*
X23687853Y-14951791D01*
X23687853Y-14951791D02*
X23697377Y-14913696D01*
X23697377Y-14913696D02*
X23706900Y-14894649D01*
X23706900Y-14894649D02*
X23716424Y-14885125D01*
X23716424Y-14885125D02*
X23735472Y-14875601D01*
X23887853Y-15075601D02*
X23887853Y-14942268D01*
X23887853Y-14961315D02*
X23897377Y-14951791D01*
X23897377Y-14951791D02*
X23916424Y-14942268D01*
X23916424Y-14942268D02*
X23944996Y-14942268D01*
X23944996Y-14942268D02*
X23964043Y-14951791D01*
X23964043Y-14951791D02*
X23973567Y-14970839D01*
X23973567Y-14970839D02*
X23973567Y-15075601D01*
X23973567Y-14970839D02*
X23983091Y-14951791D01*
X23983091Y-14951791D02*
X24002138Y-14942268D01*
X24002138Y-14942268D02*
X24030710Y-14942268D01*
X24030710Y-14942268D02*
X24049758Y-14951791D01*
X24049758Y-14951791D02*
X24059281Y-14970839D01*
X24059281Y-14970839D02*
X24059281Y-15075601D01*
X24154519Y-15075601D02*
X24154519Y-14942268D01*
X24154519Y-14961315D02*
X24164043Y-14951791D01*
X24164043Y-14951791D02*
X24183091Y-14942268D01*
X24183091Y-14942268D02*
X24211662Y-14942268D01*
X24211662Y-14942268D02*
X24230710Y-14951791D01*
X24230710Y-14951791D02*
X24240234Y-14970839D01*
X24240234Y-14970839D02*
X24240234Y-15075601D01*
X24240234Y-14970839D02*
X24249758Y-14951791D01*
X24249758Y-14951791D02*
X24268805Y-14942268D01*
X24268805Y-14942268D02*
X24297377Y-14942268D01*
X24297377Y-14942268D02*
X24316424Y-14951791D01*
X24316424Y-14951791D02*
X24325948Y-14970839D01*
X24325948Y-14970839D02*
X24325948Y-15075601D01*
X24716424Y-14866077D02*
X24544996Y-15123220D01*
X24973567Y-14875601D02*
X24992615Y-14875601D01*
X24992615Y-14875601D02*
X25011662Y-14885125D01*
X25011662Y-14885125D02*
X25021186Y-14894649D01*
X25021186Y-14894649D02*
X25030710Y-14913696D01*
X25030710Y-14913696D02*
X25040234Y-14951791D01*
X25040234Y-14951791D02*
X25040234Y-14999411D01*
X25040234Y-14999411D02*
X25030710Y-15037506D01*
X25030710Y-15037506D02*
X25021186Y-15056553D01*
X25021186Y-15056553D02*
X25011662Y-15066077D01*
X25011662Y-15066077D02*
X24992615Y-15075601D01*
X24992615Y-15075601D02*
X24973567Y-15075601D01*
X24973567Y-15075601D02*
X24954520Y-15066077D01*
X24954520Y-15066077D02*
X24944996Y-15056553D01*
X24944996Y-15056553D02*
X24935472Y-15037506D01*
X24935472Y-15037506D02*
X24925948Y-14999411D01*
X24925948Y-14999411D02*
X24925948Y-14951791D01*
X24925948Y-14951791D02*
X24935472Y-14913696D01*
X24935472Y-14913696D02*
X24944996Y-14894649D01*
X24944996Y-14894649D02*
X24954520Y-14885125D01*
X24954520Y-14885125D02*
X24973567Y-14875601D01*
X25125948Y-15056553D02*
X25135472Y-15066077D01*
X25135472Y-15066077D02*
X25125948Y-15075601D01*
X25125948Y-15075601D02*
X25116424Y-15066077D01*
X25116424Y-15066077D02*
X25125948Y-15056553D01*
X25125948Y-15056553D02*
X25125948Y-15075601D01*
X25259281Y-14875601D02*
X25278329Y-14875601D01*
X25278329Y-14875601D02*
X25297377Y-14885125D01*
X25297377Y-14885125D02*
X25306901Y-14894649D01*
X25306901Y-14894649D02*
X25316424Y-14913696D01*
X25316424Y-14913696D02*
X25325948Y-14951791D01*
X25325948Y-14951791D02*
X25325948Y-14999411D01*
X25325948Y-14999411D02*
X25316424Y-15037506D01*
X25316424Y-15037506D02*
X25306901Y-15056553D01*
X25306901Y-15056553D02*
X25297377Y-15066077D01*
X25297377Y-15066077D02*
X25278329Y-15075601D01*
X25278329Y-15075601D02*
X25259281Y-15075601D01*
X25259281Y-15075601D02*
X25240234Y-15066077D01*
X25240234Y-15066077D02*
X25230710Y-15056553D01*
X25230710Y-15056553D02*
X25221186Y-15037506D01*
X25221186Y-15037506D02*
X25211662Y-14999411D01*
X25211662Y-14999411D02*
X25211662Y-14951791D01*
X25211662Y-14951791D02*
X25221186Y-14913696D01*
X25221186Y-14913696D02*
X25230710Y-14894649D01*
X25230710Y-14894649D02*
X25240234Y-14885125D01*
X25240234Y-14885125D02*
X25259281Y-14875601D01*
X25392615Y-14875601D02*
X25516424Y-14875601D01*
X25516424Y-14875601D02*
X25449758Y-14951791D01*
X25449758Y-14951791D02*
X25478329Y-14951791D01*
X25478329Y-14951791D02*
X25497377Y-14961315D01*
X25497377Y-14961315D02*
X25506901Y-14970839D01*
X25506901Y-14970839D02*
X25516424Y-14989887D01*
X25516424Y-14989887D02*
X25516424Y-15037506D01*
X25516424Y-15037506D02*
X25506901Y-15056553D01*
X25506901Y-15056553D02*
X25497377Y-15066077D01*
X25497377Y-15066077D02*
X25478329Y-15075601D01*
X25478329Y-15075601D02*
X25421186Y-15075601D01*
X25421186Y-15075601D02*
X25402139Y-15066077D01*
X25402139Y-15066077D02*
X25392615Y-15056553D01*
X25697377Y-14875601D02*
X25602139Y-14875601D01*
X25602139Y-14875601D02*
X25592615Y-14970839D01*
X25592615Y-14970839D02*
X25602139Y-14961315D01*
X25602139Y-14961315D02*
X25621186Y-14951791D01*
X25621186Y-14951791D02*
X25668805Y-14951791D01*
X25668805Y-14951791D02*
X25687853Y-14961315D01*
X25687853Y-14961315D02*
X25697377Y-14970839D01*
X25697377Y-14970839D02*
X25706901Y-14989887D01*
X25706901Y-14989887D02*
X25706901Y-15037506D01*
X25706901Y-15037506D02*
X25697377Y-15056553D01*
X25697377Y-15056553D02*
X25687853Y-15066077D01*
X25687853Y-15066077D02*
X25668805Y-15075601D01*
X25668805Y-15075601D02*
X25621186Y-15075601D01*
X25621186Y-15075601D02*
X25602139Y-15066077D01*
X25602139Y-15066077D02*
X25592615Y-15056553D01*
X25878329Y-14942268D02*
X25878329Y-15075601D01*
X25830710Y-14866077D02*
X25783091Y-15008934D01*
X25783091Y-15008934D02*
X25906901Y-15008934D01*
X25973567Y-14875601D02*
X25973567Y-14913696D01*
X26049758Y-14875601D02*
X26049758Y-14913696D01*
X26344996Y-15151791D02*
X26335472Y-15142268D01*
X26335472Y-15142268D02*
X26316424Y-15113696D01*
X26316424Y-15113696D02*
X26306901Y-15094649D01*
X26306901Y-15094649D02*
X26297377Y-15066077D01*
X26297377Y-15066077D02*
X26287853Y-15018458D01*
X26287853Y-15018458D02*
X26287853Y-14980363D01*
X26287853Y-14980363D02*
X26297377Y-14932744D01*
X26297377Y-14932744D02*
X26306901Y-14904172D01*
X26306901Y-14904172D02*
X26316424Y-14885125D01*
X26316424Y-14885125D02*
X26335472Y-14856553D01*
X26335472Y-14856553D02*
X26344996Y-14847030D01*
X26411663Y-14894649D02*
X26421186Y-14885125D01*
X26421186Y-14885125D02*
X26440234Y-14875601D01*
X26440234Y-14875601D02*
X26487853Y-14875601D01*
X26487853Y-14875601D02*
X26506901Y-14885125D01*
X26506901Y-14885125D02*
X26516424Y-14894649D01*
X26516424Y-14894649D02*
X26525948Y-14913696D01*
X26525948Y-14913696D02*
X26525948Y-14932744D01*
X26525948Y-14932744D02*
X26516424Y-14961315D01*
X26516424Y-14961315D02*
X26402139Y-15075601D01*
X26402139Y-15075601D02*
X26525948Y-15075601D01*
X26764044Y-15075601D02*
X26764044Y-14875601D01*
X26849758Y-15075601D02*
X26849758Y-14970839D01*
X26849758Y-14970839D02*
X26840234Y-14951791D01*
X26840234Y-14951791D02*
X26821186Y-14942268D01*
X26821186Y-14942268D02*
X26792615Y-14942268D01*
X26792615Y-14942268D02*
X26773567Y-14951791D01*
X26773567Y-14951791D02*
X26764044Y-14961315D01*
X26973567Y-15075601D02*
X26954520Y-15066077D01*
X26954520Y-15066077D02*
X26944996Y-15056553D01*
X26944996Y-15056553D02*
X26935472Y-15037506D01*
X26935472Y-15037506D02*
X26935472Y-14980363D01*
X26935472Y-14980363D02*
X26944996Y-14961315D01*
X26944996Y-14961315D02*
X26954520Y-14951791D01*
X26954520Y-14951791D02*
X26973567Y-14942268D01*
X26973567Y-14942268D02*
X27002139Y-14942268D01*
X27002139Y-14942268D02*
X27021186Y-14951791D01*
X27021186Y-14951791D02*
X27030710Y-14961315D01*
X27030710Y-14961315D02*
X27040234Y-14980363D01*
X27040234Y-14980363D02*
X27040234Y-15037506D01*
X27040234Y-15037506D02*
X27030710Y-15056553D01*
X27030710Y-15056553D02*
X27021186Y-15066077D01*
X27021186Y-15066077D02*
X27002139Y-15075601D01*
X27002139Y-15075601D02*
X26973567Y-15075601D01*
X27154520Y-15075601D02*
X27135472Y-15066077D01*
X27135472Y-15066077D02*
X27125948Y-15047030D01*
X27125948Y-15047030D02*
X27125948Y-14875601D01*
X27306901Y-15066077D02*
X27287853Y-15075601D01*
X27287853Y-15075601D02*
X27249758Y-15075601D01*
X27249758Y-15075601D02*
X27230710Y-15066077D01*
X27230710Y-15066077D02*
X27221186Y-15047030D01*
X27221186Y-15047030D02*
X27221186Y-14970839D01*
X27221186Y-14970839D02*
X27230710Y-14951791D01*
X27230710Y-14951791D02*
X27249758Y-14942268D01*
X27249758Y-14942268D02*
X27287853Y-14942268D01*
X27287853Y-14942268D02*
X27306901Y-14951791D01*
X27306901Y-14951791D02*
X27316425Y-14970839D01*
X27316425Y-14970839D02*
X27316425Y-14989887D01*
X27316425Y-14989887D02*
X27221186Y-15008934D01*
X27392615Y-15066077D02*
X27411663Y-15075601D01*
X27411663Y-15075601D02*
X27449758Y-15075601D01*
X27449758Y-15075601D02*
X27468806Y-15066077D01*
X27468806Y-15066077D02*
X27478329Y-15047030D01*
X27478329Y-15047030D02*
X27478329Y-15037506D01*
X27478329Y-15037506D02*
X27468806Y-15018458D01*
X27468806Y-15018458D02*
X27449758Y-15008934D01*
X27449758Y-15008934D02*
X27421186Y-15008934D01*
X27421186Y-15008934D02*
X27402139Y-14999411D01*
X27402139Y-14999411D02*
X27392615Y-14980363D01*
X27392615Y-14980363D02*
X27392615Y-14970839D01*
X27392615Y-14970839D02*
X27402139Y-14951791D01*
X27402139Y-14951791D02*
X27421186Y-14942268D01*
X27421186Y-14942268D02*
X27449758Y-14942268D01*
X27449758Y-14942268D02*
X27468806Y-14951791D01*
X27544996Y-15151791D02*
X27554520Y-15142268D01*
X27554520Y-15142268D02*
X27573567Y-15113696D01*
X27573567Y-15113696D02*
X27583091Y-15094649D01*
X27583091Y-15094649D02*
X27592615Y-15066077D01*
X27592615Y-15066077D02*
X27602139Y-15018458D01*
X27602139Y-15018458D02*
X27602139Y-14980363D01*
X27602139Y-14980363D02*
X27592615Y-14932744D01*
X27592615Y-14932744D02*
X27583091Y-14904172D01*
X27583091Y-14904172D02*
X27573567Y-14885125D01*
X27573567Y-14885125D02*
X27554520Y-14856553D01*
X27554520Y-14856553D02*
X27544996Y-14847030D01*
X27906901Y-15151791D02*
X27897377Y-15142268D01*
X27897377Y-15142268D02*
X27878329Y-15113696D01*
X27878329Y-15113696D02*
X27868806Y-15094649D01*
X27868806Y-15094649D02*
X27859282Y-15066077D01*
X27859282Y-15066077D02*
X27849758Y-15018458D01*
X27849758Y-15018458D02*
X27849758Y-14980363D01*
X27849758Y-14980363D02*
X27859282Y-14932744D01*
X27859282Y-14932744D02*
X27868806Y-14904172D01*
X27868806Y-14904172D02*
X27878329Y-14885125D01*
X27878329Y-14885125D02*
X27897377Y-14856553D01*
X27897377Y-14856553D02*
X27906901Y-14847030D01*
X27983091Y-14942268D02*
X27983091Y-15075601D01*
X27983091Y-14961315D02*
X27992615Y-14951791D01*
X27992615Y-14951791D02*
X28011663Y-14942268D01*
X28011663Y-14942268D02*
X28040234Y-14942268D01*
X28040234Y-14942268D02*
X28059282Y-14951791D01*
X28059282Y-14951791D02*
X28068806Y-14970839D01*
X28068806Y-14970839D02*
X28068806Y-15075601D01*
X28192615Y-15075601D02*
X28173567Y-15066077D01*
X28173567Y-15066077D02*
X28164044Y-15056553D01*
X28164044Y-15056553D02*
X28154520Y-15037506D01*
X28154520Y-15037506D02*
X28154520Y-14980363D01*
X28154520Y-14980363D02*
X28164044Y-14961315D01*
X28164044Y-14961315D02*
X28173567Y-14951791D01*
X28173567Y-14951791D02*
X28192615Y-14942268D01*
X28192615Y-14942268D02*
X28221187Y-14942268D01*
X28221187Y-14942268D02*
X28240234Y-14951791D01*
X28240234Y-14951791D02*
X28249758Y-14961315D01*
X28249758Y-14961315D02*
X28259282Y-14980363D01*
X28259282Y-14980363D02*
X28259282Y-15037506D01*
X28259282Y-15037506D02*
X28249758Y-15056553D01*
X28249758Y-15056553D02*
X28240234Y-15066077D01*
X28240234Y-15066077D02*
X28221187Y-15075601D01*
X28221187Y-15075601D02*
X28192615Y-15075601D01*
X28316425Y-14942268D02*
X28392615Y-14942268D01*
X28344996Y-14875601D02*
X28344996Y-15047030D01*
X28344996Y-15047030D02*
X28354520Y-15066077D01*
X28354520Y-15066077D02*
X28373567Y-15075601D01*
X28373567Y-15075601D02*
X28392615Y-15075601D01*
X28611663Y-14942268D02*
X28611663Y-15142268D01*
X28611663Y-14951791D02*
X28630710Y-14942268D01*
X28630710Y-14942268D02*
X28668806Y-14942268D01*
X28668806Y-14942268D02*
X28687853Y-14951791D01*
X28687853Y-14951791D02*
X28697377Y-14961315D01*
X28697377Y-14961315D02*
X28706901Y-14980363D01*
X28706901Y-14980363D02*
X28706901Y-15037506D01*
X28706901Y-15037506D02*
X28697377Y-15056553D01*
X28697377Y-15056553D02*
X28687853Y-15066077D01*
X28687853Y-15066077D02*
X28668806Y-15075601D01*
X28668806Y-15075601D02*
X28630710Y-15075601D01*
X28630710Y-15075601D02*
X28611663Y-15066077D01*
X28821187Y-15075601D02*
X28802139Y-15066077D01*
X28802139Y-15066077D02*
X28792615Y-15047030D01*
X28792615Y-15047030D02*
X28792615Y-14875601D01*
X28983091Y-15075601D02*
X28983091Y-14970839D01*
X28983091Y-14970839D02*
X28973568Y-14951791D01*
X28973568Y-14951791D02*
X28954520Y-14942268D01*
X28954520Y-14942268D02*
X28916425Y-14942268D01*
X28916425Y-14942268D02*
X28897377Y-14951791D01*
X28983091Y-15066077D02*
X28964044Y-15075601D01*
X28964044Y-15075601D02*
X28916425Y-15075601D01*
X28916425Y-15075601D02*
X28897377Y-15066077D01*
X28897377Y-15066077D02*
X28887853Y-15047030D01*
X28887853Y-15047030D02*
X28887853Y-15027982D01*
X28887853Y-15027982D02*
X28897377Y-15008934D01*
X28897377Y-15008934D02*
X28916425Y-14999411D01*
X28916425Y-14999411D02*
X28964044Y-14999411D01*
X28964044Y-14999411D02*
X28983091Y-14989887D01*
X29049758Y-14942268D02*
X29125948Y-14942268D01*
X29078329Y-14875601D02*
X29078329Y-15047030D01*
X29078329Y-15047030D02*
X29087853Y-15066077D01*
X29087853Y-15066077D02*
X29106901Y-15075601D01*
X29106901Y-15075601D02*
X29125948Y-15075601D01*
X29268806Y-15066077D02*
X29249758Y-15075601D01*
X29249758Y-15075601D02*
X29211663Y-15075601D01*
X29211663Y-15075601D02*
X29192615Y-15066077D01*
X29192615Y-15066077D02*
X29183091Y-15047030D01*
X29183091Y-15047030D02*
X29183091Y-14970839D01*
X29183091Y-14970839D02*
X29192615Y-14951791D01*
X29192615Y-14951791D02*
X29211663Y-14942268D01*
X29211663Y-14942268D02*
X29249758Y-14942268D01*
X29249758Y-14942268D02*
X29268806Y-14951791D01*
X29268806Y-14951791D02*
X29278329Y-14970839D01*
X29278329Y-14970839D02*
X29278329Y-14989887D01*
X29278329Y-14989887D02*
X29183091Y-15008934D01*
X29449758Y-15075601D02*
X29449758Y-14875601D01*
X29449758Y-15066077D02*
X29430710Y-15075601D01*
X29430710Y-15075601D02*
X29392615Y-15075601D01*
X29392615Y-15075601D02*
X29373568Y-15066077D01*
X29373568Y-15066077D02*
X29364044Y-15056553D01*
X29364044Y-15056553D02*
X29354520Y-15037506D01*
X29354520Y-15037506D02*
X29354520Y-14980363D01*
X29354520Y-14980363D02*
X29364044Y-14961315D01*
X29364044Y-14961315D02*
X29373568Y-14951791D01*
X29373568Y-14951791D02*
X29392615Y-14942268D01*
X29392615Y-14942268D02*
X29430710Y-14942268D01*
X29430710Y-14942268D02*
X29449758Y-14951791D01*
X29525949Y-15151791D02*
X29535472Y-15142268D01*
X29535472Y-15142268D02*
X29554520Y-15113696D01*
X29554520Y-15113696D02*
X29564044Y-15094649D01*
X29564044Y-15094649D02*
X29573568Y-15066077D01*
X29573568Y-15066077D02*
X29583091Y-15018458D01*
X29583091Y-15018458D02*
X29583091Y-14980363D01*
X29583091Y-14980363D02*
X29573568Y-14932744D01*
X29573568Y-14932744D02*
X29564044Y-14904172D01*
X29564044Y-14904172D02*
X29554520Y-14885125D01*
X29554520Y-14885125D02*
X29535472Y-14856553D01*
X29535472Y-14856553D02*
X29525949Y-14847030D01*
D13*
X22769933Y-15248117D02*
G75*
G02*
X22579933Y-15248117I-95000J0D01*
G01*
X22579933Y-15248117D02*
G75*
G02*
X22769933Y-15248117I95000J0D01*
G01*
D11*
X23135472Y-15339601D02*
X23021186Y-15339601D01*
X23078329Y-15339601D02*
X23078329Y-15139601D01*
X23078329Y-15139601D02*
X23059281Y-15168172D01*
X23059281Y-15168172D02*
X23040234Y-15187220D01*
X23040234Y-15187220D02*
X23021186Y-15196744D01*
X23221186Y-15320553D02*
X23230710Y-15330077D01*
X23230710Y-15330077D02*
X23221186Y-15339601D01*
X23221186Y-15339601D02*
X23211662Y-15330077D01*
X23211662Y-15330077D02*
X23221186Y-15320553D01*
X23221186Y-15320553D02*
X23221186Y-15339601D01*
X23325948Y-15339601D02*
X23364043Y-15339601D01*
X23364043Y-15339601D02*
X23383091Y-15330077D01*
X23383091Y-15330077D02*
X23392615Y-15320553D01*
X23392615Y-15320553D02*
X23411662Y-15291982D01*
X23411662Y-15291982D02*
X23421186Y-15253887D01*
X23421186Y-15253887D02*
X23421186Y-15177696D01*
X23421186Y-15177696D02*
X23411662Y-15158649D01*
X23411662Y-15158649D02*
X23402138Y-15149125D01*
X23402138Y-15149125D02*
X23383091Y-15139601D01*
X23383091Y-15139601D02*
X23344996Y-15139601D01*
X23344996Y-15139601D02*
X23325948Y-15149125D01*
X23325948Y-15149125D02*
X23316424Y-15158649D01*
X23316424Y-15158649D02*
X23306900Y-15177696D01*
X23306900Y-15177696D02*
X23306900Y-15225315D01*
X23306900Y-15225315D02*
X23316424Y-15244363D01*
X23316424Y-15244363D02*
X23325948Y-15253887D01*
X23325948Y-15253887D02*
X23344996Y-15263411D01*
X23344996Y-15263411D02*
X23383091Y-15263411D01*
X23383091Y-15263411D02*
X23402138Y-15253887D01*
X23402138Y-15253887D02*
X23411662Y-15244363D01*
X23411662Y-15244363D02*
X23421186Y-15225315D01*
X23544996Y-15139601D02*
X23564043Y-15139601D01*
X23564043Y-15139601D02*
X23583091Y-15149125D01*
X23583091Y-15149125D02*
X23592615Y-15158649D01*
X23592615Y-15158649D02*
X23602138Y-15177696D01*
X23602138Y-15177696D02*
X23611662Y-15215791D01*
X23611662Y-15215791D02*
X23611662Y-15263411D01*
X23611662Y-15263411D02*
X23602138Y-15301506D01*
X23602138Y-15301506D02*
X23592615Y-15320553D01*
X23592615Y-15320553D02*
X23583091Y-15330077D01*
X23583091Y-15330077D02*
X23564043Y-15339601D01*
X23564043Y-15339601D02*
X23544996Y-15339601D01*
X23544996Y-15339601D02*
X23525948Y-15330077D01*
X23525948Y-15330077D02*
X23516424Y-15320553D01*
X23516424Y-15320553D02*
X23506900Y-15301506D01*
X23506900Y-15301506D02*
X23497377Y-15263411D01*
X23497377Y-15263411D02*
X23497377Y-15215791D01*
X23497377Y-15215791D02*
X23506900Y-15177696D01*
X23506900Y-15177696D02*
X23516424Y-15158649D01*
X23516424Y-15158649D02*
X23525948Y-15149125D01*
X23525948Y-15149125D02*
X23544996Y-15139601D01*
X23735472Y-15139601D02*
X23754519Y-15139601D01*
X23754519Y-15139601D02*
X23773567Y-15149125D01*
X23773567Y-15149125D02*
X23783091Y-15158649D01*
X23783091Y-15158649D02*
X23792615Y-15177696D01*
X23792615Y-15177696D02*
X23802138Y-15215791D01*
X23802138Y-15215791D02*
X23802138Y-15263411D01*
X23802138Y-15263411D02*
X23792615Y-15301506D01*
X23792615Y-15301506D02*
X23783091Y-15320553D01*
X23783091Y-15320553D02*
X23773567Y-15330077D01*
X23773567Y-15330077D02*
X23754519Y-15339601D01*
X23754519Y-15339601D02*
X23735472Y-15339601D01*
X23735472Y-15339601D02*
X23716424Y-15330077D01*
X23716424Y-15330077D02*
X23706900Y-15320553D01*
X23706900Y-15320553D02*
X23697377Y-15301506D01*
X23697377Y-15301506D02*
X23687853Y-15263411D01*
X23687853Y-15263411D02*
X23687853Y-15215791D01*
X23687853Y-15215791D02*
X23697377Y-15177696D01*
X23697377Y-15177696D02*
X23706900Y-15158649D01*
X23706900Y-15158649D02*
X23716424Y-15149125D01*
X23716424Y-15149125D02*
X23735472Y-15139601D01*
X23887853Y-15339601D02*
X23887853Y-15206268D01*
X23887853Y-15225315D02*
X23897377Y-15215791D01*
X23897377Y-15215791D02*
X23916424Y-15206268D01*
X23916424Y-15206268D02*
X23944996Y-15206268D01*
X23944996Y-15206268D02*
X23964043Y-15215791D01*
X23964043Y-15215791D02*
X23973567Y-15234839D01*
X23973567Y-15234839D02*
X23973567Y-15339601D01*
X23973567Y-15234839D02*
X23983091Y-15215791D01*
X23983091Y-15215791D02*
X24002138Y-15206268D01*
X24002138Y-15206268D02*
X24030710Y-15206268D01*
X24030710Y-15206268D02*
X24049758Y-15215791D01*
X24049758Y-15215791D02*
X24059281Y-15234839D01*
X24059281Y-15234839D02*
X24059281Y-15339601D01*
X24154519Y-15339601D02*
X24154519Y-15206268D01*
X24154519Y-15225315D02*
X24164043Y-15215791D01*
X24164043Y-15215791D02*
X24183091Y-15206268D01*
X24183091Y-15206268D02*
X24211662Y-15206268D01*
X24211662Y-15206268D02*
X24230710Y-15215791D01*
X24230710Y-15215791D02*
X24240234Y-15234839D01*
X24240234Y-15234839D02*
X24240234Y-15339601D01*
X24240234Y-15234839D02*
X24249758Y-15215791D01*
X24249758Y-15215791D02*
X24268805Y-15206268D01*
X24268805Y-15206268D02*
X24297377Y-15206268D01*
X24297377Y-15206268D02*
X24316424Y-15215791D01*
X24316424Y-15215791D02*
X24325948Y-15234839D01*
X24325948Y-15234839D02*
X24325948Y-15339601D01*
X24716424Y-15130077D02*
X24544996Y-15387220D01*
X24973567Y-15139601D02*
X24992615Y-15139601D01*
X24992615Y-15139601D02*
X25011662Y-15149125D01*
X25011662Y-15149125D02*
X25021186Y-15158649D01*
X25021186Y-15158649D02*
X25030710Y-15177696D01*
X25030710Y-15177696D02*
X25040234Y-15215791D01*
X25040234Y-15215791D02*
X25040234Y-15263411D01*
X25040234Y-15263411D02*
X25030710Y-15301506D01*
X25030710Y-15301506D02*
X25021186Y-15320553D01*
X25021186Y-15320553D02*
X25011662Y-15330077D01*
X25011662Y-15330077D02*
X24992615Y-15339601D01*
X24992615Y-15339601D02*
X24973567Y-15339601D01*
X24973567Y-15339601D02*
X24954520Y-15330077D01*
X24954520Y-15330077D02*
X24944996Y-15320553D01*
X24944996Y-15320553D02*
X24935472Y-15301506D01*
X24935472Y-15301506D02*
X24925948Y-15263411D01*
X24925948Y-15263411D02*
X24925948Y-15215791D01*
X24925948Y-15215791D02*
X24935472Y-15177696D01*
X24935472Y-15177696D02*
X24944996Y-15158649D01*
X24944996Y-15158649D02*
X24954520Y-15149125D01*
X24954520Y-15149125D02*
X24973567Y-15139601D01*
X25125948Y-15320553D02*
X25135472Y-15330077D01*
X25135472Y-15330077D02*
X25125948Y-15339601D01*
X25125948Y-15339601D02*
X25116424Y-15330077D01*
X25116424Y-15330077D02*
X25125948Y-15320553D01*
X25125948Y-15320553D02*
X25125948Y-15339601D01*
X25259281Y-15139601D02*
X25278329Y-15139601D01*
X25278329Y-15139601D02*
X25297377Y-15149125D01*
X25297377Y-15149125D02*
X25306901Y-15158649D01*
X25306901Y-15158649D02*
X25316424Y-15177696D01*
X25316424Y-15177696D02*
X25325948Y-15215791D01*
X25325948Y-15215791D02*
X25325948Y-15263411D01*
X25325948Y-15263411D02*
X25316424Y-15301506D01*
X25316424Y-15301506D02*
X25306901Y-15320553D01*
X25306901Y-15320553D02*
X25297377Y-15330077D01*
X25297377Y-15330077D02*
X25278329Y-15339601D01*
X25278329Y-15339601D02*
X25259281Y-15339601D01*
X25259281Y-15339601D02*
X25240234Y-15330077D01*
X25240234Y-15330077D02*
X25230710Y-15320553D01*
X25230710Y-15320553D02*
X25221186Y-15301506D01*
X25221186Y-15301506D02*
X25211662Y-15263411D01*
X25211662Y-15263411D02*
X25211662Y-15215791D01*
X25211662Y-15215791D02*
X25221186Y-15177696D01*
X25221186Y-15177696D02*
X25230710Y-15158649D01*
X25230710Y-15158649D02*
X25240234Y-15149125D01*
X25240234Y-15149125D02*
X25259281Y-15139601D01*
X25392615Y-15139601D02*
X25525948Y-15139601D01*
X25525948Y-15139601D02*
X25440234Y-15339601D01*
X25687853Y-15206268D02*
X25687853Y-15339601D01*
X25640234Y-15130077D02*
X25592615Y-15272934D01*
X25592615Y-15272934D02*
X25716424Y-15272934D01*
X25821186Y-15225315D02*
X25802139Y-15215791D01*
X25802139Y-15215791D02*
X25792615Y-15206268D01*
X25792615Y-15206268D02*
X25783091Y-15187220D01*
X25783091Y-15187220D02*
X25783091Y-15177696D01*
X25783091Y-15177696D02*
X25792615Y-15158649D01*
X25792615Y-15158649D02*
X25802139Y-15149125D01*
X25802139Y-15149125D02*
X25821186Y-15139601D01*
X25821186Y-15139601D02*
X25859282Y-15139601D01*
X25859282Y-15139601D02*
X25878329Y-15149125D01*
X25878329Y-15149125D02*
X25887853Y-15158649D01*
X25887853Y-15158649D02*
X25897377Y-15177696D01*
X25897377Y-15177696D02*
X25897377Y-15187220D01*
X25897377Y-15187220D02*
X25887853Y-15206268D01*
X25887853Y-15206268D02*
X25878329Y-15215791D01*
X25878329Y-15215791D02*
X25859282Y-15225315D01*
X25859282Y-15225315D02*
X25821186Y-15225315D01*
X25821186Y-15225315D02*
X25802139Y-15234839D01*
X25802139Y-15234839D02*
X25792615Y-15244363D01*
X25792615Y-15244363D02*
X25783091Y-15263411D01*
X25783091Y-15263411D02*
X25783091Y-15301506D01*
X25783091Y-15301506D02*
X25792615Y-15320553D01*
X25792615Y-15320553D02*
X25802139Y-15330077D01*
X25802139Y-15330077D02*
X25821186Y-15339601D01*
X25821186Y-15339601D02*
X25859282Y-15339601D01*
X25859282Y-15339601D02*
X25878329Y-15330077D01*
X25878329Y-15330077D02*
X25887853Y-15320553D01*
X25887853Y-15320553D02*
X25897377Y-15301506D01*
X25897377Y-15301506D02*
X25897377Y-15263411D01*
X25897377Y-15263411D02*
X25887853Y-15244363D01*
X25887853Y-15244363D02*
X25878329Y-15234839D01*
X25878329Y-15234839D02*
X25859282Y-15225315D01*
X25973567Y-15139601D02*
X25973567Y-15177696D01*
X26049758Y-15139601D02*
X26049758Y-15177696D01*
X26344996Y-15415791D02*
X26335472Y-15406268D01*
X26335472Y-15406268D02*
X26316424Y-15377696D01*
X26316424Y-15377696D02*
X26306901Y-15358649D01*
X26306901Y-15358649D02*
X26297377Y-15330077D01*
X26297377Y-15330077D02*
X26287853Y-15282458D01*
X26287853Y-15282458D02*
X26287853Y-15244363D01*
X26287853Y-15244363D02*
X26297377Y-15196744D01*
X26297377Y-15196744D02*
X26306901Y-15168172D01*
X26306901Y-15168172D02*
X26316424Y-15149125D01*
X26316424Y-15149125D02*
X26335472Y-15120553D01*
X26335472Y-15120553D02*
X26344996Y-15111030D01*
X26506901Y-15206268D02*
X26506901Y-15339601D01*
X26459282Y-15130077D02*
X26411663Y-15272934D01*
X26411663Y-15272934D02*
X26535472Y-15272934D01*
X26697377Y-15206268D02*
X26697377Y-15339601D01*
X26649758Y-15130077D02*
X26602139Y-15272934D01*
X26602139Y-15272934D02*
X26725948Y-15272934D01*
X26954520Y-15339601D02*
X26954520Y-15139601D01*
X27040234Y-15339601D02*
X27040234Y-15234839D01*
X27040234Y-15234839D02*
X27030710Y-15215791D01*
X27030710Y-15215791D02*
X27011663Y-15206268D01*
X27011663Y-15206268D02*
X26983091Y-15206268D01*
X26983091Y-15206268D02*
X26964044Y-15215791D01*
X26964044Y-15215791D02*
X26954520Y-15225315D01*
X27164044Y-15339601D02*
X27144996Y-15330077D01*
X27144996Y-15330077D02*
X27135472Y-15320553D01*
X27135472Y-15320553D02*
X27125948Y-15301506D01*
X27125948Y-15301506D02*
X27125948Y-15244363D01*
X27125948Y-15244363D02*
X27135472Y-15225315D01*
X27135472Y-15225315D02*
X27144996Y-15215791D01*
X27144996Y-15215791D02*
X27164044Y-15206268D01*
X27164044Y-15206268D02*
X27192615Y-15206268D01*
X27192615Y-15206268D02*
X27211663Y-15215791D01*
X27211663Y-15215791D02*
X27221186Y-15225315D01*
X27221186Y-15225315D02*
X27230710Y-15244363D01*
X27230710Y-15244363D02*
X27230710Y-15301506D01*
X27230710Y-15301506D02*
X27221186Y-15320553D01*
X27221186Y-15320553D02*
X27211663Y-15330077D01*
X27211663Y-15330077D02*
X27192615Y-15339601D01*
X27192615Y-15339601D02*
X27164044Y-15339601D01*
X27344996Y-15339601D02*
X27325948Y-15330077D01*
X27325948Y-15330077D02*
X27316425Y-15311030D01*
X27316425Y-15311030D02*
X27316425Y-15139601D01*
X27497377Y-15330077D02*
X27478329Y-15339601D01*
X27478329Y-15339601D02*
X27440234Y-15339601D01*
X27440234Y-15339601D02*
X27421186Y-15330077D01*
X27421186Y-15330077D02*
X27411663Y-15311030D01*
X27411663Y-15311030D02*
X27411663Y-15234839D01*
X27411663Y-15234839D02*
X27421186Y-15215791D01*
X27421186Y-15215791D02*
X27440234Y-15206268D01*
X27440234Y-15206268D02*
X27478329Y-15206268D01*
X27478329Y-15206268D02*
X27497377Y-15215791D01*
X27497377Y-15215791D02*
X27506901Y-15234839D01*
X27506901Y-15234839D02*
X27506901Y-15253887D01*
X27506901Y-15253887D02*
X27411663Y-15272934D01*
X27583091Y-15330077D02*
X27602139Y-15339601D01*
X27602139Y-15339601D02*
X27640234Y-15339601D01*
X27640234Y-15339601D02*
X27659282Y-15330077D01*
X27659282Y-15330077D02*
X27668806Y-15311030D01*
X27668806Y-15311030D02*
X27668806Y-15301506D01*
X27668806Y-15301506D02*
X27659282Y-15282458D01*
X27659282Y-15282458D02*
X27640234Y-15272934D01*
X27640234Y-15272934D02*
X27611663Y-15272934D01*
X27611663Y-15272934D02*
X27592615Y-15263411D01*
X27592615Y-15263411D02*
X27583091Y-15244363D01*
X27583091Y-15244363D02*
X27583091Y-15234839D01*
X27583091Y-15234839D02*
X27592615Y-15215791D01*
X27592615Y-15215791D02*
X27611663Y-15206268D01*
X27611663Y-15206268D02*
X27640234Y-15206268D01*
X27640234Y-15206268D02*
X27659282Y-15215791D01*
X27735472Y-15415791D02*
X27744996Y-15406268D01*
X27744996Y-15406268D02*
X27764044Y-15377696D01*
X27764044Y-15377696D02*
X27773567Y-15358649D01*
X27773567Y-15358649D02*
X27783091Y-15330077D01*
X27783091Y-15330077D02*
X27792615Y-15282458D01*
X27792615Y-15282458D02*
X27792615Y-15244363D01*
X27792615Y-15244363D02*
X27783091Y-15196744D01*
X27783091Y-15196744D02*
X27773567Y-15168172D01*
X27773567Y-15168172D02*
X27764044Y-15149125D01*
X27764044Y-15149125D02*
X27744996Y-15120553D01*
X27744996Y-15120553D02*
X27735472Y-15111030D01*
X28097377Y-15415791D02*
X28087853Y-15406268D01*
X28087853Y-15406268D02*
X28068806Y-15377696D01*
X28068806Y-15377696D02*
X28059282Y-15358649D01*
X28059282Y-15358649D02*
X28049758Y-15330077D01*
X28049758Y-15330077D02*
X28040234Y-15282458D01*
X28040234Y-15282458D02*
X28040234Y-15244363D01*
X28040234Y-15244363D02*
X28049758Y-15196744D01*
X28049758Y-15196744D02*
X28059282Y-15168172D01*
X28059282Y-15168172D02*
X28068806Y-15149125D01*
X28068806Y-15149125D02*
X28087853Y-15120553D01*
X28087853Y-15120553D02*
X28097377Y-15111030D01*
X28173567Y-15206268D02*
X28173567Y-15339601D01*
X28173567Y-15225315D02*
X28183091Y-15215791D01*
X28183091Y-15215791D02*
X28202139Y-15206268D01*
X28202139Y-15206268D02*
X28230710Y-15206268D01*
X28230710Y-15206268D02*
X28249758Y-15215791D01*
X28249758Y-15215791D02*
X28259282Y-15234839D01*
X28259282Y-15234839D02*
X28259282Y-15339601D01*
X28383091Y-15339601D02*
X28364044Y-15330077D01*
X28364044Y-15330077D02*
X28354520Y-15320553D01*
X28354520Y-15320553D02*
X28344996Y-15301506D01*
X28344996Y-15301506D02*
X28344996Y-15244363D01*
X28344996Y-15244363D02*
X28354520Y-15225315D01*
X28354520Y-15225315D02*
X28364044Y-15215791D01*
X28364044Y-15215791D02*
X28383091Y-15206268D01*
X28383091Y-15206268D02*
X28411663Y-15206268D01*
X28411663Y-15206268D02*
X28430710Y-15215791D01*
X28430710Y-15215791D02*
X28440234Y-15225315D01*
X28440234Y-15225315D02*
X28449758Y-15244363D01*
X28449758Y-15244363D02*
X28449758Y-15301506D01*
X28449758Y-15301506D02*
X28440234Y-15320553D01*
X28440234Y-15320553D02*
X28430710Y-15330077D01*
X28430710Y-15330077D02*
X28411663Y-15339601D01*
X28411663Y-15339601D02*
X28383091Y-15339601D01*
X28506901Y-15206268D02*
X28583091Y-15206268D01*
X28535472Y-15139601D02*
X28535472Y-15311030D01*
X28535472Y-15311030D02*
X28544996Y-15330077D01*
X28544996Y-15330077D02*
X28564044Y-15339601D01*
X28564044Y-15339601D02*
X28583091Y-15339601D01*
X28802139Y-15206268D02*
X28802139Y-15406268D01*
X28802139Y-15215791D02*
X28821187Y-15206268D01*
X28821187Y-15206268D02*
X28859282Y-15206268D01*
X28859282Y-15206268D02*
X28878329Y-15215791D01*
X28878329Y-15215791D02*
X28887853Y-15225315D01*
X28887853Y-15225315D02*
X28897377Y-15244363D01*
X28897377Y-15244363D02*
X28897377Y-15301506D01*
X28897377Y-15301506D02*
X28887853Y-15320553D01*
X28887853Y-15320553D02*
X28878329Y-15330077D01*
X28878329Y-15330077D02*
X28859282Y-15339601D01*
X28859282Y-15339601D02*
X28821187Y-15339601D01*
X28821187Y-15339601D02*
X28802139Y-15330077D01*
X29011663Y-15339601D02*
X28992615Y-15330077D01*
X28992615Y-15330077D02*
X28983091Y-15311030D01*
X28983091Y-15311030D02*
X28983091Y-15139601D01*
X29173568Y-15339601D02*
X29173568Y-15234839D01*
X29173568Y-15234839D02*
X29164044Y-15215791D01*
X29164044Y-15215791D02*
X29144996Y-15206268D01*
X29144996Y-15206268D02*
X29106901Y-15206268D01*
X29106901Y-15206268D02*
X29087853Y-15215791D01*
X29173568Y-15330077D02*
X29154520Y-15339601D01*
X29154520Y-15339601D02*
X29106901Y-15339601D01*
X29106901Y-15339601D02*
X29087853Y-15330077D01*
X29087853Y-15330077D02*
X29078329Y-15311030D01*
X29078329Y-15311030D02*
X29078329Y-15291982D01*
X29078329Y-15291982D02*
X29087853Y-15272934D01*
X29087853Y-15272934D02*
X29106901Y-15263411D01*
X29106901Y-15263411D02*
X29154520Y-15263411D01*
X29154520Y-15263411D02*
X29173568Y-15253887D01*
X29240234Y-15206268D02*
X29316425Y-15206268D01*
X29268806Y-15139601D02*
X29268806Y-15311030D01*
X29268806Y-15311030D02*
X29278329Y-15330077D01*
X29278329Y-15330077D02*
X29297377Y-15339601D01*
X29297377Y-15339601D02*
X29316425Y-15339601D01*
X29459282Y-15330077D02*
X29440234Y-15339601D01*
X29440234Y-15339601D02*
X29402139Y-15339601D01*
X29402139Y-15339601D02*
X29383091Y-15330077D01*
X29383091Y-15330077D02*
X29373568Y-15311030D01*
X29373568Y-15311030D02*
X29373568Y-15234839D01*
X29373568Y-15234839D02*
X29383091Y-15215791D01*
X29383091Y-15215791D02*
X29402139Y-15206268D01*
X29402139Y-15206268D02*
X29440234Y-15206268D01*
X29440234Y-15206268D02*
X29459282Y-15215791D01*
X29459282Y-15215791D02*
X29468806Y-15234839D01*
X29468806Y-15234839D02*
X29468806Y-15253887D01*
X29468806Y-15253887D02*
X29373568Y-15272934D01*
X29640234Y-15339601D02*
X29640234Y-15139601D01*
X29640234Y-15330077D02*
X29621187Y-15339601D01*
X29621187Y-15339601D02*
X29583091Y-15339601D01*
X29583091Y-15339601D02*
X29564044Y-15330077D01*
X29564044Y-15330077D02*
X29554520Y-15320553D01*
X29554520Y-15320553D02*
X29544996Y-15301506D01*
X29544996Y-15301506D02*
X29544996Y-15244363D01*
X29544996Y-15244363D02*
X29554520Y-15225315D01*
X29554520Y-15225315D02*
X29564044Y-15215791D01*
X29564044Y-15215791D02*
X29583091Y-15206268D01*
X29583091Y-15206268D02*
X29621187Y-15206268D01*
X29621187Y-15206268D02*
X29640234Y-15215791D01*
X29716425Y-15415791D02*
X29725949Y-15406268D01*
X29725949Y-15406268D02*
X29744996Y-15377696D01*
X29744996Y-15377696D02*
X29754520Y-15358649D01*
X29754520Y-15358649D02*
X29764044Y-15330077D01*
X29764044Y-15330077D02*
X29773568Y-15282458D01*
X29773568Y-15282458D02*
X29773568Y-15244363D01*
X29773568Y-15244363D02*
X29764044Y-15196744D01*
X29764044Y-15196744D02*
X29754520Y-15168172D01*
X29754520Y-15168172D02*
X29744996Y-15149125D01*
X29744996Y-15149125D02*
X29725949Y-15120553D01*
X29725949Y-15120553D02*
X29716425Y-15111030D01*
X22669933Y-15458117D02*
X22669933Y-15658117D01*
X22569933Y-15558117D02*
X22769933Y-15558117D01*
X23021186Y-15468649D02*
X23030710Y-15459125D01*
X23030710Y-15459125D02*
X23049757Y-15449601D01*
X23049757Y-15449601D02*
X23097377Y-15449601D01*
X23097377Y-15449601D02*
X23116424Y-15459125D01*
X23116424Y-15459125D02*
X23125948Y-15468649D01*
X23125948Y-15468649D02*
X23135472Y-15487696D01*
X23135472Y-15487696D02*
X23135472Y-15506744D01*
X23135472Y-15506744D02*
X23125948Y-15535315D01*
X23125948Y-15535315D02*
X23011662Y-15649601D01*
X23011662Y-15649601D02*
X23135472Y-15649601D01*
X23221186Y-15630553D02*
X23230710Y-15640077D01*
X23230710Y-15640077D02*
X23221186Y-15649601D01*
X23221186Y-15649601D02*
X23211662Y-15640077D01*
X23211662Y-15640077D02*
X23221186Y-15630553D01*
X23221186Y-15630553D02*
X23221186Y-15649601D01*
X23306900Y-15468649D02*
X23316424Y-15459125D01*
X23316424Y-15459125D02*
X23335472Y-15449601D01*
X23335472Y-15449601D02*
X23383091Y-15449601D01*
X23383091Y-15449601D02*
X23402138Y-15459125D01*
X23402138Y-15459125D02*
X23411662Y-15468649D01*
X23411662Y-15468649D02*
X23421186Y-15487696D01*
X23421186Y-15487696D02*
X23421186Y-15506744D01*
X23421186Y-15506744D02*
X23411662Y-15535315D01*
X23411662Y-15535315D02*
X23297377Y-15649601D01*
X23297377Y-15649601D02*
X23421186Y-15649601D01*
X23544996Y-15449601D02*
X23564043Y-15449601D01*
X23564043Y-15449601D02*
X23583091Y-15459125D01*
X23583091Y-15459125D02*
X23592615Y-15468649D01*
X23592615Y-15468649D02*
X23602138Y-15487696D01*
X23602138Y-15487696D02*
X23611662Y-15525791D01*
X23611662Y-15525791D02*
X23611662Y-15573411D01*
X23611662Y-15573411D02*
X23602138Y-15611506D01*
X23602138Y-15611506D02*
X23592615Y-15630553D01*
X23592615Y-15630553D02*
X23583091Y-15640077D01*
X23583091Y-15640077D02*
X23564043Y-15649601D01*
X23564043Y-15649601D02*
X23544996Y-15649601D01*
X23544996Y-15649601D02*
X23525948Y-15640077D01*
X23525948Y-15640077D02*
X23516424Y-15630553D01*
X23516424Y-15630553D02*
X23506900Y-15611506D01*
X23506900Y-15611506D02*
X23497377Y-15573411D01*
X23497377Y-15573411D02*
X23497377Y-15525791D01*
X23497377Y-15525791D02*
X23506900Y-15487696D01*
X23506900Y-15487696D02*
X23516424Y-15468649D01*
X23516424Y-15468649D02*
X23525948Y-15459125D01*
X23525948Y-15459125D02*
X23544996Y-15449601D01*
X23735472Y-15449601D02*
X23754519Y-15449601D01*
X23754519Y-15449601D02*
X23773567Y-15459125D01*
X23773567Y-15459125D02*
X23783091Y-15468649D01*
X23783091Y-15468649D02*
X23792615Y-15487696D01*
X23792615Y-15487696D02*
X23802138Y-15525791D01*
X23802138Y-15525791D02*
X23802138Y-15573411D01*
X23802138Y-15573411D02*
X23792615Y-15611506D01*
X23792615Y-15611506D02*
X23783091Y-15630553D01*
X23783091Y-15630553D02*
X23773567Y-15640077D01*
X23773567Y-15640077D02*
X23754519Y-15649601D01*
X23754519Y-15649601D02*
X23735472Y-15649601D01*
X23735472Y-15649601D02*
X23716424Y-15640077D01*
X23716424Y-15640077D02*
X23706900Y-15630553D01*
X23706900Y-15630553D02*
X23697377Y-15611506D01*
X23697377Y-15611506D02*
X23687853Y-15573411D01*
X23687853Y-15573411D02*
X23687853Y-15525791D01*
X23687853Y-15525791D02*
X23697377Y-15487696D01*
X23697377Y-15487696D02*
X23706900Y-15468649D01*
X23706900Y-15468649D02*
X23716424Y-15459125D01*
X23716424Y-15459125D02*
X23735472Y-15449601D01*
X23887853Y-15649601D02*
X23887853Y-15516268D01*
X23887853Y-15535315D02*
X23897377Y-15525791D01*
X23897377Y-15525791D02*
X23916424Y-15516268D01*
X23916424Y-15516268D02*
X23944996Y-15516268D01*
X23944996Y-15516268D02*
X23964043Y-15525791D01*
X23964043Y-15525791D02*
X23973567Y-15544839D01*
X23973567Y-15544839D02*
X23973567Y-15649601D01*
X23973567Y-15544839D02*
X23983091Y-15525791D01*
X23983091Y-15525791D02*
X24002138Y-15516268D01*
X24002138Y-15516268D02*
X24030710Y-15516268D01*
X24030710Y-15516268D02*
X24049758Y-15525791D01*
X24049758Y-15525791D02*
X24059281Y-15544839D01*
X24059281Y-15544839D02*
X24059281Y-15649601D01*
X24154519Y-15649601D02*
X24154519Y-15516268D01*
X24154519Y-15535315D02*
X24164043Y-15525791D01*
X24164043Y-15525791D02*
X24183091Y-15516268D01*
X24183091Y-15516268D02*
X24211662Y-15516268D01*
X24211662Y-15516268D02*
X24230710Y-15525791D01*
X24230710Y-15525791D02*
X24240234Y-15544839D01*
X24240234Y-15544839D02*
X24240234Y-15649601D01*
X24240234Y-15544839D02*
X24249758Y-15525791D01*
X24249758Y-15525791D02*
X24268805Y-15516268D01*
X24268805Y-15516268D02*
X24297377Y-15516268D01*
X24297377Y-15516268D02*
X24316424Y-15525791D01*
X24316424Y-15525791D02*
X24325948Y-15544839D01*
X24325948Y-15544839D02*
X24325948Y-15649601D01*
X24716424Y-15440077D02*
X24544996Y-15697220D01*
X24973567Y-15449601D02*
X24992615Y-15449601D01*
X24992615Y-15449601D02*
X25011662Y-15459125D01*
X25011662Y-15459125D02*
X25021186Y-15468649D01*
X25021186Y-15468649D02*
X25030710Y-15487696D01*
X25030710Y-15487696D02*
X25040234Y-15525791D01*
X25040234Y-15525791D02*
X25040234Y-15573411D01*
X25040234Y-15573411D02*
X25030710Y-15611506D01*
X25030710Y-15611506D02*
X25021186Y-15630553D01*
X25021186Y-15630553D02*
X25011662Y-15640077D01*
X25011662Y-15640077D02*
X24992615Y-15649601D01*
X24992615Y-15649601D02*
X24973567Y-15649601D01*
X24973567Y-15649601D02*
X24954520Y-15640077D01*
X24954520Y-15640077D02*
X24944996Y-15630553D01*
X24944996Y-15630553D02*
X24935472Y-15611506D01*
X24935472Y-15611506D02*
X24925948Y-15573411D01*
X24925948Y-15573411D02*
X24925948Y-15525791D01*
X24925948Y-15525791D02*
X24935472Y-15487696D01*
X24935472Y-15487696D02*
X24944996Y-15468649D01*
X24944996Y-15468649D02*
X24954520Y-15459125D01*
X24954520Y-15459125D02*
X24973567Y-15449601D01*
X25125948Y-15630553D02*
X25135472Y-15640077D01*
X25135472Y-15640077D02*
X25125948Y-15649601D01*
X25125948Y-15649601D02*
X25116424Y-15640077D01*
X25116424Y-15640077D02*
X25125948Y-15630553D01*
X25125948Y-15630553D02*
X25125948Y-15649601D01*
X25259281Y-15449601D02*
X25278329Y-15449601D01*
X25278329Y-15449601D02*
X25297377Y-15459125D01*
X25297377Y-15459125D02*
X25306901Y-15468649D01*
X25306901Y-15468649D02*
X25316424Y-15487696D01*
X25316424Y-15487696D02*
X25325948Y-15525791D01*
X25325948Y-15525791D02*
X25325948Y-15573411D01*
X25325948Y-15573411D02*
X25316424Y-15611506D01*
X25316424Y-15611506D02*
X25306901Y-15630553D01*
X25306901Y-15630553D02*
X25297377Y-15640077D01*
X25297377Y-15640077D02*
X25278329Y-15649601D01*
X25278329Y-15649601D02*
X25259281Y-15649601D01*
X25259281Y-15649601D02*
X25240234Y-15640077D01*
X25240234Y-15640077D02*
X25230710Y-15630553D01*
X25230710Y-15630553D02*
X25221186Y-15611506D01*
X25221186Y-15611506D02*
X25211662Y-15573411D01*
X25211662Y-15573411D02*
X25211662Y-15525791D01*
X25211662Y-15525791D02*
X25221186Y-15487696D01*
X25221186Y-15487696D02*
X25230710Y-15468649D01*
X25230710Y-15468649D02*
X25240234Y-15459125D01*
X25240234Y-15459125D02*
X25259281Y-15449601D01*
X25440234Y-15535315D02*
X25421186Y-15525791D01*
X25421186Y-15525791D02*
X25411662Y-15516268D01*
X25411662Y-15516268D02*
X25402139Y-15497220D01*
X25402139Y-15497220D02*
X25402139Y-15487696D01*
X25402139Y-15487696D02*
X25411662Y-15468649D01*
X25411662Y-15468649D02*
X25421186Y-15459125D01*
X25421186Y-15459125D02*
X25440234Y-15449601D01*
X25440234Y-15449601D02*
X25478329Y-15449601D01*
X25478329Y-15449601D02*
X25497377Y-15459125D01*
X25497377Y-15459125D02*
X25506901Y-15468649D01*
X25506901Y-15468649D02*
X25516424Y-15487696D01*
X25516424Y-15487696D02*
X25516424Y-15497220D01*
X25516424Y-15497220D02*
X25506901Y-15516268D01*
X25506901Y-15516268D02*
X25497377Y-15525791D01*
X25497377Y-15525791D02*
X25478329Y-15535315D01*
X25478329Y-15535315D02*
X25440234Y-15535315D01*
X25440234Y-15535315D02*
X25421186Y-15544839D01*
X25421186Y-15544839D02*
X25411662Y-15554363D01*
X25411662Y-15554363D02*
X25402139Y-15573411D01*
X25402139Y-15573411D02*
X25402139Y-15611506D01*
X25402139Y-15611506D02*
X25411662Y-15630553D01*
X25411662Y-15630553D02*
X25421186Y-15640077D01*
X25421186Y-15640077D02*
X25440234Y-15649601D01*
X25440234Y-15649601D02*
X25478329Y-15649601D01*
X25478329Y-15649601D02*
X25497377Y-15640077D01*
X25497377Y-15640077D02*
X25506901Y-15630553D01*
X25506901Y-15630553D02*
X25516424Y-15611506D01*
X25516424Y-15611506D02*
X25516424Y-15573411D01*
X25516424Y-15573411D02*
X25506901Y-15554363D01*
X25506901Y-15554363D02*
X25497377Y-15544839D01*
X25497377Y-15544839D02*
X25478329Y-15535315D01*
X25687853Y-15449601D02*
X25649758Y-15449601D01*
X25649758Y-15449601D02*
X25630710Y-15459125D01*
X25630710Y-15459125D02*
X25621186Y-15468649D01*
X25621186Y-15468649D02*
X25602139Y-15497220D01*
X25602139Y-15497220D02*
X25592615Y-15535315D01*
X25592615Y-15535315D02*
X25592615Y-15611506D01*
X25592615Y-15611506D02*
X25602139Y-15630553D01*
X25602139Y-15630553D02*
X25611662Y-15640077D01*
X25611662Y-15640077D02*
X25630710Y-15649601D01*
X25630710Y-15649601D02*
X25668805Y-15649601D01*
X25668805Y-15649601D02*
X25687853Y-15640077D01*
X25687853Y-15640077D02*
X25697377Y-15630553D01*
X25697377Y-15630553D02*
X25706901Y-15611506D01*
X25706901Y-15611506D02*
X25706901Y-15563887D01*
X25706901Y-15563887D02*
X25697377Y-15544839D01*
X25697377Y-15544839D02*
X25687853Y-15535315D01*
X25687853Y-15535315D02*
X25668805Y-15525791D01*
X25668805Y-15525791D02*
X25630710Y-15525791D01*
X25630710Y-15525791D02*
X25611662Y-15535315D01*
X25611662Y-15535315D02*
X25602139Y-15544839D01*
X25602139Y-15544839D02*
X25592615Y-15563887D01*
X25878329Y-15449601D02*
X25840234Y-15449601D01*
X25840234Y-15449601D02*
X25821186Y-15459125D01*
X25821186Y-15459125D02*
X25811662Y-15468649D01*
X25811662Y-15468649D02*
X25792615Y-15497220D01*
X25792615Y-15497220D02*
X25783091Y-15535315D01*
X25783091Y-15535315D02*
X25783091Y-15611506D01*
X25783091Y-15611506D02*
X25792615Y-15630553D01*
X25792615Y-15630553D02*
X25802139Y-15640077D01*
X25802139Y-15640077D02*
X25821186Y-15649601D01*
X25821186Y-15649601D02*
X25859282Y-15649601D01*
X25859282Y-15649601D02*
X25878329Y-15640077D01*
X25878329Y-15640077D02*
X25887853Y-15630553D01*
X25887853Y-15630553D02*
X25897377Y-15611506D01*
X25897377Y-15611506D02*
X25897377Y-15563887D01*
X25897377Y-15563887D02*
X25887853Y-15544839D01*
X25887853Y-15544839D02*
X25878329Y-15535315D01*
X25878329Y-15535315D02*
X25859282Y-15525791D01*
X25859282Y-15525791D02*
X25821186Y-15525791D01*
X25821186Y-15525791D02*
X25802139Y-15535315D01*
X25802139Y-15535315D02*
X25792615Y-15544839D01*
X25792615Y-15544839D02*
X25783091Y-15563887D01*
X25973567Y-15449601D02*
X25973567Y-15487696D01*
X26049758Y-15449601D02*
X26049758Y-15487696D01*
X26344996Y-15725791D02*
X26335472Y-15716268D01*
X26335472Y-15716268D02*
X26316424Y-15687696D01*
X26316424Y-15687696D02*
X26306901Y-15668649D01*
X26306901Y-15668649D02*
X26297377Y-15640077D01*
X26297377Y-15640077D02*
X26287853Y-15592458D01*
X26287853Y-15592458D02*
X26287853Y-15554363D01*
X26287853Y-15554363D02*
X26297377Y-15506744D01*
X26297377Y-15506744D02*
X26306901Y-15478172D01*
X26306901Y-15478172D02*
X26316424Y-15459125D01*
X26316424Y-15459125D02*
X26335472Y-15430553D01*
X26335472Y-15430553D02*
X26344996Y-15421030D01*
X26506901Y-15516268D02*
X26506901Y-15649601D01*
X26459282Y-15440077D02*
X26411663Y-15582934D01*
X26411663Y-15582934D02*
X26535472Y-15582934D01*
X26764044Y-15649601D02*
X26764044Y-15449601D01*
X26849758Y-15649601D02*
X26849758Y-15544839D01*
X26849758Y-15544839D02*
X26840234Y-15525791D01*
X26840234Y-15525791D02*
X26821186Y-15516268D01*
X26821186Y-15516268D02*
X26792615Y-15516268D01*
X26792615Y-15516268D02*
X26773567Y-15525791D01*
X26773567Y-15525791D02*
X26764044Y-15535315D01*
X26973567Y-15649601D02*
X26954520Y-15640077D01*
X26954520Y-15640077D02*
X26944996Y-15630553D01*
X26944996Y-15630553D02*
X26935472Y-15611506D01*
X26935472Y-15611506D02*
X26935472Y-15554363D01*
X26935472Y-15554363D02*
X26944996Y-15535315D01*
X26944996Y-15535315D02*
X26954520Y-15525791D01*
X26954520Y-15525791D02*
X26973567Y-15516268D01*
X26973567Y-15516268D02*
X27002139Y-15516268D01*
X27002139Y-15516268D02*
X27021186Y-15525791D01*
X27021186Y-15525791D02*
X27030710Y-15535315D01*
X27030710Y-15535315D02*
X27040234Y-15554363D01*
X27040234Y-15554363D02*
X27040234Y-15611506D01*
X27040234Y-15611506D02*
X27030710Y-15630553D01*
X27030710Y-15630553D02*
X27021186Y-15640077D01*
X27021186Y-15640077D02*
X27002139Y-15649601D01*
X27002139Y-15649601D02*
X26973567Y-15649601D01*
X27154520Y-15649601D02*
X27135472Y-15640077D01*
X27135472Y-15640077D02*
X27125948Y-15621030D01*
X27125948Y-15621030D02*
X27125948Y-15449601D01*
X27306901Y-15640077D02*
X27287853Y-15649601D01*
X27287853Y-15649601D02*
X27249758Y-15649601D01*
X27249758Y-15649601D02*
X27230710Y-15640077D01*
X27230710Y-15640077D02*
X27221186Y-15621030D01*
X27221186Y-15621030D02*
X27221186Y-15544839D01*
X27221186Y-15544839D02*
X27230710Y-15525791D01*
X27230710Y-15525791D02*
X27249758Y-15516268D01*
X27249758Y-15516268D02*
X27287853Y-15516268D01*
X27287853Y-15516268D02*
X27306901Y-15525791D01*
X27306901Y-15525791D02*
X27316425Y-15544839D01*
X27316425Y-15544839D02*
X27316425Y-15563887D01*
X27316425Y-15563887D02*
X27221186Y-15582934D01*
X27392615Y-15640077D02*
X27411663Y-15649601D01*
X27411663Y-15649601D02*
X27449758Y-15649601D01*
X27449758Y-15649601D02*
X27468806Y-15640077D01*
X27468806Y-15640077D02*
X27478329Y-15621030D01*
X27478329Y-15621030D02*
X27478329Y-15611506D01*
X27478329Y-15611506D02*
X27468806Y-15592458D01*
X27468806Y-15592458D02*
X27449758Y-15582934D01*
X27449758Y-15582934D02*
X27421186Y-15582934D01*
X27421186Y-15582934D02*
X27402139Y-15573411D01*
X27402139Y-15573411D02*
X27392615Y-15554363D01*
X27392615Y-15554363D02*
X27392615Y-15544839D01*
X27392615Y-15544839D02*
X27402139Y-15525791D01*
X27402139Y-15525791D02*
X27421186Y-15516268D01*
X27421186Y-15516268D02*
X27449758Y-15516268D01*
X27449758Y-15516268D02*
X27468806Y-15525791D01*
X27544996Y-15725791D02*
X27554520Y-15716268D01*
X27554520Y-15716268D02*
X27573567Y-15687696D01*
X27573567Y-15687696D02*
X27583091Y-15668649D01*
X27583091Y-15668649D02*
X27592615Y-15640077D01*
X27592615Y-15640077D02*
X27602139Y-15592458D01*
X27602139Y-15592458D02*
X27602139Y-15554363D01*
X27602139Y-15554363D02*
X27592615Y-15506744D01*
X27592615Y-15506744D02*
X27583091Y-15478172D01*
X27583091Y-15478172D02*
X27573567Y-15459125D01*
X27573567Y-15459125D02*
X27554520Y-15430553D01*
X27554520Y-15430553D02*
X27544996Y-15421030D01*
X27906901Y-15725791D02*
X27897377Y-15716268D01*
X27897377Y-15716268D02*
X27878329Y-15687696D01*
X27878329Y-15687696D02*
X27868806Y-15668649D01*
X27868806Y-15668649D02*
X27859282Y-15640077D01*
X27859282Y-15640077D02*
X27849758Y-15592458D01*
X27849758Y-15592458D02*
X27849758Y-15554363D01*
X27849758Y-15554363D02*
X27859282Y-15506744D01*
X27859282Y-15506744D02*
X27868806Y-15478172D01*
X27868806Y-15478172D02*
X27878329Y-15459125D01*
X27878329Y-15459125D02*
X27897377Y-15430553D01*
X27897377Y-15430553D02*
X27906901Y-15421030D01*
X27983091Y-15516268D02*
X27983091Y-15649601D01*
X27983091Y-15535315D02*
X27992615Y-15525791D01*
X27992615Y-15525791D02*
X28011663Y-15516268D01*
X28011663Y-15516268D02*
X28040234Y-15516268D01*
X28040234Y-15516268D02*
X28059282Y-15525791D01*
X28059282Y-15525791D02*
X28068806Y-15544839D01*
X28068806Y-15544839D02*
X28068806Y-15649601D01*
X28192615Y-15649601D02*
X28173567Y-15640077D01*
X28173567Y-15640077D02*
X28164044Y-15630553D01*
X28164044Y-15630553D02*
X28154520Y-15611506D01*
X28154520Y-15611506D02*
X28154520Y-15554363D01*
X28154520Y-15554363D02*
X28164044Y-15535315D01*
X28164044Y-15535315D02*
X28173567Y-15525791D01*
X28173567Y-15525791D02*
X28192615Y-15516268D01*
X28192615Y-15516268D02*
X28221187Y-15516268D01*
X28221187Y-15516268D02*
X28240234Y-15525791D01*
X28240234Y-15525791D02*
X28249758Y-15535315D01*
X28249758Y-15535315D02*
X28259282Y-15554363D01*
X28259282Y-15554363D02*
X28259282Y-15611506D01*
X28259282Y-15611506D02*
X28249758Y-15630553D01*
X28249758Y-15630553D02*
X28240234Y-15640077D01*
X28240234Y-15640077D02*
X28221187Y-15649601D01*
X28221187Y-15649601D02*
X28192615Y-15649601D01*
X28316425Y-15516268D02*
X28392615Y-15516268D01*
X28344996Y-15449601D02*
X28344996Y-15621030D01*
X28344996Y-15621030D02*
X28354520Y-15640077D01*
X28354520Y-15640077D02*
X28373567Y-15649601D01*
X28373567Y-15649601D02*
X28392615Y-15649601D01*
X28611663Y-15516268D02*
X28611663Y-15716268D01*
X28611663Y-15525791D02*
X28630710Y-15516268D01*
X28630710Y-15516268D02*
X28668806Y-15516268D01*
X28668806Y-15516268D02*
X28687853Y-15525791D01*
X28687853Y-15525791D02*
X28697377Y-15535315D01*
X28697377Y-15535315D02*
X28706901Y-15554363D01*
X28706901Y-15554363D02*
X28706901Y-15611506D01*
X28706901Y-15611506D02*
X28697377Y-15630553D01*
X28697377Y-15630553D02*
X28687853Y-15640077D01*
X28687853Y-15640077D02*
X28668806Y-15649601D01*
X28668806Y-15649601D02*
X28630710Y-15649601D01*
X28630710Y-15649601D02*
X28611663Y-15640077D01*
X28821187Y-15649601D02*
X28802139Y-15640077D01*
X28802139Y-15640077D02*
X28792615Y-15621030D01*
X28792615Y-15621030D02*
X28792615Y-15449601D01*
X28983091Y-15649601D02*
X28983091Y-15544839D01*
X28983091Y-15544839D02*
X28973568Y-15525791D01*
X28973568Y-15525791D02*
X28954520Y-15516268D01*
X28954520Y-15516268D02*
X28916425Y-15516268D01*
X28916425Y-15516268D02*
X28897377Y-15525791D01*
X28983091Y-15640077D02*
X28964044Y-15649601D01*
X28964044Y-15649601D02*
X28916425Y-15649601D01*
X28916425Y-15649601D02*
X28897377Y-15640077D01*
X28897377Y-15640077D02*
X28887853Y-15621030D01*
X28887853Y-15621030D02*
X28887853Y-15601982D01*
X28887853Y-15601982D02*
X28897377Y-15582934D01*
X28897377Y-15582934D02*
X28916425Y-15573411D01*
X28916425Y-15573411D02*
X28964044Y-15573411D01*
X28964044Y-15573411D02*
X28983091Y-15563887D01*
X29049758Y-15516268D02*
X29125948Y-15516268D01*
X29078329Y-15449601D02*
X29078329Y-15621030D01*
X29078329Y-15621030D02*
X29087853Y-15640077D01*
X29087853Y-15640077D02*
X29106901Y-15649601D01*
X29106901Y-15649601D02*
X29125948Y-15649601D01*
X29268806Y-15640077D02*
X29249758Y-15649601D01*
X29249758Y-15649601D02*
X29211663Y-15649601D01*
X29211663Y-15649601D02*
X29192615Y-15640077D01*
X29192615Y-15640077D02*
X29183091Y-15621030D01*
X29183091Y-15621030D02*
X29183091Y-15544839D01*
X29183091Y-15544839D02*
X29192615Y-15525791D01*
X29192615Y-15525791D02*
X29211663Y-15516268D01*
X29211663Y-15516268D02*
X29249758Y-15516268D01*
X29249758Y-15516268D02*
X29268806Y-15525791D01*
X29268806Y-15525791D02*
X29278329Y-15544839D01*
X29278329Y-15544839D02*
X29278329Y-15563887D01*
X29278329Y-15563887D02*
X29183091Y-15582934D01*
X29449758Y-15649601D02*
X29449758Y-15449601D01*
X29449758Y-15640077D02*
X29430710Y-15649601D01*
X29430710Y-15649601D02*
X29392615Y-15649601D01*
X29392615Y-15649601D02*
X29373568Y-15640077D01*
X29373568Y-15640077D02*
X29364044Y-15630553D01*
X29364044Y-15630553D02*
X29354520Y-15611506D01*
X29354520Y-15611506D02*
X29354520Y-15554363D01*
X29354520Y-15554363D02*
X29364044Y-15535315D01*
X29364044Y-15535315D02*
X29373568Y-15525791D01*
X29373568Y-15525791D02*
X29392615Y-15516268D01*
X29392615Y-15516268D02*
X29430710Y-15516268D01*
X29430710Y-15516268D02*
X29449758Y-15525791D01*
X29525949Y-15725791D02*
X29535472Y-15716268D01*
X29535472Y-15716268D02*
X29554520Y-15687696D01*
X29554520Y-15687696D02*
X29564044Y-15668649D01*
X29564044Y-15668649D02*
X29573568Y-15640077D01*
X29573568Y-15640077D02*
X29583091Y-15592458D01*
X29583091Y-15592458D02*
X29583091Y-15554363D01*
X29583091Y-15554363D02*
X29573568Y-15506744D01*
X29573568Y-15506744D02*
X29564044Y-15478172D01*
X29564044Y-15478172D02*
X29554520Y-15459125D01*
X29554520Y-15459125D02*
X29535472Y-15430553D01*
X29535472Y-15430553D02*
X29525949Y-15421030D01*
X22740644Y-15948829D02*
X22740644Y-15807406D01*
X22599222Y-15807406D01*
X22599222Y-15948829D01*
X22740644Y-15948829D01*
X23011662Y-15769601D02*
X23135472Y-15769601D01*
X23135472Y-15769601D02*
X23068805Y-15845791D01*
X23068805Y-15845791D02*
X23097377Y-15845791D01*
X23097377Y-15845791D02*
X23116424Y-15855315D01*
X23116424Y-15855315D02*
X23125948Y-15864839D01*
X23125948Y-15864839D02*
X23135472Y-15883887D01*
X23135472Y-15883887D02*
X23135472Y-15931506D01*
X23135472Y-15931506D02*
X23125948Y-15950553D01*
X23125948Y-15950553D02*
X23116424Y-15960077D01*
X23116424Y-15960077D02*
X23097377Y-15969601D01*
X23097377Y-15969601D02*
X23040234Y-15969601D01*
X23040234Y-15969601D02*
X23021186Y-15960077D01*
X23021186Y-15960077D02*
X23011662Y-15950553D01*
X23221186Y-15950553D02*
X23230710Y-15960077D01*
X23230710Y-15960077D02*
X23221186Y-15969601D01*
X23221186Y-15969601D02*
X23211662Y-15960077D01*
X23211662Y-15960077D02*
X23221186Y-15950553D01*
X23221186Y-15950553D02*
X23221186Y-15969601D01*
X23354519Y-15769601D02*
X23373567Y-15769601D01*
X23373567Y-15769601D02*
X23392615Y-15779125D01*
X23392615Y-15779125D02*
X23402138Y-15788649D01*
X23402138Y-15788649D02*
X23411662Y-15807696D01*
X23411662Y-15807696D02*
X23421186Y-15845791D01*
X23421186Y-15845791D02*
X23421186Y-15893411D01*
X23421186Y-15893411D02*
X23411662Y-15931506D01*
X23411662Y-15931506D02*
X23402138Y-15950553D01*
X23402138Y-15950553D02*
X23392615Y-15960077D01*
X23392615Y-15960077D02*
X23373567Y-15969601D01*
X23373567Y-15969601D02*
X23354519Y-15969601D01*
X23354519Y-15969601D02*
X23335472Y-15960077D01*
X23335472Y-15960077D02*
X23325948Y-15950553D01*
X23325948Y-15950553D02*
X23316424Y-15931506D01*
X23316424Y-15931506D02*
X23306900Y-15893411D01*
X23306900Y-15893411D02*
X23306900Y-15845791D01*
X23306900Y-15845791D02*
X23316424Y-15807696D01*
X23316424Y-15807696D02*
X23325948Y-15788649D01*
X23325948Y-15788649D02*
X23335472Y-15779125D01*
X23335472Y-15779125D02*
X23354519Y-15769601D01*
X23544996Y-15769601D02*
X23564043Y-15769601D01*
X23564043Y-15769601D02*
X23583091Y-15779125D01*
X23583091Y-15779125D02*
X23592615Y-15788649D01*
X23592615Y-15788649D02*
X23602138Y-15807696D01*
X23602138Y-15807696D02*
X23611662Y-15845791D01*
X23611662Y-15845791D02*
X23611662Y-15893411D01*
X23611662Y-15893411D02*
X23602138Y-15931506D01*
X23602138Y-15931506D02*
X23592615Y-15950553D01*
X23592615Y-15950553D02*
X23583091Y-15960077D01*
X23583091Y-15960077D02*
X23564043Y-15969601D01*
X23564043Y-15969601D02*
X23544996Y-15969601D01*
X23544996Y-15969601D02*
X23525948Y-15960077D01*
X23525948Y-15960077D02*
X23516424Y-15950553D01*
X23516424Y-15950553D02*
X23506900Y-15931506D01*
X23506900Y-15931506D02*
X23497377Y-15893411D01*
X23497377Y-15893411D02*
X23497377Y-15845791D01*
X23497377Y-15845791D02*
X23506900Y-15807696D01*
X23506900Y-15807696D02*
X23516424Y-15788649D01*
X23516424Y-15788649D02*
X23525948Y-15779125D01*
X23525948Y-15779125D02*
X23544996Y-15769601D01*
X23735472Y-15769601D02*
X23754519Y-15769601D01*
X23754519Y-15769601D02*
X23773567Y-15779125D01*
X23773567Y-15779125D02*
X23783091Y-15788649D01*
X23783091Y-15788649D02*
X23792615Y-15807696D01*
X23792615Y-15807696D02*
X23802138Y-15845791D01*
X23802138Y-15845791D02*
X23802138Y-15893411D01*
X23802138Y-15893411D02*
X23792615Y-15931506D01*
X23792615Y-15931506D02*
X23783091Y-15950553D01*
X23783091Y-15950553D02*
X23773567Y-15960077D01*
X23773567Y-15960077D02*
X23754519Y-15969601D01*
X23754519Y-15969601D02*
X23735472Y-15969601D01*
X23735472Y-15969601D02*
X23716424Y-15960077D01*
X23716424Y-15960077D02*
X23706900Y-15950553D01*
X23706900Y-15950553D02*
X23697377Y-15931506D01*
X23697377Y-15931506D02*
X23687853Y-15893411D01*
X23687853Y-15893411D02*
X23687853Y-15845791D01*
X23687853Y-15845791D02*
X23697377Y-15807696D01*
X23697377Y-15807696D02*
X23706900Y-15788649D01*
X23706900Y-15788649D02*
X23716424Y-15779125D01*
X23716424Y-15779125D02*
X23735472Y-15769601D01*
X23887853Y-15969601D02*
X23887853Y-15836268D01*
X23887853Y-15855315D02*
X23897377Y-15845791D01*
X23897377Y-15845791D02*
X23916424Y-15836268D01*
X23916424Y-15836268D02*
X23944996Y-15836268D01*
X23944996Y-15836268D02*
X23964043Y-15845791D01*
X23964043Y-15845791D02*
X23973567Y-15864839D01*
X23973567Y-15864839D02*
X23973567Y-15969601D01*
X23973567Y-15864839D02*
X23983091Y-15845791D01*
X23983091Y-15845791D02*
X24002138Y-15836268D01*
X24002138Y-15836268D02*
X24030710Y-15836268D01*
X24030710Y-15836268D02*
X24049758Y-15845791D01*
X24049758Y-15845791D02*
X24059281Y-15864839D01*
X24059281Y-15864839D02*
X24059281Y-15969601D01*
X24154519Y-15969601D02*
X24154519Y-15836268D01*
X24154519Y-15855315D02*
X24164043Y-15845791D01*
X24164043Y-15845791D02*
X24183091Y-15836268D01*
X24183091Y-15836268D02*
X24211662Y-15836268D01*
X24211662Y-15836268D02*
X24230710Y-15845791D01*
X24230710Y-15845791D02*
X24240234Y-15864839D01*
X24240234Y-15864839D02*
X24240234Y-15969601D01*
X24240234Y-15864839D02*
X24249758Y-15845791D01*
X24249758Y-15845791D02*
X24268805Y-15836268D01*
X24268805Y-15836268D02*
X24297377Y-15836268D01*
X24297377Y-15836268D02*
X24316424Y-15845791D01*
X24316424Y-15845791D02*
X24325948Y-15864839D01*
X24325948Y-15864839D02*
X24325948Y-15969601D01*
X24716424Y-15760077D02*
X24544996Y-16017220D01*
X24973567Y-15769601D02*
X24992615Y-15769601D01*
X24992615Y-15769601D02*
X25011662Y-15779125D01*
X25011662Y-15779125D02*
X25021186Y-15788649D01*
X25021186Y-15788649D02*
X25030710Y-15807696D01*
X25030710Y-15807696D02*
X25040234Y-15845791D01*
X25040234Y-15845791D02*
X25040234Y-15893411D01*
X25040234Y-15893411D02*
X25030710Y-15931506D01*
X25030710Y-15931506D02*
X25021186Y-15950553D01*
X25021186Y-15950553D02*
X25011662Y-15960077D01*
X25011662Y-15960077D02*
X24992615Y-15969601D01*
X24992615Y-15969601D02*
X24973567Y-15969601D01*
X24973567Y-15969601D02*
X24954520Y-15960077D01*
X24954520Y-15960077D02*
X24944996Y-15950553D01*
X24944996Y-15950553D02*
X24935472Y-15931506D01*
X24935472Y-15931506D02*
X24925948Y-15893411D01*
X24925948Y-15893411D02*
X24925948Y-15845791D01*
X24925948Y-15845791D02*
X24935472Y-15807696D01*
X24935472Y-15807696D02*
X24944996Y-15788649D01*
X24944996Y-15788649D02*
X24954520Y-15779125D01*
X24954520Y-15779125D02*
X24973567Y-15769601D01*
X25125948Y-15950553D02*
X25135472Y-15960077D01*
X25135472Y-15960077D02*
X25125948Y-15969601D01*
X25125948Y-15969601D02*
X25116424Y-15960077D01*
X25116424Y-15960077D02*
X25125948Y-15950553D01*
X25125948Y-15950553D02*
X25125948Y-15969601D01*
X25325948Y-15969601D02*
X25211662Y-15969601D01*
X25268805Y-15969601D02*
X25268805Y-15769601D01*
X25268805Y-15769601D02*
X25249758Y-15798172D01*
X25249758Y-15798172D02*
X25230710Y-15817220D01*
X25230710Y-15817220D02*
X25211662Y-15826744D01*
X25516424Y-15969601D02*
X25402139Y-15969601D01*
X25459281Y-15969601D02*
X25459281Y-15769601D01*
X25459281Y-15769601D02*
X25440234Y-15798172D01*
X25440234Y-15798172D02*
X25421186Y-15817220D01*
X25421186Y-15817220D02*
X25402139Y-15826744D01*
X25630710Y-15855315D02*
X25611662Y-15845791D01*
X25611662Y-15845791D02*
X25602139Y-15836268D01*
X25602139Y-15836268D02*
X25592615Y-15817220D01*
X25592615Y-15817220D02*
X25592615Y-15807696D01*
X25592615Y-15807696D02*
X25602139Y-15788649D01*
X25602139Y-15788649D02*
X25611662Y-15779125D01*
X25611662Y-15779125D02*
X25630710Y-15769601D01*
X25630710Y-15769601D02*
X25668805Y-15769601D01*
X25668805Y-15769601D02*
X25687853Y-15779125D01*
X25687853Y-15779125D02*
X25697377Y-15788649D01*
X25697377Y-15788649D02*
X25706901Y-15807696D01*
X25706901Y-15807696D02*
X25706901Y-15817220D01*
X25706901Y-15817220D02*
X25697377Y-15836268D01*
X25697377Y-15836268D02*
X25687853Y-15845791D01*
X25687853Y-15845791D02*
X25668805Y-15855315D01*
X25668805Y-15855315D02*
X25630710Y-15855315D01*
X25630710Y-15855315D02*
X25611662Y-15864839D01*
X25611662Y-15864839D02*
X25602139Y-15874363D01*
X25602139Y-15874363D02*
X25592615Y-15893411D01*
X25592615Y-15893411D02*
X25592615Y-15931506D01*
X25592615Y-15931506D02*
X25602139Y-15950553D01*
X25602139Y-15950553D02*
X25611662Y-15960077D01*
X25611662Y-15960077D02*
X25630710Y-15969601D01*
X25630710Y-15969601D02*
X25668805Y-15969601D01*
X25668805Y-15969601D02*
X25687853Y-15960077D01*
X25687853Y-15960077D02*
X25697377Y-15950553D01*
X25697377Y-15950553D02*
X25706901Y-15931506D01*
X25706901Y-15931506D02*
X25706901Y-15893411D01*
X25706901Y-15893411D02*
X25697377Y-15874363D01*
X25697377Y-15874363D02*
X25687853Y-15864839D01*
X25687853Y-15864839D02*
X25668805Y-15855315D01*
X25897377Y-15969601D02*
X25783091Y-15969601D01*
X25840234Y-15969601D02*
X25840234Y-15769601D01*
X25840234Y-15769601D02*
X25821186Y-15798172D01*
X25821186Y-15798172D02*
X25802139Y-15817220D01*
X25802139Y-15817220D02*
X25783091Y-15826744D01*
X25973567Y-15769601D02*
X25973567Y-15807696D01*
X26049758Y-15769601D02*
X26049758Y-15807696D01*
X26344996Y-16045791D02*
X26335472Y-16036268D01*
X26335472Y-16036268D02*
X26316424Y-16007696D01*
X26316424Y-16007696D02*
X26306901Y-15988649D01*
X26306901Y-15988649D02*
X26297377Y-15960077D01*
X26297377Y-15960077D02*
X26287853Y-15912458D01*
X26287853Y-15912458D02*
X26287853Y-15874363D01*
X26287853Y-15874363D02*
X26297377Y-15826744D01*
X26297377Y-15826744D02*
X26306901Y-15798172D01*
X26306901Y-15798172D02*
X26316424Y-15779125D01*
X26316424Y-15779125D02*
X26335472Y-15750553D01*
X26335472Y-15750553D02*
X26344996Y-15741030D01*
X26506901Y-15836268D02*
X26506901Y-15969601D01*
X26459282Y-15760077D02*
X26411663Y-15902934D01*
X26411663Y-15902934D02*
X26535472Y-15902934D01*
X26697377Y-15836268D02*
X26697377Y-15969601D01*
X26649758Y-15760077D02*
X26602139Y-15902934D01*
X26602139Y-15902934D02*
X26725948Y-15902934D01*
X26954520Y-15969601D02*
X26954520Y-15769601D01*
X27040234Y-15969601D02*
X27040234Y-15864839D01*
X27040234Y-15864839D02*
X27030710Y-15845791D01*
X27030710Y-15845791D02*
X27011663Y-15836268D01*
X27011663Y-15836268D02*
X26983091Y-15836268D01*
X26983091Y-15836268D02*
X26964044Y-15845791D01*
X26964044Y-15845791D02*
X26954520Y-15855315D01*
X27164044Y-15969601D02*
X27144996Y-15960077D01*
X27144996Y-15960077D02*
X27135472Y-15950553D01*
X27135472Y-15950553D02*
X27125948Y-15931506D01*
X27125948Y-15931506D02*
X27125948Y-15874363D01*
X27125948Y-15874363D02*
X27135472Y-15855315D01*
X27135472Y-15855315D02*
X27144996Y-15845791D01*
X27144996Y-15845791D02*
X27164044Y-15836268D01*
X27164044Y-15836268D02*
X27192615Y-15836268D01*
X27192615Y-15836268D02*
X27211663Y-15845791D01*
X27211663Y-15845791D02*
X27221186Y-15855315D01*
X27221186Y-15855315D02*
X27230710Y-15874363D01*
X27230710Y-15874363D02*
X27230710Y-15931506D01*
X27230710Y-15931506D02*
X27221186Y-15950553D01*
X27221186Y-15950553D02*
X27211663Y-15960077D01*
X27211663Y-15960077D02*
X27192615Y-15969601D01*
X27192615Y-15969601D02*
X27164044Y-15969601D01*
X27344996Y-15969601D02*
X27325948Y-15960077D01*
X27325948Y-15960077D02*
X27316425Y-15941030D01*
X27316425Y-15941030D02*
X27316425Y-15769601D01*
X27497377Y-15960077D02*
X27478329Y-15969601D01*
X27478329Y-15969601D02*
X27440234Y-15969601D01*
X27440234Y-15969601D02*
X27421186Y-15960077D01*
X27421186Y-15960077D02*
X27411663Y-15941030D01*
X27411663Y-15941030D02*
X27411663Y-15864839D01*
X27411663Y-15864839D02*
X27421186Y-15845791D01*
X27421186Y-15845791D02*
X27440234Y-15836268D01*
X27440234Y-15836268D02*
X27478329Y-15836268D01*
X27478329Y-15836268D02*
X27497377Y-15845791D01*
X27497377Y-15845791D02*
X27506901Y-15864839D01*
X27506901Y-15864839D02*
X27506901Y-15883887D01*
X27506901Y-15883887D02*
X27411663Y-15902934D01*
X27583091Y-15960077D02*
X27602139Y-15969601D01*
X27602139Y-15969601D02*
X27640234Y-15969601D01*
X27640234Y-15969601D02*
X27659282Y-15960077D01*
X27659282Y-15960077D02*
X27668806Y-15941030D01*
X27668806Y-15941030D02*
X27668806Y-15931506D01*
X27668806Y-15931506D02*
X27659282Y-15912458D01*
X27659282Y-15912458D02*
X27640234Y-15902934D01*
X27640234Y-15902934D02*
X27611663Y-15902934D01*
X27611663Y-15902934D02*
X27592615Y-15893411D01*
X27592615Y-15893411D02*
X27583091Y-15874363D01*
X27583091Y-15874363D02*
X27583091Y-15864839D01*
X27583091Y-15864839D02*
X27592615Y-15845791D01*
X27592615Y-15845791D02*
X27611663Y-15836268D01*
X27611663Y-15836268D02*
X27640234Y-15836268D01*
X27640234Y-15836268D02*
X27659282Y-15845791D01*
X27735472Y-16045791D02*
X27744996Y-16036268D01*
X27744996Y-16036268D02*
X27764044Y-16007696D01*
X27764044Y-16007696D02*
X27773567Y-15988649D01*
X27773567Y-15988649D02*
X27783091Y-15960077D01*
X27783091Y-15960077D02*
X27792615Y-15912458D01*
X27792615Y-15912458D02*
X27792615Y-15874363D01*
X27792615Y-15874363D02*
X27783091Y-15826744D01*
X27783091Y-15826744D02*
X27773567Y-15798172D01*
X27773567Y-15798172D02*
X27764044Y-15779125D01*
X27764044Y-15779125D02*
X27744996Y-15750553D01*
X27744996Y-15750553D02*
X27735472Y-15741030D01*
X28097377Y-16045791D02*
X28087853Y-16036268D01*
X28087853Y-16036268D02*
X28068806Y-16007696D01*
X28068806Y-16007696D02*
X28059282Y-15988649D01*
X28059282Y-15988649D02*
X28049758Y-15960077D01*
X28049758Y-15960077D02*
X28040234Y-15912458D01*
X28040234Y-15912458D02*
X28040234Y-15874363D01*
X28040234Y-15874363D02*
X28049758Y-15826744D01*
X28049758Y-15826744D02*
X28059282Y-15798172D01*
X28059282Y-15798172D02*
X28068806Y-15779125D01*
X28068806Y-15779125D02*
X28087853Y-15750553D01*
X28087853Y-15750553D02*
X28097377Y-15741030D01*
X28173567Y-15836268D02*
X28173567Y-15969601D01*
X28173567Y-15855315D02*
X28183091Y-15845791D01*
X28183091Y-15845791D02*
X28202139Y-15836268D01*
X28202139Y-15836268D02*
X28230710Y-15836268D01*
X28230710Y-15836268D02*
X28249758Y-15845791D01*
X28249758Y-15845791D02*
X28259282Y-15864839D01*
X28259282Y-15864839D02*
X28259282Y-15969601D01*
X28383091Y-15969601D02*
X28364044Y-15960077D01*
X28364044Y-15960077D02*
X28354520Y-15950553D01*
X28354520Y-15950553D02*
X28344996Y-15931506D01*
X28344996Y-15931506D02*
X28344996Y-15874363D01*
X28344996Y-15874363D02*
X28354520Y-15855315D01*
X28354520Y-15855315D02*
X28364044Y-15845791D01*
X28364044Y-15845791D02*
X28383091Y-15836268D01*
X28383091Y-15836268D02*
X28411663Y-15836268D01*
X28411663Y-15836268D02*
X28430710Y-15845791D01*
X28430710Y-15845791D02*
X28440234Y-15855315D01*
X28440234Y-15855315D02*
X28449758Y-15874363D01*
X28449758Y-15874363D02*
X28449758Y-15931506D01*
X28449758Y-15931506D02*
X28440234Y-15950553D01*
X28440234Y-15950553D02*
X28430710Y-15960077D01*
X28430710Y-15960077D02*
X28411663Y-15969601D01*
X28411663Y-15969601D02*
X28383091Y-15969601D01*
X28506901Y-15836268D02*
X28583091Y-15836268D01*
X28535472Y-15769601D02*
X28535472Y-15941030D01*
X28535472Y-15941030D02*
X28544996Y-15960077D01*
X28544996Y-15960077D02*
X28564044Y-15969601D01*
X28564044Y-15969601D02*
X28583091Y-15969601D01*
X28802139Y-15836268D02*
X28802139Y-16036268D01*
X28802139Y-15845791D02*
X28821187Y-15836268D01*
X28821187Y-15836268D02*
X28859282Y-15836268D01*
X28859282Y-15836268D02*
X28878329Y-15845791D01*
X28878329Y-15845791D02*
X28887853Y-15855315D01*
X28887853Y-15855315D02*
X28897377Y-15874363D01*
X28897377Y-15874363D02*
X28897377Y-15931506D01*
X28897377Y-15931506D02*
X28887853Y-15950553D01*
X28887853Y-15950553D02*
X28878329Y-15960077D01*
X28878329Y-15960077D02*
X28859282Y-15969601D01*
X28859282Y-15969601D02*
X28821187Y-15969601D01*
X28821187Y-15969601D02*
X28802139Y-15960077D01*
X29011663Y-15969601D02*
X28992615Y-15960077D01*
X28992615Y-15960077D02*
X28983091Y-15941030D01*
X28983091Y-15941030D02*
X28983091Y-15769601D01*
X29173568Y-15969601D02*
X29173568Y-15864839D01*
X29173568Y-15864839D02*
X29164044Y-15845791D01*
X29164044Y-15845791D02*
X29144996Y-15836268D01*
X29144996Y-15836268D02*
X29106901Y-15836268D01*
X29106901Y-15836268D02*
X29087853Y-15845791D01*
X29173568Y-15960077D02*
X29154520Y-15969601D01*
X29154520Y-15969601D02*
X29106901Y-15969601D01*
X29106901Y-15969601D02*
X29087853Y-15960077D01*
X29087853Y-15960077D02*
X29078329Y-15941030D01*
X29078329Y-15941030D02*
X29078329Y-15921982D01*
X29078329Y-15921982D02*
X29087853Y-15902934D01*
X29087853Y-15902934D02*
X29106901Y-15893411D01*
X29106901Y-15893411D02*
X29154520Y-15893411D01*
X29154520Y-15893411D02*
X29173568Y-15883887D01*
X29240234Y-15836268D02*
X29316425Y-15836268D01*
X29268806Y-15769601D02*
X29268806Y-15941030D01*
X29268806Y-15941030D02*
X29278329Y-15960077D01*
X29278329Y-15960077D02*
X29297377Y-15969601D01*
X29297377Y-15969601D02*
X29316425Y-15969601D01*
X29459282Y-15960077D02*
X29440234Y-15969601D01*
X29440234Y-15969601D02*
X29402139Y-15969601D01*
X29402139Y-15969601D02*
X29383091Y-15960077D01*
X29383091Y-15960077D02*
X29373568Y-15941030D01*
X29373568Y-15941030D02*
X29373568Y-15864839D01*
X29373568Y-15864839D02*
X29383091Y-15845791D01*
X29383091Y-15845791D02*
X29402139Y-15836268D01*
X29402139Y-15836268D02*
X29440234Y-15836268D01*
X29440234Y-15836268D02*
X29459282Y-15845791D01*
X29459282Y-15845791D02*
X29468806Y-15864839D01*
X29468806Y-15864839D02*
X29468806Y-15883887D01*
X29468806Y-15883887D02*
X29373568Y-15902934D01*
X29640234Y-15969601D02*
X29640234Y-15769601D01*
X29640234Y-15960077D02*
X29621187Y-15969601D01*
X29621187Y-15969601D02*
X29583091Y-15969601D01*
X29583091Y-15969601D02*
X29564044Y-15960077D01*
X29564044Y-15960077D02*
X29554520Y-15950553D01*
X29554520Y-15950553D02*
X29544996Y-15931506D01*
X29544996Y-15931506D02*
X29544996Y-15874363D01*
X29544996Y-15874363D02*
X29554520Y-15855315D01*
X29554520Y-15855315D02*
X29564044Y-15845791D01*
X29564044Y-15845791D02*
X29583091Y-15836268D01*
X29583091Y-15836268D02*
X29621187Y-15836268D01*
X29621187Y-15836268D02*
X29640234Y-15845791D01*
X29716425Y-16045791D02*
X29725949Y-16036268D01*
X29725949Y-16036268D02*
X29744996Y-16007696D01*
X29744996Y-16007696D02*
X29754520Y-15988649D01*
X29754520Y-15988649D02*
X29764044Y-15960077D01*
X29764044Y-15960077D02*
X29773568Y-15912458D01*
X29773568Y-15912458D02*
X29773568Y-15874363D01*
X29773568Y-15874363D02*
X29764044Y-15826744D01*
X29764044Y-15826744D02*
X29754520Y-15798172D01*
X29754520Y-15798172D02*
X29744996Y-15779125D01*
X29744996Y-15779125D02*
X29725949Y-15750553D01*
X29725949Y-15750553D02*
X29716425Y-15741030D01*
X22669933Y-16298117D02*
X22769933Y-16198117D01*
X22669933Y-16098117D01*
X22569933Y-16198117D01*
X22669933Y-16298117D01*
X23125948Y-16089601D02*
X23030710Y-16089601D01*
X23030710Y-16089601D02*
X23021186Y-16184839D01*
X23021186Y-16184839D02*
X23030710Y-16175315D01*
X23030710Y-16175315D02*
X23049757Y-16165791D01*
X23049757Y-16165791D02*
X23097377Y-16165791D01*
X23097377Y-16165791D02*
X23116424Y-16175315D01*
X23116424Y-16175315D02*
X23125948Y-16184839D01*
X23125948Y-16184839D02*
X23135472Y-16203887D01*
X23135472Y-16203887D02*
X23135472Y-16251506D01*
X23135472Y-16251506D02*
X23125948Y-16270553D01*
X23125948Y-16270553D02*
X23116424Y-16280077D01*
X23116424Y-16280077D02*
X23097377Y-16289601D01*
X23097377Y-16289601D02*
X23049757Y-16289601D01*
X23049757Y-16289601D02*
X23030710Y-16280077D01*
X23030710Y-16280077D02*
X23021186Y-16270553D01*
X23221186Y-16270553D02*
X23230710Y-16280077D01*
X23230710Y-16280077D02*
X23221186Y-16289601D01*
X23221186Y-16289601D02*
X23211662Y-16280077D01*
X23211662Y-16280077D02*
X23221186Y-16270553D01*
X23221186Y-16270553D02*
X23221186Y-16289601D01*
X23354519Y-16089601D02*
X23373567Y-16089601D01*
X23373567Y-16089601D02*
X23392615Y-16099125D01*
X23392615Y-16099125D02*
X23402138Y-16108649D01*
X23402138Y-16108649D02*
X23411662Y-16127696D01*
X23411662Y-16127696D02*
X23421186Y-16165791D01*
X23421186Y-16165791D02*
X23421186Y-16213411D01*
X23421186Y-16213411D02*
X23411662Y-16251506D01*
X23411662Y-16251506D02*
X23402138Y-16270553D01*
X23402138Y-16270553D02*
X23392615Y-16280077D01*
X23392615Y-16280077D02*
X23373567Y-16289601D01*
X23373567Y-16289601D02*
X23354519Y-16289601D01*
X23354519Y-16289601D02*
X23335472Y-16280077D01*
X23335472Y-16280077D02*
X23325948Y-16270553D01*
X23325948Y-16270553D02*
X23316424Y-16251506D01*
X23316424Y-16251506D02*
X23306900Y-16213411D01*
X23306900Y-16213411D02*
X23306900Y-16165791D01*
X23306900Y-16165791D02*
X23316424Y-16127696D01*
X23316424Y-16127696D02*
X23325948Y-16108649D01*
X23325948Y-16108649D02*
X23335472Y-16099125D01*
X23335472Y-16099125D02*
X23354519Y-16089601D01*
X23544996Y-16089601D02*
X23564043Y-16089601D01*
X23564043Y-16089601D02*
X23583091Y-16099125D01*
X23583091Y-16099125D02*
X23592615Y-16108649D01*
X23592615Y-16108649D02*
X23602138Y-16127696D01*
X23602138Y-16127696D02*
X23611662Y-16165791D01*
X23611662Y-16165791D02*
X23611662Y-16213411D01*
X23611662Y-16213411D02*
X23602138Y-16251506D01*
X23602138Y-16251506D02*
X23592615Y-16270553D01*
X23592615Y-16270553D02*
X23583091Y-16280077D01*
X23583091Y-16280077D02*
X23564043Y-16289601D01*
X23564043Y-16289601D02*
X23544996Y-16289601D01*
X23544996Y-16289601D02*
X23525948Y-16280077D01*
X23525948Y-16280077D02*
X23516424Y-16270553D01*
X23516424Y-16270553D02*
X23506900Y-16251506D01*
X23506900Y-16251506D02*
X23497377Y-16213411D01*
X23497377Y-16213411D02*
X23497377Y-16165791D01*
X23497377Y-16165791D02*
X23506900Y-16127696D01*
X23506900Y-16127696D02*
X23516424Y-16108649D01*
X23516424Y-16108649D02*
X23525948Y-16099125D01*
X23525948Y-16099125D02*
X23544996Y-16089601D01*
X23735472Y-16089601D02*
X23754519Y-16089601D01*
X23754519Y-16089601D02*
X23773567Y-16099125D01*
X23773567Y-16099125D02*
X23783091Y-16108649D01*
X23783091Y-16108649D02*
X23792615Y-16127696D01*
X23792615Y-16127696D02*
X23802138Y-16165791D01*
X23802138Y-16165791D02*
X23802138Y-16213411D01*
X23802138Y-16213411D02*
X23792615Y-16251506D01*
X23792615Y-16251506D02*
X23783091Y-16270553D01*
X23783091Y-16270553D02*
X23773567Y-16280077D01*
X23773567Y-16280077D02*
X23754519Y-16289601D01*
X23754519Y-16289601D02*
X23735472Y-16289601D01*
X23735472Y-16289601D02*
X23716424Y-16280077D01*
X23716424Y-16280077D02*
X23706900Y-16270553D01*
X23706900Y-16270553D02*
X23697377Y-16251506D01*
X23697377Y-16251506D02*
X23687853Y-16213411D01*
X23687853Y-16213411D02*
X23687853Y-16165791D01*
X23687853Y-16165791D02*
X23697377Y-16127696D01*
X23697377Y-16127696D02*
X23706900Y-16108649D01*
X23706900Y-16108649D02*
X23716424Y-16099125D01*
X23716424Y-16099125D02*
X23735472Y-16089601D01*
X23887853Y-16289601D02*
X23887853Y-16156268D01*
X23887853Y-16175315D02*
X23897377Y-16165791D01*
X23897377Y-16165791D02*
X23916424Y-16156268D01*
X23916424Y-16156268D02*
X23944996Y-16156268D01*
X23944996Y-16156268D02*
X23964043Y-16165791D01*
X23964043Y-16165791D02*
X23973567Y-16184839D01*
X23973567Y-16184839D02*
X23973567Y-16289601D01*
X23973567Y-16184839D02*
X23983091Y-16165791D01*
X23983091Y-16165791D02*
X24002138Y-16156268D01*
X24002138Y-16156268D02*
X24030710Y-16156268D01*
X24030710Y-16156268D02*
X24049758Y-16165791D01*
X24049758Y-16165791D02*
X24059281Y-16184839D01*
X24059281Y-16184839D02*
X24059281Y-16289601D01*
X24154519Y-16289601D02*
X24154519Y-16156268D01*
X24154519Y-16175315D02*
X24164043Y-16165791D01*
X24164043Y-16165791D02*
X24183091Y-16156268D01*
X24183091Y-16156268D02*
X24211662Y-16156268D01*
X24211662Y-16156268D02*
X24230710Y-16165791D01*
X24230710Y-16165791D02*
X24240234Y-16184839D01*
X24240234Y-16184839D02*
X24240234Y-16289601D01*
X24240234Y-16184839D02*
X24249758Y-16165791D01*
X24249758Y-16165791D02*
X24268805Y-16156268D01*
X24268805Y-16156268D02*
X24297377Y-16156268D01*
X24297377Y-16156268D02*
X24316424Y-16165791D01*
X24316424Y-16165791D02*
X24325948Y-16184839D01*
X24325948Y-16184839D02*
X24325948Y-16289601D01*
X24716424Y-16080077D02*
X24544996Y-16337220D01*
X24973567Y-16089601D02*
X24992615Y-16089601D01*
X24992615Y-16089601D02*
X25011662Y-16099125D01*
X25011662Y-16099125D02*
X25021186Y-16108649D01*
X25021186Y-16108649D02*
X25030710Y-16127696D01*
X25030710Y-16127696D02*
X25040234Y-16165791D01*
X25040234Y-16165791D02*
X25040234Y-16213411D01*
X25040234Y-16213411D02*
X25030710Y-16251506D01*
X25030710Y-16251506D02*
X25021186Y-16270553D01*
X25021186Y-16270553D02*
X25011662Y-16280077D01*
X25011662Y-16280077D02*
X24992615Y-16289601D01*
X24992615Y-16289601D02*
X24973567Y-16289601D01*
X24973567Y-16289601D02*
X24954520Y-16280077D01*
X24954520Y-16280077D02*
X24944996Y-16270553D01*
X24944996Y-16270553D02*
X24935472Y-16251506D01*
X24935472Y-16251506D02*
X24925948Y-16213411D01*
X24925948Y-16213411D02*
X24925948Y-16165791D01*
X24925948Y-16165791D02*
X24935472Y-16127696D01*
X24935472Y-16127696D02*
X24944996Y-16108649D01*
X24944996Y-16108649D02*
X24954520Y-16099125D01*
X24954520Y-16099125D02*
X24973567Y-16089601D01*
X25125948Y-16270553D02*
X25135472Y-16280077D01*
X25135472Y-16280077D02*
X25125948Y-16289601D01*
X25125948Y-16289601D02*
X25116424Y-16280077D01*
X25116424Y-16280077D02*
X25125948Y-16270553D01*
X25125948Y-16270553D02*
X25125948Y-16289601D01*
X25325948Y-16289601D02*
X25211662Y-16289601D01*
X25268805Y-16289601D02*
X25268805Y-16089601D01*
X25268805Y-16089601D02*
X25249758Y-16118172D01*
X25249758Y-16118172D02*
X25230710Y-16137220D01*
X25230710Y-16137220D02*
X25211662Y-16146744D01*
X25421186Y-16289601D02*
X25459281Y-16289601D01*
X25459281Y-16289601D02*
X25478329Y-16280077D01*
X25478329Y-16280077D02*
X25487853Y-16270553D01*
X25487853Y-16270553D02*
X25506901Y-16241982D01*
X25506901Y-16241982D02*
X25516424Y-16203887D01*
X25516424Y-16203887D02*
X25516424Y-16127696D01*
X25516424Y-16127696D02*
X25506901Y-16108649D01*
X25506901Y-16108649D02*
X25497377Y-16099125D01*
X25497377Y-16099125D02*
X25478329Y-16089601D01*
X25478329Y-16089601D02*
X25440234Y-16089601D01*
X25440234Y-16089601D02*
X25421186Y-16099125D01*
X25421186Y-16099125D02*
X25411662Y-16108649D01*
X25411662Y-16108649D02*
X25402139Y-16127696D01*
X25402139Y-16127696D02*
X25402139Y-16175315D01*
X25402139Y-16175315D02*
X25411662Y-16194363D01*
X25411662Y-16194363D02*
X25421186Y-16203887D01*
X25421186Y-16203887D02*
X25440234Y-16213411D01*
X25440234Y-16213411D02*
X25478329Y-16213411D01*
X25478329Y-16213411D02*
X25497377Y-16203887D01*
X25497377Y-16203887D02*
X25506901Y-16194363D01*
X25506901Y-16194363D02*
X25516424Y-16175315D01*
X25687853Y-16089601D02*
X25649758Y-16089601D01*
X25649758Y-16089601D02*
X25630710Y-16099125D01*
X25630710Y-16099125D02*
X25621186Y-16108649D01*
X25621186Y-16108649D02*
X25602139Y-16137220D01*
X25602139Y-16137220D02*
X25592615Y-16175315D01*
X25592615Y-16175315D02*
X25592615Y-16251506D01*
X25592615Y-16251506D02*
X25602139Y-16270553D01*
X25602139Y-16270553D02*
X25611662Y-16280077D01*
X25611662Y-16280077D02*
X25630710Y-16289601D01*
X25630710Y-16289601D02*
X25668805Y-16289601D01*
X25668805Y-16289601D02*
X25687853Y-16280077D01*
X25687853Y-16280077D02*
X25697377Y-16270553D01*
X25697377Y-16270553D02*
X25706901Y-16251506D01*
X25706901Y-16251506D02*
X25706901Y-16203887D01*
X25706901Y-16203887D02*
X25697377Y-16184839D01*
X25697377Y-16184839D02*
X25687853Y-16175315D01*
X25687853Y-16175315D02*
X25668805Y-16165791D01*
X25668805Y-16165791D02*
X25630710Y-16165791D01*
X25630710Y-16165791D02*
X25611662Y-16175315D01*
X25611662Y-16175315D02*
X25602139Y-16184839D01*
X25602139Y-16184839D02*
X25592615Y-16203887D01*
X25802139Y-16289601D02*
X25840234Y-16289601D01*
X25840234Y-16289601D02*
X25859282Y-16280077D01*
X25859282Y-16280077D02*
X25868805Y-16270553D01*
X25868805Y-16270553D02*
X25887853Y-16241982D01*
X25887853Y-16241982D02*
X25897377Y-16203887D01*
X25897377Y-16203887D02*
X25897377Y-16127696D01*
X25897377Y-16127696D02*
X25887853Y-16108649D01*
X25887853Y-16108649D02*
X25878329Y-16099125D01*
X25878329Y-16099125D02*
X25859282Y-16089601D01*
X25859282Y-16089601D02*
X25821186Y-16089601D01*
X25821186Y-16089601D02*
X25802139Y-16099125D01*
X25802139Y-16099125D02*
X25792615Y-16108649D01*
X25792615Y-16108649D02*
X25783091Y-16127696D01*
X25783091Y-16127696D02*
X25783091Y-16175315D01*
X25783091Y-16175315D02*
X25792615Y-16194363D01*
X25792615Y-16194363D02*
X25802139Y-16203887D01*
X25802139Y-16203887D02*
X25821186Y-16213411D01*
X25821186Y-16213411D02*
X25859282Y-16213411D01*
X25859282Y-16213411D02*
X25878329Y-16203887D01*
X25878329Y-16203887D02*
X25887853Y-16194363D01*
X25887853Y-16194363D02*
X25897377Y-16175315D01*
X25973567Y-16089601D02*
X25973567Y-16127696D01*
X26049758Y-16089601D02*
X26049758Y-16127696D01*
X26344996Y-16365791D02*
X26335472Y-16356268D01*
X26335472Y-16356268D02*
X26316424Y-16327696D01*
X26316424Y-16327696D02*
X26306901Y-16308649D01*
X26306901Y-16308649D02*
X26297377Y-16280077D01*
X26297377Y-16280077D02*
X26287853Y-16232458D01*
X26287853Y-16232458D02*
X26287853Y-16194363D01*
X26287853Y-16194363D02*
X26297377Y-16146744D01*
X26297377Y-16146744D02*
X26306901Y-16118172D01*
X26306901Y-16118172D02*
X26316424Y-16099125D01*
X26316424Y-16099125D02*
X26335472Y-16070553D01*
X26335472Y-16070553D02*
X26344996Y-16061030D01*
X26411663Y-16108649D02*
X26421186Y-16099125D01*
X26421186Y-16099125D02*
X26440234Y-16089601D01*
X26440234Y-16089601D02*
X26487853Y-16089601D01*
X26487853Y-16089601D02*
X26506901Y-16099125D01*
X26506901Y-16099125D02*
X26516424Y-16108649D01*
X26516424Y-16108649D02*
X26525948Y-16127696D01*
X26525948Y-16127696D02*
X26525948Y-16146744D01*
X26525948Y-16146744D02*
X26516424Y-16175315D01*
X26516424Y-16175315D02*
X26402139Y-16289601D01*
X26402139Y-16289601D02*
X26525948Y-16289601D01*
X26602139Y-16108649D02*
X26611663Y-16099125D01*
X26611663Y-16099125D02*
X26630710Y-16089601D01*
X26630710Y-16089601D02*
X26678329Y-16089601D01*
X26678329Y-16089601D02*
X26697377Y-16099125D01*
X26697377Y-16099125D02*
X26706901Y-16108649D01*
X26706901Y-16108649D02*
X26716424Y-16127696D01*
X26716424Y-16127696D02*
X26716424Y-16146744D01*
X26716424Y-16146744D02*
X26706901Y-16175315D01*
X26706901Y-16175315D02*
X26592615Y-16289601D01*
X26592615Y-16289601D02*
X26716424Y-16289601D01*
X26954520Y-16289601D02*
X26954520Y-16089601D01*
X27040234Y-16289601D02*
X27040234Y-16184839D01*
X27040234Y-16184839D02*
X27030710Y-16165791D01*
X27030710Y-16165791D02*
X27011663Y-16156268D01*
X27011663Y-16156268D02*
X26983091Y-16156268D01*
X26983091Y-16156268D02*
X26964044Y-16165791D01*
X26964044Y-16165791D02*
X26954520Y-16175315D01*
X27164044Y-16289601D02*
X27144996Y-16280077D01*
X27144996Y-16280077D02*
X27135472Y-16270553D01*
X27135472Y-16270553D02*
X27125948Y-16251506D01*
X27125948Y-16251506D02*
X27125948Y-16194363D01*
X27125948Y-16194363D02*
X27135472Y-16175315D01*
X27135472Y-16175315D02*
X27144996Y-16165791D01*
X27144996Y-16165791D02*
X27164044Y-16156268D01*
X27164044Y-16156268D02*
X27192615Y-16156268D01*
X27192615Y-16156268D02*
X27211663Y-16165791D01*
X27211663Y-16165791D02*
X27221186Y-16175315D01*
X27221186Y-16175315D02*
X27230710Y-16194363D01*
X27230710Y-16194363D02*
X27230710Y-16251506D01*
X27230710Y-16251506D02*
X27221186Y-16270553D01*
X27221186Y-16270553D02*
X27211663Y-16280077D01*
X27211663Y-16280077D02*
X27192615Y-16289601D01*
X27192615Y-16289601D02*
X27164044Y-16289601D01*
X27344996Y-16289601D02*
X27325948Y-16280077D01*
X27325948Y-16280077D02*
X27316425Y-16261030D01*
X27316425Y-16261030D02*
X27316425Y-16089601D01*
X27497377Y-16280077D02*
X27478329Y-16289601D01*
X27478329Y-16289601D02*
X27440234Y-16289601D01*
X27440234Y-16289601D02*
X27421186Y-16280077D01*
X27421186Y-16280077D02*
X27411663Y-16261030D01*
X27411663Y-16261030D02*
X27411663Y-16184839D01*
X27411663Y-16184839D02*
X27421186Y-16165791D01*
X27421186Y-16165791D02*
X27440234Y-16156268D01*
X27440234Y-16156268D02*
X27478329Y-16156268D01*
X27478329Y-16156268D02*
X27497377Y-16165791D01*
X27497377Y-16165791D02*
X27506901Y-16184839D01*
X27506901Y-16184839D02*
X27506901Y-16203887D01*
X27506901Y-16203887D02*
X27411663Y-16222934D01*
X27583091Y-16280077D02*
X27602139Y-16289601D01*
X27602139Y-16289601D02*
X27640234Y-16289601D01*
X27640234Y-16289601D02*
X27659282Y-16280077D01*
X27659282Y-16280077D02*
X27668806Y-16261030D01*
X27668806Y-16261030D02*
X27668806Y-16251506D01*
X27668806Y-16251506D02*
X27659282Y-16232458D01*
X27659282Y-16232458D02*
X27640234Y-16222934D01*
X27640234Y-16222934D02*
X27611663Y-16222934D01*
X27611663Y-16222934D02*
X27592615Y-16213411D01*
X27592615Y-16213411D02*
X27583091Y-16194363D01*
X27583091Y-16194363D02*
X27583091Y-16184839D01*
X27583091Y-16184839D02*
X27592615Y-16165791D01*
X27592615Y-16165791D02*
X27611663Y-16156268D01*
X27611663Y-16156268D02*
X27640234Y-16156268D01*
X27640234Y-16156268D02*
X27659282Y-16165791D01*
X27735472Y-16365791D02*
X27744996Y-16356268D01*
X27744996Y-16356268D02*
X27764044Y-16327696D01*
X27764044Y-16327696D02*
X27773567Y-16308649D01*
X27773567Y-16308649D02*
X27783091Y-16280077D01*
X27783091Y-16280077D02*
X27792615Y-16232458D01*
X27792615Y-16232458D02*
X27792615Y-16194363D01*
X27792615Y-16194363D02*
X27783091Y-16146744D01*
X27783091Y-16146744D02*
X27773567Y-16118172D01*
X27773567Y-16118172D02*
X27764044Y-16099125D01*
X27764044Y-16099125D02*
X27744996Y-16070553D01*
X27744996Y-16070553D02*
X27735472Y-16061030D01*
X28097377Y-16365791D02*
X28087853Y-16356268D01*
X28087853Y-16356268D02*
X28068806Y-16327696D01*
X28068806Y-16327696D02*
X28059282Y-16308649D01*
X28059282Y-16308649D02*
X28049758Y-16280077D01*
X28049758Y-16280077D02*
X28040234Y-16232458D01*
X28040234Y-16232458D02*
X28040234Y-16194363D01*
X28040234Y-16194363D02*
X28049758Y-16146744D01*
X28049758Y-16146744D02*
X28059282Y-16118172D01*
X28059282Y-16118172D02*
X28068806Y-16099125D01*
X28068806Y-16099125D02*
X28087853Y-16070553D01*
X28087853Y-16070553D02*
X28097377Y-16061030D01*
X28173567Y-16156268D02*
X28173567Y-16289601D01*
X28173567Y-16175315D02*
X28183091Y-16165791D01*
X28183091Y-16165791D02*
X28202139Y-16156268D01*
X28202139Y-16156268D02*
X28230710Y-16156268D01*
X28230710Y-16156268D02*
X28249758Y-16165791D01*
X28249758Y-16165791D02*
X28259282Y-16184839D01*
X28259282Y-16184839D02*
X28259282Y-16289601D01*
X28383091Y-16289601D02*
X28364044Y-16280077D01*
X28364044Y-16280077D02*
X28354520Y-16270553D01*
X28354520Y-16270553D02*
X28344996Y-16251506D01*
X28344996Y-16251506D02*
X28344996Y-16194363D01*
X28344996Y-16194363D02*
X28354520Y-16175315D01*
X28354520Y-16175315D02*
X28364044Y-16165791D01*
X28364044Y-16165791D02*
X28383091Y-16156268D01*
X28383091Y-16156268D02*
X28411663Y-16156268D01*
X28411663Y-16156268D02*
X28430710Y-16165791D01*
X28430710Y-16165791D02*
X28440234Y-16175315D01*
X28440234Y-16175315D02*
X28449758Y-16194363D01*
X28449758Y-16194363D02*
X28449758Y-16251506D01*
X28449758Y-16251506D02*
X28440234Y-16270553D01*
X28440234Y-16270553D02*
X28430710Y-16280077D01*
X28430710Y-16280077D02*
X28411663Y-16289601D01*
X28411663Y-16289601D02*
X28383091Y-16289601D01*
X28506901Y-16156268D02*
X28583091Y-16156268D01*
X28535472Y-16089601D02*
X28535472Y-16261030D01*
X28535472Y-16261030D02*
X28544996Y-16280077D01*
X28544996Y-16280077D02*
X28564044Y-16289601D01*
X28564044Y-16289601D02*
X28583091Y-16289601D01*
X28802139Y-16156268D02*
X28802139Y-16356268D01*
X28802139Y-16165791D02*
X28821187Y-16156268D01*
X28821187Y-16156268D02*
X28859282Y-16156268D01*
X28859282Y-16156268D02*
X28878329Y-16165791D01*
X28878329Y-16165791D02*
X28887853Y-16175315D01*
X28887853Y-16175315D02*
X28897377Y-16194363D01*
X28897377Y-16194363D02*
X28897377Y-16251506D01*
X28897377Y-16251506D02*
X28887853Y-16270553D01*
X28887853Y-16270553D02*
X28878329Y-16280077D01*
X28878329Y-16280077D02*
X28859282Y-16289601D01*
X28859282Y-16289601D02*
X28821187Y-16289601D01*
X28821187Y-16289601D02*
X28802139Y-16280077D01*
X29011663Y-16289601D02*
X28992615Y-16280077D01*
X28992615Y-16280077D02*
X28983091Y-16261030D01*
X28983091Y-16261030D02*
X28983091Y-16089601D01*
X29173568Y-16289601D02*
X29173568Y-16184839D01*
X29173568Y-16184839D02*
X29164044Y-16165791D01*
X29164044Y-16165791D02*
X29144996Y-16156268D01*
X29144996Y-16156268D02*
X29106901Y-16156268D01*
X29106901Y-16156268D02*
X29087853Y-16165791D01*
X29173568Y-16280077D02*
X29154520Y-16289601D01*
X29154520Y-16289601D02*
X29106901Y-16289601D01*
X29106901Y-16289601D02*
X29087853Y-16280077D01*
X29087853Y-16280077D02*
X29078329Y-16261030D01*
X29078329Y-16261030D02*
X29078329Y-16241982D01*
X29078329Y-16241982D02*
X29087853Y-16222934D01*
X29087853Y-16222934D02*
X29106901Y-16213411D01*
X29106901Y-16213411D02*
X29154520Y-16213411D01*
X29154520Y-16213411D02*
X29173568Y-16203887D01*
X29240234Y-16156268D02*
X29316425Y-16156268D01*
X29268806Y-16089601D02*
X29268806Y-16261030D01*
X29268806Y-16261030D02*
X29278329Y-16280077D01*
X29278329Y-16280077D02*
X29297377Y-16289601D01*
X29297377Y-16289601D02*
X29316425Y-16289601D01*
X29459282Y-16280077D02*
X29440234Y-16289601D01*
X29440234Y-16289601D02*
X29402139Y-16289601D01*
X29402139Y-16289601D02*
X29383091Y-16280077D01*
X29383091Y-16280077D02*
X29373568Y-16261030D01*
X29373568Y-16261030D02*
X29373568Y-16184839D01*
X29373568Y-16184839D02*
X29383091Y-16165791D01*
X29383091Y-16165791D02*
X29402139Y-16156268D01*
X29402139Y-16156268D02*
X29440234Y-16156268D01*
X29440234Y-16156268D02*
X29459282Y-16165791D01*
X29459282Y-16165791D02*
X29468806Y-16184839D01*
X29468806Y-16184839D02*
X29468806Y-16203887D01*
X29468806Y-16203887D02*
X29373568Y-16222934D01*
X29640234Y-16289601D02*
X29640234Y-16089601D01*
X29640234Y-16280077D02*
X29621187Y-16289601D01*
X29621187Y-16289601D02*
X29583091Y-16289601D01*
X29583091Y-16289601D02*
X29564044Y-16280077D01*
X29564044Y-16280077D02*
X29554520Y-16270553D01*
X29554520Y-16270553D02*
X29544996Y-16251506D01*
X29544996Y-16251506D02*
X29544996Y-16194363D01*
X29544996Y-16194363D02*
X29554520Y-16175315D01*
X29554520Y-16175315D02*
X29564044Y-16165791D01*
X29564044Y-16165791D02*
X29583091Y-16156268D01*
X29583091Y-16156268D02*
X29621187Y-16156268D01*
X29621187Y-16156268D02*
X29640234Y-16165791D01*
X29716425Y-16365791D02*
X29725949Y-16356268D01*
X29725949Y-16356268D02*
X29744996Y-16327696D01*
X29744996Y-16327696D02*
X29754520Y-16308649D01*
X29754520Y-16308649D02*
X29764044Y-16280077D01*
X29764044Y-16280077D02*
X29773568Y-16232458D01*
X29773568Y-16232458D02*
X29773568Y-16194363D01*
X29773568Y-16194363D02*
X29764044Y-16146744D01*
X29764044Y-16146744D02*
X29754520Y-16118172D01*
X29754520Y-16118172D02*
X29744996Y-16099125D01*
X29744996Y-16099125D02*
X29725949Y-16070553D01*
X29725949Y-16070553D02*
X29716425Y-16061030D01*
M02*
