M48
; DRILL file KiCad 10.0.5 date 2026-09-02T17:36:26
; FORMAT={-:-/ absolute / metric / decimal}
; #@! TF.CreationDate,2026-09-02T17:36:26+09:00
; #@! TF.GenerationSoftware,Kicad,Pcbnew,10.0.5
; #@! TF.FileFunction,Plated,1,2,PTH
FMAT,2
METRIC
; #@! TA.AperFunction,Plated,PTH,ViaDrill
T1C0.300
; #@! TA.AperFunction,Plated,PTH,ComponentDrill
T2C0.750
; #@! TA.AperFunction,Plated,PTH,ComponentDrill
T3C0.800
; #@! TA.AperFunction,Plated,PTH,ComponentDrill
T4C1.600
%
G90
G05
T1
X232.935Y-60.039
X233.147Y-71.129
X237.597Y-64.489
X238.131Y-62.271
X259.126Y-65.471
X273.555Y-74.294
X276.063Y-101.382
X276.35Y-65.749
X292.709Y-97.977
X292.885Y-57.992
X293.383Y-79.623
X294.575Y-65.079
X311.369Y-65.079
X324.306Y-56.02
X324.762Y-50.461
X329.384Y-71.129
T2
X239.0Y-74.16
X241.0Y-74.16
T3
X239.006Y-65.678
X241.006Y-65.678
T4
X249.395Y-130.957
X255.0Y-66.81
X255.0Y-84.81
X255.0Y-102.81
X267.339Y-125.19
X273.0Y-64.83
X273.0Y-82.83
X273.0Y-100.83
X285.912Y-121.977
X291.0Y-60.33
X291.0Y-78.33
X291.0Y-96.33
X304.75Y-121.38
X309.0Y-62.85
X309.0Y-80.85
X309.0Y-98.85
X327.0Y-69.15
X327.0Y-87.15
X327.0Y-105.15
X345.0Y-69.15
X345.0Y-87.15
X345.0Y-105.15
M30
