%TF.GenerationSoftware,KiCad,Pcbnew,10.0.5*%
%TF.CreationDate,2026-09-02T17:36:25+09:00*%
%TF.ProjectId,first_right,66697273-745f-4726-9967-68742e6b6963,0.2.0*%
%TF.SameCoordinates,Original*%
%TF.FileFunction,Legend,Bot*%
%TF.FilePolarity,Positive*%
%FSLAX46Y46*%
G04 Gerber Fmt 4.6, Leading zero omitted, Abs format (unit mm)*
G04 Created by KiCad (PCBNEW 10.0.5) date 2026-09-02 17:36:25*
%MOMM*%
%LPD*%
G01*
G04 APERTURE LIST*
G04 Aperture macros list*
%AMRoundRect*
0 Rectangle with rounded corners*
0 $1 Rounding radius*
0 $2 $3 $4 $5 $6 $7 $8 $9 X,Y pos of 4 corners*
0 Add a 4 corners polygon primitive as box body*
4,1,4,$2,$3,$4,$5,$6,$7,$8,$9,$2,$3,0*
0 Add four circle primitives for the rounded corners*
1,1,$1+$1,$2,$3*
1,1,$1+$1,$4,$5*
1,1,$1+$1,$6,$7*
1,1,$1+$1,$8,$9*
0 Add four rect primitives between the rounded corners*
20,1,$1+$1,$2,$3,$4,$5,0*
20,1,$1+$1,$4,$5,$6,$7,0*
20,1,$1+$1,$6,$7,$8,$9,0*
20,1,$1+$1,$8,$9,$2,$3,0*%
G04 Aperture macros list end*
%ADD10C,0.150000*%
%ADD11C,0.100000*%
%ADD12C,2.300000*%
%ADD13C,1.700000*%
%ADD14C,1.000000*%
%ADD15RoundRect,0.290000X-0.360000X-0.635000X0.360000X-0.635000X0.360000X0.635000X-0.360000X0.635000X0*%
%ADD16O,1.300000X1.850000*%
%ADD17C,2.000000*%
%ADD18C,3.100000*%
%ADD19C,5.100000*%
%ADD20RoundRect,0.050000X1.716367X-0.658851X0.658851X1.716367X-1.716367X0.658851X-0.658851X-1.716367X0*%
%ADD21RoundRect,0.050000X-1.300000X-1.300000X1.300000X-1.300000X1.300000X1.300000X-1.300000X1.300000X0*%
%ADD22RoundRect,0.050000X-0.450000X-0.600000X0.450000X-0.600000X0.450000X0.600000X-0.450000X0.600000X0*%
%ADD23RoundRect,0.050000X1.607969X-0.891312X0.891312X1.607969X-1.607969X0.891312X-0.891312X-1.607969X0*%
%ADD24RoundRect,0.050000X0.700794X-0.267185X0.452720X0.597950X-0.700794X0.267185X-0.452720X-0.597950X0*%
%ADD25RoundRect,0.050000X0.656789X-0.362117X0.531533X0.529124X-0.656789X0.362117X-0.531533X-0.529124X0*%
%ADD26RoundRect,0.050000X1.300000X-1.300000X1.300000X1.300000X-1.300000X1.300000X-1.300000X-1.300000X0*%
%ADD27RoundRect,0.050000X0.600000X-0.450000X0.600000X0.450000X-0.600000X0.450000X-0.600000X-0.450000X0*%
%ADD28RoundRect,0.050000X1.468274X-1.106423X1.106423X1.468274X-1.468274X1.106423X-1.106423X-1.468274X0*%
%ADD29RoundRect,0.050000X0.731159X-0.167053X0.365096X0.655137X-0.731159X0.167053X-0.365096X-0.655137X0*%
G04 APERTURE END LIST*
%TO.C,S22*%
D10*
X234145762Y-124610549D02*
X234693889Y-124366507D01*
X234555722Y-130448522D02*
X235775932Y-133189159D01*
X234809127Y-129788381D02*
X234555722Y-130448522D01*
X234809127Y-129788381D02*
X235649589Y-129414184D01*
X235775932Y-133189159D02*
X236436073Y-133442563D01*
X235967942Y-128703233D02*
X234145762Y-124610549D01*
X237982653Y-122902255D02*
X238439425Y-122698887D01*
X238439425Y-122698887D02*
X240269740Y-126809841D01*
X238951392Y-129257689D02*
X239886887Y-131358844D01*
X239886887Y-131358844D02*
X239633482Y-132018985D01*
X240269740Y-126809841D02*
X239630258Y-127094557D01*
X235967942Y-128703233D02*
G75*
G02*
X235649589Y-129414183I-514652J-196298D01*
G01*
X238951392Y-129257689D02*
G75*
G02*
X239611987Y-127102692I1407797J747201D01*
G01*
%TO.C,S11*%
X294500000Y-64980000D02*
X294000000Y-65480000D01*
X294500000Y-69480000D02*
X294000000Y-68980000D01*
X296800000Y-69480000D02*
X294500000Y-69480000D01*
X297500000Y-64980000D02*
X294500000Y-64980000D01*
X298000000Y-65480000D02*
X297500000Y-64980000D01*
X298000000Y-65480000D02*
X298000000Y-66400000D01*
X298500000Y-71680000D02*
X298500000Y-70980000D01*
X298520000Y-66980000D02*
X303000000Y-66980000D01*
X303000000Y-66980000D02*
X303000000Y-67580000D01*
X303000000Y-71180000D02*
X303000000Y-71680000D01*
X303000000Y-71680000D02*
X298500000Y-71680000D01*
X296800000Y-69480000D02*
G75*
G02*
X298500000Y-70960000I110000J-1590000D01*
G01*
X298520000Y-66980000D02*
G75*
G02*
X298000000Y-66400000I30000J550000D01*
G01*
%TO.C,S9*%
X312500000Y-49500000D02*
X312000000Y-50000000D01*
X312500000Y-54000000D02*
X312000000Y-53500000D01*
X314800000Y-54000000D02*
X312500000Y-54000000D01*
X315500000Y-49500000D02*
X312500000Y-49500000D01*
X316000000Y-50000000D02*
X315500000Y-49500000D01*
X316000000Y-50000000D02*
X316000000Y-50920000D01*
X316500000Y-56200000D02*
X316500000Y-55500000D01*
X316520000Y-51500000D02*
X321000000Y-51500000D01*
X321000000Y-51500000D02*
X321000000Y-52100000D01*
X321000000Y-55700000D02*
X321000000Y-56200000D01*
X321000000Y-56200000D02*
X316500000Y-56200000D01*
X314800000Y-54000000D02*
G75*
G02*
X316500000Y-55480000I110000J-1590000D01*
G01*
X316520000Y-51500000D02*
G75*
G02*
X316000000Y-50920000I30000J550000D01*
G01*
%TO.C,S8*%
X312500000Y-67500000D02*
X312000000Y-68000000D01*
X312500000Y-72000000D02*
X312000000Y-71500000D01*
X314800000Y-72000000D02*
X312500000Y-72000000D01*
X315500000Y-67500000D02*
X312500000Y-67500000D01*
X316000000Y-68000000D02*
X315500000Y-67500000D01*
X316000000Y-68000000D02*
X316000000Y-68920000D01*
X316500000Y-74200000D02*
X316500000Y-73500000D01*
X316520000Y-69500000D02*
X321000000Y-69500000D01*
X321000000Y-69500000D02*
X321000000Y-70100000D01*
X321000000Y-73700000D02*
X321000000Y-74200000D01*
X321000000Y-74200000D02*
X316500000Y-74200000D01*
X314800000Y-72000000D02*
G75*
G02*
X316500000Y-73480000I110000J-1590000D01*
G01*
X316520000Y-69500000D02*
G75*
G02*
X316000000Y-68920000I30000J550000D01*
G01*
%TO.C,S13*%
X276500000Y-87480000D02*
X276000000Y-87980000D01*
X276500000Y-91980000D02*
X276000000Y-91480000D01*
X278800000Y-91980000D02*
X276500000Y-91980000D01*
X279500000Y-87480000D02*
X276500000Y-87480000D01*
X280000000Y-87980000D02*
X279500000Y-87480000D01*
X280000000Y-87980000D02*
X280000000Y-88900000D01*
X280500000Y-94180000D02*
X280500000Y-93480000D01*
X280520000Y-89480000D02*
X285000000Y-89480000D01*
X285000000Y-89480000D02*
X285000000Y-90080000D01*
X285000000Y-93680000D02*
X285000000Y-94180000D01*
X285000000Y-94180000D02*
X280500000Y-94180000D01*
X278800000Y-91980000D02*
G75*
G02*
X280500000Y-93460000I110000J-1590000D01*
G01*
X280520000Y-89480000D02*
G75*
G02*
X280000000Y-88900000I30000J550000D01*
G01*
%TO.C,D1*%
D11*
X349250000Y-107200000D02*
X349650000Y-107200000D01*
X349650000Y-107200000D02*
X349650000Y-106650000D01*
X349650000Y-107200000D02*
X349650000Y-107750000D01*
X349650000Y-107200000D02*
X350250000Y-106800000D01*
X350250000Y-106800000D02*
X350250000Y-107600000D01*
X350250000Y-107200000D02*
X350750000Y-107200000D01*
X350250000Y-107600000D02*
X349650000Y-107200000D01*
%TO.C,S3*%
D10*
X348500000Y-55800000D02*
X348000000Y-56300000D01*
X348500000Y-60300000D02*
X348000000Y-59800000D01*
X350800000Y-60300000D02*
X348500000Y-60300000D01*
X351500000Y-55800000D02*
X348500000Y-55800000D01*
X352000000Y-56300000D02*
X351500000Y-55800000D01*
X352000000Y-56300000D02*
X352000000Y-57220000D01*
X352500000Y-62500000D02*
X352500000Y-61800000D01*
X352520000Y-57800000D02*
X357000000Y-57800000D01*
X357000000Y-57800000D02*
X357000000Y-58400000D01*
X357000000Y-62000000D02*
X357000000Y-62500000D01*
X357000000Y-62500000D02*
X352500000Y-62500000D01*
X350800000Y-60300000D02*
G75*
G02*
X352500000Y-61780000I110000J-1590000D01*
G01*
X352520000Y-57800000D02*
G75*
G02*
X352000000Y-57220000I30000J550000D01*
G01*
%TO.C,D8*%
D11*
X313250000Y-82900000D02*
X313650000Y-82900000D01*
X313650000Y-82900000D02*
X313650000Y-82350000D01*
X313650000Y-82900000D02*
X313650000Y-83450000D01*
X313650000Y-82900000D02*
X314250000Y-82500000D01*
X314250000Y-82500000D02*
X314250000Y-83300000D01*
X314250000Y-82900000D02*
X314750000Y-82900000D01*
X314250000Y-83300000D02*
X313650000Y-82900000D01*
%TO.C,S2*%
D10*
X348500000Y-73800000D02*
X348000000Y-74300000D01*
X348500000Y-78300000D02*
X348000000Y-77800000D01*
X350800000Y-78300000D02*
X348500000Y-78300000D01*
X351500000Y-73800000D02*
X348500000Y-73800000D01*
X352000000Y-74300000D02*
X351500000Y-73800000D01*
X352000000Y-74300000D02*
X352000000Y-75220000D01*
X352500000Y-80500000D02*
X352500000Y-79800000D01*
X352520000Y-75800000D02*
X357000000Y-75800000D01*
X357000000Y-75800000D02*
X357000000Y-76400000D01*
X357000000Y-80000000D02*
X357000000Y-80500000D01*
X357000000Y-80500000D02*
X352500000Y-80500000D01*
X350800000Y-78300000D02*
G75*
G02*
X352500000Y-79780000I110000J-1590000D01*
G01*
X352520000Y-75800000D02*
G75*
G02*
X352000000Y-75220000I30000J550000D01*
G01*
%TO.C,D12*%
D11*
X295250000Y-62380000D02*
X295650000Y-62380000D01*
X295650000Y-62380000D02*
X295650000Y-61830000D01*
X295650000Y-62380000D02*
X295650000Y-62930000D01*
X295650000Y-62380000D02*
X296250000Y-61980000D01*
X296250000Y-61980000D02*
X296250000Y-62780000D01*
X296250000Y-62380000D02*
X296750000Y-62380000D01*
X296250000Y-62780000D02*
X295650000Y-62380000D01*
%TO.C,D15*%
X277250000Y-66880000D02*
X277650000Y-66880000D01*
X277650000Y-66880000D02*
X277650000Y-66330000D01*
X277650000Y-66880000D02*
X277650000Y-67430000D01*
X277650000Y-66880000D02*
X278250000Y-66480000D01*
X278250000Y-66480000D02*
X278250000Y-67280000D01*
X278250000Y-66880000D02*
X278750000Y-66880000D01*
X278250000Y-67280000D02*
X277650000Y-66880000D01*
%TO.C,D14*%
X277250000Y-84880000D02*
X277650000Y-84880000D01*
X277650000Y-84880000D02*
X277650000Y-84330000D01*
X277650000Y-84880000D02*
X277650000Y-85430000D01*
X277650000Y-84880000D02*
X278250000Y-84480000D01*
X278250000Y-84480000D02*
X278250000Y-85280000D01*
X278250000Y-84880000D02*
X278750000Y-84880000D01*
X278250000Y-85280000D02*
X277650000Y-84880000D01*
%TO.C,S21*%
D10*
X252714998Y-122621734D02*
X253541910Y-125505519D01*
X253057810Y-122003284D02*
X252714998Y-122621734D01*
X253057810Y-122003284D02*
X253942171Y-121749698D01*
X253121516Y-116783520D02*
X253698273Y-116618137D01*
X253541910Y-125505519D02*
X254160360Y-125848331D01*
X254356371Y-121089972D02*
X253121516Y-116783520D01*
X257158815Y-115625843D02*
X257639446Y-115488024D01*
X257233622Y-122054249D02*
X257867588Y-124265151D01*
X257639446Y-115488024D02*
X258879814Y-119813702D01*
X257867588Y-124265151D02*
X257524776Y-124883600D01*
X258879814Y-119813702D02*
X258206931Y-120006648D01*
X254356371Y-121089972D02*
G75*
G02*
X253942171Y-121749698I-536963J-122763D01*
G01*
X257233622Y-122054249D02*
G75*
G02*
X258187706Y-120012161I1498086J544002D01*
G01*
%TO.C,D4*%
D11*
X331250000Y-107200000D02*
X331650000Y-107200000D01*
X331650000Y-107200000D02*
X331650000Y-106650000D01*
X331650000Y-107200000D02*
X331650000Y-107750000D01*
X331650000Y-107200000D02*
X332250000Y-106800000D01*
X332250000Y-106800000D02*
X332250000Y-107600000D01*
X332250000Y-107200000D02*
X332750000Y-107200000D01*
X332250000Y-107600000D02*
X331650000Y-107200000D01*
%TO.C,D9*%
X313250000Y-64900000D02*
X313650000Y-64900000D01*
X313650000Y-64900000D02*
X313650000Y-64350000D01*
X313650000Y-64900000D02*
X313650000Y-65450000D01*
X313650000Y-64900000D02*
X314250000Y-64500000D01*
X314250000Y-64500000D02*
X314250000Y-65300000D01*
X314250000Y-64900000D02*
X314750000Y-64900000D01*
X314250000Y-65300000D02*
X313650000Y-64900000D01*
%TO.C,S18*%
D10*
X258500000Y-53460000D02*
X258000000Y-53960000D01*
X258500000Y-57960000D02*
X258000000Y-57460000D01*
X260800000Y-57960000D02*
X258500000Y-57960000D01*
X261500000Y-53460000D02*
X258500000Y-53460000D01*
X262000000Y-53960000D02*
X261500000Y-53460000D01*
X262000000Y-53960000D02*
X262000000Y-54880000D01*
X262500000Y-60160000D02*
X262500000Y-59460000D01*
X262520000Y-55460000D02*
X267000000Y-55460000D01*
X267000000Y-55460000D02*
X267000000Y-56060000D01*
X267000000Y-59660000D02*
X267000000Y-60160000D01*
X267000000Y-60160000D02*
X262500000Y-60160000D01*
X260800000Y-57960000D02*
G75*
G02*
X262500000Y-59440000I110000J-1590000D01*
G01*
X262520000Y-55460000D02*
G75*
G02*
X262000000Y-54880000I30000J550000D01*
G01*
%TO.C,S14*%
X276500000Y-69480000D02*
X276000000Y-69980000D01*
X276500000Y-73980000D02*
X276000000Y-73480000D01*
X278800000Y-73980000D02*
X276500000Y-73980000D01*
X279500000Y-69480000D02*
X276500000Y-69480000D01*
X280000000Y-69980000D02*
X279500000Y-69480000D01*
X280000000Y-69980000D02*
X280000000Y-70900000D01*
X280500000Y-76180000D02*
X280500000Y-75480000D01*
X280520000Y-71480000D02*
X285000000Y-71480000D01*
X285000000Y-71480000D02*
X285000000Y-72080000D01*
X285000000Y-75680000D02*
X285000000Y-76180000D01*
X285000000Y-76180000D02*
X280500000Y-76180000D01*
X278800000Y-73980000D02*
G75*
G02*
X280500000Y-75460000I110000J-1590000D01*
G01*
X280520000Y-71480000D02*
G75*
G02*
X280000000Y-70900000I30000J550000D01*
G01*
%TO.C,S15*%
X276500000Y-51480000D02*
X276000000Y-51980000D01*
X276500000Y-55980000D02*
X276000000Y-55480000D01*
X278800000Y-55980000D02*
X276500000Y-55980000D01*
X279500000Y-51480000D02*
X276500000Y-51480000D01*
X280000000Y-51980000D02*
X279500000Y-51480000D01*
X280000000Y-51980000D02*
X280000000Y-52900000D01*
X280500000Y-58180000D02*
X280500000Y-57480000D01*
X280520000Y-53480000D02*
X285000000Y-53480000D01*
X285000000Y-53480000D02*
X285000000Y-54080000D01*
X285000000Y-57680000D02*
X285000000Y-58180000D01*
X285000000Y-58180000D02*
X280500000Y-58180000D01*
X278800000Y-55980000D02*
G75*
G02*
X280500000Y-57460000I110000J-1590000D01*
G01*
X280520000Y-53480000D02*
G75*
G02*
X280000000Y-52900000I30000J550000D01*
G01*
%TO.C,S4*%
X330500000Y-91800000D02*
X330000000Y-92300000D01*
X330500000Y-96300000D02*
X330000000Y-95800000D01*
X332800000Y-96300000D02*
X330500000Y-96300000D01*
X333500000Y-91800000D02*
X330500000Y-91800000D01*
X334000000Y-92300000D02*
X333500000Y-91800000D01*
X334000000Y-92300000D02*
X334000000Y-93220000D01*
X334500000Y-98500000D02*
X334500000Y-97800000D01*
X334520000Y-93800000D02*
X339000000Y-93800000D01*
X339000000Y-93800000D02*
X339000000Y-94400000D01*
X339000000Y-98000000D02*
X339000000Y-98500000D01*
X339000000Y-98500000D02*
X334500000Y-98500000D01*
X332800000Y-96300000D02*
G75*
G02*
X334500000Y-97780000I110000J-1590000D01*
G01*
X334520000Y-93800000D02*
G75*
G02*
X334000000Y-93220000I30000J550000D01*
G01*
%TO.C,S12*%
X294500000Y-46980000D02*
X294000000Y-47480000D01*
X294500000Y-51480000D02*
X294000000Y-50980000D01*
X296800000Y-51480000D02*
X294500000Y-51480000D01*
X297500000Y-46980000D02*
X294500000Y-46980000D01*
X298000000Y-47480000D02*
X297500000Y-46980000D01*
X298000000Y-47480000D02*
X298000000Y-48400000D01*
X298500000Y-53680000D02*
X298500000Y-52980000D01*
X298520000Y-48980000D02*
X303000000Y-48980000D01*
X303000000Y-48980000D02*
X303000000Y-49580000D01*
X303000000Y-53180000D02*
X303000000Y-53680000D01*
X303000000Y-53680000D02*
X298500000Y-53680000D01*
X296800000Y-51480000D02*
G75*
G02*
X298500000Y-52960000I110000J-1590000D01*
G01*
X298520000Y-48980000D02*
G75*
G02*
X298000000Y-48400000I30000J550000D01*
G01*
%TO.C,S10*%
X294500000Y-82980000D02*
X294000000Y-83480000D01*
X294500000Y-87480000D02*
X294000000Y-86980000D01*
X296800000Y-87480000D02*
X294500000Y-87480000D01*
X297500000Y-82980000D02*
X294500000Y-82980000D01*
X298000000Y-83480000D02*
X297500000Y-82980000D01*
X298000000Y-83480000D02*
X298000000Y-84400000D01*
X298500000Y-89680000D02*
X298500000Y-88980000D01*
X298520000Y-84980000D02*
X303000000Y-84980000D01*
X303000000Y-84980000D02*
X303000000Y-85580000D01*
X303000000Y-89180000D02*
X303000000Y-89680000D01*
X303000000Y-89680000D02*
X298500000Y-89680000D01*
X296800000Y-87480000D02*
G75*
G02*
X298500000Y-88960000I110000J-1590000D01*
G01*
X298520000Y-84980000D02*
G75*
G02*
X298000000Y-84400000I30000J550000D01*
G01*
%TO.C,D13*%
D11*
X277250000Y-102880000D02*
X277650000Y-102880000D01*
X277650000Y-102880000D02*
X277650000Y-102330000D01*
X277650000Y-102880000D02*
X277650000Y-103430000D01*
X277650000Y-102880000D02*
X278250000Y-102480000D01*
X278250000Y-102480000D02*
X278250000Y-103280000D01*
X278250000Y-102880000D02*
X278750000Y-102880000D01*
X278250000Y-103280000D02*
X277650000Y-102880000D01*
%TO.C,S17*%
D10*
X258500000Y-71460000D02*
X258000000Y-71960000D01*
X258500000Y-75960000D02*
X258000000Y-75460000D01*
X260800000Y-75960000D02*
X258500000Y-75960000D01*
X261500000Y-71460000D02*
X258500000Y-71460000D01*
X262000000Y-71960000D02*
X261500000Y-71460000D01*
X262000000Y-71960000D02*
X262000000Y-72880000D01*
X262500000Y-78160000D02*
X262500000Y-77460000D01*
X262520000Y-73460000D02*
X267000000Y-73460000D01*
X267000000Y-73460000D02*
X267000000Y-74060000D01*
X267000000Y-77660000D02*
X267000000Y-78160000D01*
X267000000Y-78160000D02*
X262500000Y-78160000D01*
X260800000Y-75960000D02*
G75*
G02*
X262500000Y-77440000I110000J-1590000D01*
G01*
X262520000Y-73460000D02*
G75*
G02*
X262000000Y-72880000I30000J550000D01*
G01*
%TO.C,D2*%
D11*
X349250000Y-89200000D02*
X349650000Y-89200000D01*
X349650000Y-89200000D02*
X349650000Y-88650000D01*
X349650000Y-89200000D02*
X349650000Y-89750000D01*
X349650000Y-89200000D02*
X350250000Y-88800000D01*
X350250000Y-88800000D02*
X350250000Y-89600000D01*
X350250000Y-89200000D02*
X350750000Y-89200000D01*
X350250000Y-89600000D02*
X349650000Y-89200000D01*
%TO.C,D21*%
X267478486Y-119688740D02*
X268247495Y-119468230D01*
X267862991Y-119578486D02*
X267725172Y-119097854D01*
X268028373Y-120155242D02*
X267478486Y-119688740D01*
X268028373Y-120155242D02*
X267499679Y-120306842D01*
X268028373Y-120155242D02*
X268557067Y-120003641D01*
X268138628Y-120539746D02*
X268028373Y-120155242D01*
X268247495Y-119468230D02*
X268028373Y-120155242D01*
%TO.C,S5*%
D10*
X330500000Y-73800000D02*
X330000000Y-74300000D01*
X330500000Y-78300000D02*
X330000000Y-77800000D01*
X332800000Y-78300000D02*
X330500000Y-78300000D01*
X333500000Y-73800000D02*
X330500000Y-73800000D01*
X334000000Y-74300000D02*
X333500000Y-73800000D01*
X334000000Y-74300000D02*
X334000000Y-75220000D01*
X334500000Y-80500000D02*
X334500000Y-79800000D01*
X334520000Y-75800000D02*
X339000000Y-75800000D01*
X339000000Y-75800000D02*
X339000000Y-76400000D01*
X339000000Y-80000000D02*
X339000000Y-80500000D01*
X339000000Y-80500000D02*
X334500000Y-80500000D01*
X332800000Y-78300000D02*
G75*
G02*
X334500000Y-79780000I110000J-1590000D01*
G01*
X334520000Y-75800000D02*
G75*
G02*
X334000000Y-75220000I30000J550000D01*
G01*
%TO.C,S1*%
X348500000Y-91800000D02*
X348000000Y-92300000D01*
X348500000Y-96300000D02*
X348000000Y-95800000D01*
X350800000Y-96300000D02*
X348500000Y-96300000D01*
X351500000Y-91800000D02*
X348500000Y-91800000D01*
X352000000Y-92300000D02*
X351500000Y-91800000D01*
X352000000Y-92300000D02*
X352000000Y-93220000D01*
X352500000Y-98500000D02*
X352500000Y-97800000D01*
X352520000Y-93800000D02*
X357000000Y-93800000D01*
X357000000Y-93800000D02*
X357000000Y-94400000D01*
X357000000Y-98000000D02*
X357000000Y-98500000D01*
X357000000Y-98500000D02*
X352500000Y-98500000D01*
X350800000Y-96300000D02*
G75*
G02*
X352500000Y-97780000I110000J-1590000D01*
G01*
X352520000Y-93800000D02*
G75*
G02*
X352000000Y-93220000I30000J550000D01*
G01*
%TO.C,D20*%
D11*
X286814799Y-116548502D02*
X287607014Y-116437164D01*
X287210907Y-116492833D02*
X287141320Y-115997699D01*
X287294411Y-117086994D02*
X286749763Y-117163539D01*
X287294411Y-117086994D02*
X286814799Y-116548502D01*
X287294411Y-117086994D02*
X287839058Y-117010449D01*
X287350080Y-117483101D02*
X287294411Y-117086994D01*
X287607014Y-116437164D02*
X287294411Y-117086994D01*
%TO.C,S19*%
D10*
X291400000Y-114880000D02*
X291400000Y-117880000D01*
X291400000Y-117880000D02*
X291900000Y-118380000D01*
X291900000Y-114380000D02*
X291400000Y-114880000D01*
X291900000Y-114380000D02*
X292820000Y-114380000D01*
X293400000Y-109380000D02*
X294000000Y-109380000D01*
X293400000Y-113860000D02*
X293400000Y-109380000D01*
X295900000Y-115580000D02*
X295900000Y-117880000D01*
X295900000Y-117880000D02*
X295400000Y-118380000D01*
X297600000Y-109380000D02*
X298100000Y-109380000D01*
X298100000Y-109380000D02*
X298100000Y-113880000D01*
X298100000Y-113880000D02*
X297400000Y-113880000D01*
X293400000Y-113860000D02*
G75*
G02*
X292820000Y-114380000I-550000J30000D01*
G01*
X295900000Y-115580000D02*
G75*
G02*
X297380000Y-113880000I1590000J110000D01*
G01*
%TO.C,S16*%
X258500000Y-89460000D02*
X258000000Y-89960000D01*
X258500000Y-93960000D02*
X258000000Y-93460000D01*
X260800000Y-93960000D02*
X258500000Y-93960000D01*
X261500000Y-89460000D02*
X258500000Y-89460000D01*
X262000000Y-89960000D02*
X261500000Y-89460000D01*
X262000000Y-89960000D02*
X262000000Y-90880000D01*
X262500000Y-96160000D02*
X262500000Y-95460000D01*
X262520000Y-91460000D02*
X267000000Y-91460000D01*
X267000000Y-91460000D02*
X267000000Y-92060000D01*
X267000000Y-95660000D02*
X267000000Y-96160000D01*
X267000000Y-96160000D02*
X262500000Y-96160000D01*
X260800000Y-93960000D02*
G75*
G02*
X262500000Y-95440000I110000J-1590000D01*
G01*
X262520000Y-91460000D02*
G75*
G02*
X262000000Y-90880000I30000J550000D01*
G01*
%TO.C,S6*%
X330500000Y-55800000D02*
X330000000Y-56300000D01*
X330500000Y-60300000D02*
X330000000Y-59800000D01*
X332800000Y-60300000D02*
X330500000Y-60300000D01*
X333500000Y-55800000D02*
X330500000Y-55800000D01*
X334000000Y-56300000D02*
X333500000Y-55800000D01*
X334000000Y-56300000D02*
X334000000Y-57220000D01*
X334500000Y-62500000D02*
X334500000Y-61800000D01*
X334520000Y-57800000D02*
X339000000Y-57800000D01*
X339000000Y-57800000D02*
X339000000Y-58400000D01*
X339000000Y-62000000D02*
X339000000Y-62500000D01*
X339000000Y-62500000D02*
X334500000Y-62500000D01*
X332800000Y-60300000D02*
G75*
G02*
X334500000Y-61780000I110000J-1590000D01*
G01*
X334520000Y-57800000D02*
G75*
G02*
X334000000Y-57220000I30000J550000D01*
G01*
%TO.C,D11*%
D11*
X295250000Y-80380000D02*
X295650000Y-80380000D01*
X295650000Y-80380000D02*
X295650000Y-79830000D01*
X295650000Y-80380000D02*
X295650000Y-80930000D01*
X295650000Y-80380000D02*
X296250000Y-79980000D01*
X296250000Y-79980000D02*
X296250000Y-80780000D01*
X296250000Y-80380000D02*
X296750000Y-80380000D01*
X296250000Y-80780000D02*
X295650000Y-80380000D01*
%TO.C,D18*%
X259250000Y-68860000D02*
X259650000Y-68860000D01*
X259650000Y-68860000D02*
X259650000Y-68310000D01*
X259650000Y-68860000D02*
X259650000Y-69410000D01*
X259650000Y-68860000D02*
X260250000Y-68460000D01*
X260250000Y-68460000D02*
X260250000Y-69260000D01*
X260250000Y-68860000D02*
X260750000Y-68860000D01*
X260250000Y-69260000D02*
X259650000Y-68860000D01*
%TO.C,D19*%
X306400000Y-116130000D02*
X307200000Y-116130000D01*
X306800000Y-116130000D02*
X306800000Y-115630000D01*
X306800000Y-116730000D02*
X306250000Y-116730000D01*
X306800000Y-116730000D02*
X306400000Y-116130000D01*
X306800000Y-116730000D02*
X307350000Y-116730000D01*
X306800000Y-117130000D02*
X306800000Y-116730000D01*
X307200000Y-116130000D02*
X306800000Y-116730000D01*
%TO.C,S20*%
D10*
X271786842Y-117398317D02*
X272204360Y-120369122D01*
X272204360Y-120369122D02*
X272769082Y-120794669D01*
X272212390Y-116833597D02*
X271786842Y-117398317D01*
X272212390Y-116833597D02*
X273123436Y-116705556D01*
X273001926Y-111673497D02*
X273596087Y-111589993D01*
X273625422Y-116109898D02*
X273001926Y-111673497D01*
X276340470Y-117465226D02*
X276660568Y-119742843D01*
X276660568Y-119742843D02*
X276235020Y-120307563D01*
X277161052Y-111088970D02*
X277656186Y-111019383D01*
X277656186Y-111019383D02*
X278282465Y-115475589D01*
X278282465Y-115475589D02*
X277589277Y-115573011D01*
X273625422Y-116109898D02*
G75*
G02*
X273123436Y-116705558I-548823J-46837D01*
G01*
X276340470Y-117465226D02*
G75*
G02*
X277569472Y-115575794I1559217J330215D01*
G01*
%TO.C,D5*%
D11*
X331250000Y-89200000D02*
X331650000Y-89200000D01*
X331650000Y-89200000D02*
X331650000Y-88650000D01*
X331650000Y-89200000D02*
X331650000Y-89750000D01*
X331650000Y-89200000D02*
X332250000Y-88800000D01*
X332250000Y-88800000D02*
X332250000Y-89600000D01*
X332250000Y-89200000D02*
X332750000Y-89200000D01*
X332250000Y-89600000D02*
X331650000Y-89200000D01*
%TO.C,D22*%
X248767298Y-125489408D02*
X249498134Y-125164019D01*
X249132716Y-125326714D02*
X248929348Y-124869941D01*
X249376758Y-125874841D02*
X248767298Y-125489408D01*
X249376758Y-125874841D02*
X248874308Y-126098546D01*
X249376758Y-125874841D02*
X249879208Y-125651136D01*
X249498134Y-125164019D02*
X249376758Y-125874841D01*
X249539452Y-126240259D02*
X249376758Y-125874841D01*
%TO.C,D17*%
X259250000Y-86860000D02*
X259650000Y-86860000D01*
X259650000Y-86860000D02*
X259650000Y-86310000D01*
X259650000Y-86860000D02*
X259650000Y-87410000D01*
X259650000Y-86860000D02*
X260250000Y-86460000D01*
X260250000Y-86460000D02*
X260250000Y-87260000D01*
X260250000Y-86860000D02*
X260750000Y-86860000D01*
X260250000Y-87260000D02*
X259650000Y-86860000D01*
%TO.C,S7*%
D10*
X312500000Y-85500000D02*
X312000000Y-86000000D01*
X312500000Y-90000000D02*
X312000000Y-89500000D01*
X314800000Y-90000000D02*
X312500000Y-90000000D01*
X315500000Y-85500000D02*
X312500000Y-85500000D01*
X316000000Y-86000000D02*
X315500000Y-85500000D01*
X316000000Y-86000000D02*
X316000000Y-86920000D01*
X316500000Y-92200000D02*
X316500000Y-91500000D01*
X316520000Y-87500000D02*
X321000000Y-87500000D01*
X321000000Y-87500000D02*
X321000000Y-88100000D01*
X321000000Y-91700000D02*
X321000000Y-92200000D01*
X321000000Y-92200000D02*
X316500000Y-92200000D01*
X314800000Y-90000000D02*
G75*
G02*
X316500000Y-91480000I110000J-1590000D01*
G01*
X316520000Y-87500000D02*
G75*
G02*
X316000000Y-86920000I30000J550000D01*
G01*
%TO.C,D6*%
D11*
X331250000Y-71200000D02*
X331650000Y-71200000D01*
X331650000Y-71200000D02*
X331650000Y-70650000D01*
X331650000Y-71200000D02*
X331650000Y-71750000D01*
X331650000Y-71200000D02*
X332250000Y-70800000D01*
X332250000Y-70800000D02*
X332250000Y-71600000D01*
X332250000Y-71200000D02*
X332750000Y-71200000D01*
X332250000Y-71600000D02*
X331650000Y-71200000D01*
%TO.C,D7*%
X313250000Y-100900000D02*
X313650000Y-100900000D01*
X313650000Y-100900000D02*
X313650000Y-100350000D01*
X313650000Y-100900000D02*
X313650000Y-101450000D01*
X313650000Y-100900000D02*
X314250000Y-100500000D01*
X314250000Y-100500000D02*
X314250000Y-101300000D01*
X314250000Y-100900000D02*
X314750000Y-100900000D01*
X314250000Y-101300000D02*
X313650000Y-100900000D01*
%TO.C,D16*%
X259250000Y-104860000D02*
X259650000Y-104860000D01*
X259650000Y-104860000D02*
X259650000Y-104310000D01*
X259650000Y-104860000D02*
X259650000Y-105410000D01*
X259650000Y-104860000D02*
X260250000Y-104460000D01*
X260250000Y-104460000D02*
X260250000Y-105260000D01*
X260250000Y-104860000D02*
X260750000Y-104860000D01*
X260250000Y-105260000D02*
X259650000Y-104860000D01*
%TO.C,D10*%
X295250000Y-98380000D02*
X295650000Y-98380000D01*
X295650000Y-98380000D02*
X295650000Y-97830000D01*
X295650000Y-98380000D02*
X295650000Y-98930000D01*
X295650000Y-98380000D02*
X296250000Y-97980000D01*
X296250000Y-97980000D02*
X296250000Y-98780000D01*
X296250000Y-98380000D02*
X296750000Y-98380000D01*
X296250000Y-98780000D02*
X295650000Y-98380000D01*
%TO.C,D3*%
X349250000Y-71200000D02*
X349650000Y-71200000D01*
X349650000Y-71200000D02*
X349650000Y-70650000D01*
X349650000Y-71200000D02*
X349650000Y-71750000D01*
X349650000Y-71200000D02*
X350250000Y-70800000D01*
X350250000Y-70800000D02*
X350250000Y-71600000D01*
X350250000Y-71200000D02*
X350750000Y-71200000D01*
X350250000Y-71600000D02*
X349650000Y-71200000D01*
%TD*%
%LPC*%
D12*
%TO.C,MH3*%
X296000000Y-104140000D03*
%TD*%
D13*
%TO.C,MCU1*%
X239006000Y-65678000D03*
X241006000Y-65678000D03*
%TD*%
D14*
%TO.C,PWR1*%
X230075000Y-84660000D03*
X230075000Y-81660000D03*
%TD*%
D12*
%TO.C,MH1*%
X341000000Y-73000000D03*
%TD*%
%TO.C,MH2*%
X341000000Y-91000000D03*
%TD*%
%TO.C,MH4*%
X260000000Y-110620000D03*
%TD*%
D15*
%TO.C,JST1*%
X239000000Y-74160000D03*
D16*
X241000000Y-74160000D03*
%TD*%
D17*
%TO.C,S22*%
X244893952Y-133508100D03*
X249395342Y-130956634D03*
D18*
X237221305Y-130903683D03*
D19*
X242656900Y-128483600D03*
D18*
X237197421Y-125441135D03*
D17*
X240419848Y-123459100D03*
D20*
X238553367Y-133895544D03*
X235865359Y-122449274D03*
%TD*%
D17*
%TO.C,S11*%
X290500000Y-73180000D03*
X291000000Y-78330000D03*
D18*
X296000000Y-67230000D03*
D19*
X296000000Y-73180000D03*
D18*
X301000000Y-69430000D03*
D17*
X301500000Y-73180000D03*
D21*
X292725000Y-67230000D03*
X304275000Y-69430000D03*
%TD*%
D17*
%TO.C,S9*%
X308500000Y-57700000D03*
X309000000Y-62850000D03*
D18*
X314000000Y-51750000D03*
D19*
X314000000Y-57700000D03*
D18*
X319000000Y-53950000D03*
D17*
X319500000Y-57700000D03*
D21*
X310725000Y-51750000D03*
X322275000Y-53950000D03*
%TD*%
D17*
%TO.C,S8*%
X308500000Y-75700000D03*
X309000000Y-80850000D03*
D18*
X314000000Y-69750000D03*
D19*
X314000000Y-75700000D03*
D18*
X319000000Y-71950000D03*
D17*
X319500000Y-75700000D03*
D21*
X310725000Y-69750000D03*
X322275000Y-71950000D03*
%TD*%
D17*
%TO.C,S13*%
X272500000Y-95680000D03*
X273000000Y-100830000D03*
D18*
X278000000Y-89730000D03*
D19*
X278000000Y-95680000D03*
D18*
X283000000Y-91930000D03*
D17*
X283500000Y-95680000D03*
D21*
X274725000Y-89730000D03*
X286275000Y-91930000D03*
%TD*%
D22*
%TO.C,D1*%
X348350000Y-107200000D03*
X351650000Y-107200000D03*
%TD*%
D17*
%TO.C,S3*%
X344500000Y-64000000D03*
X345000000Y-69150000D03*
D18*
X350000000Y-58050000D03*
D19*
X350000000Y-64000000D03*
D18*
X355000000Y-60250000D03*
D17*
X355500000Y-64000000D03*
D21*
X346725000Y-58050000D03*
X358275000Y-60250000D03*
%TD*%
D22*
%TO.C,D8*%
X312350000Y-82900000D03*
X315650000Y-82900000D03*
%TD*%
D17*
%TO.C,S2*%
X344500000Y-82000000D03*
X345000000Y-87150000D03*
D18*
X350000000Y-76050000D03*
D19*
X350000000Y-82000000D03*
D18*
X355000000Y-78250000D03*
D17*
X355500000Y-82000000D03*
D21*
X346725000Y-76050000D03*
X358275000Y-78250000D03*
%TD*%
D22*
%TO.C,D12*%
X294350000Y-62380000D03*
X297650000Y-62380000D03*
%TD*%
%TO.C,D15*%
X276350000Y-66880000D03*
X279650000Y-66880000D03*
%TD*%
%TO.C,D14*%
X276350000Y-84880000D03*
X279650000Y-84880000D03*
%TD*%
D17*
%TO.C,S21*%
X262526805Y-127090339D03*
X267339485Y-125190176D03*
D18*
X255291293Y-123443442D03*
D19*
X261010800Y-121803400D03*
D18*
X256027882Y-118030732D03*
D17*
X259494795Y-116516461D03*
D23*
X256194005Y-126591574D03*
X255125170Y-114882601D03*
%TD*%
D22*
%TO.C,D4*%
X330350000Y-107200000D03*
X333650000Y-107200000D03*
%TD*%
%TO.C,D9*%
X312350000Y-64900000D03*
X315650000Y-64900000D03*
%TD*%
D17*
%TO.C,S18*%
X254500000Y-61660000D03*
X255000000Y-66810000D03*
D18*
X260000000Y-55710000D03*
D19*
X260000000Y-61660000D03*
D18*
X265000000Y-57910000D03*
D17*
X265500000Y-61660000D03*
D21*
X256725000Y-55710000D03*
X268275000Y-57910000D03*
%TD*%
D17*
%TO.C,S14*%
X272500000Y-77680000D03*
X273000000Y-82830000D03*
D18*
X278000000Y-71730000D03*
D19*
X278000000Y-77680000D03*
D18*
X283000000Y-73930000D03*
D17*
X283500000Y-77680000D03*
D21*
X274725000Y-71730000D03*
X286275000Y-73930000D03*
%TD*%
D17*
%TO.C,S15*%
X272500000Y-59680000D03*
X273000000Y-64830000D03*
D18*
X278000000Y-53730000D03*
D19*
X278000000Y-59680000D03*
D18*
X283000000Y-55930000D03*
D17*
X283500000Y-59680000D03*
D21*
X274725000Y-53730000D03*
X286275000Y-55930000D03*
%TD*%
D17*
%TO.C,S4*%
X326500000Y-100000000D03*
X327000000Y-105150000D03*
D18*
X332000000Y-94050000D03*
D19*
X332000000Y-100000000D03*
D18*
X337000000Y-96250000D03*
D17*
X337500000Y-100000000D03*
D21*
X328725000Y-94050000D03*
X340275000Y-96250000D03*
%TD*%
D17*
%TO.C,S12*%
X290500000Y-55180000D03*
X291000000Y-60330000D03*
D18*
X296000000Y-49230000D03*
D19*
X296000000Y-55180000D03*
D18*
X301000000Y-51430000D03*
D17*
X301500000Y-55180000D03*
D21*
X292725000Y-49230000D03*
X304275000Y-51430000D03*
%TD*%
D17*
%TO.C,S10*%
X290500000Y-91180000D03*
X291000000Y-96330000D03*
D18*
X296000000Y-85230000D03*
D19*
X296000000Y-91180000D03*
D18*
X301000000Y-87430000D03*
D17*
X301500000Y-91180000D03*
D21*
X292725000Y-85230000D03*
X304275000Y-87430000D03*
%TD*%
D22*
%TO.C,D13*%
X276350000Y-102880000D03*
X279650000Y-102880000D03*
%TD*%
D17*
%TO.C,S17*%
X254500000Y-79660000D03*
X255000000Y-84810000D03*
D18*
X260000000Y-73710000D03*
D19*
X260000000Y-79660000D03*
D18*
X265000000Y-75910000D03*
D17*
X265500000Y-79660000D03*
D21*
X256725000Y-73710000D03*
X268275000Y-75910000D03*
%TD*%
D22*
%TO.C,D2*%
X348350000Y-89200000D03*
X351650000Y-89200000D03*
%TD*%
D24*
%TO.C,D21*%
X268386702Y-121404882D03*
X267477098Y-118232718D03*
%TD*%
D17*
%TO.C,S5*%
X326500000Y-82000000D03*
X327000000Y-87150000D03*
D18*
X332000000Y-76050000D03*
D19*
X332000000Y-82000000D03*
D18*
X337000000Y-78250000D03*
D17*
X337500000Y-82000000D03*
D21*
X328725000Y-76050000D03*
X340275000Y-78250000D03*
%TD*%
D17*
%TO.C,S1*%
X344500000Y-100000000D03*
X345000000Y-105150000D03*
D18*
X350000000Y-94050000D03*
D19*
X350000000Y-100000000D03*
D18*
X355000000Y-96250000D03*
D17*
X355500000Y-100000000D03*
D21*
X346725000Y-94050000D03*
X358275000Y-96250000D03*
%TD*%
D25*
%TO.C,D20*%
X287475336Y-118374342D03*
X287016064Y-115106458D03*
%TD*%
D17*
%TO.C,S19*%
X299600000Y-121880000D03*
X304750000Y-121380000D03*
D18*
X293650000Y-116380000D03*
D19*
X299600000Y-116380000D03*
D18*
X295850000Y-111380000D03*
D17*
X299600000Y-110880000D03*
D26*
X293650000Y-119655000D03*
X295850000Y-108105000D03*
%TD*%
D17*
%TO.C,S16*%
X254500000Y-97660000D03*
X255000000Y-102810000D03*
D18*
X260000000Y-91710000D03*
D19*
X260000000Y-97660000D03*
D18*
X265000000Y-93910000D03*
D17*
X265500000Y-97660000D03*
D21*
X256725000Y-91710000D03*
X268275000Y-93910000D03*
%TD*%
D17*
%TO.C,S6*%
X326500000Y-64000000D03*
X327000000Y-69150000D03*
D18*
X332000000Y-58050000D03*
D19*
X332000000Y-64000000D03*
D18*
X337000000Y-60250000D03*
D17*
X337500000Y-64000000D03*
D21*
X328725000Y-58050000D03*
X340275000Y-60250000D03*
%TD*%
D22*
%TO.C,D11*%
X294350000Y-80380000D03*
X297650000Y-80380000D03*
%TD*%
%TO.C,D18*%
X258350000Y-68860000D03*
X261650000Y-68860000D03*
%TD*%
D27*
%TO.C,D19*%
X306800000Y-118030000D03*
X306800000Y-114730000D03*
%TD*%
D17*
%TO.C,S20*%
X280881252Y-123188974D03*
X285911546Y-121977099D03*
D18*
X274223705Y-118570580D03*
D19*
X280115800Y-117742500D03*
D18*
X275706429Y-113313059D03*
D17*
X279350348Y-112296026D03*
D28*
X274679497Y-121813708D03*
X275250637Y-110069931D03*
%TD*%
D22*
%TO.C,D5*%
X330350000Y-89200000D03*
X333650000Y-89200000D03*
%TD*%
D29*
%TO.C,D22*%
X249905515Y-127062450D03*
X248563285Y-124047750D03*
%TD*%
D22*
%TO.C,D17*%
X258350000Y-86860000D03*
X261650000Y-86860000D03*
%TD*%
D17*
%TO.C,S7*%
X308500000Y-93700000D03*
X309000000Y-98850000D03*
D18*
X314000000Y-87750000D03*
D19*
X314000000Y-93700000D03*
D18*
X319000000Y-89950000D03*
D17*
X319500000Y-93700000D03*
D21*
X310725000Y-87750000D03*
X322275000Y-89950000D03*
%TD*%
D22*
%TO.C,D6*%
X330350000Y-71200000D03*
X333650000Y-71200000D03*
%TD*%
%TO.C,D7*%
X312350000Y-100900000D03*
X315650000Y-100900000D03*
%TD*%
%TO.C,D16*%
X258350000Y-104860000D03*
X261650000Y-104860000D03*
%TD*%
%TO.C,D10*%
X294350000Y-98380000D03*
X297650000Y-98380000D03*
%TD*%
%TO.C,D3*%
X348350000Y-71200000D03*
X351650000Y-71200000D03*
%TD*%
%LPD*%
M02*
