M48
; DRILL file KiCad 10.0.5 date 2026-09-02T17:36:26
; FORMAT={-:-/ absolute / metric / decimal}
; #@! TF.CreationDate,2026-09-02T17:36:26+09:00
; #@! TF.GenerationSoftware,Kicad,Pcbnew,10.0.5
; #@! TF.FileFunction,NonPlated,1,2,NPTH
FMAT,2
METRIC
; #@! TA.AperFunction,NonPlated,NPTH,ComponentDrill
T1C0.900
; #@! TA.AperFunction,NonPlated,NPTH,ComponentDrill
T2C1.900
; #@! TA.AperFunction,NonPlated,NPTH,ComponentDrill
T3C2.200
; #@! TA.AperFunction,NonPlated,NPTH,ComponentDrill
T4C3.000
; #@! TA.AperFunction,NonPlated,NPTH,ComponentDrill
T5C5.000
%
G90
G05
T1
X230.075Y-81.66
X230.075Y-84.66
T2
X240.42Y-123.459
X244.894Y-133.508
X254.5Y-61.66
X254.5Y-79.66
X254.5Y-97.66
X259.495Y-116.516
X262.527Y-127.09
X265.5Y-61.66
X265.5Y-79.66
X265.5Y-97.66
X272.5Y-59.68
X272.5Y-77.68
X272.5Y-95.68
X279.35Y-112.296
X280.881Y-123.189
X283.5Y-59.68
X283.5Y-77.68
X283.5Y-95.68
X290.5Y-55.18
X290.5Y-73.18
X290.5Y-91.18
X299.6Y-110.88
X299.6Y-121.88
X301.5Y-55.18
X301.5Y-73.18
X301.5Y-91.18
X308.5Y-57.7
X308.5Y-75.7
X308.5Y-93.7
X319.5Y-57.7
X319.5Y-75.7
X319.5Y-93.7
X326.5Y-64.0
X326.5Y-82.0
X326.5Y-100.0
X337.5Y-64.0
X337.5Y-82.0
X337.5Y-100.0
X344.5Y-64.0
X344.5Y-82.0
X344.5Y-100.0
X355.5Y-64.0
X355.5Y-82.0
X355.5Y-100.0
T3
X260.0Y-110.62
X296.0Y-104.14
X341.0Y-73.0
X341.0Y-91.0
T4
X237.197Y-125.441
X237.221Y-130.904
X255.291Y-123.443
X256.028Y-118.031
X260.0Y-55.71
X260.0Y-73.71
X260.0Y-91.71
X265.0Y-57.91
X265.0Y-75.91
X265.0Y-93.91
X274.224Y-118.571
X275.706Y-113.313
X278.0Y-53.73
X278.0Y-71.73
X278.0Y-89.73
X283.0Y-55.93
X283.0Y-73.93
X283.0Y-91.93
X293.65Y-116.38
X295.85Y-111.38
X296.0Y-49.23
X296.0Y-67.23
X296.0Y-85.23
X301.0Y-51.43
X301.0Y-69.43
X301.0Y-87.43
X314.0Y-51.75
X314.0Y-69.75
X314.0Y-87.75
X319.0Y-53.95
X319.0Y-71.95
X319.0Y-89.95
X332.0Y-58.05
X332.0Y-76.05
X332.0Y-94.05
X337.0Y-60.25
X337.0Y-78.25
X337.0Y-96.25
X350.0Y-58.05
X350.0Y-76.05
X350.0Y-94.05
X355.0Y-60.25
X355.0Y-78.25
X355.0Y-96.25
T5
X242.657Y-128.484
X260.0Y-61.66
X260.0Y-79.66
X260.0Y-97.66
X261.011Y-121.803
X278.0Y-59.68
X278.0Y-77.68
X278.0Y-95.68
X280.116Y-117.742
X296.0Y-55.18
X296.0Y-73.18
X296.0Y-91.18
X299.6Y-116.38
X314.0Y-57.7
X314.0Y-75.7
X314.0Y-93.7
X332.0Y-64.0
X332.0Y-82.0
X332.0Y-100.0
X350.0Y-64.0
X350.0Y-82.0
X350.0Y-100.0
M30
