0
SECTION
2
HEADER
9
$INSUNITS
70
4
0
ENDSEC
0
SECTION
2
TABLES
0
TABLE
2
LTYPE
0
LTYPE
72
65
70
0
2
CONTINUOUS
3
______
73
0
40
0
0
LTYPE
72
65
70
0
2
DASHED
3
_ _ _ 
73
2
40
7.5
49
5
49
-2.5
0
LTYPE
72
65
70
0
2
DOTTED
3
. . . 
73
2
40
1.5
49
0.5
49
-1
0
ENDTAB
0
TABLE
2
LAYER
0
ENDTAB
0
ENDSEC
0
SECTION
2
ENTITIES
0
LINE
8
0
6
CONTINUOUS
10
141.4
20
-128.38
11
159.2952382
21
-128.38
0
LINE
8
0
6
CONTINUOUS
10
159.2952382
20
-128.38
11
159.4054866
21
-128.3877093
0
LINE
8
0
6
CONTINUOUS
10
159.4054866
20
-128.3877093
11
176.8161553
21
-130.8346192
0
LINE
8
0
6
CONTINUOUS
10
176.8161553
20
-130.8346192
11
210.8817851
21
-143.1865011
0
ARC
8
0
6
CONTINUOUS
10
211.9044093
20
-140.3661749
40
3
50
250.0698243
51
336.0000007
0
LINE
8
0
6
CONTINUOUS
10
214.6450457
20
-141.5863848
11
221.9663053
21
-125.1425666
0
ARC
8
0
6
CONTINUOUS
10
219.2256689
20
-123.9223567
40
3
50
335.9999999
51
360.6542404
0
LINE
8
0
6
CONTINUOUS
10
222.2254733
20
-123.8881015
11
222
21
-104.142874
0
LINE
8
0
6
CONTINUOUS
10
222
20
-104.142874
11
222
21
-52.66
0
ARC
8
0
6
CONTINUOUS
10
219
20
-52.66
40
3
50
0
51
87.0172861
0
LINE
8
0
6
CONTINUOUS
10
219.156104
20
-49.6640642
11
181.4459926
21
-47.6991689
0
LINE
8
0
6
CONTINUOUS
10
181.4459926
20
-47.6991689
11
163.7276069
21
-43.2695725
0
ARC
8
0
6
CONTINUOUS
10
163
20
-46.18
40
3
50
75.9637565
51
90
0
LINE
8
0
6
CONTINUOUS
10
163
20
-43.18
11
145
21
-43.18
0
ARC
8
0
6
CONTINUOUS
10
145
20
-46.18
40
3
50
90
51
97.9696099
0
LINE
8
0
6
CONTINUOUS
10
144.5840565
20
-43.2089748
11
126.5840565
21
-45.7289748
0
ARC
8
0
6
CONTINUOUS
10
127
20
-48.7
40
3
50
97.9696104
51
99.9262456
0
LINE
8
0
6
CONTINUOUS
10
126.482859
20
-45.7449086
11
90.482859
21
-52.0449086
0
ARC
8
0
6
CONTINUOUS
10
91
20
-55
40
3
50
99.9262455
51
180
0
LINE
8
0
6
CONTINUOUS
10
88
20
-109
11
88
21
-55
0
ARC
8
0
6
CONTINUOUS
10
91
20
-109
40
3
50
180
51
270
0
LINE
8
0
6
CONTINUOUS
10
91
20
-112
11
108.2847699
21
-112
0
LINE
8
0
6
CONTINUOUS
10
108.2847699
20
-112
11
140.0464733
21
-128.0573056
0
ARC
8
0
6
CONTINUOUS
10
141.4
20
-125.38
40
3
50
243.1808675
51
270
0
ENDSEC
0
EOF