0
SECTION
2
HEADER
9
$INSUNITS
70
4
0
ENDSEC
0
SECTION
2
TABLES
0
TABLE
2
LTYPE
0
LTYPE
72
65
70
0
2
CONTINUOUS
3
______
73
0
40
0
0
LTYPE
72
65
70
0
2
DASHED
3
_ _ _ 
73
2
40
7.5
49
5
49
-2.5
0
LTYPE
72
65
70
0
2
DOTTED
3
. . . 
73
2
40
1.5
49
0.5
49
-1
0
ENDTAB
0
TABLE
2
LAYER
0
ENDTAB
0
ENDSEC
0
SECTION
2
ENTITIES
0
LINE
8
0
6
CONTINUOUS
10
201
20
-83.16
11
219
21
-83.16
0
ARC
8
0
6
CONTINUOUS
10
219
20
-82.16
40
1
50
270
51
360
0
LINE
8
0
6
CONTINUOUS
10
220
20
-82.16
11
220
21
-54.16
0
ARC
8
0
6
CONTINUOUS
10
219
20
-54.16
40
1
50
0
51
90
0
LINE
8
0
6
CONTINUOUS
10
219
20
-53.16
11
201
21
-53.16
0
ARC
8
0
6
CONTINUOUS
10
201
20
-54.16
40
1
50
90
51
180
0
LINE
8
0
6
CONTINUOUS
10
200
20
-54.16
11
200
21
-82.16
0
ARC
8
0
6
CONTINUOUS
10
201
20
-82.16
40
1
50
180
51
270
0
ENDSEC
0
EOF