0
SECTION
2
HEADER
9
$INSUNITS
70
4
0
ENDSEC
0
SECTION
2
TABLES
0
TABLE
2
LTYPE
0
LTYPE
72
65
70
0
2
CONTINUOUS
3
______
73
0
40
0
0
LTYPE
72
65
70
0
2
DASHED
3
_ _ _ 
73
2
40
7.5
49
5
49
-2.5
0
LTYPE
72
65
70
0
2
DOTTED
3
. . . 
73
2
40
1.5
49
0.5
49
-1
0
ENDTAB
0
TABLE
2
LAYER
0
ENDTAB
0
ENDSEC
0
SECTION
2
ENTITIES
0
LINE
8
0
6
CONTINUOUS
10
231
20
-104.16
11
249
21
-104.16
0
ARC
8
0
6
CONTINUOUS
10
249
20
-103.16
40
1
50
270
51
360
0
LINE
8
0
6
CONTINUOUS
10
250
20
-103.16
11
250
21
-79.16
0
ARC
8
0
6
CONTINUOUS
10
249
20
-79.16
40
1
50
0
51
90
0
LINE
8
0
6
CONTINUOUS
10
249
20
-78.16
11
231
21
-78.16
0
ARC
8
0
6
CONTINUOUS
10
231
20
-79.16
40
1
50
90
51
180
0
LINE
8
0
6
CONTINUOUS
10
230
20
-79.16
11
230
21
-103.16
0
ARC
8
0
6
CONTINUOUS
10
231
20
-103.16
40
1
50
180
51
270
0
ENDSEC
0
EOF