0
SECTION
2
HEADER
9
$INSUNITS
70
4
0
ENDSEC
0
SECTION
2
TABLES
0
TABLE
2
LTYPE
0
LTYPE
72
65
70
0
2
CONTINUOUS
3
______
73
0
40
0
0
LTYPE
72
65
70
0
2
DASHED
3
_ _ _ 
73
2
40
7.5
49
5
49
-2.5
0
LTYPE
72
65
70
0
2
DOTTED
3
. . . 
73
2
40
1.5
49
0.5
49
-1
0
ENDTAB
0
TABLE
2
LAYER
0
ENDTAB
0
ENDSEC
0
SECTION
2
ENTITIES
0
LINE
8
0
6
CONTINUOUS
10
239.3158006
20
-143.1068113
11
255.6639135
21
-135.8281624
0
LINE
8
0
6
CONTINUOUS
10
255.6639135
20
-135.8281624
11
255.7677672
21
-135.7903628
0
LINE
8
0
6
CONTINUOUS
10
255.7677672
20
-135.7903628
11
272.6684523
21
-130.9441693
0
LINE
8
0
6
CONTINUOUS
10
272.6684523
20
-130.9441693
11
308.8129164
21
-128.3724349
0
ARC
8
0
6
CONTINUOUS
10
308.6
20
-125.38
40
3
50
274.0698246
51
318.6806225
0
LINE
8
0
6
CONTINUOUS
10
310.8531226
20
-127.3607671
11
324.3570937
21
-112
0
LINE
8
0
6
CONTINUOUS
10
324.3570937
20
-112
11
359
21
-112
0
ARC
8
0
6
CONTINUOUS
10
359
20
-109
40
3
50
270
51
360
0
LINE
8
0
6
CONTINUOUS
10
362
20
-109
11
362
21
-55
0
ARC
8
0
6
CONTINUOUS
10
359
20
-55
40
3
50
0
51
80.0737544
0
LINE
8
0
6
CONTINUOUS
10
359.517141
20
-52.0449086
11
323.517141
21
-45.7449086
0
ARC
8
0
6
CONTINUOUS
10
323
20
-48.7
40
3
50
80.0737545
51
82.0303901
0
LINE
8
0
6
CONTINUOUS
10
323.4159435
20
-45.7289748
11
305.4159435
21
-43.2089748
0
ARC
8
0
6
CONTINUOUS
10
305
20
-46.18
40
3
50
82.0303896
51
90
0
LINE
8
0
6
CONTINUOUS
10
305
20
-43.18
11
287
21
-43.18
0
ARC
8
0
6
CONTINUOUS
10
287
20
-46.18
40
3
50
90
51
99.6773518
0
LINE
8
0
6
CONTINUOUS
10
286.4957008
20
-43.22269
11
248.7460434
21
-49.66
0
LINE
8
0
6
CONTINUOUS
10
248.7460434
20
-49.66
11
231
21
-49.66
0
ARC
8
0
6
CONTINUOUS
10
231
20
-52.66
40
3
50
90
51
180
0
LINE
8
0
6
CONTINUOUS
10
228
20
-104.142874
11
228
21
-52.66
0
LINE
8
0
6
CONTINUOUS
10
228
20
-104.142874
11
227.7745267
21
-123.8881015
0
ARC
8
0
6
CONTINUOUS
10
230.7743311
20
-123.9223567
40
3
50
179.3457605
51
203.9999993
0
LINE
8
0
6
CONTINUOUS
10
228.0336947
20
-125.1425666
11
235.3549543
21
-141.5863848
0
ARC
8
0
6
CONTINUOUS
10
238.0955907
20
-140.3661749
40
3
50
203.9999993
51
294.0000001
0
ENDSEC
0
EOF