0
SECTION
2
HEADER
9
$INSUNITS
70
4
0
ENDSEC
0
SECTION
2
TABLES
0
TABLE
2
LTYPE
0
LTYPE
72
65
70
0
2
CONTINUOUS
3
______
73
0
40
0
0
LTYPE
72
65
70
0
2
DASHED
3
_ _ _ 
73
2
40
7.5
49
5
49
-2.5
0
LTYPE
72
65
70
0
2
DOTTED
3
. . . 
73
2
40
1.5
49
0.5
49
-1
0
ENDTAB
0
TABLE
2
LAYER
0
ENDTAB
0
ENDSEC
0
SECTION
2
ENTITIES
0
LINE
8
0
6
CONTINUOUS
10
92.25
20
-108.75
11
107.75
21
-108.75
0
ARC
8
0
6
CONTINUOUS
10
107.75
20
-107.75
40
1
50
270
51
360
0
LINE
8
0
6
CONTINUOUS
10
108.75
20
-107.75
11
108.75
21
-92.25
0
ARC
8
0
6
CONTINUOUS
10
107.75
20
-92.25
40
1
50
0
51
90
0
LINE
8
0
6
CONTINUOUS
10
107.75
20
-91.25
11
92.25
21
-91.25
0
ARC
8
0
6
CONTINUOUS
10
92.25
20
-92.25
40
1
50
90
51
180
0
LINE
8
0
6
CONTINUOUS
10
91.25
20
-92.25
11
91.25
21
-107.75
0
ARC
8
0
6
CONTINUOUS
10
92.25
20
-107.75
40
1
50
180
51
270
0
LINE
8
0
6
CONTINUOUS
10
92.25
20
-90.75
11
107.75
21
-90.75
0
ARC
8
0
6
CONTINUOUS
10
107.75
20
-89.75
40
1
50
270
51
360
0
LINE
8
0
6
CONTINUOUS
10
108.75
20
-89.75
11
108.75
21
-74.25
0
ARC
8
0
6
CONTINUOUS
10
107.75
20
-74.25
40
1
50
0
51
90
0
LINE
8
0
6
CONTINUOUS
10
107.75
20
-73.25
11
92.25
21
-73.25
0
ARC
8
0
6
CONTINUOUS
10
92.25
20
-74.25
40
1
50
90
51
180
0
LINE
8
0
6
CONTINUOUS
10
91.25
20
-74.25
11
91.25
21
-89.75
0
ARC
8
0
6
CONTINUOUS
10
92.25
20
-89.75
40
1
50
180
51
270
0
LINE
8
0
6
CONTINUOUS
10
92.25
20
-72.75
11
107.75
21
-72.75
0
ARC
8
0
6
CONTINUOUS
10
107.75
20
-71.75
40
1
50
270
51
360
0
LINE
8
0
6
CONTINUOUS
10
108.75
20
-71.75
11
108.75
21
-56.25
0
ARC
8
0
6
CONTINUOUS
10
107.75
20
-56.25
40
1
50
0
51
90
0
LINE
8
0
6
CONTINUOUS
10
107.75
20
-55.25
11
92.25
21
-55.25
0
ARC
8
0
6
CONTINUOUS
10
92.25
20
-56.25
40
1
50
90
51
180
0
LINE
8
0
6
CONTINUOUS
10
91.25
20
-56.25
11
91.25
21
-71.75
0
ARC
8
0
6
CONTINUOUS
10
92.25
20
-71.75
40
1
50
180
51
270
0
LINE
8
0
6
CONTINUOUS
10
110.25
20
-108.75
11
125.75
21
-108.75
0
ARC
8
0
6
CONTINUOUS
10
125.75
20
-107.75
40
1
50
270
51
360
0
LINE
8
0
6
CONTINUOUS
10
126.75
20
-107.75
11
126.75
21
-92.25
0
ARC
8
0
6
CONTINUOUS
10
125.75
20
-92.25
40
1
50
0
51
90
0
LINE
8
0
6
CONTINUOUS
10
125.75
20
-91.25
11
110.25
21
-91.25
0
ARC
8
0
6
CONTINUOUS
10
110.25
20
-92.25
40
1
50
90
51
180
0
LINE
8
0
6
CONTINUOUS
10
109.25
20
-92.25
11
109.25
21
-107.75
0
ARC
8
0
6
CONTINUOUS
10
110.25
20
-107.75
40
1
50
180
51
270
0
LINE
8
0
6
CONTINUOUS
10
110.25
20
-90.75
11
125.75
21
-90.75
0
ARC
8
0
6
CONTINUOUS
10
125.75
20
-89.75
40
1
50
270
51
360
0
LINE
8
0
6
CONTINUOUS
10
126.75
20
-89.75
11
126.75
21
-74.25
0
ARC
8
0
6
CONTINUOUS
10
125.75
20
-74.25
40
1
50
0
51
90
0
LINE
8
0
6
CONTINUOUS
10
125.75
20
-73.25
11
110.25
21
-73.25
0
ARC
8
0
6
CONTINUOUS
10
110.25
20
-74.25
40
1
50
90
51
180
0
LINE
8
0
6
CONTINUOUS
10
109.25
20
-74.25
11
109.25
21
-89.75
0
ARC
8
0
6
CONTINUOUS
10
110.25
20
-89.75
40
1
50
180
51
270
0
LINE
8
0
6
CONTINUOUS
10
110.25
20
-72.75
11
125.75
21
-72.75
0
ARC
8
0
6
CONTINUOUS
10
125.75
20
-71.75
40
1
50
270
51
360
0
LINE
8
0
6
CONTINUOUS
10
126.75
20
-71.75
11
126.75
21
-56.25
0
ARC
8
0
6
CONTINUOUS
10
125.75
20
-56.25
40
1
50
0
51
90
0
LINE
8
0
6
CONTINUOUS
10
125.75
20
-55.25
11
110.25
21
-55.25
0
ARC
8
0
6
CONTINUOUS
10
110.25
20
-56.25
40
1
50
90
51
180
0
LINE
8
0
6
CONTINUOUS
10
109.25
20
-56.25
11
109.25
21
-71.75
0
ARC
8
0
6
CONTINUOUS
10
110.25
20
-71.75
40
1
50
180
51
270
0
LINE
8
0
6
CONTINUOUS
10
128.25
20
-102.45
11
143.75
21
-102.45
0
ARC
8
0
6
CONTINUOUS
10
143.75
20
-101.45
40
1
50
270
51
360
0
LINE
8
0
6
CONTINUOUS
10
144.75
20
-101.45
11
144.75
21
-85.95
0
ARC
8
0
6
CONTINUOUS
10
143.75
20
-85.95
40
1
50
0
51
90
0
LINE
8
0
6
CONTINUOUS
10
143.75
20
-84.95
11
128.25
21
-84.95
0
ARC
8
0
6
CONTINUOUS
10
128.25
20
-85.95
40
1
50
90
51
180
0
LINE
8
0
6
CONTINUOUS
10
127.25
20
-85.95
11
127.25
21
-101.45
0
ARC
8
0
6
CONTINUOUS
10
128.25
20
-101.45
40
1
50
180
51
270
0
LINE
8
0
6
CONTINUOUS
10
128.25
20
-84.45
11
143.75
21
-84.45
0
ARC
8
0
6
CONTINUOUS
10
143.75
20
-83.45
40
1
50
270
51
360
0
LINE
8
0
6
CONTINUOUS
10
144.75
20
-83.45
11
144.75
21
-67.95
0
ARC
8
0
6
CONTINUOUS
10
143.75
20
-67.95
40
1
50
0
51
90
0
LINE
8
0
6
CONTINUOUS
10
143.75
20
-66.95
11
128.25
21
-66.95
0
ARC
8
0
6
CONTINUOUS
10
128.25
20
-67.95
40
1
50
90
51
180
0
LINE
8
0
6
CONTINUOUS
10
127.25
20
-67.95
11
127.25
21
-83.45
0
ARC
8
0
6
CONTINUOUS
10
128.25
20
-83.45
40
1
50
180
51
270
0
LINE
8
0
6
CONTINUOUS
10
128.25
20
-66.45
11
143.75
21
-66.45
0
ARC
8
0
6
CONTINUOUS
10
143.75
20
-65.45
40
1
50
270
51
360
0
LINE
8
0
6
CONTINUOUS
10
144.75
20
-65.45
11
144.75
21
-49.95
0
ARC
8
0
6
CONTINUOUS
10
143.75
20
-49.95
40
1
50
0
51
90
0
LINE
8
0
6
CONTINUOUS
10
143.75
20
-48.95
11
128.25
21
-48.95
0
ARC
8
0
6
CONTINUOUS
10
128.25
20
-49.95
40
1
50
90
51
180
0
LINE
8
0
6
CONTINUOUS
10
127.25
20
-49.95
11
127.25
21
-65.45
0
ARC
8
0
6
CONTINUOUS
10
128.25
20
-65.45
40
1
50
180
51
270
0
LINE
8
0
6
CONTINUOUS
10
146.25
20
-99.93
11
161.75
21
-99.93
0
ARC
8
0
6
CONTINUOUS
10
161.75
20
-98.93
40
1
50
270
51
360
0
LINE
8
0
6
CONTINUOUS
10
162.75
20
-98.93
11
162.75
21
-83.43
0
ARC
8
0
6
CONTINUOUS
10
161.75
20
-83.43
40
1
50
0
51
90
0
LINE
8
0
6
CONTINUOUS
10
161.75
20
-82.43
11
146.25
21
-82.43
0
ARC
8
0
6
CONTINUOUS
10
146.25
20
-83.43
40
1
50
90
51
180
0
LINE
8
0
6
CONTINUOUS
10
145.25
20
-83.43
11
145.25
21
-98.93
0
ARC
8
0
6
CONTINUOUS
10
146.25
20
-98.93
40
1
50
180
51
270
0
LINE
8
0
6
CONTINUOUS
10
146.25
20
-81.93
11
161.75
21
-81.93
0
ARC
8
0
6
CONTINUOUS
10
161.75
20
-80.93
40
1
50
270
51
360
0
LINE
8
0
6
CONTINUOUS
10
162.75
20
-80.93
11
162.75
21
-65.43
0
ARC
8
0
6
CONTINUOUS
10
161.75
20
-65.43
40
1
50
0
51
90
0
LINE
8
0
6
CONTINUOUS
10
161.75
20
-64.43
11
146.25
21
-64.43
0
ARC
8
0
6
CONTINUOUS
10
146.25
20
-65.43
40
1
50
90
51
180
0
LINE
8
0
6
CONTINUOUS
10
145.25
20
-65.43
11
145.25
21
-80.93
0
ARC
8
0
6
CONTINUOUS
10
146.25
20
-80.93
40
1
50
180
51
270
0
LINE
8
0
6
CONTINUOUS
10
146.25
20
-63.93
11
161.75
21
-63.93
0
ARC
8
0
6
CONTINUOUS
10
161.75
20
-62.93
40
1
50
270
51
360
0
LINE
8
0
6
CONTINUOUS
10
162.75
20
-62.93
11
162.75
21
-47.43
0
ARC
8
0
6
CONTINUOUS
10
161.75
20
-47.43
40
1
50
0
51
90
0
LINE
8
0
6
CONTINUOUS
10
161.75
20
-46.43
11
146.25
21
-46.43
0
ARC
8
0
6
CONTINUOUS
10
146.25
20
-47.43
40
1
50
90
51
180
0
LINE
8
0
6
CONTINUOUS
10
145.25
20
-47.43
11
145.25
21
-62.93
0
ARC
8
0
6
CONTINUOUS
10
146.25
20
-62.93
40
1
50
180
51
270
0
LINE
8
0
6
CONTINUOUS
10
164.25
20
-104.43
11
179.75
21
-104.43
0
ARC
8
0
6
CONTINUOUS
10
179.75
20
-103.43
40
1
50
270
51
360
0
LINE
8
0
6
CONTINUOUS
10
180.75
20
-103.43
11
180.75
21
-87.93
0
ARC
8
0
6
CONTINUOUS
10
179.75
20
-87.93
40
1
50
0
51
90
0
LINE
8
0
6
CONTINUOUS
10
179.75
20
-86.93
11
164.25
21
-86.93
0
ARC
8
0
6
CONTINUOUS
10
164.25
20
-87.93
40
1
50
90
51
180
0
LINE
8
0
6
CONTINUOUS
10
163.25
20
-87.93
11
163.25
21
-103.43
0
ARC
8
0
6
CONTINUOUS
10
164.25
20
-103.43
40
1
50
180
51
270
0
LINE
8
0
6
CONTINUOUS
10
164.25
20
-86.43
11
179.75
21
-86.43
0
ARC
8
0
6
CONTINUOUS
10
179.75
20
-85.43
40
1
50
270
51
360
0
LINE
8
0
6
CONTINUOUS
10
180.75
20
-85.43
11
180.75
21
-69.93
0
ARC
8
0
6
CONTINUOUS
10
179.75
20
-69.93
40
1
50
0
51
90
0
LINE
8
0
6
CONTINUOUS
10
179.75
20
-68.93
11
164.25
21
-68.93
0
ARC
8
0
6
CONTINUOUS
10
164.25
20
-69.93
40
1
50
90
51
180
0
LINE
8
0
6
CONTINUOUS
10
163.25
20
-69.93
11
163.25
21
-85.43
0
ARC
8
0
6
CONTINUOUS
10
164.25
20
-85.43
40
1
50
180
51
270
0
LINE
8
0
6
CONTINUOUS
10
164.25
20
-68.43
11
179.75
21
-68.43
0
ARC
8
0
6
CONTINUOUS
10
179.75
20
-67.43
40
1
50
270
51
360
0
LINE
8
0
6
CONTINUOUS
10
180.75
20
-67.43
11
180.75
21
-51.93
0
ARC
8
0
6
CONTINUOUS
10
179.75
20
-51.93
40
1
50
0
51
90
0
LINE
8
0
6
CONTINUOUS
10
179.75
20
-50.93
11
164.25
21
-50.93
0
ARC
8
0
6
CONTINUOUS
10
164.25
20
-51.93
40
1
50
90
51
180
0
LINE
8
0
6
CONTINUOUS
10
163.25
20
-51.93
11
163.25
21
-67.43
0
ARC
8
0
6
CONTINUOUS
10
164.25
20
-67.43
40
1
50
180
51
270
0
LINE
8
0
6
CONTINUOUS
10
182.25
20
-106.41
11
197.75
21
-106.41
0
ARC
8
0
6
CONTINUOUS
10
197.75
20
-105.41
40
1
50
270
51
360
0
LINE
8
0
6
CONTINUOUS
10
198.75
20
-105.41
11
198.75
21
-89.91
0
ARC
8
0
6
CONTINUOUS
10
197.75
20
-89.91
40
1
50
0
51
90
0
LINE
8
0
6
CONTINUOUS
10
197.75
20
-88.91
11
182.25
21
-88.91
0
ARC
8
0
6
CONTINUOUS
10
182.25
20
-89.91
40
1
50
90
51
180
0
LINE
8
0
6
CONTINUOUS
10
181.25
20
-89.91
11
181.25
21
-105.41
0
ARC
8
0
6
CONTINUOUS
10
182.25
20
-105.41
40
1
50
180
51
270
0
LINE
8
0
6
CONTINUOUS
10
182.25
20
-88.41
11
197.75
21
-88.41
0
ARC
8
0
6
CONTINUOUS
10
197.75
20
-87.41
40
1
50
270
51
360
0
LINE
8
0
6
CONTINUOUS
10
198.75
20
-87.41
11
198.75
21
-71.91
0
ARC
8
0
6
CONTINUOUS
10
197.75
20
-71.91
40
1
50
0
51
90
0
LINE
8
0
6
CONTINUOUS
10
197.75
20
-70.91
11
182.25
21
-70.91
0
ARC
8
0
6
CONTINUOUS
10
182.25
20
-71.91
40
1
50
90
51
180
0
LINE
8
0
6
CONTINUOUS
10
181.25
20
-71.91
11
181.25
21
-87.41
0
ARC
8
0
6
CONTINUOUS
10
182.25
20
-87.41
40
1
50
180
51
270
0
LINE
8
0
6
CONTINUOUS
10
182.25
20
-70.41
11
197.75
21
-70.41
0
ARC
8
0
6
CONTINUOUS
10
197.75
20
-69.41
40
1
50
270
51
360
0
LINE
8
0
6
CONTINUOUS
10
198.75
20
-69.41
11
198.75
21
-53.91
0
ARC
8
0
6
CONTINUOUS
10
197.75
20
-53.91
40
1
50
0
51
90
0
LINE
8
0
6
CONTINUOUS
10
197.75
20
-52.91
11
182.25
21
-52.91
0
ARC
8
0
6
CONTINUOUS
10
182.25
20
-53.91
40
1
50
90
51
180
0
LINE
8
0
6
CONTINUOUS
10
181.25
20
-53.91
11
181.25
21
-69.41
0
ARC
8
0
6
CONTINUOUS
10
182.25
20
-69.41
40
1
50
180
51
270
0
LINE
8
0
6
CONTINUOUS
10
141.65
20
-108.63
11
141.65
21
-124.13
0
ARC
8
0
6
CONTINUOUS
10
142.65
20
-124.13
40
1
50
180
51
270
0
LINE
8
0
6
CONTINUOUS
10
142.65
20
-125.13
11
158.15
21
-125.13
0
ARC
8
0
6
CONTINUOUS
10
158.15
20
-124.13
40
1
50
270
51
0
0
LINE
8
0
6
CONTINUOUS
10
159.15
20
-124.13
11
159.15
21
-108.63
0
ARC
8
0
6
CONTINUOUS
10
158.15
20
-108.63
40
1
50
0
51
90
0
LINE
8
0
6
CONTINUOUS
10
158.15
20
-107.63
11
142.65
21
-107.63
0
ARC
8
0
6
CONTINUOUS
10
142.65
20
-108.63
40
1
50
90
51
180
0
LINE
8
0
6
CONTINUOUS
10
162.29798
20
-108.8501282
11
160.140797
21
-124.1992833
0
ARC
8
0
6
CONTINUOUS
10
161.131065
20
-124.3384564
40
1
50
172
51
262
0
LINE
8
0
6
CONTINUOUS
10
160.9918919
20
-125.3287245
11
176.341047
21
-127.4859075
0
ARC
8
0
6
CONTINUOUS
10
176.4802201
20
-126.4956395
40
1
50
262
51
352
0
LINE
8
0
6
CONTINUOUS
10
177.4704882
20
-126.6348126
11
179.6276712
21
-111.2856575
0
ARC
8
0
6
CONTINUOUS
10
178.6374032
20
-111.1464844
40
1
50
352
51
82
0
LINE
8
0
6
CONTINUOUS
10
178.7765763
20
-110.1562163
11
163.4274212
21
-107.9990333
0
ARC
8
0
6
CONTINUOUS
10
163.2882481
20
-108.9893013
40
1
50
82
51
172
0
LINE
8
0
6
CONTINUOUS
10
182.7143795
20
-111.9417576
11
178.4420005
21
-126.8413139
0
ARC
8
0
6
CONTINUOUS
10
179.4032621
20
-127.1169512
40
1
50
164
51
254
0
LINE
8
0
6
CONTINUOUS
10
179.1276248
20
-128.0782129
11
194.0271811
21
-132.3505919
0
ARC
8
0
6
CONTINUOUS
10
194.3028184
20
-131.3893303
40
1
50
254
51
344
0
LINE
8
0
6
CONTINUOUS
10
195.2640801
20
-131.6649676
11
199.5364591
21
-116.7654113
0
ARC
8
0
6
CONTINUOUS
10
198.5751975
20
-116.489774
40
1
50
344
51
74
0
LINE
8
0
6
CONTINUOUS
10
198.8508348
20
-115.5285123
11
183.9512785
21
-111.2561333
0
ARC
8
0
6
CONTINUOUS
10
183.6756412
20
-112.2173949
40
1
50
74
51
164
0
LINE
8
0
6
CONTINUOUS
10
202.5018162
20
-117.8447131
11
196.1973983
21
-132.0046677
0
ARC
8
0
6
CONTINUOUS
10
197.1109437
20
-132.4114043
40
1
50
156
51
246
0
LINE
8
0
6
CONTINUOUS
10
196.7042071
20
-133.3249498
11
210.8641617
21
-139.6293677
0
ARC
8
0
6
CONTINUOUS
10
211.2708983
20
-138.7158223
40
1
50
246
51
336
0
LINE
8
0
6
CONTINUOUS
10
212.1844438
20
-139.1225589
11
218.4888617
21
-124.9626043
0
ARC
8
0
6
CONTINUOUS
10
217.5753163
20
-124.5558677
40
1
50
336
51
66
0
LINE
8
0
6
CONTINUOUS
10
217.9820529
20
-123.6423222
11
203.8220983
21
-117.3379043
0
ARC
8
0
6
CONTINUOUS
10
203.4153617
20
-118.2514497
40
1
50
66
51
156
0
LINE
8
0
6
CONTINUOUS
10
342.25
20
-108.75
11
357.75
21
-108.75
0
ARC
8
0
6
CONTINUOUS
10
357.75
20
-107.75
40
1
50
270
51
360
0
LINE
8
0
6
CONTINUOUS
10
358.75
20
-107.75
11
358.75
21
-92.25
0
ARC
8
0
6
CONTINUOUS
10
357.75
20
-92.25
40
1
50
0
51
90
0
LINE
8
0
6
CONTINUOUS
10
357.75
20
-91.25
11
342.25
21
-91.25
0
ARC
8
0
6
CONTINUOUS
10
342.25
20
-92.25
40
1
50
90
51
180
0
LINE
8
0
6
CONTINUOUS
10
341.25
20
-92.25
11
341.25
21
-107.75
0
ARC
8
0
6
CONTINUOUS
10
342.25
20
-107.75
40
1
50
180
51
270
0
LINE
8
0
6
CONTINUOUS
10
342.25
20
-90.75
11
357.75
21
-90.75
0
ARC
8
0
6
CONTINUOUS
10
357.75
20
-89.75
40
1
50
270
51
360
0
LINE
8
0
6
CONTINUOUS
10
358.75
20
-89.75
11
358.75
21
-74.25
0
ARC
8
0
6
CONTINUOUS
10
357.75
20
-74.25
40
1
50
0
51
90
0
LINE
8
0
6
CONTINUOUS
10
357.75
20
-73.25
11
342.25
21
-73.25
0
ARC
8
0
6
CONTINUOUS
10
342.25
20
-74.25
40
1
50
90
51
180
0
LINE
8
0
6
CONTINUOUS
10
341.25
20
-74.25
11
341.25
21
-89.75
0
ARC
8
0
6
CONTINUOUS
10
342.25
20
-89.75
40
1
50
180
51
270
0
LINE
8
0
6
CONTINUOUS
10
342.25
20
-72.75
11
357.75
21
-72.75
0
ARC
8
0
6
CONTINUOUS
10
357.75
20
-71.75
40
1
50
270
51
360
0
LINE
8
0
6
CONTINUOUS
10
358.75
20
-71.75
11
358.75
21
-56.25
0
ARC
8
0
6
CONTINUOUS
10
357.75
20
-56.25
40
1
50
0
51
90
0
LINE
8
0
6
CONTINUOUS
10
357.75
20
-55.25
11
342.25
21
-55.25
0
ARC
8
0
6
CONTINUOUS
10
342.25
20
-56.25
40
1
50
90
51
180
0
LINE
8
0
6
CONTINUOUS
10
341.25
20
-56.25
11
341.25
21
-71.75
0
ARC
8
0
6
CONTINUOUS
10
342.25
20
-71.75
40
1
50
180
51
270
0
LINE
8
0
6
CONTINUOUS
10
324.25
20
-108.75
11
339.75
21
-108.75
0
ARC
8
0
6
CONTINUOUS
10
339.75
20
-107.75
40
1
50
270
51
360
0
LINE
8
0
6
CONTINUOUS
10
340.75
20
-107.75
11
340.75
21
-92.25
0
ARC
8
0
6
CONTINUOUS
10
339.75
20
-92.25
40
1
50
0
51
90
0
LINE
8
0
6
CONTINUOUS
10
339.75
20
-91.25
11
324.25
21
-91.25
0
ARC
8
0
6
CONTINUOUS
10
324.25
20
-92.25
40
1
50
90
51
180
0
LINE
8
0
6
CONTINUOUS
10
323.25
20
-92.25
11
323.25
21
-107.75
0
ARC
8
0
6
CONTINUOUS
10
324.25
20
-107.75
40
1
50
180
51
270
0
LINE
8
0
6
CONTINUOUS
10
324.25
20
-90.75
11
339.75
21
-90.75
0
ARC
8
0
6
CONTINUOUS
10
339.75
20
-89.75
40
1
50
270
51
360
0
LINE
8
0
6
CONTINUOUS
10
340.75
20
-89.75
11
340.75
21
-74.25
0
ARC
8
0
6
CONTINUOUS
10
339.75
20
-74.25
40
1
50
0
51
90
0
LINE
8
0
6
CONTINUOUS
10
339.75
20
-73.25
11
324.25
21
-73.25
0
ARC
8
0
6
CONTINUOUS
10
324.25
20
-74.25
40
1
50
90
51
180
0
LINE
8
0
6
CONTINUOUS
10
323.25
20
-74.25
11
323.25
21
-89.75
0
ARC
8
0
6
CONTINUOUS
10
324.25
20
-89.75
40
1
50
180
51
270
0
LINE
8
0
6
CONTINUOUS
10
324.25
20
-72.75
11
339.75
21
-72.75
0
ARC
8
0
6
CONTINUOUS
10
339.75
20
-71.75
40
1
50
270
51
360
0
LINE
8
0
6
CONTINUOUS
10
340.75
20
-71.75
11
340.75
21
-56.25
0
ARC
8
0
6
CONTINUOUS
10
339.75
20
-56.25
40
1
50
0
51
90
0
LINE
8
0
6
CONTINUOUS
10
339.75
20
-55.25
11
324.25
21
-55.25
0
ARC
8
0
6
CONTINUOUS
10
324.25
20
-56.25
40
1
50
90
51
180
0
LINE
8
0
6
CONTINUOUS
10
323.25
20
-56.25
11
323.25
21
-71.75
0
ARC
8
0
6
CONTINUOUS
10
324.25
20
-71.75
40
1
50
180
51
270
0
LINE
8
0
6
CONTINUOUS
10
306.25
20
-102.45
11
321.75
21
-102.45
0
ARC
8
0
6
CONTINUOUS
10
321.75
20
-101.45
40
1
50
270
51
360
0
LINE
8
0
6
CONTINUOUS
10
322.75
20
-101.45
11
322.75
21
-85.95
0
ARC
8
0
6
CONTINUOUS
10
321.75
20
-85.95
40
1
50
0
51
90
0
LINE
8
0
6
CONTINUOUS
10
321.75
20
-84.95
11
306.25
21
-84.95
0
ARC
8
0
6
CONTINUOUS
10
306.25
20
-85.95
40
1
50
90
51
180
0
LINE
8
0
6
CONTINUOUS
10
305.25
20
-85.95
11
305.25
21
-101.45
0
ARC
8
0
6
CONTINUOUS
10
306.25
20
-101.45
40
1
50
180
51
270
0
LINE
8
0
6
CONTINUOUS
10
306.25
20
-84.45
11
321.75
21
-84.45
0
ARC
8
0
6
CONTINUOUS
10
321.75
20
-83.45
40
1
50
270
51
360
0
LINE
8
0
6
CONTINUOUS
10
322.75
20
-83.45
11
322.75
21
-67.95
0
ARC
8
0
6
CONTINUOUS
10
321.75
20
-67.95
40
1
50
0
51
90
0
LINE
8
0
6
CONTINUOUS
10
321.75
20
-66.95
11
306.25
21
-66.95
0
ARC
8
0
6
CONTINUOUS
10
306.25
20
-67.95
40
1
50
90
51
180
0
LINE
8
0
6
CONTINUOUS
10
305.25
20
-67.95
11
305.25
21
-83.45
0
ARC
8
0
6
CONTINUOUS
10
306.25
20
-83.45
40
1
50
180
51
270
0
LINE
8
0
6
CONTINUOUS
10
306.25
20
-66.45
11
321.75
21
-66.45
0
ARC
8
0
6
CONTINUOUS
10
321.75
20
-65.45
40
1
50
270
51
360
0
LINE
8
0
6
CONTINUOUS
10
322.75
20
-65.45
11
322.75
21
-49.95
0
ARC
8
0
6
CONTINUOUS
10
321.75
20
-49.95
40
1
50
0
51
90
0
LINE
8
0
6
CONTINUOUS
10
321.75
20
-48.95
11
306.25
21
-48.95
0
ARC
8
0
6
CONTINUOUS
10
306.25
20
-49.95
40
1
50
90
51
180
0
LINE
8
0
6
CONTINUOUS
10
305.25
20
-49.95
11
305.25
21
-65.45
0
ARC
8
0
6
CONTINUOUS
10
306.25
20
-65.45
40
1
50
180
51
270
0
LINE
8
0
6
CONTINUOUS
10
288.25
20
-99.93
11
303.75
21
-99.93
0
ARC
8
0
6
CONTINUOUS
10
303.75
20
-98.93
40
1
50
270
51
360
0
LINE
8
0
6
CONTINUOUS
10
304.75
20
-98.93
11
304.75
21
-83.43
0
ARC
8
0
6
CONTINUOUS
10
303.75
20
-83.43
40
1
50
0
51
90
0
LINE
8
0
6
CONTINUOUS
10
303.75
20
-82.43
11
288.25
21
-82.43
0
ARC
8
0
6
CONTINUOUS
10
288.25
20
-83.43
40
1
50
90
51
180
0
LINE
8
0
6
CONTINUOUS
10
287.25
20
-83.43
11
287.25
21
-98.93
0
ARC
8
0
6
CONTINUOUS
10
288.25
20
-98.93
40
1
50
180
51
270
0
LINE
8
0
6
CONTINUOUS
10
288.25
20
-81.93
11
303.75
21
-81.93
0
ARC
8
0
6
CONTINUOUS
10
303.75
20
-80.93
40
1
50
270
51
360
0
LINE
8
0
6
CONTINUOUS
10
304.75
20
-80.93
11
304.75
21
-65.43
0
ARC
8
0
6
CONTINUOUS
10
303.75
20
-65.43
40
1
50
0
51
90
0
LINE
8
0
6
CONTINUOUS
10
303.75
20
-64.43
11
288.25
21
-64.43
0
ARC
8
0
6
CONTINUOUS
10
288.25
20
-65.43
40
1
50
90
51
180
0
LINE
8
0
6
CONTINUOUS
10
287.25
20
-65.43
11
287.25
21
-80.93
0
ARC
8
0
6
CONTINUOUS
10
288.25
20
-80.93
40
1
50
180
51
270
0
LINE
8
0
6
CONTINUOUS
10
288.25
20
-63.93
11
303.75
21
-63.93
0
ARC
8
0
6
CONTINUOUS
10
303.75
20
-62.93
40
1
50
270
51
360
0
LINE
8
0
6
CONTINUOUS
10
304.75
20
-62.93
11
304.75
21
-47.43
0
ARC
8
0
6
CONTINUOUS
10
303.75
20
-47.43
40
1
50
0
51
90
0
LINE
8
0
6
CONTINUOUS
10
303.75
20
-46.43
11
288.25
21
-46.43
0
ARC
8
0
6
CONTINUOUS
10
288.25
20
-47.43
40
1
50
90
51
180
0
LINE
8
0
6
CONTINUOUS
10
287.25
20
-47.43
11
287.25
21
-62.93
0
ARC
8
0
6
CONTINUOUS
10
288.25
20
-62.93
40
1
50
180
51
270
0
LINE
8
0
6
CONTINUOUS
10
270.25
20
-104.43
11
285.75
21
-104.43
0
ARC
8
0
6
CONTINUOUS
10
285.75
20
-103.43
40
1
50
270
51
360
0
LINE
8
0
6
CONTINUOUS
10
286.75
20
-103.43
11
286.75
21
-87.93
0
ARC
8
0
6
CONTINUOUS
10
285.75
20
-87.93
40
1
50
0
51
90
0
LINE
8
0
6
CONTINUOUS
10
285.75
20
-86.93
11
270.25
21
-86.93
0
ARC
8
0
6
CONTINUOUS
10
270.25
20
-87.93
40
1
50
90
51
180
0
LINE
8
0
6
CONTINUOUS
10
269.25
20
-87.93
11
269.25
21
-103.43
0
ARC
8
0
6
CONTINUOUS
10
270.25
20
-103.43
40
1
50
180
51
270
0
LINE
8
0
6
CONTINUOUS
10
270.25
20
-86.43
11
285.75
21
-86.43
0
ARC
8
0
6
CONTINUOUS
10
285.75
20
-85.43
40
1
50
270
51
360
0
LINE
8
0
6
CONTINUOUS
10
286.75
20
-85.43
11
286.75
21
-69.93
0
ARC
8
0
6
CONTINUOUS
10
285.75
20
-69.93
40
1
50
0
51
90
0
LINE
8
0
6
CONTINUOUS
10
285.75
20
-68.93
11
270.25
21
-68.93
0
ARC
8
0
6
CONTINUOUS
10
270.25
20
-69.93
40
1
50
90
51
180
0
LINE
8
0
6
CONTINUOUS
10
269.25
20
-69.93
11
269.25
21
-85.43
0
ARC
8
0
6
CONTINUOUS
10
270.25
20
-85.43
40
1
50
180
51
270
0
LINE
8
0
6
CONTINUOUS
10
270.25
20
-68.43
11
285.75
21
-68.43
0
ARC
8
0
6
CONTINUOUS
10
285.75
20
-67.43
40
1
50
270
51
360
0
LINE
8
0
6
CONTINUOUS
10
286.75
20
-67.43
11
286.75
21
-51.93
0
ARC
8
0
6
CONTINUOUS
10
285.75
20
-51.93
40
1
50
0
51
90
0
LINE
8
0
6
CONTINUOUS
10
285.75
20
-50.93
11
270.25
21
-50.93
0
ARC
8
0
6
CONTINUOUS
10
270.25
20
-51.93
40
1
50
90
51
180
0
LINE
8
0
6
CONTINUOUS
10
269.25
20
-51.93
11
269.25
21
-67.43
0
ARC
8
0
6
CONTINUOUS
10
270.25
20
-67.43
40
1
50
180
51
270
0
LINE
8
0
6
CONTINUOUS
10
252.25
20
-106.41
11
267.75
21
-106.41
0
ARC
8
0
6
CONTINUOUS
10
267.75
20
-105.41
40
1
50
270
51
360
0
LINE
8
0
6
CONTINUOUS
10
268.75
20
-105.41
11
268.75
21
-89.91
0
ARC
8
0
6
CONTINUOUS
10
267.75
20
-89.91
40
1
50
0
51
90
0
LINE
8
0
6
CONTINUOUS
10
267.75
20
-88.91
11
252.25
21
-88.91
0
ARC
8
0
6
CONTINUOUS
10
252.25
20
-89.91
40
1
50
90
51
180
0
LINE
8
0
6
CONTINUOUS
10
251.25
20
-89.91
11
251.25
21
-105.41
0
ARC
8
0
6
CONTINUOUS
10
252.25
20
-105.41
40
1
50
180
51
270
0
LINE
8
0
6
CONTINUOUS
10
252.25
20
-88.41
11
267.75
21
-88.41
0
ARC
8
0
6
CONTINUOUS
10
267.75
20
-87.41
40
1
50
270
51
360
0
LINE
8
0
6
CONTINUOUS
10
268.75
20
-87.41
11
268.75
21
-71.91
0
ARC
8
0
6
CONTINUOUS
10
267.75
20
-71.91
40
1
50
0
51
90
0
LINE
8
0
6
CONTINUOUS
10
267.75
20
-70.91
11
252.25
21
-70.91
0
ARC
8
0
6
CONTINUOUS
10
252.25
20
-71.91
40
1
50
90
51
180
0
LINE
8
0
6
CONTINUOUS
10
251.25
20
-71.91
11
251.25
21
-87.41
0
ARC
8
0
6
CONTINUOUS
10
252.25
20
-87.41
40
1
50
180
51
270
0
LINE
8
0
6
CONTINUOUS
10
252.25
20
-70.41
11
267.75
21
-70.41
0
ARC
8
0
6
CONTINUOUS
10
267.75
20
-69.41
40
1
50
270
51
360
0
LINE
8
0
6
CONTINUOUS
10
268.75
20
-69.41
11
268.75
21
-53.91
0
ARC
8
0
6
CONTINUOUS
10
267.75
20
-53.91
40
1
50
0
51
90
0
LINE
8
0
6
CONTINUOUS
10
267.75
20
-52.91
11
252.25
21
-52.91
0
ARC
8
0
6
CONTINUOUS
10
252.25
20
-53.91
40
1
50
90
51
180
0
LINE
8
0
6
CONTINUOUS
10
251.25
20
-53.91
11
251.25
21
-69.41
0
ARC
8
0
6
CONTINUOUS
10
252.25
20
-69.41
40
1
50
180
51
270
0
LINE
8
0
6
CONTINUOUS
10
308.35
20
-124.13
11
308.35
21
-108.63
0
ARC
8
0
6
CONTINUOUS
10
307.35
20
-108.63
40
1
50
0
51
90
0
LINE
8
0
6
CONTINUOUS
10
307.35
20
-107.63
11
291.85
21
-107.63
0
ARC
8
0
6
CONTINUOUS
10
291.85
20
-108.63
40
1
50
90
51
180
0
LINE
8
0
6
CONTINUOUS
10
290.85
20
-108.63
11
290.85
21
-124.13
0
ARC
8
0
6
CONTINUOUS
10
291.85
20
-124.13
40
1
50
180
51
270
0
LINE
8
0
6
CONTINUOUS
10
291.85
20
-125.13
11
307.35
21
-125.13
0
ARC
8
0
6
CONTINUOUS
10
307.35
20
-124.13
40
1
50
270
51
0
0
LINE
8
0
6
CONTINUOUS
10
289.859203
20
-124.1992833
11
287.70202
21
-108.8501282
0
ARC
8
0
6
CONTINUOUS
10
286.7117519
20
-108.9893013
40
1
50
8
51
98
0
LINE
8
0
6
CONTINUOUS
10
286.5725788
20
-107.9990333
11
271.2234237
21
-110.1562163
0
ARC
8
0
6
CONTINUOUS
10
271.3625968
20
-111.1464844
40
1
50
98
51
188
0
LINE
8
0
6
CONTINUOUS
10
270.3723288
20
-111.2856575
11
272.5295118
21
-126.6348126
0
ARC
8
0
6
CONTINUOUS
10
273.5197799
20
-126.4956395
40
1
50
188
51
278
0
LINE
8
0
6
CONTINUOUS
10
273.658953
20
-127.4859075
11
289.0081081
21
-125.3287245
0
ARC
8
0
6
CONTINUOUS
10
288.868935
20
-124.3384564
40
1
50
278
51
8
0
LINE
8
0
6
CONTINUOUS
10
271.5579995
20
-126.8413139
11
267.2856205
21
-111.9417576
0
ARC
8
0
6
CONTINUOUS
10
266.3243588
20
-112.2173949
40
1
50
16
51
106
0
LINE
8
0
6
CONTINUOUS
10
266.0487215
20
-111.2561333
11
251.1491652
21
-115.5285123
0
ARC
8
0
6
CONTINUOUS
10
251.4248025
20
-116.489774
40
1
50
106
51
196
0
LINE
8
0
6
CONTINUOUS
10
250.4635409
20
-116.7654113
11
254.7359199
21
-131.6649676
0
ARC
8
0
6
CONTINUOUS
10
255.6971816
20
-131.3893303
40
1
50
196
51
286
0
LINE
8
0
6
CONTINUOUS
10
255.9728189
20
-132.3505919
11
270.8723752
21
-128.0782129
0
ARC
8
0
6
CONTINUOUS
10
270.5967379
20
-127.1169512
40
1
50
286
51
16
0
LINE
8
0
6
CONTINUOUS
10
253.8026017
20
-132.0046677
11
247.4981838
21
-117.8447131
0
ARC
8
0
6
CONTINUOUS
10
246.5846383
20
-118.2514497
40
1
50
24
51
114
0
LINE
8
0
6
CONTINUOUS
10
246.1779017
20
-117.3379043
11
232.0179471
21
-123.6423222
0
ARC
8
0
6
CONTINUOUS
10
232.4246837
20
-124.5558677
40
1
50
114
51
204
0
LINE
8
0
6
CONTINUOUS
10
231.5111383
20
-124.9626043
11
237.8155562
21
-139.1225589
0
ARC
8
0
6
CONTINUOUS
10
238.7291017
20
-138.7158223
40
1
50
204
51
294
0
LINE
8
0
6
CONTINUOUS
10
239.1358383
20
-139.6293677
11
253.2957929
21
-133.3249498
0
ARC
8
0
6
CONTINUOUS
10
252.8890563
20
-132.4114043
40
1
50
294
51
24
0
ENDSEC
0
EOF