0
SECTION
2
HEADER
9
$INSUNITS
70
4
0
ENDSEC
0
SECTION
2
TABLES
0
TABLE
2
LTYPE
0
LTYPE
72
65
70
0
2
CONTINUOUS
3
______
73
0
40
0
0
LTYPE
72
65
70
0
2
DASHED
3
_ _ _ 
73
2
40
7.5
49
5
49
-2.5
0
LTYPE
72
65
70
0
2
DOTTED
3
. . . 
73
2
40
1.5
49
0.5
49
-1
0
ENDTAB
0
TABLE
2
LAYER
0
ENDTAB
0
ENDSEC
0
SECTION
2
ENTITIES
0
LINE
8
0
6
CONTINUOUS
10
141.4
20
-128.38
11
159.2952382
21
-128.38
0
LINE
8
0
6
CONTINUOUS
10
159.2952382
20
-128.38
11
159.4054866
21
-128.3877093
0
LINE
8
0
6
CONTINUOUS
10
159.4054866
20
-128.3877093
11
176.8161553
21
-130.8346192
0
LINE
8
0
6
CONTINUOUS
10
176.8161553
20
-130.8346192
11
210.8817851
21
-143.1865011
0
ARC
8
0
6
CONTINUOUS
10
211.9044093
20
-140.3661749
40
3
50
250.0698243
51
336.0000007
0
LINE
8
0
6
CONTINUOUS
10
214.6450457
20
-141.5863848
11
221.9663053
21
-125.1425666
0
ARC
8
0
6
CONTINUOUS
10
219.2256689
20
-123.9223567
40
3
50
335.9999999
51
360.3133541
0
LINE
8
0
6
CONTINUOUS
10
222.225624
20
-123.9059496
11
222
21
-82.6518026
0
LINE
8
0
6
CONTINUOUS
10
222
20
-82.6518026
11
222
21
-53.66
0
ARC
8
0
6
CONTINUOUS
10
219
20
-53.66
40
3
50
0
51
85.5159808
0
LINE
8
0
6
CONTINUOUS
10
219.2345431
20
-50.6691825
11
181.4844336
21
-47.7087792
0
LINE
8
0
6
CONTINUOUS
10
181.4844336
20
-47.7087792
11
163.7276069
21
-43.2695725
0
ARC
8
0
6
CONTINUOUS
10
163
20
-46.18
40
3
50
75.9637565
51
90
0
LINE
8
0
6
CONTINUOUS
10
163
20
-43.18
11
145
21
-43.18
0
ARC
8
0
6
CONTINUOUS
10
145
20
-46.18
40
3
50
90
51
97.9696099
0
LINE
8
0
6
CONTINUOUS
10
144.5840565
20
-43.2089748
11
126.5840565
21
-45.7289748
0
ARC
8
0
6
CONTINUOUS
10
127
20
-48.7
40
3
50
97.9696104
51
99.9262456
0
LINE
8
0
6
CONTINUOUS
10
126.482859
20
-45.7449086
11
90.482859
21
-52.0449086
0
ARC
8
0
6
CONTINUOUS
10
91
20
-55
40
3
50
99.9262455
51
180
0
LINE
8
0
6
CONTINUOUS
10
88
20
-109
11
88
21
-55
0
ARC
8
0
6
CONTINUOUS
10
91
20
-109
40
3
50
180
51
270
0
LINE
8
0
6
CONTINUOUS
10
91
20
-112
11
108.2847699
21
-112
0
LINE
8
0
6
CONTINUOUS
10
108.2847699
20
-112
11
140.0464733
21
-128.0573056
0
ARC
8
0
6
CONTINUOUS
10
141.4
20
-125.38
40
3
50
243.1808675
51
270
0
LINE
8
0
6
CONTINUOUS
10
92.25
20
-108.75
11
107.75
21
-108.75
0
ARC
8
0
6
CONTINUOUS
10
107.75
20
-107.75
40
1
50
270
51
360
0
LINE
8
0
6
CONTINUOUS
10
108.75
20
-107.75
11
108.75
21
-92.25
0
ARC
8
0
6
CONTINUOUS
10
107.75
20
-92.25
40
1
50
0
51
90
0
LINE
8
0
6
CONTINUOUS
10
107.75
20
-91.25
11
92.25
21
-91.25
0
ARC
8
0
6
CONTINUOUS
10
92.25
20
-92.25
40
1
50
90
51
180
0
LINE
8
0
6
CONTINUOUS
10
91.25
20
-92.25
11
91.25
21
-107.75
0
ARC
8
0
6
CONTINUOUS
10
92.25
20
-107.75
40
1
50
180
51
270
0
LINE
8
0
6
CONTINUOUS
10
92.25
20
-90.75
11
107.75
21
-90.75
0
ARC
8
0
6
CONTINUOUS
10
107.75
20
-89.75
40
1
50
270
51
360
0
LINE
8
0
6
CONTINUOUS
10
108.75
20
-89.75
11
108.75
21
-74.25
0
ARC
8
0
6
CONTINUOUS
10
107.75
20
-74.25
40
1
50
0
51
90
0
LINE
8
0
6
CONTINUOUS
10
107.75
20
-73.25
11
92.25
21
-73.25
0
ARC
8
0
6
CONTINUOUS
10
92.25
20
-74.25
40
1
50
90
51
180
0
LINE
8
0
6
CONTINUOUS
10
91.25
20
-74.25
11
91.25
21
-89.75
0
ARC
8
0
6
CONTINUOUS
10
92.25
20
-89.75
40
1
50
180
51
270
0
LINE
8
0
6
CONTINUOUS
10
92.25
20
-72.75
11
107.75
21
-72.75
0
ARC
8
0
6
CONTINUOUS
10
107.75
20
-71.75
40
1
50
270
51
360
0
LINE
8
0
6
CONTINUOUS
10
108.75
20
-71.75
11
108.75
21
-56.25
0
ARC
8
0
6
CONTINUOUS
10
107.75
20
-56.25
40
1
50
0
51
90
0
LINE
8
0
6
CONTINUOUS
10
107.75
20
-55.25
11
92.25
21
-55.25
0
ARC
8
0
6
CONTINUOUS
10
92.25
20
-56.25
40
1
50
90
51
180
0
LINE
8
0
6
CONTINUOUS
10
91.25
20
-56.25
11
91.25
21
-71.75
0
ARC
8
0
6
CONTINUOUS
10
92.25
20
-71.75
40
1
50
180
51
270
0
LINE
8
0
6
CONTINUOUS
10
110.25
20
-108.75
11
125.75
21
-108.75
0
ARC
8
0
6
CONTINUOUS
10
125.75
20
-107.75
40
1
50
270
51
360
0
LINE
8
0
6
CONTINUOUS
10
126.75
20
-107.75
11
126.75
21
-92.25
0
ARC
8
0
6
CONTINUOUS
10
125.75
20
-92.25
40
1
50
0
51
90
0
LINE
8
0
6
CONTINUOUS
10
125.75
20
-91.25
11
110.25
21
-91.25
0
ARC
8
0
6
CONTINUOUS
10
110.25
20
-92.25
40
1
50
90
51
180
0
LINE
8
0
6
CONTINUOUS
10
109.25
20
-92.25
11
109.25
21
-107.75
0
ARC
8
0
6
CONTINUOUS
10
110.25
20
-107.75
40
1
50
180
51
270
0
LINE
8
0
6
CONTINUOUS
10
110.25
20
-90.75
11
125.75
21
-90.75
0
ARC
8
0
6
CONTINUOUS
10
125.75
20
-89.75
40
1
50
270
51
360
0
LINE
8
0
6
CONTINUOUS
10
126.75
20
-89.75
11
126.75
21
-74.25
0
ARC
8
0
6
CONTINUOUS
10
125.75
20
-74.25
40
1
50
0
51
90
0
LINE
8
0
6
CONTINUOUS
10
125.75
20
-73.25
11
110.25
21
-73.25
0
ARC
8
0
6
CONTINUOUS
10
110.25
20
-74.25
40
1
50
90
51
180
0
LINE
8
0
6
CONTINUOUS
10
109.25
20
-74.25
11
109.25
21
-89.75
0
ARC
8
0
6
CONTINUOUS
10
110.25
20
-89.75
40
1
50
180
51
270
0
LINE
8
0
6
CONTINUOUS
10
110.25
20
-72.75
11
125.75
21
-72.75
0
ARC
8
0
6
CONTINUOUS
10
125.75
20
-71.75
40
1
50
270
51
360
0
LINE
8
0
6
CONTINUOUS
10
126.75
20
-71.75
11
126.75
21
-56.25
0
ARC
8
0
6
CONTINUOUS
10
125.75
20
-56.25
40
1
50
0
51
90
0
LINE
8
0
6
CONTINUOUS
10
125.75
20
-55.25
11
110.25
21
-55.25
0
ARC
8
0
6
CONTINUOUS
10
110.25
20
-56.25
40
1
50
90
51
180
0
LINE
8
0
6
CONTINUOUS
10
109.25
20
-56.25
11
109.25
21
-71.75
0
ARC
8
0
6
CONTINUOUS
10
110.25
20
-71.75
40
1
50
180
51
270
0
LINE
8
0
6
CONTINUOUS
10
128.25
20
-102.45
11
143.75
21
-102.45
0
ARC
8
0
6
CONTINUOUS
10
143.75
20
-101.45
40
1
50
270
51
360
0
LINE
8
0
6
CONTINUOUS
10
144.75
20
-101.45
11
144.75
21
-85.95
0
ARC
8
0
6
CONTINUOUS
10
143.75
20
-85.95
40
1
50
0
51
90
0
LINE
8
0
6
CONTINUOUS
10
143.75
20
-84.95
11
128.25
21
-84.95
0
ARC
8
0
6
CONTINUOUS
10
128.25
20
-85.95
40
1
50
90
51
180
0
LINE
8
0
6
CONTINUOUS
10
127.25
20
-85.95
11
127.25
21
-101.45
0
ARC
8
0
6
CONTINUOUS
10
128.25
20
-101.45
40
1
50
180
51
270
0
LINE
8
0
6
CONTINUOUS
10
128.25
20
-84.45
11
143.75
21
-84.45
0
ARC
8
0
6
CONTINUOUS
10
143.75
20
-83.45
40
1
50
270
51
360
0
LINE
8
0
6
CONTINUOUS
10
144.75
20
-83.45
11
144.75
21
-67.95
0
ARC
8
0
6
CONTINUOUS
10
143.75
20
-67.95
40
1
50
0
51
90
0
LINE
8
0
6
CONTINUOUS
10
143.75
20
-66.95
11
128.25
21
-66.95
0
ARC
8
0
6
CONTINUOUS
10
128.25
20
-67.95
40
1
50
90
51
180
0
LINE
8
0
6
CONTINUOUS
10
127.25
20
-67.95
11
127.25
21
-83.45
0
ARC
8
0
6
CONTINUOUS
10
128.25
20
-83.45
40
1
50
180
51
270
0
LINE
8
0
6
CONTINUOUS
10
128.25
20
-66.45
11
143.75
21
-66.45
0
ARC
8
0
6
CONTINUOUS
10
143.75
20
-65.45
40
1
50
270
51
360
0
LINE
8
0
6
CONTINUOUS
10
144.75
20
-65.45
11
144.75
21
-49.95
0
ARC
8
0
6
CONTINUOUS
10
143.75
20
-49.95
40
1
50
0
51
90
0
LINE
8
0
6
CONTINUOUS
10
143.75
20
-48.95
11
128.25
21
-48.95
0
ARC
8
0
6
CONTINUOUS
10
128.25
20
-49.95
40
1
50
90
51
180
0
LINE
8
0
6
CONTINUOUS
10
127.25
20
-49.95
11
127.25
21
-65.45
0
ARC
8
0
6
CONTINUOUS
10
128.25
20
-65.45
40
1
50
180
51
270
0
LINE
8
0
6
CONTINUOUS
10
146.25
20
-99.93
11
161.75
21
-99.93
0
ARC
8
0
6
CONTINUOUS
10
161.75
20
-98.93
40
1
50
270
51
360
0
LINE
8
0
6
CONTINUOUS
10
162.75
20
-98.93
11
162.75
21
-83.43
0
ARC
8
0
6
CONTINUOUS
10
161.75
20
-83.43
40
1
50
0
51
90
0
LINE
8
0
6
CONTINUOUS
10
161.75
20
-82.43
11
146.25
21
-82.43
0
ARC
8
0
6
CONTINUOUS
10
146.25
20
-83.43
40
1
50
90
51
180
0
LINE
8
0
6
CONTINUOUS
10
145.25
20
-83.43
11
145.25
21
-98.93
0
ARC
8
0
6
CONTINUOUS
10
146.25
20
-98.93
40
1
50
180
51
270
0
LINE
8
0
6
CONTINUOUS
10
146.25
20
-81.93
11
161.75
21
-81.93
0
ARC
8
0
6
CONTINUOUS
10
161.75
20
-80.93
40
1
50
270
51
360
0
LINE
8
0
6
CONTINUOUS
10
162.75
20
-80.93
11
162.75
21
-65.43
0
ARC
8
0
6
CONTINUOUS
10
161.75
20
-65.43
40
1
50
0
51
90
0
LINE
8
0
6
CONTINUOUS
10
161.75
20
-64.43
11
146.25
21
-64.43
0
ARC
8
0
6
CONTINUOUS
10
146.25
20
-65.43
40
1
50
90
51
180
0
LINE
8
0
6
CONTINUOUS
10
145.25
20
-65.43
11
145.25
21
-80.93
0
ARC
8
0
6
CONTINUOUS
10
146.25
20
-80.93
40
1
50
180
51
270
0
LINE
8
0
6
CONTINUOUS
10
146.25
20
-63.93
11
161.75
21
-63.93
0
ARC
8
0
6
CONTINUOUS
10
161.75
20
-62.93
40
1
50
270
51
360
0
LINE
8
0
6
CONTINUOUS
10
162.75
20
-62.93
11
162.75
21
-47.43
0
ARC
8
0
6
CONTINUOUS
10
161.75
20
-47.43
40
1
50
0
51
90
0
LINE
8
0
6
CONTINUOUS
10
161.75
20
-46.43
11
146.25
21
-46.43
0
ARC
8
0
6
CONTINUOUS
10
146.25
20
-47.43
40
1
50
90
51
180
0
LINE
8
0
6
CONTINUOUS
10
145.25
20
-47.43
11
145.25
21
-62.93
0
ARC
8
0
6
CONTINUOUS
10
146.25
20
-62.93
40
1
50
180
51
270
0
LINE
8
0
6
CONTINUOUS
10
164.25
20
-104.43
11
179.75
21
-104.43
0
ARC
8
0
6
CONTINUOUS
10
179.75
20
-103.43
40
1
50
270
51
360
0
LINE
8
0
6
CONTINUOUS
10
180.75
20
-103.43
11
180.75
21
-87.93
0
ARC
8
0
6
CONTINUOUS
10
179.75
20
-87.93
40
1
50
0
51
90
0
LINE
8
0
6
CONTINUOUS
10
179.75
20
-86.93
11
164.25
21
-86.93
0
ARC
8
0
6
CONTINUOUS
10
164.25
20
-87.93
40
1
50
90
51
180
0
LINE
8
0
6
CONTINUOUS
10
163.25
20
-87.93
11
163.25
21
-103.43
0
ARC
8
0
6
CONTINUOUS
10
164.25
20
-103.43
40
1
50
180
51
270
0
LINE
8
0
6
CONTINUOUS
10
164.25
20
-86.43
11
179.75
21
-86.43
0
ARC
8
0
6
CONTINUOUS
10
179.75
20
-85.43
40
1
50
270
51
360
0
LINE
8
0
6
CONTINUOUS
10
180.75
20
-85.43
11
180.75
21
-69.93
0
ARC
8
0
6
CONTINUOUS
10
179.75
20
-69.93
40
1
50
0
51
90
0
LINE
8
0
6
CONTINUOUS
10
179.75
20
-68.93
11
164.25
21
-68.93
0
ARC
8
0
6
CONTINUOUS
10
164.25
20
-69.93
40
1
50
90
51
180
0
LINE
8
0
6
CONTINUOUS
10
163.25
20
-69.93
11
163.25
21
-85.43
0
ARC
8
0
6
CONTINUOUS
10
164.25
20
-85.43
40
1
50
180
51
270
0
LINE
8
0
6
CONTINUOUS
10
164.25
20
-68.43
11
179.75
21
-68.43
0
ARC
8
0
6
CONTINUOUS
10
179.75
20
-67.43
40
1
50
270
51
360
0
LINE
8
0
6
CONTINUOUS
10
180.75
20
-67.43
11
180.75
21
-51.93
0
ARC
8
0
6
CONTINUOUS
10
179.75
20
-51.93
40
1
50
0
51
90
0
LINE
8
0
6
CONTINUOUS
10
179.75
20
-50.93
11
164.25
21
-50.93
0
ARC
8
0
6
CONTINUOUS
10
164.25
20
-51.93
40
1
50
90
51
180
0
LINE
8
0
6
CONTINUOUS
10
163.25
20
-51.93
11
163.25
21
-67.43
0
ARC
8
0
6
CONTINUOUS
10
164.25
20
-67.43
40
1
50
180
51
270
0
LINE
8
0
6
CONTINUOUS
10
182.25
20
-106.41
11
197.75
21
-106.41
0
ARC
8
0
6
CONTINUOUS
10
197.75
20
-105.41
40
1
50
270
51
360
0
LINE
8
0
6
CONTINUOUS
10
198.75
20
-105.41
11
198.75
21
-89.91
0
ARC
8
0
6
CONTINUOUS
10
197.75
20
-89.91
40
1
50
0
51
90
0
LINE
8
0
6
CONTINUOUS
10
197.75
20
-88.91
11
182.25
21
-88.91
0
ARC
8
0
6
CONTINUOUS
10
182.25
20
-89.91
40
1
50
90
51
180
0
LINE
8
0
6
CONTINUOUS
10
181.25
20
-89.91
11
181.25
21
-105.41
0
ARC
8
0
6
CONTINUOUS
10
182.25
20
-105.41
40
1
50
180
51
270
0
LINE
8
0
6
CONTINUOUS
10
182.25
20
-88.41
11
197.75
21
-88.41
0
ARC
8
0
6
CONTINUOUS
10
197.75
20
-87.41
40
1
50
270
51
360
0
LINE
8
0
6
CONTINUOUS
10
198.75
20
-87.41
11
198.75
21
-71.91
0
ARC
8
0
6
CONTINUOUS
10
197.75
20
-71.91
40
1
50
0
51
90
0
LINE
8
0
6
CONTINUOUS
10
197.75
20
-70.91
11
182.25
21
-70.91
0
ARC
8
0
6
CONTINUOUS
10
182.25
20
-71.91
40
1
50
90
51
180
0
LINE
8
0
6
CONTINUOUS
10
181.25
20
-71.91
11
181.25
21
-87.41
0
ARC
8
0
6
CONTINUOUS
10
182.25
20
-87.41
40
1
50
180
51
270
0
LINE
8
0
6
CONTINUOUS
10
182.25
20
-70.41
11
197.75
21
-70.41
0
ARC
8
0
6
CONTINUOUS
10
197.75
20
-69.41
40
1
50
270
51
360
0
LINE
8
0
6
CONTINUOUS
10
198.75
20
-69.41
11
198.75
21
-53.91
0
ARC
8
0
6
CONTINUOUS
10
197.75
20
-53.91
40
1
50
0
51
90
0
LINE
8
0
6
CONTINUOUS
10
197.75
20
-52.91
11
182.25
21
-52.91
0
ARC
8
0
6
CONTINUOUS
10
182.25
20
-53.91
40
1
50
90
51
180
0
LINE
8
0
6
CONTINUOUS
10
181.25
20
-53.91
11
181.25
21
-69.41
0
ARC
8
0
6
CONTINUOUS
10
182.25
20
-69.41
40
1
50
180
51
270
0
LINE
8
0
6
CONTINUOUS
10
141.65
20
-108.63
11
141.65
21
-124.13
0
ARC
8
0
6
CONTINUOUS
10
142.65
20
-124.13
40
1
50
180
51
270
0
LINE
8
0
6
CONTINUOUS
10
142.65
20
-125.13
11
158.15
21
-125.13
0
ARC
8
0
6
CONTINUOUS
10
158.15
20
-124.13
40
1
50
270
51
0
0
LINE
8
0
6
CONTINUOUS
10
159.15
20
-124.13
11
159.15
21
-108.63
0
ARC
8
0
6
CONTINUOUS
10
158.15
20
-108.63
40
1
50
0
51
90
0
LINE
8
0
6
CONTINUOUS
10
158.15
20
-107.63
11
142.65
21
-107.63
0
ARC
8
0
6
CONTINUOUS
10
142.65
20
-108.63
40
1
50
90
51
180
0
LINE
8
0
6
CONTINUOUS
10
162.29798
20
-108.8501282
11
160.140797
21
-124.1992833
0
ARC
8
0
6
CONTINUOUS
10
161.131065
20
-124.3384564
40
1
50
172
51
262
0
LINE
8
0
6
CONTINUOUS
10
160.9918919
20
-125.3287245
11
176.341047
21
-127.4859075
0
ARC
8
0
6
CONTINUOUS
10
176.4802201
20
-126.4956395
40
1
50
262
51
352
0
LINE
8
0
6
CONTINUOUS
10
177.4704882
20
-126.6348126
11
179.6276712
21
-111.2856575
0
ARC
8
0
6
CONTINUOUS
10
178.6374032
20
-111.1464844
40
1
50
352
51
82
0
LINE
8
0
6
CONTINUOUS
10
178.7765763
20
-110.1562163
11
163.4274212
21
-107.9990333
0
ARC
8
0
6
CONTINUOUS
10
163.2882481
20
-108.9893013
40
1
50
82
51
172
0
LINE
8
0
6
CONTINUOUS
10
182.7143795
20
-111.9417576
11
178.4420005
21
-126.8413139
0
ARC
8
0
6
CONTINUOUS
10
179.4032621
20
-127.1169512
40
1
50
164
51
254
0
LINE
8
0
6
CONTINUOUS
10
179.1276248
20
-128.0782129
11
194.0271811
21
-132.3505919
0
ARC
8
0
6
CONTINUOUS
10
194.3028184
20
-131.3893303
40
1
50
254
51
344
0
LINE
8
0
6
CONTINUOUS
10
195.2640801
20
-131.6649676
11
199.5364591
21
-116.7654113
0
ARC
8
0
6
CONTINUOUS
10
198.5751975
20
-116.489774
40
1
50
344
51
74
0
LINE
8
0
6
CONTINUOUS
10
198.8508348
20
-115.5285123
11
183.9512785
21
-111.2561333
0
ARC
8
0
6
CONTINUOUS
10
183.6756412
20
-112.2173949
40
1
50
74
51
164
0
LINE
8
0
6
CONTINUOUS
10
202.5018162
20
-117.8447131
11
196.1973983
21
-132.0046677
0
ARC
8
0
6
CONTINUOUS
10
197.1109437
20
-132.4114043
40
1
50
156
51
246
0
LINE
8
0
6
CONTINUOUS
10
196.7042071
20
-133.3249498
11
210.8641617
21
-139.6293677
0
ARC
8
0
6
CONTINUOUS
10
211.2708983
20
-138.7158223
40
1
50
246
51
336
0
LINE
8
0
6
CONTINUOUS
10
212.1844438
20
-139.1225589
11
218.4888617
21
-124.9626043
0
ARC
8
0
6
CONTINUOUS
10
217.5753163
20
-124.5558677
40
1
50
336
51
66
0
LINE
8
0
6
CONTINUOUS
10
217.9820529
20
-123.6423222
11
203.8220983
21
-117.3379043
0
ARC
8
0
6
CONTINUOUS
10
203.4153617
20
-118.2514497
40
1
50
66
51
156
0
LINE
8
0
6
CONTINUOUS
10
201
20
-83.16
11
219
21
-83.16
0
ARC
8
0
6
CONTINUOUS
10
219
20
-82.16
40
1
50
270
51
360
0
LINE
8
0
6
CONTINUOUS
10
220
20
-82.16
11
220
21
-54.16
0
ARC
8
0
6
CONTINUOUS
10
219
20
-54.16
40
1
50
0
51
90
0
LINE
8
0
6
CONTINUOUS
10
219
20
-53.16
11
201
21
-53.16
0
ARC
8
0
6
CONTINUOUS
10
201
20
-54.16
40
1
50
90
51
180
0
LINE
8
0
6
CONTINUOUS
10
200
20
-54.16
11
200
21
-82.16
0
ARC
8
0
6
CONTINUOUS
10
201
20
-82.16
40
1
50
180
51
270
0
ENDSEC
0
EOF