M48
; DRILL file KiCad 10.0.5 date 2026-09-02T17:36:25
; FORMAT={-:-/ absolute / metric / decimal}
; #@! TF.CreationDate,2026-09-02T17:36:25+09:00
; #@! TF.GenerationSoftware,Kicad,Pcbnew,10.0.5
; #@! TF.FileFunction,NonPlated,1,2,NPTH
FMAT,2
METRIC
; #@! TA.AperFunction,NonPlated,NPTH,ComponentDrill
T1C0.900
; #@! TA.AperFunction,NonPlated,NPTH,ComponentDrill
T2C1.900
; #@! TA.AperFunction,NonPlated,NPTH,ComponentDrill
T3C2.200
; #@! TA.AperFunction,NonPlated,NPTH,ComponentDrill
T4C3.000
; #@! TA.AperFunction,NonPlated,NPTH,ComponentDrill
T5C5.000
%
G90
G05
T1
X219.925Y-81.66
X219.925Y-84.66
T2
X94.5Y-64.0
X94.5Y-82.0
X94.5Y-100.0
X105.5Y-64.0
X105.5Y-82.0
X105.5Y-100.0
X112.5Y-64.0
X112.5Y-82.0
X112.5Y-100.0
X123.5Y-64.0
X123.5Y-82.0
X123.5Y-100.0
X130.5Y-57.7
X130.5Y-75.7
X130.5Y-93.7
X141.5Y-57.7
X141.5Y-75.7
X141.5Y-93.7
X148.5Y-55.18
X148.5Y-73.18
X148.5Y-91.18
X150.4Y-110.88
X150.4Y-121.88
X159.5Y-55.18
X159.5Y-73.18
X159.5Y-91.18
X166.5Y-59.68
X166.5Y-77.68
X166.5Y-95.68
X169.119Y-123.189
X170.65Y-112.296
X177.5Y-59.68
X177.5Y-77.68
X177.5Y-95.68
X184.5Y-61.66
X184.5Y-79.66
X184.5Y-97.66
X187.473Y-127.09
X190.505Y-116.516
X195.5Y-61.66
X195.5Y-79.66
X195.5Y-97.66
X205.106Y-133.508
X209.58Y-123.459
T3
X109.0Y-73.0
X109.0Y-91.0
X154.0Y-104.14
X190.0Y-110.62
T4
X100.0Y-58.05
X100.0Y-76.05
X100.0Y-94.05
X105.0Y-60.25
X105.0Y-78.25
X105.0Y-96.25
X118.0Y-58.05
X118.0Y-76.05
X118.0Y-94.05
X123.0Y-60.25
X123.0Y-78.25
X123.0Y-96.25
X136.0Y-51.75
X136.0Y-69.75
X136.0Y-87.75
X141.0Y-53.95
X141.0Y-71.95
X141.0Y-89.95
X154.0Y-49.23
X154.0Y-67.23
X154.0Y-85.23
X154.15Y-121.38
X156.35Y-116.38
X159.0Y-51.43
X159.0Y-69.43
X159.0Y-87.43
X172.0Y-53.73
X172.0Y-71.73
X172.0Y-89.73
X172.902Y-123.216
X175.776Y-118.571
X177.0Y-55.93
X177.0Y-73.93
X177.0Y-91.93
X190.0Y-55.71
X190.0Y-73.71
X190.0Y-91.71
X191.216Y-127.643
X194.709Y-123.443
X195.0Y-57.91
X195.0Y-75.91
X195.0Y-93.91
X208.735Y-134.577
X212.779Y-130.904
T5
X100.0Y-64.0
X100.0Y-82.0
X100.0Y-100.0
X118.0Y-64.0
X118.0Y-82.0
X118.0Y-100.0
X136.0Y-57.7
X136.0Y-75.7
X136.0Y-93.7
X150.4Y-116.38
X154.0Y-55.18
X154.0Y-73.18
X154.0Y-91.18
X169.884Y-117.742
X172.0Y-59.68
X172.0Y-77.68
X172.0Y-95.68
X188.989Y-121.803
X190.0Y-61.66
X190.0Y-79.66
X190.0Y-97.66
X207.343Y-128.484
M30
