%TF.GenerationSoftware,KiCad,Pcbnew,10.0.5*%
%TF.CreationDate,2026-09-02T17:36:25+09:00*%
%TF.ProjectId,first_left,66697273-745f-46c6-9566-742e6b696361,0.2.0*%
%TF.SameCoordinates,Original*%
%TF.FileFunction,Soldermask,Top*%
%TF.FilePolarity,Negative*%
%FSLAX46Y46*%
G04 Gerber Fmt 4.6, Leading zero omitted, Abs format (unit mm)*
G04 Created by KiCad (PCBNEW 10.0.5) date 2026-09-02 17:36:25*
%MOMM*%
%LPD*%
G01*
G04 APERTURE LIST*
G04 Aperture macros list*
%AMRoundRect*
0 Rectangle with rounded corners*
0 $1 Rounding radius*
0 $2 $3 $4 $5 $6 $7 $8 $9 X,Y pos of 4 corners*
0 Add a 4 corners polygon primitive as box body*
4,1,4,$2,$3,$4,$5,$6,$7,$8,$9,$2,$3,0*
0 Add four circle primitives for the rounded corners*
1,1,$1+$1,$2,$3*
1,1,$1+$1,$4,$5*
1,1,$1+$1,$6,$7*
1,1,$1+$1,$8,$9*
0 Add four rect primitives between the rounded corners*
20,1,$1+$1,$2,$3,$4,$5,0*
20,1,$1+$1,$4,$5,$6,$7,0*
20,1,$1+$1,$6,$7,$8,$9,0*
20,1,$1+$1,$8,$9,$2,$3,0*%
G04 Aperture macros list end*
%ADD10C,2.300000*%
%ADD11RoundRect,0.287500X-0.237500X-0.778500X0.237500X-0.778500X0.237500X0.778500X-0.237500X0.778500X0*%
%ADD12C,1.700000*%
%ADD13RoundRect,0.050000X0.400000X-0.500000X0.400000X0.500000X-0.400000X0.500000X-0.400000X-0.500000X0*%
%ADD14C,1.000000*%
%ADD15RoundRect,0.050000X0.750000X-0.350000X0.750000X0.350000X-0.750000X0.350000X-0.750000X-0.350000X0*%
%ADD16RoundRect,0.290000X-0.360000X-0.635000X0.360000X-0.635000X0.360000X0.635000X-0.360000X0.635000X0*%
%ADD17O,1.300000X1.850000*%
%ADD18C,2.000000*%
%ADD19C,3.100000*%
%ADD20C,5.100000*%
G04 APERTURE END LIST*
D10*
%TO.C,MH1*%
X109000000Y-73000000D03*
%TD*%
%TO.C,MH4*%
X190000000Y-110620000D03*
%TD*%
D11*
%TO.C,MCU1*%
X201745000Y-52540000D03*
X201745000Y-55080000D03*
X201745000Y-57620000D03*
X201745000Y-60160000D03*
X201745000Y-62700000D03*
X201745000Y-65240000D03*
X201745000Y-67780000D03*
X218255000Y-52540000D03*
X218255000Y-55080000D03*
X218255000Y-57620000D03*
X218255000Y-60160000D03*
X218255000Y-62700000D03*
X218255000Y-65240000D03*
X218255000Y-67780000D03*
D12*
X209006000Y-65678000D03*
X211006000Y-65678000D03*
%TD*%
D13*
%TO.C,PWR1*%
X218815000Y-79510000D03*
X218815000Y-86810000D03*
D14*
X219925000Y-81660000D03*
X219925000Y-84660000D03*
D13*
X221025000Y-79510000D03*
X221025000Y-86810000D03*
D15*
X218165000Y-85410000D03*
X218165000Y-82410000D03*
X218165000Y-80910000D03*
%TD*%
D10*
%TO.C,MH3*%
X154000000Y-104140000D03*
%TD*%
%TO.C,MH2*%
X109000000Y-91000000D03*
%TD*%
D16*
%TO.C,JST1*%
X209000000Y-74160000D03*
D17*
X211000000Y-74160000D03*
%TD*%
D18*
%TO.C,S8*%
X130500000Y-75700000D03*
X131000000Y-80850000D03*
D19*
X136000000Y-69750000D03*
D20*
X136000000Y-75700000D03*
D19*
X141000000Y-71950000D03*
D18*
X141500000Y-75700000D03*
%TD*%
%TO.C,S17*%
X184500000Y-79660000D03*
X185000000Y-84810000D03*
D19*
X190000000Y-73710000D03*
D20*
X190000000Y-79660000D03*
D19*
X195000000Y-75910000D03*
D18*
X195500000Y-79660000D03*
%TD*%
%TO.C,S19*%
X150400000Y-110880000D03*
X145250000Y-111380000D03*
D19*
X156350000Y-116380000D03*
D20*
X150400000Y-116380000D03*
D19*
X154150000Y-121380000D03*
D18*
X150400000Y-121880000D03*
%TD*%
%TO.C,S2*%
X94500000Y-82000000D03*
X95000000Y-87150000D03*
D19*
X100000000Y-76050000D03*
D20*
X100000000Y-82000000D03*
D19*
X105000000Y-78250000D03*
D18*
X105500000Y-82000000D03*
%TD*%
%TO.C,S21*%
X190505205Y-116516461D03*
X185416889Y-115577559D03*
D19*
X194708707Y-123443442D03*
D20*
X188989200Y-121803400D03*
D19*
X191215746Y-127643349D03*
D18*
X187473195Y-127090339D03*
%TD*%
%TO.C,S15*%
X166500000Y-59680000D03*
X167000000Y-64830000D03*
D19*
X172000000Y-53730000D03*
D20*
X172000000Y-59680000D03*
D19*
X177000000Y-55930000D03*
D18*
X177500000Y-59680000D03*
%TD*%
%TO.C,S6*%
X112500000Y-64000000D03*
X113000000Y-69150000D03*
D19*
X118000000Y-58050000D03*
D20*
X118000000Y-64000000D03*
D19*
X123000000Y-60250000D03*
D18*
X123500000Y-64000000D03*
%TD*%
%TO.C,S16*%
X184500000Y-97660000D03*
X185000000Y-102810000D03*
D19*
X190000000Y-91710000D03*
D20*
X190000000Y-97660000D03*
D19*
X195000000Y-93910000D03*
D18*
X195500000Y-97660000D03*
%TD*%
%TO.C,S13*%
X166500000Y-95680000D03*
X167000000Y-100830000D03*
D19*
X172000000Y-89730000D03*
D20*
X172000000Y-95680000D03*
D19*
X177000000Y-91930000D03*
D18*
X177500000Y-95680000D03*
%TD*%
%TO.C,S4*%
X112500000Y-100000000D03*
X113000000Y-105150000D03*
D19*
X118000000Y-94050000D03*
D20*
X118000000Y-100000000D03*
D19*
X123000000Y-96250000D03*
D18*
X123500000Y-100000000D03*
%TD*%
%TO.C,S1*%
X94500000Y-100000000D03*
X95000000Y-105150000D03*
D19*
X100000000Y-94050000D03*
D20*
X100000000Y-100000000D03*
D19*
X105000000Y-96250000D03*
D18*
X105500000Y-100000000D03*
%TD*%
%TO.C,S7*%
X130500000Y-93700000D03*
X131000000Y-98850000D03*
D19*
X136000000Y-87750000D03*
D20*
X136000000Y-93700000D03*
D19*
X141000000Y-89950000D03*
D18*
X141500000Y-93700000D03*
%TD*%
%TO.C,S18*%
X184500000Y-61660000D03*
X185000000Y-66810000D03*
D19*
X190000000Y-55710000D03*
D20*
X190000000Y-61660000D03*
D19*
X195000000Y-57910000D03*
D18*
X195500000Y-61660000D03*
%TD*%
%TO.C,S5*%
X112500000Y-82000000D03*
X113000000Y-87150000D03*
D19*
X118000000Y-76050000D03*
D20*
X118000000Y-82000000D03*
D19*
X123000000Y-78250000D03*
D18*
X123500000Y-82000000D03*
%TD*%
%TO.C,S9*%
X130500000Y-57700000D03*
X131000000Y-62850000D03*
D19*
X136000000Y-51750000D03*
D20*
X136000000Y-57700000D03*
D19*
X141000000Y-53950000D03*
D18*
X141500000Y-57700000D03*
%TD*%
%TO.C,S14*%
X166500000Y-77680000D03*
X167000000Y-82830000D03*
D19*
X172000000Y-71730000D03*
D20*
X172000000Y-77680000D03*
D19*
X177000000Y-73930000D03*
D18*
X177500000Y-77680000D03*
%TD*%
%TO.C,S3*%
X94500000Y-64000000D03*
X95000000Y-69150000D03*
D19*
X100000000Y-58050000D03*
D20*
X100000000Y-64000000D03*
D19*
X105000000Y-60250000D03*
D18*
X105500000Y-64000000D03*
%TD*%
%TO.C,S12*%
X148500000Y-55180000D03*
X149000000Y-60330000D03*
D19*
X154000000Y-49230000D03*
D20*
X154000000Y-55180000D03*
D19*
X159000000Y-51430000D03*
D18*
X159500000Y-55180000D03*
%TD*%
%TO.C,S10*%
X148500000Y-91180000D03*
X149000000Y-96330000D03*
D19*
X154000000Y-85230000D03*
D20*
X154000000Y-91180000D03*
D19*
X159000000Y-87430000D03*
D18*
X159500000Y-91180000D03*
%TD*%
%TO.C,S11*%
X148500000Y-73180000D03*
X149000000Y-78330000D03*
D19*
X154000000Y-67230000D03*
D20*
X154000000Y-73180000D03*
D19*
X159000000Y-69430000D03*
D18*
X159500000Y-73180000D03*
%TD*%
%TO.C,S20*%
X170649652Y-112296026D03*
X165480185Y-112074418D03*
D19*
X175776295Y-118570580D03*
D20*
X169884200Y-117742500D03*
D19*
X172901840Y-123215738D03*
D18*
X169118748Y-123188974D03*
%TD*%
%TO.C,S22*%
X209580152Y-123459100D03*
X204672024Y-121821179D03*
D19*
X212778695Y-130903683D03*
D20*
X207343100Y-128483600D03*
D19*
X208735212Y-134576590D03*
D18*
X205106048Y-133508100D03*
%TD*%
M02*
