%TF.GenerationSoftware,KiCad,Pcbnew,10.0.5*%
%TF.CreationDate,2026-09-02T17:36:25+09:00*%
%TF.ProjectId,first_left,66697273-745f-46c6-9566-742e6b696361,0.2.0*%
%TF.SameCoordinates,Original*%
%TF.FileFunction,Legend,Bot*%
%TF.FilePolarity,Positive*%
%FSLAX46Y46*%
G04 Gerber Fmt 4.6, Leading zero omitted, Abs format (unit mm)*
G04 Created by KiCad (PCBNEW 10.0.5) date 2026-09-02 17:36:25*
%MOMM*%
%LPD*%
G01*
G04 APERTURE LIST*
G04 Aperture macros list*
%AMRoundRect*
0 Rectangle with rounded corners*
0 $1 Rounding radius*
0 $2 $3 $4 $5 $6 $7 $8 $9 X,Y pos of 4 corners*
0 Add a 4 corners polygon primitive as box body*
4,1,4,$2,$3,$4,$5,$6,$7,$8,$9,$2,$3,0*
0 Add four circle primitives for the rounded corners*
1,1,$1+$1,$2,$3*
1,1,$1+$1,$4,$5*
1,1,$1+$1,$6,$7*
1,1,$1+$1,$8,$9*
0 Add four rect primitives between the rounded corners*
20,1,$1+$1,$2,$3,$4,$5,0*
20,1,$1+$1,$4,$5,$6,$7,0*
20,1,$1+$1,$6,$7,$8,$9,0*
20,1,$1+$1,$8,$9,$2,$3,0*%
G04 Aperture macros list end*
%ADD10C,0.100000*%
%ADD11C,0.150000*%
%ADD12C,2.300000*%
%ADD13C,1.700000*%
%ADD14C,1.000000*%
%ADD15RoundRect,0.290000X-0.360000X-0.635000X0.360000X-0.635000X0.360000X0.635000X-0.360000X0.635000X0*%
%ADD16O,1.300000X1.850000*%
%ADD17RoundRect,0.050000X-0.450000X-0.600000X0.450000X-0.600000X0.450000X0.600000X-0.450000X0.600000X0*%
%ADD18C,2.000000*%
%ADD19C,3.100000*%
%ADD20C,5.100000*%
%ADD21RoundRect,0.050000X-1.300000X-1.300000X1.300000X-1.300000X1.300000X1.300000X-1.300000X1.300000X0*%
%ADD22RoundRect,0.050000X-1.300000X1.300000X-1.300000X-1.300000X1.300000X-1.300000X1.300000X1.300000X0*%
%ADD23RoundRect,0.050000X-0.891312X1.607969X-1.607969X-0.891312X0.891312X-1.607969X1.607969X0.891312X0*%
%ADD24RoundRect,0.050000X-0.365096X0.655137X-0.731159X-0.167053X0.365096X-0.655137X0.731159X0.167053X0*%
%ADD25RoundRect,0.050000X-0.452720X0.597950X-0.700794X-0.267185X0.452720X-0.597950X0.700794X0.267185X0*%
%ADD26RoundRect,0.050000X-0.600000X0.450000X-0.600000X-0.450000X0.600000X-0.450000X0.600000X0.450000X0*%
%ADD27RoundRect,0.050000X-0.531533X0.529124X-0.656789X-0.362117X0.531533X-0.529124X0.656789X0.362117X0*%
%ADD28RoundRect,0.050000X-1.106423X1.468274X-1.468274X-1.106423X1.106423X-1.468274X1.468274X1.106423X0*%
%ADD29RoundRect,0.050000X-0.658851X1.716367X-1.716367X-0.658851X0.658851X-1.716367X1.716367X0.658851X0*%
G04 APERTURE END LIST*
%TO.C,D6*%
D10*
X117250000Y-71200000D02*
X117650000Y-71200000D01*
X117650000Y-71200000D02*
X117650000Y-70650000D01*
X117650000Y-71200000D02*
X117650000Y-71750000D01*
X117650000Y-71200000D02*
X118250000Y-70800000D01*
X118250000Y-70800000D02*
X118250000Y-71600000D01*
X118250000Y-71200000D02*
X118750000Y-71200000D01*
X118250000Y-71600000D02*
X117650000Y-71200000D01*
%TO.C,D3*%
X99250000Y-71200000D02*
X99650000Y-71200000D01*
X99650000Y-71200000D02*
X99650000Y-70650000D01*
X99650000Y-71200000D02*
X99650000Y-71750000D01*
X99650000Y-71200000D02*
X100250000Y-70800000D01*
X100250000Y-70800000D02*
X100250000Y-71600000D01*
X100250000Y-71200000D02*
X100750000Y-71200000D01*
X100250000Y-71600000D02*
X99650000Y-71200000D01*
%TO.C,S8*%
D11*
X134500000Y-67500000D02*
X134000000Y-68000000D01*
X134500000Y-72000000D02*
X134000000Y-71500000D01*
X136800000Y-72000000D02*
X134500000Y-72000000D01*
X137500000Y-67500000D02*
X134500000Y-67500000D01*
X138000000Y-68000000D02*
X137500000Y-67500000D01*
X138000000Y-68000000D02*
X138000000Y-68920000D01*
X138500000Y-74200000D02*
X138500000Y-73500000D01*
X138520000Y-69500000D02*
X143000000Y-69500000D01*
X143000000Y-69500000D02*
X143000000Y-70100000D01*
X143000000Y-73700000D02*
X143000000Y-74200000D01*
X143000000Y-74200000D02*
X138500000Y-74200000D01*
X136800000Y-72000000D02*
G75*
G02*
X138500000Y-73480000I110000J-1590000D01*
G01*
X138520000Y-69500000D02*
G75*
G02*
X138000000Y-68920000I30000J550000D01*
G01*
%TO.C,D11*%
D10*
X153250000Y-80380000D02*
X153650000Y-80380000D01*
X153650000Y-80380000D02*
X153650000Y-79830000D01*
X153650000Y-80380000D02*
X153650000Y-80930000D01*
X153650000Y-80380000D02*
X154250000Y-79980000D01*
X154250000Y-79980000D02*
X154250000Y-80780000D01*
X154250000Y-80380000D02*
X154750000Y-80380000D01*
X154250000Y-80780000D02*
X153650000Y-80380000D01*
%TO.C,S17*%
D11*
X188500000Y-71460000D02*
X188000000Y-71960000D01*
X188500000Y-75960000D02*
X188000000Y-75460000D01*
X190800000Y-75960000D02*
X188500000Y-75960000D01*
X191500000Y-71460000D02*
X188500000Y-71460000D01*
X192000000Y-71960000D02*
X191500000Y-71460000D01*
X192000000Y-71960000D02*
X192000000Y-72880000D01*
X192500000Y-78160000D02*
X192500000Y-77460000D01*
X192520000Y-73460000D02*
X197000000Y-73460000D01*
X197000000Y-73460000D02*
X197000000Y-74060000D01*
X197000000Y-77660000D02*
X197000000Y-78160000D01*
X197000000Y-78160000D02*
X192500000Y-78160000D01*
X190800000Y-75960000D02*
G75*
G02*
X192500000Y-77440000I110000J-1590000D01*
G01*
X192520000Y-73460000D02*
G75*
G02*
X192000000Y-72880000I30000J550000D01*
G01*
%TO.C,D17*%
D10*
X189250000Y-86860000D02*
X189650000Y-86860000D01*
X189650000Y-86860000D02*
X189650000Y-86310000D01*
X189650000Y-86860000D02*
X189650000Y-87410000D01*
X189650000Y-86860000D02*
X190250000Y-86460000D01*
X190250000Y-86460000D02*
X190250000Y-87260000D01*
X190250000Y-86860000D02*
X190750000Y-86860000D01*
X190250000Y-87260000D02*
X189650000Y-86860000D01*
%TO.C,S19*%
D11*
X151900000Y-118880000D02*
X152600000Y-118880000D01*
X151900000Y-123380000D02*
X151900000Y-118880000D01*
X152400000Y-123380000D02*
X151900000Y-123380000D01*
X154100000Y-114880000D02*
X154600000Y-114380000D01*
X154100000Y-117180000D02*
X154100000Y-114880000D01*
X156600000Y-118900000D02*
X156600000Y-123380000D01*
X156600000Y-123380000D02*
X156000000Y-123380000D01*
X158100000Y-118380000D02*
X157180000Y-118380000D01*
X158100000Y-118380000D02*
X158600000Y-117880000D01*
X158600000Y-114880000D02*
X158100000Y-114380000D01*
X158600000Y-117880000D02*
X158600000Y-114880000D01*
X154100000Y-117180000D02*
G75*
G02*
X152620000Y-118880000I-1590000J-110000D01*
G01*
X156600000Y-118900000D02*
G75*
G02*
X157180000Y-118380000I550000J-30000D01*
G01*
%TO.C,S2*%
X98500000Y-73800000D02*
X98000000Y-74300000D01*
X98500000Y-78300000D02*
X98000000Y-77800000D01*
X100800000Y-78300000D02*
X98500000Y-78300000D01*
X101500000Y-73800000D02*
X98500000Y-73800000D01*
X102000000Y-74300000D02*
X101500000Y-73800000D01*
X102000000Y-74300000D02*
X102000000Y-75220000D01*
X102500000Y-80500000D02*
X102500000Y-79800000D01*
X102520000Y-75800000D02*
X107000000Y-75800000D01*
X107000000Y-75800000D02*
X107000000Y-76400000D01*
X107000000Y-80000000D02*
X107000000Y-80500000D01*
X107000000Y-80500000D02*
X102500000Y-80500000D01*
X100800000Y-78300000D02*
G75*
G02*
X102500000Y-79780000I110000J-1590000D01*
G01*
X102520000Y-75800000D02*
G75*
G02*
X102000000Y-75220000I30000J550000D01*
G01*
%TO.C,D16*%
D10*
X189250000Y-104860000D02*
X189650000Y-104860000D01*
X189650000Y-104860000D02*
X189650000Y-104310000D01*
X189650000Y-104860000D02*
X189650000Y-105410000D01*
X189650000Y-104860000D02*
X190250000Y-104460000D01*
X190250000Y-104460000D02*
X190250000Y-105260000D01*
X190250000Y-104860000D02*
X190750000Y-104860000D01*
X190250000Y-105260000D02*
X189650000Y-104860000D01*
%TO.C,S21*%
D11*
X188501631Y-128945688D02*
X189741999Y-124620010D01*
X188982262Y-129083507D02*
X188501631Y-128945688D01*
X189741999Y-124620010D02*
X190414882Y-124812956D01*
X192325358Y-123592269D02*
X192959324Y-121381366D01*
X192959324Y-121381366D02*
X193577774Y-121038554D01*
X193019561Y-130241183D02*
X192442804Y-130075801D01*
X194254416Y-125934731D02*
X193019561Y-130241183D01*
X195839640Y-125848331D02*
X194955280Y-125594745D01*
X195839640Y-125848331D02*
X196458090Y-125505519D01*
X196458090Y-125505519D02*
X197285002Y-122621734D01*
X197285002Y-122621734D02*
X196942190Y-122003284D01*
X192325358Y-123592269D02*
G75*
G02*
X190434108Y-124818469I-1558726J332526D01*
G01*
X194254416Y-125934731D02*
G75*
G02*
X194955280Y-125594744I520425J-180438D01*
G01*
%TO.C,S15*%
X170500000Y-51480000D02*
X170000000Y-51980000D01*
X170500000Y-55980000D02*
X170000000Y-55480000D01*
X172800000Y-55980000D02*
X170500000Y-55980000D01*
X173500000Y-51480000D02*
X170500000Y-51480000D01*
X174000000Y-51980000D02*
X173500000Y-51480000D01*
X174000000Y-51980000D02*
X174000000Y-52900000D01*
X174500000Y-58180000D02*
X174500000Y-57480000D01*
X174520000Y-53480000D02*
X179000000Y-53480000D01*
X179000000Y-53480000D02*
X179000000Y-54080000D01*
X179000000Y-57680000D02*
X179000000Y-58180000D01*
X179000000Y-58180000D02*
X174500000Y-58180000D01*
X172800000Y-55980000D02*
G75*
G02*
X174500000Y-57460000I110000J-1590000D01*
G01*
X174520000Y-53480000D02*
G75*
G02*
X174000000Y-52900000I30000J550000D01*
G01*
%TO.C,D22*%
D10*
X200298498Y-125620792D02*
X200907958Y-125235359D01*
X200663916Y-125783486D02*
X200460548Y-126240259D01*
X200907958Y-125235359D02*
X200405508Y-125011654D01*
X200907958Y-125235359D02*
X201029334Y-125946181D01*
X200907958Y-125235359D02*
X201410408Y-125459064D01*
X201029334Y-125946181D02*
X200298498Y-125620792D01*
X201070652Y-124869941D02*
X200907958Y-125235359D01*
%TO.C,D21*%
X181614686Y-119948860D02*
X182164573Y-119482358D01*
X181999191Y-120059114D02*
X181861372Y-120539746D01*
X182164573Y-119482358D02*
X181635879Y-119330758D01*
X182164573Y-119482358D02*
X182383695Y-120169370D01*
X182164573Y-119482358D02*
X182693267Y-119633959D01*
X182274828Y-119097854D02*
X182164573Y-119482358D01*
X182383695Y-120169370D02*
X181614686Y-119948860D01*
%TO.C,S6*%
D11*
X116500000Y-55800000D02*
X116000000Y-56300000D01*
X116500000Y-60300000D02*
X116000000Y-59800000D01*
X118800000Y-60300000D02*
X116500000Y-60300000D01*
X119500000Y-55800000D02*
X116500000Y-55800000D01*
X120000000Y-56300000D02*
X119500000Y-55800000D01*
X120000000Y-56300000D02*
X120000000Y-57220000D01*
X120500000Y-62500000D02*
X120500000Y-61800000D01*
X120520000Y-57800000D02*
X125000000Y-57800000D01*
X125000000Y-57800000D02*
X125000000Y-58400000D01*
X125000000Y-62000000D02*
X125000000Y-62500000D01*
X125000000Y-62500000D02*
X120500000Y-62500000D01*
X118800000Y-60300000D02*
G75*
G02*
X120500000Y-61780000I110000J-1590000D01*
G01*
X120520000Y-57800000D02*
G75*
G02*
X120000000Y-57220000I30000J550000D01*
G01*
%TO.C,D15*%
D10*
X171250000Y-66880000D02*
X171650000Y-66880000D01*
X171650000Y-66880000D02*
X171650000Y-66330000D01*
X171650000Y-66880000D02*
X171650000Y-67430000D01*
X171650000Y-66880000D02*
X172250000Y-66480000D01*
X172250000Y-66480000D02*
X172250000Y-67280000D01*
X172250000Y-66880000D02*
X172750000Y-66880000D01*
X172250000Y-67280000D02*
X171650000Y-66880000D01*
%TO.C,D4*%
X117250000Y-107200000D02*
X117650000Y-107200000D01*
X117650000Y-107200000D02*
X117650000Y-106650000D01*
X117650000Y-107200000D02*
X117650000Y-107750000D01*
X117650000Y-107200000D02*
X118250000Y-106800000D01*
X118250000Y-106800000D02*
X118250000Y-107600000D01*
X118250000Y-107200000D02*
X118750000Y-107200000D01*
X118250000Y-107600000D02*
X117650000Y-107200000D01*
%TO.C,S16*%
D11*
X188500000Y-89460000D02*
X188000000Y-89960000D01*
X188500000Y-93960000D02*
X188000000Y-93460000D01*
X190800000Y-93960000D02*
X188500000Y-93960000D01*
X191500000Y-89460000D02*
X188500000Y-89460000D01*
X192000000Y-89960000D02*
X191500000Y-89460000D01*
X192000000Y-89960000D02*
X192000000Y-90880000D01*
X192500000Y-96160000D02*
X192500000Y-95460000D01*
X192520000Y-91460000D02*
X197000000Y-91460000D01*
X197000000Y-91460000D02*
X197000000Y-92060000D01*
X197000000Y-95660000D02*
X197000000Y-96160000D01*
X197000000Y-96160000D02*
X192500000Y-96160000D01*
X190800000Y-93960000D02*
G75*
G02*
X192500000Y-95440000I110000J-1590000D01*
G01*
X192520000Y-91460000D02*
G75*
G02*
X192000000Y-90880000I30000J550000D01*
G01*
%TO.C,S13*%
X170500000Y-87480000D02*
X170000000Y-87980000D01*
X170500000Y-91980000D02*
X170000000Y-91480000D01*
X172800000Y-91980000D02*
X170500000Y-91980000D01*
X173500000Y-87480000D02*
X170500000Y-87480000D01*
X174000000Y-87980000D02*
X173500000Y-87480000D01*
X174000000Y-87980000D02*
X174000000Y-88900000D01*
X174500000Y-94180000D02*
X174500000Y-93480000D01*
X174520000Y-89480000D02*
X179000000Y-89480000D01*
X179000000Y-89480000D02*
X179000000Y-90080000D01*
X179000000Y-93680000D02*
X179000000Y-94180000D01*
X179000000Y-94180000D02*
X174500000Y-94180000D01*
X172800000Y-91980000D02*
G75*
G02*
X174500000Y-93460000I110000J-1590000D01*
G01*
X174520000Y-89480000D02*
G75*
G02*
X174000000Y-88900000I30000J550000D01*
G01*
%TO.C,S4*%
X116500000Y-91800000D02*
X116000000Y-92300000D01*
X116500000Y-96300000D02*
X116000000Y-95800000D01*
X118800000Y-96300000D02*
X116500000Y-96300000D01*
X119500000Y-91800000D02*
X116500000Y-91800000D01*
X120000000Y-92300000D02*
X119500000Y-91800000D01*
X120000000Y-92300000D02*
X120000000Y-93220000D01*
X120500000Y-98500000D02*
X120500000Y-97800000D01*
X120520000Y-93800000D02*
X125000000Y-93800000D01*
X125000000Y-93800000D02*
X125000000Y-94400000D01*
X125000000Y-98000000D02*
X125000000Y-98500000D01*
X125000000Y-98500000D02*
X120500000Y-98500000D01*
X118800000Y-96300000D02*
G75*
G02*
X120500000Y-97780000I110000J-1590000D01*
G01*
X120520000Y-93800000D02*
G75*
G02*
X120000000Y-93220000I30000J550000D01*
G01*
%TO.C,D19*%
D10*
X142800000Y-116630000D02*
X143200000Y-116030000D01*
X143200000Y-115630000D02*
X143200000Y-116030000D01*
X143200000Y-116030000D02*
X142650000Y-116030000D01*
X143200000Y-116030000D02*
X143600000Y-116630000D01*
X143200000Y-116030000D02*
X143750000Y-116030000D01*
X143200000Y-116630000D02*
X143200000Y-117130000D01*
X143600000Y-116630000D02*
X142800000Y-116630000D01*
%TO.C,S1*%
D11*
X98500000Y-91800000D02*
X98000000Y-92300000D01*
X98500000Y-96300000D02*
X98000000Y-95800000D01*
X100800000Y-96300000D02*
X98500000Y-96300000D01*
X101500000Y-91800000D02*
X98500000Y-91800000D01*
X102000000Y-92300000D02*
X101500000Y-91800000D01*
X102000000Y-92300000D02*
X102000000Y-93220000D01*
X102500000Y-98500000D02*
X102500000Y-97800000D01*
X102520000Y-93800000D02*
X107000000Y-93800000D01*
X107000000Y-93800000D02*
X107000000Y-94400000D01*
X107000000Y-98000000D02*
X107000000Y-98500000D01*
X107000000Y-98500000D02*
X102500000Y-98500000D01*
X100800000Y-96300000D02*
G75*
G02*
X102500000Y-97780000I110000J-1590000D01*
G01*
X102520000Y-93800000D02*
G75*
G02*
X102000000Y-93220000I30000J550000D01*
G01*
%TO.C,S7*%
X134500000Y-85500000D02*
X134000000Y-86000000D01*
X134500000Y-90000000D02*
X134000000Y-89500000D01*
X136800000Y-90000000D02*
X134500000Y-90000000D01*
X137500000Y-85500000D02*
X134500000Y-85500000D01*
X138000000Y-86000000D02*
X137500000Y-85500000D01*
X138000000Y-86000000D02*
X138000000Y-86920000D01*
X138500000Y-92200000D02*
X138500000Y-91500000D01*
X138520000Y-87500000D02*
X143000000Y-87500000D01*
X143000000Y-87500000D02*
X143000000Y-88100000D01*
X143000000Y-91700000D02*
X143000000Y-92200000D01*
X143000000Y-92200000D02*
X138500000Y-92200000D01*
X136800000Y-90000000D02*
G75*
G02*
X138500000Y-91480000I110000J-1590000D01*
G01*
X138520000Y-87500000D02*
G75*
G02*
X138000000Y-86920000I30000J550000D01*
G01*
%TO.C,D18*%
D10*
X189250000Y-68860000D02*
X189650000Y-68860000D01*
X189650000Y-68860000D02*
X189650000Y-68310000D01*
X189650000Y-68860000D02*
X189650000Y-69410000D01*
X189650000Y-68860000D02*
X190250000Y-68460000D01*
X190250000Y-68460000D02*
X190250000Y-69260000D01*
X190250000Y-68860000D02*
X190750000Y-68860000D01*
X190250000Y-69260000D02*
X189650000Y-68860000D01*
%TO.C,S18*%
D11*
X188500000Y-53460000D02*
X188000000Y-53960000D01*
X188500000Y-57960000D02*
X188000000Y-57460000D01*
X190800000Y-57960000D02*
X188500000Y-57960000D01*
X191500000Y-53460000D02*
X188500000Y-53460000D01*
X192000000Y-53960000D02*
X191500000Y-53460000D01*
X192000000Y-53960000D02*
X192000000Y-54880000D01*
X192500000Y-60160000D02*
X192500000Y-59460000D01*
X192520000Y-55460000D02*
X197000000Y-55460000D01*
X197000000Y-55460000D02*
X197000000Y-56060000D01*
X197000000Y-59660000D02*
X197000000Y-60160000D01*
X197000000Y-60160000D02*
X192500000Y-60160000D01*
X190800000Y-57960000D02*
G75*
G02*
X192500000Y-59440000I110000J-1590000D01*
G01*
X192520000Y-55460000D02*
G75*
G02*
X192000000Y-54880000I30000J550000D01*
G01*
%TO.C,D20*%
D10*
X162323399Y-116932298D02*
X162803011Y-116393806D01*
X162719507Y-116987967D02*
X162649920Y-117483101D01*
X162803011Y-116393806D02*
X162258363Y-116317261D01*
X162803011Y-116393806D02*
X163115614Y-117043636D01*
X162803011Y-116393806D02*
X163347658Y-116470351D01*
X162858680Y-115997699D02*
X162803011Y-116393806D01*
X163115614Y-117043636D02*
X162323399Y-116932298D01*
%TO.C,S5*%
D11*
X116500000Y-73800000D02*
X116000000Y-74300000D01*
X116500000Y-78300000D02*
X116000000Y-77800000D01*
X118800000Y-78300000D02*
X116500000Y-78300000D01*
X119500000Y-73800000D02*
X116500000Y-73800000D01*
X120000000Y-74300000D02*
X119500000Y-73800000D01*
X120000000Y-74300000D02*
X120000000Y-75220000D01*
X120500000Y-80500000D02*
X120500000Y-79800000D01*
X120520000Y-75800000D02*
X125000000Y-75800000D01*
X125000000Y-75800000D02*
X125000000Y-76400000D01*
X125000000Y-80000000D02*
X125000000Y-80500000D01*
X125000000Y-80500000D02*
X120500000Y-80500000D01*
X118800000Y-78300000D02*
G75*
G02*
X120500000Y-79780000I110000J-1590000D01*
G01*
X120520000Y-75800000D02*
G75*
G02*
X120000000Y-75220000I30000J550000D01*
G01*
%TO.C,S9*%
X134500000Y-49500000D02*
X134000000Y-50000000D01*
X134500000Y-54000000D02*
X134000000Y-53500000D01*
X136800000Y-54000000D02*
X134500000Y-54000000D01*
X137500000Y-49500000D02*
X134500000Y-49500000D01*
X138000000Y-50000000D02*
X137500000Y-49500000D01*
X138000000Y-50000000D02*
X138000000Y-50920000D01*
X138500000Y-56200000D02*
X138500000Y-55500000D01*
X138520000Y-51500000D02*
X143000000Y-51500000D01*
X143000000Y-51500000D02*
X143000000Y-52100000D01*
X143000000Y-55700000D02*
X143000000Y-56200000D01*
X143000000Y-56200000D02*
X138500000Y-56200000D01*
X136800000Y-54000000D02*
G75*
G02*
X138500000Y-55480000I110000J-1590000D01*
G01*
X138520000Y-51500000D02*
G75*
G02*
X138000000Y-50920000I30000J550000D01*
G01*
%TO.C,S14*%
X170500000Y-69480000D02*
X170000000Y-69980000D01*
X170500000Y-73980000D02*
X170000000Y-73480000D01*
X172800000Y-73980000D02*
X170500000Y-73980000D01*
X173500000Y-69480000D02*
X170500000Y-69480000D01*
X174000000Y-69980000D02*
X173500000Y-69480000D01*
X174000000Y-69980000D02*
X174000000Y-70900000D01*
X174500000Y-76180000D02*
X174500000Y-75480000D01*
X174520000Y-71480000D02*
X179000000Y-71480000D01*
X179000000Y-71480000D02*
X179000000Y-72080000D01*
X179000000Y-75680000D02*
X179000000Y-76180000D01*
X179000000Y-76180000D02*
X174500000Y-76180000D01*
X172800000Y-73980000D02*
G75*
G02*
X174500000Y-75460000I110000J-1590000D01*
G01*
X174520000Y-71480000D02*
G75*
G02*
X174000000Y-70900000I30000J550000D01*
G01*
%TO.C,D8*%
D10*
X135250000Y-82900000D02*
X135650000Y-82900000D01*
X135650000Y-82900000D02*
X135650000Y-82350000D01*
X135650000Y-82900000D02*
X135650000Y-83450000D01*
X135650000Y-82900000D02*
X136250000Y-82500000D01*
X136250000Y-82500000D02*
X136250000Y-83300000D01*
X136250000Y-82900000D02*
X136750000Y-82900000D01*
X136250000Y-83300000D02*
X135650000Y-82900000D01*
%TO.C,D5*%
X117250000Y-89200000D02*
X117650000Y-89200000D01*
X117650000Y-89200000D02*
X117650000Y-88650000D01*
X117650000Y-89200000D02*
X117650000Y-89750000D01*
X117650000Y-89200000D02*
X118250000Y-88800000D01*
X118250000Y-88800000D02*
X118250000Y-89600000D01*
X118250000Y-89200000D02*
X118750000Y-89200000D01*
X118250000Y-89600000D02*
X117650000Y-89200000D01*
%TO.C,S3*%
D11*
X98500000Y-55800000D02*
X98000000Y-56300000D01*
X98500000Y-60300000D02*
X98000000Y-59800000D01*
X100800000Y-60300000D02*
X98500000Y-60300000D01*
X101500000Y-55800000D02*
X98500000Y-55800000D01*
X102000000Y-56300000D02*
X101500000Y-55800000D01*
X102000000Y-56300000D02*
X102000000Y-57220000D01*
X102500000Y-62500000D02*
X102500000Y-61800000D01*
X102520000Y-57800000D02*
X107000000Y-57800000D01*
X107000000Y-57800000D02*
X107000000Y-58400000D01*
X107000000Y-62000000D02*
X107000000Y-62500000D01*
X107000000Y-62500000D02*
X102500000Y-62500000D01*
X100800000Y-60300000D02*
G75*
G02*
X102500000Y-61780000I110000J-1590000D01*
G01*
X102520000Y-57800000D02*
G75*
G02*
X102000000Y-57220000I30000J550000D01*
G01*
%TO.C,D10*%
D10*
X153250000Y-98380000D02*
X153650000Y-98380000D01*
X153650000Y-98380000D02*
X153650000Y-97830000D01*
X153650000Y-98380000D02*
X153650000Y-98930000D01*
X153650000Y-98380000D02*
X154250000Y-97980000D01*
X154250000Y-97980000D02*
X154250000Y-98780000D01*
X154250000Y-98380000D02*
X154750000Y-98380000D01*
X154250000Y-98780000D02*
X153650000Y-98380000D01*
%TO.C,D7*%
X135250000Y-100900000D02*
X135650000Y-100900000D01*
X135650000Y-100900000D02*
X135650000Y-100350000D01*
X135650000Y-100900000D02*
X135650000Y-101450000D01*
X135650000Y-100900000D02*
X136250000Y-100500000D01*
X136250000Y-100500000D02*
X136250000Y-101300000D01*
X136250000Y-100900000D02*
X136750000Y-100900000D01*
X136250000Y-101300000D02*
X135650000Y-100900000D01*
%TO.C,S12*%
D11*
X152500000Y-46980000D02*
X152000000Y-47480000D01*
X152500000Y-51480000D02*
X152000000Y-50980000D01*
X154800000Y-51480000D02*
X152500000Y-51480000D01*
X155500000Y-46980000D02*
X152500000Y-46980000D01*
X156000000Y-47480000D02*
X155500000Y-46980000D01*
X156000000Y-47480000D02*
X156000000Y-48400000D01*
X156500000Y-53680000D02*
X156500000Y-52980000D01*
X156520000Y-48980000D02*
X161000000Y-48980000D01*
X161000000Y-48980000D02*
X161000000Y-49580000D01*
X161000000Y-53180000D02*
X161000000Y-53680000D01*
X161000000Y-53680000D02*
X156500000Y-53680000D01*
X154800000Y-51480000D02*
G75*
G02*
X156500000Y-52960000I110000J-1590000D01*
G01*
X156520000Y-48980000D02*
G75*
G02*
X156000000Y-48400000I30000J550000D01*
G01*
%TO.C,D12*%
D10*
X153250000Y-62380000D02*
X153650000Y-62380000D01*
X153650000Y-62380000D02*
X153650000Y-61830000D01*
X153650000Y-62380000D02*
X153650000Y-62930000D01*
X153650000Y-62380000D02*
X154250000Y-61980000D01*
X154250000Y-61980000D02*
X154250000Y-62780000D01*
X154250000Y-62380000D02*
X154750000Y-62380000D01*
X154250000Y-62780000D02*
X153650000Y-62380000D01*
%TO.C,S10*%
D11*
X152500000Y-82980000D02*
X152000000Y-83480000D01*
X152500000Y-87480000D02*
X152000000Y-86980000D01*
X154800000Y-87480000D02*
X152500000Y-87480000D01*
X155500000Y-82980000D02*
X152500000Y-82980000D01*
X156000000Y-83480000D02*
X155500000Y-82980000D01*
X156000000Y-83480000D02*
X156000000Y-84400000D01*
X156500000Y-89680000D02*
X156500000Y-88980000D01*
X156520000Y-84980000D02*
X161000000Y-84980000D01*
X161000000Y-84980000D02*
X161000000Y-85580000D01*
X161000000Y-89180000D02*
X161000000Y-89680000D01*
X161000000Y-89680000D02*
X156500000Y-89680000D01*
X154800000Y-87480000D02*
G75*
G02*
X156500000Y-88960000I110000J-1590000D01*
G01*
X156520000Y-84980000D02*
G75*
G02*
X156000000Y-84400000I30000J550000D01*
G01*
%TO.C,D1*%
D10*
X99250000Y-107200000D02*
X99650000Y-107200000D01*
X99650000Y-107200000D02*
X99650000Y-106650000D01*
X99650000Y-107200000D02*
X99650000Y-107750000D01*
X99650000Y-107200000D02*
X100250000Y-106800000D01*
X100250000Y-106800000D02*
X100250000Y-107600000D01*
X100250000Y-107200000D02*
X100750000Y-107200000D01*
X100250000Y-107600000D02*
X99650000Y-107200000D01*
%TO.C,D13*%
X171250000Y-102880000D02*
X171650000Y-102880000D01*
X171650000Y-102880000D02*
X171650000Y-102330000D01*
X171650000Y-102880000D02*
X171650000Y-103430000D01*
X171650000Y-102880000D02*
X172250000Y-102480000D01*
X172250000Y-102480000D02*
X172250000Y-103280000D01*
X172250000Y-102880000D02*
X172750000Y-102880000D01*
X172250000Y-103280000D02*
X171650000Y-102880000D01*
%TO.C,D2*%
X99250000Y-89200000D02*
X99650000Y-89200000D01*
X99650000Y-89200000D02*
X99650000Y-88650000D01*
X99650000Y-89200000D02*
X99650000Y-89750000D01*
X99650000Y-89200000D02*
X100250000Y-88800000D01*
X100250000Y-88800000D02*
X100250000Y-89600000D01*
X100250000Y-89200000D02*
X100750000Y-89200000D01*
X100250000Y-89600000D02*
X99650000Y-89200000D01*
%TO.C,D9*%
X135250000Y-64900000D02*
X135650000Y-64900000D01*
X135650000Y-64900000D02*
X135650000Y-64350000D01*
X135650000Y-64900000D02*
X135650000Y-65450000D01*
X135650000Y-64900000D02*
X136250000Y-64500000D01*
X136250000Y-64500000D02*
X136250000Y-65300000D01*
X136250000Y-64900000D02*
X136750000Y-64900000D01*
X136250000Y-65300000D02*
X135650000Y-64900000D01*
%TO.C,S11*%
D11*
X152500000Y-64980000D02*
X152000000Y-65480000D01*
X152500000Y-69480000D02*
X152000000Y-68980000D01*
X154800000Y-69480000D02*
X152500000Y-69480000D01*
X155500000Y-64980000D02*
X152500000Y-64980000D01*
X156000000Y-65480000D02*
X155500000Y-64980000D01*
X156000000Y-65480000D02*
X156000000Y-66400000D01*
X156500000Y-71680000D02*
X156500000Y-70980000D01*
X156520000Y-66980000D02*
X161000000Y-66980000D01*
X161000000Y-66980000D02*
X161000000Y-67580000D01*
X161000000Y-71180000D02*
X161000000Y-71680000D01*
X161000000Y-71680000D02*
X156500000Y-71680000D01*
X154800000Y-69480000D02*
G75*
G02*
X156500000Y-70960000I110000J-1590000D01*
G01*
X156520000Y-66980000D02*
G75*
G02*
X156000000Y-66400000I30000J550000D01*
G01*
%TO.C,S20*%
X170395390Y-124883136D02*
X171021669Y-120426930D01*
X170890524Y-124952723D02*
X170395390Y-124883136D01*
X171021669Y-120426930D02*
X171714857Y-120524351D01*
X173436853Y-119049655D02*
X173756952Y-116772038D01*
X173756952Y-116772038D02*
X174321672Y-116346491D01*
X175049650Y-125537250D02*
X174455489Y-125453746D01*
X175673146Y-121100849D02*
X175049650Y-125537250D01*
X177230918Y-120794669D02*
X176319871Y-120666630D01*
X177230918Y-120794669D02*
X177795640Y-120369122D01*
X177795640Y-120369122D02*
X178213158Y-117398317D01*
X178213158Y-117398317D02*
X177787610Y-116833597D01*
X173436853Y-119049655D02*
G75*
G02*
X171734662Y-120527134I-1589835J112356D01*
G01*
X175673146Y-121100849D02*
G75*
G02*
X176319871Y-120666630I540472J-106253D01*
G01*
%TO.C,D14*%
D10*
X171250000Y-84880000D02*
X171650000Y-84880000D01*
X171650000Y-84880000D02*
X171650000Y-84330000D01*
X171650000Y-84880000D02*
X171650000Y-85430000D01*
X171650000Y-84880000D02*
X172250000Y-84480000D01*
X172250000Y-84480000D02*
X172250000Y-85280000D01*
X172250000Y-84880000D02*
X172750000Y-84880000D01*
X172250000Y-85280000D02*
X171650000Y-84880000D01*
%TO.C,S22*%
D11*
X205866262Y-135488523D02*
X207696577Y-131377569D01*
X206323034Y-135691891D02*
X205866262Y-135488523D01*
X207696577Y-131377569D02*
X208336058Y-131662284D01*
X210159925Y-137400185D02*
X209611798Y-137156143D01*
X210397829Y-130719362D02*
X211333323Y-128618207D01*
X211333323Y-128618207D02*
X211993464Y-128364803D01*
X211982105Y-133307502D02*
X210159925Y-137400185D01*
X213563927Y-133442563D02*
X212723465Y-133068365D01*
X213563927Y-133442563D02*
X214224068Y-133189159D01*
X214224068Y-133189159D02*
X215444278Y-130448522D01*
X215444278Y-130448522D02*
X215190873Y-129788381D01*
X210397829Y-130719362D02*
G75*
G02*
X208354329Y-131670419I-1497278J546221D01*
G01*
X211982105Y-133307502D02*
G75*
G02*
X212723465Y-133068365I490248J-251111D01*
G01*
%TD*%
%LPC*%
D12*
%TO.C,MH1*%
X109000000Y-73000000D03*
%TD*%
%TO.C,MH4*%
X190000000Y-110620000D03*
%TD*%
D13*
%TO.C,MCU1*%
X209006000Y-65678000D03*
X211006000Y-65678000D03*
%TD*%
D14*
%TO.C,PWR1*%
X219925000Y-81660000D03*
X219925000Y-84660000D03*
%TD*%
D12*
%TO.C,MH3*%
X154000000Y-104140000D03*
%TD*%
%TO.C,MH2*%
X109000000Y-91000000D03*
%TD*%
D15*
%TO.C,JST1*%
X209000000Y-74160000D03*
D16*
X211000000Y-74160000D03*
%TD*%
D17*
%TO.C,D6*%
X116350000Y-71200000D03*
X119650000Y-71200000D03*
%TD*%
%TO.C,D3*%
X98350000Y-71200000D03*
X101650000Y-71200000D03*
%TD*%
D18*
%TO.C,S8*%
X130500000Y-75700000D03*
X131000000Y-80850000D03*
D19*
X136000000Y-69750000D03*
D20*
X136000000Y-75700000D03*
D19*
X141000000Y-71950000D03*
D18*
X141500000Y-75700000D03*
D21*
X132725000Y-69750000D03*
X144275000Y-71950000D03*
%TD*%
D17*
%TO.C,D11*%
X152350000Y-80380000D03*
X155650000Y-80380000D03*
%TD*%
D18*
%TO.C,S17*%
X184500000Y-79660000D03*
X185000000Y-84810000D03*
D19*
X190000000Y-73710000D03*
D20*
X190000000Y-79660000D03*
D19*
X195000000Y-75910000D03*
D18*
X195500000Y-79660000D03*
D21*
X186725000Y-73710000D03*
X198275000Y-75910000D03*
%TD*%
D17*
%TO.C,D17*%
X188350000Y-86860000D03*
X191650000Y-86860000D03*
%TD*%
D18*
%TO.C,S19*%
X150400000Y-110880000D03*
X145250000Y-111380000D03*
D19*
X156350000Y-116380000D03*
D20*
X150400000Y-116380000D03*
D19*
X154150000Y-121380000D03*
D18*
X150400000Y-121880000D03*
D22*
X156350000Y-113105000D03*
X154150000Y-124655000D03*
%TD*%
D18*
%TO.C,S2*%
X94500000Y-82000000D03*
X95000000Y-87150000D03*
D19*
X100000000Y-76050000D03*
D20*
X100000000Y-82000000D03*
D19*
X105000000Y-78250000D03*
D18*
X105500000Y-82000000D03*
D21*
X96725000Y-76050000D03*
X108275000Y-78250000D03*
%TD*%
D17*
%TO.C,D16*%
X188350000Y-104860000D03*
X191650000Y-104860000D03*
%TD*%
D18*
%TO.C,S21*%
X190505205Y-116516461D03*
X185416889Y-115577559D03*
D19*
X194708707Y-123443442D03*
D20*
X188989200Y-121803400D03*
D19*
X191215746Y-127643349D03*
D18*
X187473195Y-127090339D03*
D23*
X195611419Y-120295310D03*
X190313032Y-130791481D03*
%TD*%
D18*
%TO.C,S15*%
X166500000Y-59680000D03*
X167000000Y-64830000D03*
D19*
X172000000Y-53730000D03*
D20*
X172000000Y-59680000D03*
D19*
X177000000Y-55930000D03*
D18*
X177500000Y-59680000D03*
D21*
X168725000Y-53730000D03*
X180275000Y-55930000D03*
%TD*%
D24*
%TO.C,D22*%
X201436715Y-124047750D03*
X200094485Y-127062450D03*
%TD*%
D25*
%TO.C,D21*%
X182522902Y-118232718D03*
X181613298Y-121404882D03*
%TD*%
D18*
%TO.C,S6*%
X112500000Y-64000000D03*
X113000000Y-69150000D03*
D19*
X118000000Y-58050000D03*
D20*
X118000000Y-64000000D03*
D19*
X123000000Y-60250000D03*
D18*
X123500000Y-64000000D03*
D21*
X114725000Y-58050000D03*
X126275000Y-60250000D03*
%TD*%
D17*
%TO.C,D15*%
X170350000Y-66880000D03*
X173650000Y-66880000D03*
%TD*%
%TO.C,D4*%
X116350000Y-107200000D03*
X119650000Y-107200000D03*
%TD*%
D18*
%TO.C,S16*%
X184500000Y-97660000D03*
X185000000Y-102810000D03*
D19*
X190000000Y-91710000D03*
D20*
X190000000Y-97660000D03*
D19*
X195000000Y-93910000D03*
D18*
X195500000Y-97660000D03*
D21*
X186725000Y-91710000D03*
X198275000Y-93910000D03*
%TD*%
D18*
%TO.C,S13*%
X166500000Y-95680000D03*
X167000000Y-100830000D03*
D19*
X172000000Y-89730000D03*
D20*
X172000000Y-95680000D03*
D19*
X177000000Y-91930000D03*
D18*
X177500000Y-95680000D03*
D21*
X168725000Y-89730000D03*
X180275000Y-91930000D03*
%TD*%
D18*
%TO.C,S4*%
X112500000Y-100000000D03*
X113000000Y-105150000D03*
D19*
X118000000Y-94050000D03*
D20*
X118000000Y-100000000D03*
D19*
X123000000Y-96250000D03*
D18*
X123500000Y-100000000D03*
D21*
X114725000Y-94050000D03*
X126275000Y-96250000D03*
%TD*%
D26*
%TO.C,D19*%
X143200000Y-114730000D03*
X143200000Y-118030000D03*
%TD*%
D18*
%TO.C,S1*%
X94500000Y-100000000D03*
X95000000Y-105150000D03*
D19*
X100000000Y-94050000D03*
D20*
X100000000Y-100000000D03*
D19*
X105000000Y-96250000D03*
D18*
X105500000Y-100000000D03*
D21*
X96725000Y-94050000D03*
X108275000Y-96250000D03*
%TD*%
D18*
%TO.C,S7*%
X130500000Y-93700000D03*
X131000000Y-98850000D03*
D19*
X136000000Y-87750000D03*
D20*
X136000000Y-93700000D03*
D19*
X141000000Y-89950000D03*
D18*
X141500000Y-93700000D03*
D21*
X132725000Y-87750000D03*
X144275000Y-89950000D03*
%TD*%
D17*
%TO.C,D18*%
X188350000Y-68860000D03*
X191650000Y-68860000D03*
%TD*%
D18*
%TO.C,S18*%
X184500000Y-61660000D03*
X185000000Y-66810000D03*
D19*
X190000000Y-55710000D03*
D20*
X190000000Y-61660000D03*
D19*
X195000000Y-57910000D03*
D18*
X195500000Y-61660000D03*
D21*
X186725000Y-55710000D03*
X198275000Y-57910000D03*
%TD*%
D27*
%TO.C,D20*%
X162983936Y-115106458D03*
X162524664Y-118374342D03*
%TD*%
D18*
%TO.C,S5*%
X112500000Y-82000000D03*
X113000000Y-87150000D03*
D19*
X118000000Y-76050000D03*
D20*
X118000000Y-82000000D03*
D19*
X123000000Y-78250000D03*
D18*
X123500000Y-82000000D03*
D21*
X114725000Y-76050000D03*
X126275000Y-78250000D03*
%TD*%
D18*
%TO.C,S9*%
X130500000Y-57700000D03*
X131000000Y-62850000D03*
D19*
X136000000Y-51750000D03*
D20*
X136000000Y-57700000D03*
D19*
X141000000Y-53950000D03*
D18*
X141500000Y-57700000D03*
D21*
X132725000Y-51750000D03*
X144275000Y-53950000D03*
%TD*%
D18*
%TO.C,S14*%
X166500000Y-77680000D03*
X167000000Y-82830000D03*
D19*
X172000000Y-71730000D03*
D20*
X172000000Y-77680000D03*
D19*
X177000000Y-73930000D03*
D18*
X177500000Y-77680000D03*
D21*
X168725000Y-71730000D03*
X180275000Y-73930000D03*
%TD*%
D17*
%TO.C,D8*%
X134350000Y-82900000D03*
X137650000Y-82900000D03*
%TD*%
%TO.C,D5*%
X116350000Y-89200000D03*
X119650000Y-89200000D03*
%TD*%
D18*
%TO.C,S3*%
X94500000Y-64000000D03*
X95000000Y-69150000D03*
D19*
X100000000Y-58050000D03*
D20*
X100000000Y-64000000D03*
D19*
X105000000Y-60250000D03*
D18*
X105500000Y-64000000D03*
D21*
X96725000Y-58050000D03*
X108275000Y-60250000D03*
%TD*%
D17*
%TO.C,D10*%
X152350000Y-98380000D03*
X155650000Y-98380000D03*
%TD*%
%TO.C,D7*%
X134350000Y-100900000D03*
X137650000Y-100900000D03*
%TD*%
D18*
%TO.C,S12*%
X148500000Y-55180000D03*
X149000000Y-60330000D03*
D19*
X154000000Y-49230000D03*
D20*
X154000000Y-55180000D03*
D19*
X159000000Y-51430000D03*
D18*
X159500000Y-55180000D03*
D21*
X150725000Y-49230000D03*
X162275000Y-51430000D03*
%TD*%
D17*
%TO.C,D12*%
X152350000Y-62380000D03*
X155650000Y-62380000D03*
%TD*%
D18*
%TO.C,S10*%
X148500000Y-91180000D03*
X149000000Y-96330000D03*
D19*
X154000000Y-85230000D03*
D20*
X154000000Y-91180000D03*
D19*
X159000000Y-87430000D03*
D18*
X159500000Y-91180000D03*
D21*
X150725000Y-85230000D03*
X162275000Y-87430000D03*
%TD*%
D17*
%TO.C,D1*%
X98350000Y-107200000D03*
X101650000Y-107200000D03*
%TD*%
%TO.C,D13*%
X170350000Y-102880000D03*
X173650000Y-102880000D03*
%TD*%
%TO.C,D2*%
X98350000Y-89200000D03*
X101650000Y-89200000D03*
%TD*%
%TO.C,D9*%
X134350000Y-64900000D03*
X137650000Y-64900000D03*
%TD*%
D18*
%TO.C,S11*%
X148500000Y-73180000D03*
X149000000Y-78330000D03*
D19*
X154000000Y-67230000D03*
D20*
X154000000Y-73180000D03*
D19*
X159000000Y-69430000D03*
D18*
X159500000Y-73180000D03*
D21*
X150725000Y-67230000D03*
X162275000Y-69430000D03*
%TD*%
D18*
%TO.C,S20*%
X170649652Y-112296026D03*
X165480185Y-112074418D03*
D19*
X175776295Y-118570580D03*
D20*
X169884200Y-117742500D03*
D19*
X172901840Y-123215738D03*
D18*
X169118748Y-123188974D03*
D28*
X176232087Y-115327452D03*
X172446048Y-126458867D03*
%TD*%
D17*
%TO.C,D14*%
X170350000Y-84880000D03*
X173650000Y-84880000D03*
%TD*%
D18*
%TO.C,S22*%
X209580152Y-123459100D03*
X204672024Y-121821179D03*
D19*
X212778695Y-130903683D03*
D20*
X207343100Y-128483600D03*
D19*
X208735212Y-134576590D03*
D18*
X205106048Y-133508100D03*
D29*
X214110758Y-127911822D03*
X207403150Y-137568451D03*
%TD*%
%LPD*%
M02*
