%TF.GenerationSoftware,KiCad,Pcbnew,10.0.5*%
%TF.CreationDate,2026-09-02T17:36:25+09:00*%
%TF.ProjectId,first_left,66697273-745f-46c6-9566-742e6b696361,0.2.0*%
%TF.SameCoordinates,Original*%
%TF.FileFunction,Drillmap*%
%TF.FilePolarity,Positive*%
%FSLAX45Y45*%
G04 Gerber Fmt 4.5, Leading zero omitted, Abs format (unit mm)*
G04 Created by KiCad (PCBNEW 10.0.5) date 2026-09-02 17:36:25*
%MOMM*%
%LPD*%
G01*
G04 APERTURE LIST*
%ADD10C,0.150000*%
%ADD11C,0.200000*%
%ADD12C,0.100000*%
%ADD13C,0.190000*%
%ADD14C,0.220000*%
%ADD15C,0.300000*%
%ADD16C,0.500000*%
G04 APERTURE END LIST*
D10*
X8800000Y-5500000D02*
G75*
G02*
X9048286Y-5204491I300000J0D01*
G01*
X8800000Y-10900000D02*
X8800000Y-5500000D01*
X9100000Y-11200000D02*
G75*
G02*
X8800000Y-10900000I0J300000D01*
G01*
X9100000Y-11200000D02*
X10828477Y-11200000D01*
X10828477Y-11200000D02*
X14004647Y-12805731D01*
X12648286Y-4574491D02*
X9048286Y-5204491D01*
X12648286Y-4574491D02*
G75*
G02*
X12658406Y-4572898I51714J-295509D01*
G01*
X14140000Y-12838000D02*
G75*
G02*
X14004647Y-12805731I0J300000D01*
G01*
X14140000Y-12838000D02*
X15929524Y-12838000D01*
X14458406Y-4320898D02*
X12658406Y-4572898D01*
X14458406Y-4320898D02*
G75*
G02*
X14500000Y-4318001I41594J-297163D01*
G01*
X15929524Y-12838000D02*
X15940549Y-12838771D01*
X15940549Y-12838771D02*
X17681616Y-13083462D01*
X16300000Y-4318000D02*
X14500000Y-4318000D01*
X16300000Y-4318000D02*
G75*
G02*
X16372761Y-4326957I0J-300010D01*
G01*
X17681616Y-13083462D02*
X21088179Y-14318650D01*
X18144599Y-4769917D02*
X16372761Y-4326957D01*
X21464505Y-14158638D02*
G75*
G02*
X21088178Y-14318652I-274065J122019D01*
G01*
X21464505Y-14158638D02*
X22196631Y-12514257D01*
X21915610Y-4966406D02*
X18144599Y-4769917D01*
X21915610Y-4966406D02*
G75*
G02*
X22200000Y-5266000I-15610J-299594D01*
G01*
X22200000Y-10414287D02*
X22200000Y-5266000D01*
X22222547Y-12388810D02*
G75*
G02*
X22196630Y-12514256I-299947J-3430D01*
G01*
X22222547Y-12388810D02*
X22200000Y-10414287D01*
D11*
D12*
X21947500Y-8121000D02*
X22037500Y-8211000D01*
X22037500Y-8121000D02*
X21947500Y-8211000D01*
X21947500Y-8421000D02*
X22037500Y-8511000D01*
X22037500Y-8421000D02*
X21947500Y-8511000D01*
D13*
X9545000Y-6400000D02*
G75*
G02*
X9355000Y-6400000I-95000J0D01*
G01*
X9355000Y-6400000D02*
G75*
G02*
X9545000Y-6400000I95000J0D01*
G01*
X9545000Y-8200000D02*
G75*
G02*
X9355000Y-8200000I-95000J0D01*
G01*
X9355000Y-8200000D02*
G75*
G02*
X9545000Y-8200000I95000J0D01*
G01*
X9545000Y-10000000D02*
G75*
G02*
X9355000Y-10000000I-95000J0D01*
G01*
X9355000Y-10000000D02*
G75*
G02*
X9545000Y-10000000I95000J0D01*
G01*
X10645000Y-6400000D02*
G75*
G02*
X10455000Y-6400000I-95000J0D01*
G01*
X10455000Y-6400000D02*
G75*
G02*
X10645000Y-6400000I95000J0D01*
G01*
X10645000Y-8200000D02*
G75*
G02*
X10455000Y-8200000I-95000J0D01*
G01*
X10455000Y-8200000D02*
G75*
G02*
X10645000Y-8200000I95000J0D01*
G01*
X10645000Y-10000000D02*
G75*
G02*
X10455000Y-10000000I-95000J0D01*
G01*
X10455000Y-10000000D02*
G75*
G02*
X10645000Y-10000000I95000J0D01*
G01*
X11345000Y-6400000D02*
G75*
G02*
X11155000Y-6400000I-95000J0D01*
G01*
X11155000Y-6400000D02*
G75*
G02*
X11345000Y-6400000I95000J0D01*
G01*
X11345000Y-8200000D02*
G75*
G02*
X11155000Y-8200000I-95000J0D01*
G01*
X11155000Y-8200000D02*
G75*
G02*
X11345000Y-8200000I95000J0D01*
G01*
X11345000Y-10000000D02*
G75*
G02*
X11155000Y-10000000I-95000J0D01*
G01*
X11155000Y-10000000D02*
G75*
G02*
X11345000Y-10000000I95000J0D01*
G01*
X12445000Y-6400000D02*
G75*
G02*
X12255000Y-6400000I-95000J0D01*
G01*
X12255000Y-6400000D02*
G75*
G02*
X12445000Y-6400000I95000J0D01*
G01*
X12445000Y-8200000D02*
G75*
G02*
X12255000Y-8200000I-95000J0D01*
G01*
X12255000Y-8200000D02*
G75*
G02*
X12445000Y-8200000I95000J0D01*
G01*
X12445000Y-10000000D02*
G75*
G02*
X12255000Y-10000000I-95000J0D01*
G01*
X12255000Y-10000000D02*
G75*
G02*
X12445000Y-10000000I95000J0D01*
G01*
X13145000Y-5770000D02*
G75*
G02*
X12955000Y-5770000I-95000J0D01*
G01*
X12955000Y-5770000D02*
G75*
G02*
X13145000Y-5770000I95000J0D01*
G01*
X13145000Y-7570000D02*
G75*
G02*
X12955000Y-7570000I-95000J0D01*
G01*
X12955000Y-7570000D02*
G75*
G02*
X13145000Y-7570000I95000J0D01*
G01*
X13145000Y-9370000D02*
G75*
G02*
X12955000Y-9370000I-95000J0D01*
G01*
X12955000Y-9370000D02*
G75*
G02*
X13145000Y-9370000I95000J0D01*
G01*
X14245000Y-5770000D02*
G75*
G02*
X14055000Y-5770000I-95000J0D01*
G01*
X14055000Y-5770000D02*
G75*
G02*
X14245000Y-5770000I95000J0D01*
G01*
X14245000Y-7570000D02*
G75*
G02*
X14055000Y-7570000I-95000J0D01*
G01*
X14055000Y-7570000D02*
G75*
G02*
X14245000Y-7570000I95000J0D01*
G01*
X14245000Y-9370000D02*
G75*
G02*
X14055000Y-9370000I-95000J0D01*
G01*
X14055000Y-9370000D02*
G75*
G02*
X14245000Y-9370000I95000J0D01*
G01*
X14945000Y-5518000D02*
G75*
G02*
X14755000Y-5518000I-95000J0D01*
G01*
X14755000Y-5518000D02*
G75*
G02*
X14945000Y-5518000I95000J0D01*
G01*
X14945000Y-7318000D02*
G75*
G02*
X14755000Y-7318000I-95000J0D01*
G01*
X14755000Y-7318000D02*
G75*
G02*
X14945000Y-7318000I95000J0D01*
G01*
X14945000Y-9118000D02*
G75*
G02*
X14755000Y-9118000I-95000J0D01*
G01*
X14755000Y-9118000D02*
G75*
G02*
X14945000Y-9118000I95000J0D01*
G01*
X15135000Y-11088000D02*
G75*
G02*
X14945000Y-11088000I-95000J0D01*
G01*
X14945000Y-11088000D02*
G75*
G02*
X15135000Y-11088000I95000J0D01*
G01*
X15135000Y-12188000D02*
G75*
G02*
X14945000Y-12188000I-95000J0D01*
G01*
X14945000Y-12188000D02*
G75*
G02*
X15135000Y-12188000I95000J0D01*
G01*
X16045000Y-5518000D02*
G75*
G02*
X15855000Y-5518000I-95000J0D01*
G01*
X15855000Y-5518000D02*
G75*
G02*
X16045000Y-5518000I95000J0D01*
G01*
X16045000Y-7318000D02*
G75*
G02*
X15855000Y-7318000I-95000J0D01*
G01*
X15855000Y-7318000D02*
G75*
G02*
X16045000Y-7318000I95000J0D01*
G01*
X16045000Y-9118000D02*
G75*
G02*
X15855000Y-9118000I-95000J0D01*
G01*
X15855000Y-9118000D02*
G75*
G02*
X16045000Y-9118000I95000J0D01*
G01*
X16745000Y-5968000D02*
G75*
G02*
X16555000Y-5968000I-95000J0D01*
G01*
X16555000Y-5968000D02*
G75*
G02*
X16745000Y-5968000I95000J0D01*
G01*
X16745000Y-7768000D02*
G75*
G02*
X16555000Y-7768000I-95000J0D01*
G01*
X16555000Y-7768000D02*
G75*
G02*
X16745000Y-7768000I95000J0D01*
G01*
X16745000Y-9568000D02*
G75*
G02*
X16555000Y-9568000I-95000J0D01*
G01*
X16555000Y-9568000D02*
G75*
G02*
X16745000Y-9568000I95000J0D01*
G01*
X17006875Y-12318897D02*
G75*
G02*
X16816875Y-12318897I-95000J0D01*
G01*
X16816875Y-12318897D02*
G75*
G02*
X17006875Y-12318897I95000J0D01*
G01*
X17159965Y-11229603D02*
G75*
G02*
X16969965Y-11229603I-95000J0D01*
G01*
X16969965Y-11229603D02*
G75*
G02*
X17159965Y-11229603I95000J0D01*
G01*
X17845000Y-5968000D02*
G75*
G02*
X17655000Y-5968000I-95000J0D01*
G01*
X17655000Y-5968000D02*
G75*
G02*
X17845000Y-5968000I95000J0D01*
G01*
X17845000Y-7768000D02*
G75*
G02*
X17655000Y-7768000I-95000J0D01*
G01*
X17655000Y-7768000D02*
G75*
G02*
X17845000Y-7768000I95000J0D01*
G01*
X17845000Y-9568000D02*
G75*
G02*
X17655000Y-9568000I-95000J0D01*
G01*
X17655000Y-9568000D02*
G75*
G02*
X17845000Y-9568000I95000J0D01*
G01*
X18545000Y-6166000D02*
G75*
G02*
X18355000Y-6166000I-95000J0D01*
G01*
X18355000Y-6166000D02*
G75*
G02*
X18545000Y-6166000I95000J0D01*
G01*
X18545000Y-7966000D02*
G75*
G02*
X18355000Y-7966000I-95000J0D01*
G01*
X18355000Y-7966000D02*
G75*
G02*
X18545000Y-7966000I95000J0D01*
G01*
X18545000Y-9766000D02*
G75*
G02*
X18355000Y-9766000I-95000J0D01*
G01*
X18355000Y-9766000D02*
G75*
G02*
X18545000Y-9766000I95000J0D01*
G01*
X18842320Y-12709034D02*
G75*
G02*
X18652320Y-12709034I-95000J0D01*
G01*
X18652320Y-12709034D02*
G75*
G02*
X18842320Y-12709034I95000J0D01*
G01*
X19145521Y-11651646D02*
G75*
G02*
X18955521Y-11651646I-95000J0D01*
G01*
X18955521Y-11651646D02*
G75*
G02*
X19145521Y-11651646I95000J0D01*
G01*
X19645000Y-6166000D02*
G75*
G02*
X19455000Y-6166000I-95000J0D01*
G01*
X19455000Y-6166000D02*
G75*
G02*
X19645000Y-6166000I95000J0D01*
G01*
X19645000Y-7966000D02*
G75*
G02*
X19455000Y-7966000I-95000J0D01*
G01*
X19455000Y-7966000D02*
G75*
G02*
X19645000Y-7966000I95000J0D01*
G01*
X19645000Y-9766000D02*
G75*
G02*
X19455000Y-9766000I-95000J0D01*
G01*
X19455000Y-9766000D02*
G75*
G02*
X19645000Y-9766000I95000J0D01*
G01*
X20605605Y-13350810D02*
G75*
G02*
X20415605Y-13350810I-95000J0D01*
G01*
X20415605Y-13350810D02*
G75*
G02*
X20605605Y-13350810I95000J0D01*
G01*
X21053015Y-12345910D02*
G75*
G02*
X20863015Y-12345910I-95000J0D01*
G01*
X20863015Y-12345910D02*
G75*
G02*
X21053015Y-12345910I95000J0D01*
G01*
D14*
X10900000Y-7190000D02*
X10900000Y-7410000D01*
X10790000Y-7300000D02*
X11010000Y-7300000D01*
X10900000Y-8990000D02*
X10900000Y-9210000D01*
X10790000Y-9100000D02*
X11010000Y-9100000D01*
X15400000Y-10304000D02*
X15400000Y-10524000D01*
X15290000Y-10414000D02*
X15510000Y-10414000D01*
X19000000Y-10952000D02*
X19000000Y-11172000D01*
X18890000Y-11062000D02*
X19110000Y-11062000D01*
D15*
X10106067Y-5911067D02*
X10106067Y-5698933D01*
X9893933Y-5698933D01*
X9893933Y-5911067D01*
X10106067Y-5911067D01*
X10106067Y-7711067D02*
X10106067Y-7498933D01*
X9893933Y-7498933D01*
X9893933Y-7711067D01*
X10106067Y-7711067D01*
X10106067Y-9511067D02*
X10106067Y-9298933D01*
X9893933Y-9298933D01*
X9893933Y-9511067D01*
X10106067Y-9511067D01*
X10606067Y-6131067D02*
X10606067Y-5918933D01*
X10393933Y-5918933D01*
X10393933Y-6131067D01*
X10606067Y-6131067D01*
X10606067Y-7931067D02*
X10606067Y-7718933D01*
X10393933Y-7718933D01*
X10393933Y-7931067D01*
X10606067Y-7931067D01*
X10606067Y-9731067D02*
X10606067Y-9518933D01*
X10393933Y-9518933D01*
X10393933Y-9731067D01*
X10606067Y-9731067D01*
X11906067Y-5911067D02*
X11906067Y-5698933D01*
X11693933Y-5698933D01*
X11693933Y-5911067D01*
X11906067Y-5911067D01*
X11906067Y-7711067D02*
X11906067Y-7498933D01*
X11693933Y-7498933D01*
X11693933Y-7711067D01*
X11906067Y-7711067D01*
X11906067Y-9511067D02*
X11906067Y-9298933D01*
X11693933Y-9298933D01*
X11693933Y-9511067D01*
X11906067Y-9511067D01*
X12406067Y-6131067D02*
X12406067Y-5918933D01*
X12193933Y-5918933D01*
X12193933Y-6131067D01*
X12406067Y-6131067D01*
X12406067Y-7931067D02*
X12406067Y-7718933D01*
X12193933Y-7718933D01*
X12193933Y-7931067D01*
X12406067Y-7931067D01*
X12406067Y-9731067D02*
X12406067Y-9518933D01*
X12193933Y-9518933D01*
X12193933Y-9731067D01*
X12406067Y-9731067D01*
X13706067Y-5281067D02*
X13706067Y-5068933D01*
X13493933Y-5068933D01*
X13493933Y-5281067D01*
X13706067Y-5281067D01*
X13706067Y-7081067D02*
X13706067Y-6868933D01*
X13493933Y-6868933D01*
X13493933Y-7081067D01*
X13706067Y-7081067D01*
X13706067Y-8881067D02*
X13706067Y-8668933D01*
X13493933Y-8668933D01*
X13493933Y-8881067D01*
X13706067Y-8881067D01*
X14206067Y-5501067D02*
X14206067Y-5288933D01*
X13993933Y-5288933D01*
X13993933Y-5501067D01*
X14206067Y-5501067D01*
X14206067Y-7301067D02*
X14206067Y-7088933D01*
X13993933Y-7088933D01*
X13993933Y-7301067D01*
X14206067Y-7301067D01*
X14206067Y-9101067D02*
X14206067Y-8888933D01*
X13993933Y-8888933D01*
X13993933Y-9101067D01*
X14206067Y-9101067D01*
X15506067Y-5029067D02*
X15506067Y-4816933D01*
X15293933Y-4816933D01*
X15293933Y-5029067D01*
X15506067Y-5029067D01*
X15506067Y-6829067D02*
X15506067Y-6616933D01*
X15293933Y-6616933D01*
X15293933Y-6829067D01*
X15506067Y-6829067D01*
X15506067Y-8629067D02*
X15506067Y-8416933D01*
X15293933Y-8416933D01*
X15293933Y-8629067D01*
X15506067Y-8629067D01*
X15521067Y-12244067D02*
X15521067Y-12031933D01*
X15308933Y-12031933D01*
X15308933Y-12244067D01*
X15521067Y-12244067D01*
X15741067Y-11744067D02*
X15741067Y-11531933D01*
X15528933Y-11531933D01*
X15528933Y-11744067D01*
X15741067Y-11744067D01*
X16006067Y-5249067D02*
X16006067Y-5036933D01*
X15793933Y-5036933D01*
X15793933Y-5249067D01*
X16006067Y-5249067D01*
X16006067Y-7049067D02*
X16006067Y-6836933D01*
X15793933Y-6836933D01*
X15793933Y-7049067D01*
X16006067Y-7049067D01*
X16006067Y-8849067D02*
X16006067Y-8636933D01*
X15793933Y-8636933D01*
X15793933Y-8849067D01*
X16006067Y-8849067D01*
X17306067Y-5479067D02*
X17306067Y-5266933D01*
X17093933Y-5266933D01*
X17093933Y-5479067D01*
X17306067Y-5479067D01*
X17306067Y-7279067D02*
X17306067Y-7066933D01*
X17093933Y-7066933D01*
X17093933Y-7279067D01*
X17306067Y-7279067D01*
X17306067Y-9079067D02*
X17306067Y-8866933D01*
X17093933Y-8866933D01*
X17093933Y-9079067D01*
X17306067Y-9079067D01*
X17396251Y-12427641D02*
X17396251Y-12215507D01*
X17184117Y-12215507D01*
X17184117Y-12427641D01*
X17396251Y-12427641D01*
X17683697Y-11963125D02*
X17683697Y-11750991D01*
X17471563Y-11750991D01*
X17471563Y-11963125D01*
X17683697Y-11963125D01*
X17806067Y-5699067D02*
X17806067Y-5486933D01*
X17593933Y-5486933D01*
X17593933Y-5699067D01*
X17806067Y-5699067D01*
X17806067Y-7499067D02*
X17806067Y-7286933D01*
X17593933Y-7286933D01*
X17593933Y-7499067D01*
X17806067Y-7499067D01*
X17806067Y-9299067D02*
X17806067Y-9086933D01*
X17593933Y-9086933D01*
X17593933Y-9299067D01*
X17806067Y-9299067D01*
X19106067Y-5677067D02*
X19106067Y-5464933D01*
X18893933Y-5464933D01*
X18893933Y-5677067D01*
X19106067Y-5677067D01*
X19106067Y-7477067D02*
X19106067Y-7264933D01*
X18893933Y-7264933D01*
X18893933Y-7477067D01*
X19106067Y-7477067D01*
X19106067Y-9277067D02*
X19106067Y-9064933D01*
X18893933Y-9064933D01*
X18893933Y-9277067D01*
X19106067Y-9277067D01*
X19227642Y-12870402D02*
X19227642Y-12658268D01*
X19015508Y-12658268D01*
X19015508Y-12870402D01*
X19227642Y-12870402D01*
X19576938Y-12450411D02*
X19576938Y-12238277D01*
X19364804Y-12238277D01*
X19364804Y-12450411D01*
X19576938Y-12450411D01*
X19606067Y-5897067D02*
X19606067Y-5684933D01*
X19393933Y-5684933D01*
X19393933Y-5897067D01*
X19606067Y-5897067D01*
X19606067Y-7697067D02*
X19606067Y-7484933D01*
X19393933Y-7484933D01*
X19393933Y-7697067D01*
X19606067Y-7697067D01*
X19606067Y-9497067D02*
X19606067Y-9284933D01*
X19393933Y-9284933D01*
X19393933Y-9497067D01*
X19606067Y-9497067D01*
X20979588Y-13563726D02*
X20979588Y-13351592D01*
X20767454Y-13351592D01*
X20767454Y-13563726D01*
X20979588Y-13563726D01*
X21383937Y-13196435D02*
X21383937Y-12984301D01*
X21171803Y-12984301D01*
X21171803Y-13196435D01*
X21383937Y-13196435D01*
D16*
X10000000Y-6650000D02*
X10250000Y-6400000D01*
X10000000Y-6150000D01*
X9750000Y-6400000D01*
X10000000Y-6650000D01*
X10000000Y-8450000D02*
X10250000Y-8200000D01*
X10000000Y-7950000D01*
X9750000Y-8200000D01*
X10000000Y-8450000D01*
X10000000Y-10250000D02*
X10250000Y-10000000D01*
X10000000Y-9750000D01*
X9750000Y-10000000D01*
X10000000Y-10250000D01*
X11800000Y-6650000D02*
X12050000Y-6400000D01*
X11800000Y-6150000D01*
X11550000Y-6400000D01*
X11800000Y-6650000D01*
X11800000Y-8450000D02*
X12050000Y-8200000D01*
X11800000Y-7950000D01*
X11550000Y-8200000D01*
X11800000Y-8450000D01*
X11800000Y-10250000D02*
X12050000Y-10000000D01*
X11800000Y-9750000D01*
X11550000Y-10000000D01*
X11800000Y-10250000D01*
X13600000Y-6020000D02*
X13850000Y-5770000D01*
X13600000Y-5520000D01*
X13350000Y-5770000D01*
X13600000Y-6020000D01*
X13600000Y-7820000D02*
X13850000Y-7570000D01*
X13600000Y-7320000D01*
X13350000Y-7570000D01*
X13600000Y-7820000D01*
X13600000Y-9620000D02*
X13850000Y-9370000D01*
X13600000Y-9120000D01*
X13350000Y-9370000D01*
X13600000Y-9620000D01*
X15040000Y-11888000D02*
X15290000Y-11638000D01*
X15040000Y-11388000D01*
X14790000Y-11638000D01*
X15040000Y-11888000D01*
X15400000Y-5768000D02*
X15650000Y-5518000D01*
X15400000Y-5268000D01*
X15150000Y-5518000D01*
X15400000Y-5768000D01*
X15400000Y-7568000D02*
X15650000Y-7318000D01*
X15400000Y-7068000D01*
X15150000Y-7318000D01*
X15400000Y-7568000D01*
X15400000Y-9368000D02*
X15650000Y-9118000D01*
X15400000Y-8868000D01*
X15150000Y-9118000D01*
X15400000Y-9368000D01*
X16988420Y-12024250D02*
X17238420Y-11774250D01*
X16988420Y-11524250D01*
X16738420Y-11774250D01*
X16988420Y-12024250D01*
X17200000Y-6218000D02*
X17450000Y-5968000D01*
X17200000Y-5718000D01*
X16950000Y-5968000D01*
X17200000Y-6218000D01*
X17200000Y-8018000D02*
X17450000Y-7768000D01*
X17200000Y-7518000D01*
X16950000Y-7768000D01*
X17200000Y-8018000D01*
X17200000Y-9818000D02*
X17450000Y-9568000D01*
X17200000Y-9318000D01*
X16950000Y-9568000D01*
X17200000Y-9818000D01*
X18898920Y-12430340D02*
X19148920Y-12180340D01*
X18898920Y-11930340D01*
X18648920Y-12180340D01*
X18898920Y-12430340D01*
X19000000Y-6416000D02*
X19250000Y-6166000D01*
X19000000Y-5916000D01*
X18750000Y-6166000D01*
X19000000Y-6416000D01*
X19000000Y-8216000D02*
X19250000Y-7966000D01*
X19000000Y-7716000D01*
X18750000Y-7966000D01*
X19000000Y-8216000D01*
X19000000Y-10016000D02*
X19250000Y-9766000D01*
X19000000Y-9516000D01*
X18750000Y-9766000D01*
X19000000Y-10016000D01*
X20734310Y-13098360D02*
X20984310Y-12848360D01*
X20734310Y-12598360D01*
X20484310Y-12848360D01*
X20734310Y-13098360D01*
D11*
X9053277Y-14655604D02*
X9053277Y-14455604D01*
X9053277Y-14455604D02*
X9100896Y-14455604D01*
X9100896Y-14455604D02*
X9129467Y-14465127D01*
X9129467Y-14465127D02*
X9148515Y-14484175D01*
X9148515Y-14484175D02*
X9158039Y-14503223D01*
X9158039Y-14503223D02*
X9167563Y-14541318D01*
X9167563Y-14541318D02*
X9167563Y-14569889D01*
X9167563Y-14569889D02*
X9158039Y-14607985D01*
X9158039Y-14607985D02*
X9148515Y-14627032D01*
X9148515Y-14627032D02*
X9129467Y-14646080D01*
X9129467Y-14646080D02*
X9100896Y-14655604D01*
X9100896Y-14655604D02*
X9053277Y-14655604D01*
X9253277Y-14655604D02*
X9253277Y-14522270D01*
X9253277Y-14560366D02*
X9262801Y-14541318D01*
X9262801Y-14541318D02*
X9272324Y-14531794D01*
X9272324Y-14531794D02*
X9291372Y-14522270D01*
X9291372Y-14522270D02*
X9310420Y-14522270D01*
X9377086Y-14655604D02*
X9377086Y-14522270D01*
X9377086Y-14455604D02*
X9367563Y-14465127D01*
X9367563Y-14465127D02*
X9377086Y-14474651D01*
X9377086Y-14474651D02*
X9386610Y-14465127D01*
X9386610Y-14465127D02*
X9377086Y-14455604D01*
X9377086Y-14455604D02*
X9377086Y-14474651D01*
X9500896Y-14655604D02*
X9481848Y-14646080D01*
X9481848Y-14646080D02*
X9472324Y-14627032D01*
X9472324Y-14627032D02*
X9472324Y-14455604D01*
X9605658Y-14655604D02*
X9586610Y-14646080D01*
X9586610Y-14646080D02*
X9577086Y-14627032D01*
X9577086Y-14627032D02*
X9577086Y-14455604D01*
X9834229Y-14655604D02*
X9834229Y-14455604D01*
X9834229Y-14455604D02*
X9900896Y-14598461D01*
X9900896Y-14598461D02*
X9967563Y-14455604D01*
X9967563Y-14455604D02*
X9967563Y-14655604D01*
X10148515Y-14655604D02*
X10148515Y-14550842D01*
X10148515Y-14550842D02*
X10138991Y-14531794D01*
X10138991Y-14531794D02*
X10119944Y-14522270D01*
X10119944Y-14522270D02*
X10081848Y-14522270D01*
X10081848Y-14522270D02*
X10062801Y-14531794D01*
X10148515Y-14646080D02*
X10129467Y-14655604D01*
X10129467Y-14655604D02*
X10081848Y-14655604D01*
X10081848Y-14655604D02*
X10062801Y-14646080D01*
X10062801Y-14646080D02*
X10053277Y-14627032D01*
X10053277Y-14627032D02*
X10053277Y-14607985D01*
X10053277Y-14607985D02*
X10062801Y-14588937D01*
X10062801Y-14588937D02*
X10081848Y-14579413D01*
X10081848Y-14579413D02*
X10129467Y-14579413D01*
X10129467Y-14579413D02*
X10148515Y-14569889D01*
X10243753Y-14522270D02*
X10243753Y-14722270D01*
X10243753Y-14531794D02*
X10262801Y-14522270D01*
X10262801Y-14522270D02*
X10300896Y-14522270D01*
X10300896Y-14522270D02*
X10319944Y-14531794D01*
X10319944Y-14531794D02*
X10329467Y-14541318D01*
X10329467Y-14541318D02*
X10338991Y-14560366D01*
X10338991Y-14560366D02*
X10338991Y-14617508D01*
X10338991Y-14617508D02*
X10329467Y-14636556D01*
X10329467Y-14636556D02*
X10319944Y-14646080D01*
X10319944Y-14646080D02*
X10300896Y-14655604D01*
X10300896Y-14655604D02*
X10262801Y-14655604D01*
X10262801Y-14655604D02*
X10243753Y-14646080D01*
X10424705Y-14636556D02*
X10434229Y-14646080D01*
X10434229Y-14646080D02*
X10424705Y-14655604D01*
X10424705Y-14655604D02*
X10415182Y-14646080D01*
X10415182Y-14646080D02*
X10424705Y-14636556D01*
X10424705Y-14636556D02*
X10424705Y-14655604D01*
X10424705Y-14531794D02*
X10434229Y-14541318D01*
X10434229Y-14541318D02*
X10424705Y-14550842D01*
X10424705Y-14550842D02*
X10415182Y-14541318D01*
X10415182Y-14541318D02*
X10424705Y-14531794D01*
X10424705Y-14531794D02*
X10424705Y-14550842D01*
D12*
X8702500Y-14939120D02*
X8792500Y-15029120D01*
X8792500Y-14939120D02*
X8702500Y-15029120D01*
D11*
X9091372Y-14875604D02*
X9110420Y-14875604D01*
X9110420Y-14875604D02*
X9129467Y-14885127D01*
X9129467Y-14885127D02*
X9138991Y-14894651D01*
X9138991Y-14894651D02*
X9148515Y-14913699D01*
X9148515Y-14913699D02*
X9158039Y-14951794D01*
X9158039Y-14951794D02*
X9158039Y-14999413D01*
X9158039Y-14999413D02*
X9148515Y-15037508D01*
X9148515Y-15037508D02*
X9138991Y-15056556D01*
X9138991Y-15056556D02*
X9129467Y-15066080D01*
X9129467Y-15066080D02*
X9110420Y-15075604D01*
X9110420Y-15075604D02*
X9091372Y-15075604D01*
X9091372Y-15075604D02*
X9072324Y-15066080D01*
X9072324Y-15066080D02*
X9062801Y-15056556D01*
X9062801Y-15056556D02*
X9053277Y-15037508D01*
X9053277Y-15037508D02*
X9043753Y-14999413D01*
X9043753Y-14999413D02*
X9043753Y-14951794D01*
X9043753Y-14951794D02*
X9053277Y-14913699D01*
X9053277Y-14913699D02*
X9062801Y-14894651D01*
X9062801Y-14894651D02*
X9072324Y-14885127D01*
X9072324Y-14885127D02*
X9091372Y-14875604D01*
X9243753Y-15056556D02*
X9253277Y-15066080D01*
X9253277Y-15066080D02*
X9243753Y-15075604D01*
X9243753Y-15075604D02*
X9234229Y-15066080D01*
X9234229Y-15066080D02*
X9243753Y-15056556D01*
X9243753Y-15056556D02*
X9243753Y-15075604D01*
X9348515Y-15075604D02*
X9386610Y-15075604D01*
X9386610Y-15075604D02*
X9405658Y-15066080D01*
X9405658Y-15066080D02*
X9415182Y-15056556D01*
X9415182Y-15056556D02*
X9434229Y-15027985D01*
X9434229Y-15027985D02*
X9443753Y-14989889D01*
X9443753Y-14989889D02*
X9443753Y-14913699D01*
X9443753Y-14913699D02*
X9434229Y-14894651D01*
X9434229Y-14894651D02*
X9424705Y-14885127D01*
X9424705Y-14885127D02*
X9405658Y-14875604D01*
X9405658Y-14875604D02*
X9367563Y-14875604D01*
X9367563Y-14875604D02*
X9348515Y-14885127D01*
X9348515Y-14885127D02*
X9338991Y-14894651D01*
X9338991Y-14894651D02*
X9329467Y-14913699D01*
X9329467Y-14913699D02*
X9329467Y-14961318D01*
X9329467Y-14961318D02*
X9338991Y-14980366D01*
X9338991Y-14980366D02*
X9348515Y-14989889D01*
X9348515Y-14989889D02*
X9367563Y-14999413D01*
X9367563Y-14999413D02*
X9405658Y-14999413D01*
X9405658Y-14999413D02*
X9424705Y-14989889D01*
X9424705Y-14989889D02*
X9434229Y-14980366D01*
X9434229Y-14980366D02*
X9443753Y-14961318D01*
X9567563Y-14875604D02*
X9586610Y-14875604D01*
X9586610Y-14875604D02*
X9605658Y-14885127D01*
X9605658Y-14885127D02*
X9615182Y-14894651D01*
X9615182Y-14894651D02*
X9624705Y-14913699D01*
X9624705Y-14913699D02*
X9634229Y-14951794D01*
X9634229Y-14951794D02*
X9634229Y-14999413D01*
X9634229Y-14999413D02*
X9624705Y-15037508D01*
X9624705Y-15037508D02*
X9615182Y-15056556D01*
X9615182Y-15056556D02*
X9605658Y-15066080D01*
X9605658Y-15066080D02*
X9586610Y-15075604D01*
X9586610Y-15075604D02*
X9567563Y-15075604D01*
X9567563Y-15075604D02*
X9548515Y-15066080D01*
X9548515Y-15066080D02*
X9538991Y-15056556D01*
X9538991Y-15056556D02*
X9529467Y-15037508D01*
X9529467Y-15037508D02*
X9519944Y-14999413D01*
X9519944Y-14999413D02*
X9519944Y-14951794D01*
X9519944Y-14951794D02*
X9529467Y-14913699D01*
X9529467Y-14913699D02*
X9538991Y-14894651D01*
X9538991Y-14894651D02*
X9548515Y-14885127D01*
X9548515Y-14885127D02*
X9567563Y-14875604D01*
X9758039Y-14875604D02*
X9777086Y-14875604D01*
X9777086Y-14875604D02*
X9796134Y-14885127D01*
X9796134Y-14885127D02*
X9805658Y-14894651D01*
X9805658Y-14894651D02*
X9815182Y-14913699D01*
X9815182Y-14913699D02*
X9824705Y-14951794D01*
X9824705Y-14951794D02*
X9824705Y-14999413D01*
X9824705Y-14999413D02*
X9815182Y-15037508D01*
X9815182Y-15037508D02*
X9805658Y-15056556D01*
X9805658Y-15056556D02*
X9796134Y-15066080D01*
X9796134Y-15066080D02*
X9777086Y-15075604D01*
X9777086Y-15075604D02*
X9758039Y-15075604D01*
X9758039Y-15075604D02*
X9738991Y-15066080D01*
X9738991Y-15066080D02*
X9729467Y-15056556D01*
X9729467Y-15056556D02*
X9719944Y-15037508D01*
X9719944Y-15037508D02*
X9710420Y-14999413D01*
X9710420Y-14999413D02*
X9710420Y-14951794D01*
X9710420Y-14951794D02*
X9719944Y-14913699D01*
X9719944Y-14913699D02*
X9729467Y-14894651D01*
X9729467Y-14894651D02*
X9738991Y-14885127D01*
X9738991Y-14885127D02*
X9758039Y-14875604D01*
X9910420Y-15075604D02*
X9910420Y-14942270D01*
X9910420Y-14961318D02*
X9919944Y-14951794D01*
X9919944Y-14951794D02*
X9938991Y-14942270D01*
X9938991Y-14942270D02*
X9967563Y-14942270D01*
X9967563Y-14942270D02*
X9986610Y-14951794D01*
X9986610Y-14951794D02*
X9996134Y-14970842D01*
X9996134Y-14970842D02*
X9996134Y-15075604D01*
X9996134Y-14970842D02*
X10005658Y-14951794D01*
X10005658Y-14951794D02*
X10024705Y-14942270D01*
X10024705Y-14942270D02*
X10053277Y-14942270D01*
X10053277Y-14942270D02*
X10072325Y-14951794D01*
X10072325Y-14951794D02*
X10081848Y-14970842D01*
X10081848Y-14970842D02*
X10081848Y-15075604D01*
X10177086Y-15075604D02*
X10177086Y-14942270D01*
X10177086Y-14961318D02*
X10186610Y-14951794D01*
X10186610Y-14951794D02*
X10205658Y-14942270D01*
X10205658Y-14942270D02*
X10234229Y-14942270D01*
X10234229Y-14942270D02*
X10253277Y-14951794D01*
X10253277Y-14951794D02*
X10262801Y-14970842D01*
X10262801Y-14970842D02*
X10262801Y-15075604D01*
X10262801Y-14970842D02*
X10272325Y-14951794D01*
X10272325Y-14951794D02*
X10291372Y-14942270D01*
X10291372Y-14942270D02*
X10319944Y-14942270D01*
X10319944Y-14942270D02*
X10338991Y-14951794D01*
X10338991Y-14951794D02*
X10348515Y-14970842D01*
X10348515Y-14970842D02*
X10348515Y-15075604D01*
X10738991Y-14866080D02*
X10567563Y-15123223D01*
X10996134Y-14875604D02*
X11015182Y-14875604D01*
X11015182Y-14875604D02*
X11034229Y-14885127D01*
X11034229Y-14885127D02*
X11043753Y-14894651D01*
X11043753Y-14894651D02*
X11053277Y-14913699D01*
X11053277Y-14913699D02*
X11062801Y-14951794D01*
X11062801Y-14951794D02*
X11062801Y-14999413D01*
X11062801Y-14999413D02*
X11053277Y-15037508D01*
X11053277Y-15037508D02*
X11043753Y-15056556D01*
X11043753Y-15056556D02*
X11034229Y-15066080D01*
X11034229Y-15066080D02*
X11015182Y-15075604D01*
X11015182Y-15075604D02*
X10996134Y-15075604D01*
X10996134Y-15075604D02*
X10977087Y-15066080D01*
X10977087Y-15066080D02*
X10967563Y-15056556D01*
X10967563Y-15056556D02*
X10958039Y-15037508D01*
X10958039Y-15037508D02*
X10948515Y-14999413D01*
X10948515Y-14999413D02*
X10948515Y-14951794D01*
X10948515Y-14951794D02*
X10958039Y-14913699D01*
X10958039Y-14913699D02*
X10967563Y-14894651D01*
X10967563Y-14894651D02*
X10977087Y-14885127D01*
X10977087Y-14885127D02*
X10996134Y-14875604D01*
X11148515Y-15056556D02*
X11158039Y-15066080D01*
X11158039Y-15066080D02*
X11148515Y-15075604D01*
X11148515Y-15075604D02*
X11138991Y-15066080D01*
X11138991Y-15066080D02*
X11148515Y-15056556D01*
X11148515Y-15056556D02*
X11148515Y-15075604D01*
X11281848Y-14875604D02*
X11300896Y-14875604D01*
X11300896Y-14875604D02*
X11319944Y-14885127D01*
X11319944Y-14885127D02*
X11329467Y-14894651D01*
X11329467Y-14894651D02*
X11338991Y-14913699D01*
X11338991Y-14913699D02*
X11348515Y-14951794D01*
X11348515Y-14951794D02*
X11348515Y-14999413D01*
X11348515Y-14999413D02*
X11338991Y-15037508D01*
X11338991Y-15037508D02*
X11329467Y-15056556D01*
X11329467Y-15056556D02*
X11319944Y-15066080D01*
X11319944Y-15066080D02*
X11300896Y-15075604D01*
X11300896Y-15075604D02*
X11281848Y-15075604D01*
X11281848Y-15075604D02*
X11262801Y-15066080D01*
X11262801Y-15066080D02*
X11253277Y-15056556D01*
X11253277Y-15056556D02*
X11243753Y-15037508D01*
X11243753Y-15037508D02*
X11234229Y-14999413D01*
X11234229Y-14999413D02*
X11234229Y-14951794D01*
X11234229Y-14951794D02*
X11243753Y-14913699D01*
X11243753Y-14913699D02*
X11253277Y-14894651D01*
X11253277Y-14894651D02*
X11262801Y-14885127D01*
X11262801Y-14885127D02*
X11281848Y-14875604D01*
X11415182Y-14875604D02*
X11538991Y-14875604D01*
X11538991Y-14875604D02*
X11472325Y-14951794D01*
X11472325Y-14951794D02*
X11500896Y-14951794D01*
X11500896Y-14951794D02*
X11519944Y-14961318D01*
X11519944Y-14961318D02*
X11529467Y-14970842D01*
X11529467Y-14970842D02*
X11538991Y-14989889D01*
X11538991Y-14989889D02*
X11538991Y-15037508D01*
X11538991Y-15037508D02*
X11529467Y-15056556D01*
X11529467Y-15056556D02*
X11519944Y-15066080D01*
X11519944Y-15066080D02*
X11500896Y-15075604D01*
X11500896Y-15075604D02*
X11443753Y-15075604D01*
X11443753Y-15075604D02*
X11424706Y-15066080D01*
X11424706Y-15066080D02*
X11415182Y-15056556D01*
X11719944Y-14875604D02*
X11624706Y-14875604D01*
X11624706Y-14875604D02*
X11615182Y-14970842D01*
X11615182Y-14970842D02*
X11624706Y-14961318D01*
X11624706Y-14961318D02*
X11643753Y-14951794D01*
X11643753Y-14951794D02*
X11691372Y-14951794D01*
X11691372Y-14951794D02*
X11710420Y-14961318D01*
X11710420Y-14961318D02*
X11719944Y-14970842D01*
X11719944Y-14970842D02*
X11729467Y-14989889D01*
X11729467Y-14989889D02*
X11729467Y-15037508D01*
X11729467Y-15037508D02*
X11719944Y-15056556D01*
X11719944Y-15056556D02*
X11710420Y-15066080D01*
X11710420Y-15066080D02*
X11691372Y-15075604D01*
X11691372Y-15075604D02*
X11643753Y-15075604D01*
X11643753Y-15075604D02*
X11624706Y-15066080D01*
X11624706Y-15066080D02*
X11615182Y-15056556D01*
X11900896Y-14942270D02*
X11900896Y-15075604D01*
X11853277Y-14866080D02*
X11805658Y-15008937D01*
X11805658Y-15008937D02*
X11929467Y-15008937D01*
X11996134Y-14875604D02*
X11996134Y-14913699D01*
X12072325Y-14875604D02*
X12072325Y-14913699D01*
X12367563Y-15151794D02*
X12358039Y-15142270D01*
X12358039Y-15142270D02*
X12338991Y-15113699D01*
X12338991Y-15113699D02*
X12329468Y-15094651D01*
X12329468Y-15094651D02*
X12319944Y-15066080D01*
X12319944Y-15066080D02*
X12310420Y-15018461D01*
X12310420Y-15018461D02*
X12310420Y-14980366D01*
X12310420Y-14980366D02*
X12319944Y-14932746D01*
X12319944Y-14932746D02*
X12329468Y-14904175D01*
X12329468Y-14904175D02*
X12338991Y-14885127D01*
X12338991Y-14885127D02*
X12358039Y-14856556D01*
X12358039Y-14856556D02*
X12367563Y-14847032D01*
X12434229Y-14894651D02*
X12443753Y-14885127D01*
X12443753Y-14885127D02*
X12462801Y-14875604D01*
X12462801Y-14875604D02*
X12510420Y-14875604D01*
X12510420Y-14875604D02*
X12529468Y-14885127D01*
X12529468Y-14885127D02*
X12538991Y-14894651D01*
X12538991Y-14894651D02*
X12548515Y-14913699D01*
X12548515Y-14913699D02*
X12548515Y-14932746D01*
X12548515Y-14932746D02*
X12538991Y-14961318D01*
X12538991Y-14961318D02*
X12424706Y-15075604D01*
X12424706Y-15075604D02*
X12548515Y-15075604D01*
X12786610Y-15075604D02*
X12786610Y-14875604D01*
X12872325Y-15075604D02*
X12872325Y-14970842D01*
X12872325Y-14970842D02*
X12862801Y-14951794D01*
X12862801Y-14951794D02*
X12843753Y-14942270D01*
X12843753Y-14942270D02*
X12815182Y-14942270D01*
X12815182Y-14942270D02*
X12796134Y-14951794D01*
X12796134Y-14951794D02*
X12786610Y-14961318D01*
X12996134Y-15075604D02*
X12977087Y-15066080D01*
X12977087Y-15066080D02*
X12967563Y-15056556D01*
X12967563Y-15056556D02*
X12958039Y-15037508D01*
X12958039Y-15037508D02*
X12958039Y-14980366D01*
X12958039Y-14980366D02*
X12967563Y-14961318D01*
X12967563Y-14961318D02*
X12977087Y-14951794D01*
X12977087Y-14951794D02*
X12996134Y-14942270D01*
X12996134Y-14942270D02*
X13024706Y-14942270D01*
X13024706Y-14942270D02*
X13043753Y-14951794D01*
X13043753Y-14951794D02*
X13053277Y-14961318D01*
X13053277Y-14961318D02*
X13062801Y-14980366D01*
X13062801Y-14980366D02*
X13062801Y-15037508D01*
X13062801Y-15037508D02*
X13053277Y-15056556D01*
X13053277Y-15056556D02*
X13043753Y-15066080D01*
X13043753Y-15066080D02*
X13024706Y-15075604D01*
X13024706Y-15075604D02*
X12996134Y-15075604D01*
X13177087Y-15075604D02*
X13158039Y-15066080D01*
X13158039Y-15066080D02*
X13148515Y-15047032D01*
X13148515Y-15047032D02*
X13148515Y-14875604D01*
X13329468Y-15066080D02*
X13310420Y-15075604D01*
X13310420Y-15075604D02*
X13272325Y-15075604D01*
X13272325Y-15075604D02*
X13253277Y-15066080D01*
X13253277Y-15066080D02*
X13243753Y-15047032D01*
X13243753Y-15047032D02*
X13243753Y-14970842D01*
X13243753Y-14970842D02*
X13253277Y-14951794D01*
X13253277Y-14951794D02*
X13272325Y-14942270D01*
X13272325Y-14942270D02*
X13310420Y-14942270D01*
X13310420Y-14942270D02*
X13329468Y-14951794D01*
X13329468Y-14951794D02*
X13338991Y-14970842D01*
X13338991Y-14970842D02*
X13338991Y-14989889D01*
X13338991Y-14989889D02*
X13243753Y-15008937D01*
X13415182Y-15066080D02*
X13434230Y-15075604D01*
X13434230Y-15075604D02*
X13472325Y-15075604D01*
X13472325Y-15075604D02*
X13491372Y-15066080D01*
X13491372Y-15066080D02*
X13500896Y-15047032D01*
X13500896Y-15047032D02*
X13500896Y-15037508D01*
X13500896Y-15037508D02*
X13491372Y-15018461D01*
X13491372Y-15018461D02*
X13472325Y-15008937D01*
X13472325Y-15008937D02*
X13443753Y-15008937D01*
X13443753Y-15008937D02*
X13424706Y-14999413D01*
X13424706Y-14999413D02*
X13415182Y-14980366D01*
X13415182Y-14980366D02*
X13415182Y-14970842D01*
X13415182Y-14970842D02*
X13424706Y-14951794D01*
X13424706Y-14951794D02*
X13443753Y-14942270D01*
X13443753Y-14942270D02*
X13472325Y-14942270D01*
X13472325Y-14942270D02*
X13491372Y-14951794D01*
X13567563Y-15151794D02*
X13577087Y-15142270D01*
X13577087Y-15142270D02*
X13596134Y-15113699D01*
X13596134Y-15113699D02*
X13605658Y-15094651D01*
X13605658Y-15094651D02*
X13615182Y-15066080D01*
X13615182Y-15066080D02*
X13624706Y-15018461D01*
X13624706Y-15018461D02*
X13624706Y-14980366D01*
X13624706Y-14980366D02*
X13615182Y-14932746D01*
X13615182Y-14932746D02*
X13605658Y-14904175D01*
X13605658Y-14904175D02*
X13596134Y-14885127D01*
X13596134Y-14885127D02*
X13577087Y-14856556D01*
X13577087Y-14856556D02*
X13567563Y-14847032D01*
X13929468Y-15151794D02*
X13919944Y-15142270D01*
X13919944Y-15142270D02*
X13900896Y-15113699D01*
X13900896Y-15113699D02*
X13891372Y-15094651D01*
X13891372Y-15094651D02*
X13881849Y-15066080D01*
X13881849Y-15066080D02*
X13872325Y-15018461D01*
X13872325Y-15018461D02*
X13872325Y-14980366D01*
X13872325Y-14980366D02*
X13881849Y-14932746D01*
X13881849Y-14932746D02*
X13891372Y-14904175D01*
X13891372Y-14904175D02*
X13900896Y-14885127D01*
X13900896Y-14885127D02*
X13919944Y-14856556D01*
X13919944Y-14856556D02*
X13929468Y-14847032D01*
X14005658Y-14942270D02*
X14005658Y-15075604D01*
X14005658Y-14961318D02*
X14015182Y-14951794D01*
X14015182Y-14951794D02*
X14034230Y-14942270D01*
X14034230Y-14942270D02*
X14062801Y-14942270D01*
X14062801Y-14942270D02*
X14081849Y-14951794D01*
X14081849Y-14951794D02*
X14091372Y-14970842D01*
X14091372Y-14970842D02*
X14091372Y-15075604D01*
X14215182Y-15075604D02*
X14196134Y-15066080D01*
X14196134Y-15066080D02*
X14186611Y-15056556D01*
X14186611Y-15056556D02*
X14177087Y-15037508D01*
X14177087Y-15037508D02*
X14177087Y-14980366D01*
X14177087Y-14980366D02*
X14186611Y-14961318D01*
X14186611Y-14961318D02*
X14196134Y-14951794D01*
X14196134Y-14951794D02*
X14215182Y-14942270D01*
X14215182Y-14942270D02*
X14243753Y-14942270D01*
X14243753Y-14942270D02*
X14262801Y-14951794D01*
X14262801Y-14951794D02*
X14272325Y-14961318D01*
X14272325Y-14961318D02*
X14281849Y-14980366D01*
X14281849Y-14980366D02*
X14281849Y-15037508D01*
X14281849Y-15037508D02*
X14272325Y-15056556D01*
X14272325Y-15056556D02*
X14262801Y-15066080D01*
X14262801Y-15066080D02*
X14243753Y-15075604D01*
X14243753Y-15075604D02*
X14215182Y-15075604D01*
X14338992Y-14942270D02*
X14415182Y-14942270D01*
X14367563Y-14875604D02*
X14367563Y-15047032D01*
X14367563Y-15047032D02*
X14377087Y-15066080D01*
X14377087Y-15066080D02*
X14396134Y-15075604D01*
X14396134Y-15075604D02*
X14415182Y-15075604D01*
X14634230Y-14942270D02*
X14634230Y-15142270D01*
X14634230Y-14951794D02*
X14653277Y-14942270D01*
X14653277Y-14942270D02*
X14691373Y-14942270D01*
X14691373Y-14942270D02*
X14710420Y-14951794D01*
X14710420Y-14951794D02*
X14719944Y-14961318D01*
X14719944Y-14961318D02*
X14729468Y-14980366D01*
X14729468Y-14980366D02*
X14729468Y-15037508D01*
X14729468Y-15037508D02*
X14719944Y-15056556D01*
X14719944Y-15056556D02*
X14710420Y-15066080D01*
X14710420Y-15066080D02*
X14691373Y-15075604D01*
X14691373Y-15075604D02*
X14653277Y-15075604D01*
X14653277Y-15075604D02*
X14634230Y-15066080D01*
X14843753Y-15075604D02*
X14824706Y-15066080D01*
X14824706Y-15066080D02*
X14815182Y-15047032D01*
X14815182Y-15047032D02*
X14815182Y-14875604D01*
X15005658Y-15075604D02*
X15005658Y-14970842D01*
X15005658Y-14970842D02*
X14996134Y-14951794D01*
X14996134Y-14951794D02*
X14977087Y-14942270D01*
X14977087Y-14942270D02*
X14938992Y-14942270D01*
X14938992Y-14942270D02*
X14919944Y-14951794D01*
X15005658Y-15066080D02*
X14986611Y-15075604D01*
X14986611Y-15075604D02*
X14938992Y-15075604D01*
X14938992Y-15075604D02*
X14919944Y-15066080D01*
X14919944Y-15066080D02*
X14910420Y-15047032D01*
X14910420Y-15047032D02*
X14910420Y-15027985D01*
X14910420Y-15027985D02*
X14919944Y-15008937D01*
X14919944Y-15008937D02*
X14938992Y-14999413D01*
X14938992Y-14999413D02*
X14986611Y-14999413D01*
X14986611Y-14999413D02*
X15005658Y-14989889D01*
X15072325Y-14942270D02*
X15148515Y-14942270D01*
X15100896Y-14875604D02*
X15100896Y-15047032D01*
X15100896Y-15047032D02*
X15110420Y-15066080D01*
X15110420Y-15066080D02*
X15129468Y-15075604D01*
X15129468Y-15075604D02*
X15148515Y-15075604D01*
X15291373Y-15066080D02*
X15272325Y-15075604D01*
X15272325Y-15075604D02*
X15234230Y-15075604D01*
X15234230Y-15075604D02*
X15215182Y-15066080D01*
X15215182Y-15066080D02*
X15205658Y-15047032D01*
X15205658Y-15047032D02*
X15205658Y-14970842D01*
X15205658Y-14970842D02*
X15215182Y-14951794D01*
X15215182Y-14951794D02*
X15234230Y-14942270D01*
X15234230Y-14942270D02*
X15272325Y-14942270D01*
X15272325Y-14942270D02*
X15291373Y-14951794D01*
X15291373Y-14951794D02*
X15300896Y-14970842D01*
X15300896Y-14970842D02*
X15300896Y-14989889D01*
X15300896Y-14989889D02*
X15205658Y-15008937D01*
X15472325Y-15075604D02*
X15472325Y-14875604D01*
X15472325Y-15066080D02*
X15453277Y-15075604D01*
X15453277Y-15075604D02*
X15415182Y-15075604D01*
X15415182Y-15075604D02*
X15396134Y-15066080D01*
X15396134Y-15066080D02*
X15386611Y-15056556D01*
X15386611Y-15056556D02*
X15377087Y-15037508D01*
X15377087Y-15037508D02*
X15377087Y-14980366D01*
X15377087Y-14980366D02*
X15386611Y-14961318D01*
X15386611Y-14961318D02*
X15396134Y-14951794D01*
X15396134Y-14951794D02*
X15415182Y-14942270D01*
X15415182Y-14942270D02*
X15453277Y-14942270D01*
X15453277Y-14942270D02*
X15472325Y-14951794D01*
X15548515Y-15151794D02*
X15558039Y-15142270D01*
X15558039Y-15142270D02*
X15577087Y-15113699D01*
X15577087Y-15113699D02*
X15586611Y-15094651D01*
X15586611Y-15094651D02*
X15596134Y-15066080D01*
X15596134Y-15066080D02*
X15605658Y-15018461D01*
X15605658Y-15018461D02*
X15605658Y-14980366D01*
X15605658Y-14980366D02*
X15596134Y-14932746D01*
X15596134Y-14932746D02*
X15586611Y-14904175D01*
X15586611Y-14904175D02*
X15577087Y-14885127D01*
X15577087Y-14885127D02*
X15558039Y-14856556D01*
X15558039Y-14856556D02*
X15548515Y-14847032D01*
D13*
X8792500Y-15248120D02*
G75*
G02*
X8602500Y-15248120I-95000J0D01*
G01*
X8602500Y-15248120D02*
G75*
G02*
X8792500Y-15248120I95000J0D01*
G01*
D11*
X9158039Y-15339604D02*
X9043753Y-15339604D01*
X9100896Y-15339604D02*
X9100896Y-15139604D01*
X9100896Y-15139604D02*
X9081848Y-15168175D01*
X9081848Y-15168175D02*
X9062801Y-15187223D01*
X9062801Y-15187223D02*
X9043753Y-15196746D01*
X9243753Y-15320556D02*
X9253277Y-15330080D01*
X9253277Y-15330080D02*
X9243753Y-15339604D01*
X9243753Y-15339604D02*
X9234229Y-15330080D01*
X9234229Y-15330080D02*
X9243753Y-15320556D01*
X9243753Y-15320556D02*
X9243753Y-15339604D01*
X9348515Y-15339604D02*
X9386610Y-15339604D01*
X9386610Y-15339604D02*
X9405658Y-15330080D01*
X9405658Y-15330080D02*
X9415182Y-15320556D01*
X9415182Y-15320556D02*
X9434229Y-15291985D01*
X9434229Y-15291985D02*
X9443753Y-15253889D01*
X9443753Y-15253889D02*
X9443753Y-15177699D01*
X9443753Y-15177699D02*
X9434229Y-15158651D01*
X9434229Y-15158651D02*
X9424705Y-15149127D01*
X9424705Y-15149127D02*
X9405658Y-15139604D01*
X9405658Y-15139604D02*
X9367563Y-15139604D01*
X9367563Y-15139604D02*
X9348515Y-15149127D01*
X9348515Y-15149127D02*
X9338991Y-15158651D01*
X9338991Y-15158651D02*
X9329467Y-15177699D01*
X9329467Y-15177699D02*
X9329467Y-15225318D01*
X9329467Y-15225318D02*
X9338991Y-15244366D01*
X9338991Y-15244366D02*
X9348515Y-15253889D01*
X9348515Y-15253889D02*
X9367563Y-15263413D01*
X9367563Y-15263413D02*
X9405658Y-15263413D01*
X9405658Y-15263413D02*
X9424705Y-15253889D01*
X9424705Y-15253889D02*
X9434229Y-15244366D01*
X9434229Y-15244366D02*
X9443753Y-15225318D01*
X9567563Y-15139604D02*
X9586610Y-15139604D01*
X9586610Y-15139604D02*
X9605658Y-15149127D01*
X9605658Y-15149127D02*
X9615182Y-15158651D01*
X9615182Y-15158651D02*
X9624705Y-15177699D01*
X9624705Y-15177699D02*
X9634229Y-15215794D01*
X9634229Y-15215794D02*
X9634229Y-15263413D01*
X9634229Y-15263413D02*
X9624705Y-15301508D01*
X9624705Y-15301508D02*
X9615182Y-15320556D01*
X9615182Y-15320556D02*
X9605658Y-15330080D01*
X9605658Y-15330080D02*
X9586610Y-15339604D01*
X9586610Y-15339604D02*
X9567563Y-15339604D01*
X9567563Y-15339604D02*
X9548515Y-15330080D01*
X9548515Y-15330080D02*
X9538991Y-15320556D01*
X9538991Y-15320556D02*
X9529467Y-15301508D01*
X9529467Y-15301508D02*
X9519944Y-15263413D01*
X9519944Y-15263413D02*
X9519944Y-15215794D01*
X9519944Y-15215794D02*
X9529467Y-15177699D01*
X9529467Y-15177699D02*
X9538991Y-15158651D01*
X9538991Y-15158651D02*
X9548515Y-15149127D01*
X9548515Y-15149127D02*
X9567563Y-15139604D01*
X9758039Y-15139604D02*
X9777086Y-15139604D01*
X9777086Y-15139604D02*
X9796134Y-15149127D01*
X9796134Y-15149127D02*
X9805658Y-15158651D01*
X9805658Y-15158651D02*
X9815182Y-15177699D01*
X9815182Y-15177699D02*
X9824705Y-15215794D01*
X9824705Y-15215794D02*
X9824705Y-15263413D01*
X9824705Y-15263413D02*
X9815182Y-15301508D01*
X9815182Y-15301508D02*
X9805658Y-15320556D01*
X9805658Y-15320556D02*
X9796134Y-15330080D01*
X9796134Y-15330080D02*
X9777086Y-15339604D01*
X9777086Y-15339604D02*
X9758039Y-15339604D01*
X9758039Y-15339604D02*
X9738991Y-15330080D01*
X9738991Y-15330080D02*
X9729467Y-15320556D01*
X9729467Y-15320556D02*
X9719944Y-15301508D01*
X9719944Y-15301508D02*
X9710420Y-15263413D01*
X9710420Y-15263413D02*
X9710420Y-15215794D01*
X9710420Y-15215794D02*
X9719944Y-15177699D01*
X9719944Y-15177699D02*
X9729467Y-15158651D01*
X9729467Y-15158651D02*
X9738991Y-15149127D01*
X9738991Y-15149127D02*
X9758039Y-15139604D01*
X9910420Y-15339604D02*
X9910420Y-15206270D01*
X9910420Y-15225318D02*
X9919944Y-15215794D01*
X9919944Y-15215794D02*
X9938991Y-15206270D01*
X9938991Y-15206270D02*
X9967563Y-15206270D01*
X9967563Y-15206270D02*
X9986610Y-15215794D01*
X9986610Y-15215794D02*
X9996134Y-15234842D01*
X9996134Y-15234842D02*
X9996134Y-15339604D01*
X9996134Y-15234842D02*
X10005658Y-15215794D01*
X10005658Y-15215794D02*
X10024705Y-15206270D01*
X10024705Y-15206270D02*
X10053277Y-15206270D01*
X10053277Y-15206270D02*
X10072325Y-15215794D01*
X10072325Y-15215794D02*
X10081848Y-15234842D01*
X10081848Y-15234842D02*
X10081848Y-15339604D01*
X10177086Y-15339604D02*
X10177086Y-15206270D01*
X10177086Y-15225318D02*
X10186610Y-15215794D01*
X10186610Y-15215794D02*
X10205658Y-15206270D01*
X10205658Y-15206270D02*
X10234229Y-15206270D01*
X10234229Y-15206270D02*
X10253277Y-15215794D01*
X10253277Y-15215794D02*
X10262801Y-15234842D01*
X10262801Y-15234842D02*
X10262801Y-15339604D01*
X10262801Y-15234842D02*
X10272325Y-15215794D01*
X10272325Y-15215794D02*
X10291372Y-15206270D01*
X10291372Y-15206270D02*
X10319944Y-15206270D01*
X10319944Y-15206270D02*
X10338991Y-15215794D01*
X10338991Y-15215794D02*
X10348515Y-15234842D01*
X10348515Y-15234842D02*
X10348515Y-15339604D01*
X10738991Y-15130080D02*
X10567563Y-15387223D01*
X10996134Y-15139604D02*
X11015182Y-15139604D01*
X11015182Y-15139604D02*
X11034229Y-15149127D01*
X11034229Y-15149127D02*
X11043753Y-15158651D01*
X11043753Y-15158651D02*
X11053277Y-15177699D01*
X11053277Y-15177699D02*
X11062801Y-15215794D01*
X11062801Y-15215794D02*
X11062801Y-15263413D01*
X11062801Y-15263413D02*
X11053277Y-15301508D01*
X11053277Y-15301508D02*
X11043753Y-15320556D01*
X11043753Y-15320556D02*
X11034229Y-15330080D01*
X11034229Y-15330080D02*
X11015182Y-15339604D01*
X11015182Y-15339604D02*
X10996134Y-15339604D01*
X10996134Y-15339604D02*
X10977087Y-15330080D01*
X10977087Y-15330080D02*
X10967563Y-15320556D01*
X10967563Y-15320556D02*
X10958039Y-15301508D01*
X10958039Y-15301508D02*
X10948515Y-15263413D01*
X10948515Y-15263413D02*
X10948515Y-15215794D01*
X10948515Y-15215794D02*
X10958039Y-15177699D01*
X10958039Y-15177699D02*
X10967563Y-15158651D01*
X10967563Y-15158651D02*
X10977087Y-15149127D01*
X10977087Y-15149127D02*
X10996134Y-15139604D01*
X11148515Y-15320556D02*
X11158039Y-15330080D01*
X11158039Y-15330080D02*
X11148515Y-15339604D01*
X11148515Y-15339604D02*
X11138991Y-15330080D01*
X11138991Y-15330080D02*
X11148515Y-15320556D01*
X11148515Y-15320556D02*
X11148515Y-15339604D01*
X11281848Y-15139604D02*
X11300896Y-15139604D01*
X11300896Y-15139604D02*
X11319944Y-15149127D01*
X11319944Y-15149127D02*
X11329467Y-15158651D01*
X11329467Y-15158651D02*
X11338991Y-15177699D01*
X11338991Y-15177699D02*
X11348515Y-15215794D01*
X11348515Y-15215794D02*
X11348515Y-15263413D01*
X11348515Y-15263413D02*
X11338991Y-15301508D01*
X11338991Y-15301508D02*
X11329467Y-15320556D01*
X11329467Y-15320556D02*
X11319944Y-15330080D01*
X11319944Y-15330080D02*
X11300896Y-15339604D01*
X11300896Y-15339604D02*
X11281848Y-15339604D01*
X11281848Y-15339604D02*
X11262801Y-15330080D01*
X11262801Y-15330080D02*
X11253277Y-15320556D01*
X11253277Y-15320556D02*
X11243753Y-15301508D01*
X11243753Y-15301508D02*
X11234229Y-15263413D01*
X11234229Y-15263413D02*
X11234229Y-15215794D01*
X11234229Y-15215794D02*
X11243753Y-15177699D01*
X11243753Y-15177699D02*
X11253277Y-15158651D01*
X11253277Y-15158651D02*
X11262801Y-15149127D01*
X11262801Y-15149127D02*
X11281848Y-15139604D01*
X11415182Y-15139604D02*
X11548515Y-15139604D01*
X11548515Y-15139604D02*
X11462801Y-15339604D01*
X11710420Y-15206270D02*
X11710420Y-15339604D01*
X11662801Y-15130080D02*
X11615182Y-15272937D01*
X11615182Y-15272937D02*
X11738991Y-15272937D01*
X11843753Y-15225318D02*
X11824706Y-15215794D01*
X11824706Y-15215794D02*
X11815182Y-15206270D01*
X11815182Y-15206270D02*
X11805658Y-15187223D01*
X11805658Y-15187223D02*
X11805658Y-15177699D01*
X11805658Y-15177699D02*
X11815182Y-15158651D01*
X11815182Y-15158651D02*
X11824706Y-15149127D01*
X11824706Y-15149127D02*
X11843753Y-15139604D01*
X11843753Y-15139604D02*
X11881848Y-15139604D01*
X11881848Y-15139604D02*
X11900896Y-15149127D01*
X11900896Y-15149127D02*
X11910420Y-15158651D01*
X11910420Y-15158651D02*
X11919944Y-15177699D01*
X11919944Y-15177699D02*
X11919944Y-15187223D01*
X11919944Y-15187223D02*
X11910420Y-15206270D01*
X11910420Y-15206270D02*
X11900896Y-15215794D01*
X11900896Y-15215794D02*
X11881848Y-15225318D01*
X11881848Y-15225318D02*
X11843753Y-15225318D01*
X11843753Y-15225318D02*
X11824706Y-15234842D01*
X11824706Y-15234842D02*
X11815182Y-15244366D01*
X11815182Y-15244366D02*
X11805658Y-15263413D01*
X11805658Y-15263413D02*
X11805658Y-15301508D01*
X11805658Y-15301508D02*
X11815182Y-15320556D01*
X11815182Y-15320556D02*
X11824706Y-15330080D01*
X11824706Y-15330080D02*
X11843753Y-15339604D01*
X11843753Y-15339604D02*
X11881848Y-15339604D01*
X11881848Y-15339604D02*
X11900896Y-15330080D01*
X11900896Y-15330080D02*
X11910420Y-15320556D01*
X11910420Y-15320556D02*
X11919944Y-15301508D01*
X11919944Y-15301508D02*
X11919944Y-15263413D01*
X11919944Y-15263413D02*
X11910420Y-15244366D01*
X11910420Y-15244366D02*
X11900896Y-15234842D01*
X11900896Y-15234842D02*
X11881848Y-15225318D01*
X11996134Y-15139604D02*
X11996134Y-15177699D01*
X12072325Y-15139604D02*
X12072325Y-15177699D01*
X12367563Y-15415794D02*
X12358039Y-15406270D01*
X12358039Y-15406270D02*
X12338991Y-15377699D01*
X12338991Y-15377699D02*
X12329468Y-15358651D01*
X12329468Y-15358651D02*
X12319944Y-15330080D01*
X12319944Y-15330080D02*
X12310420Y-15282461D01*
X12310420Y-15282461D02*
X12310420Y-15244366D01*
X12310420Y-15244366D02*
X12319944Y-15196746D01*
X12319944Y-15196746D02*
X12329468Y-15168175D01*
X12329468Y-15168175D02*
X12338991Y-15149127D01*
X12338991Y-15149127D02*
X12358039Y-15120556D01*
X12358039Y-15120556D02*
X12367563Y-15111032D01*
X12529468Y-15206270D02*
X12529468Y-15339604D01*
X12481848Y-15130080D02*
X12434229Y-15272937D01*
X12434229Y-15272937D02*
X12558039Y-15272937D01*
X12719944Y-15206270D02*
X12719944Y-15339604D01*
X12672325Y-15130080D02*
X12624706Y-15272937D01*
X12624706Y-15272937D02*
X12748515Y-15272937D01*
X12977087Y-15339604D02*
X12977087Y-15139604D01*
X13062801Y-15339604D02*
X13062801Y-15234842D01*
X13062801Y-15234842D02*
X13053277Y-15215794D01*
X13053277Y-15215794D02*
X13034230Y-15206270D01*
X13034230Y-15206270D02*
X13005658Y-15206270D01*
X13005658Y-15206270D02*
X12986610Y-15215794D01*
X12986610Y-15215794D02*
X12977087Y-15225318D01*
X13186610Y-15339604D02*
X13167563Y-15330080D01*
X13167563Y-15330080D02*
X13158039Y-15320556D01*
X13158039Y-15320556D02*
X13148515Y-15301508D01*
X13148515Y-15301508D02*
X13148515Y-15244366D01*
X13148515Y-15244366D02*
X13158039Y-15225318D01*
X13158039Y-15225318D02*
X13167563Y-15215794D01*
X13167563Y-15215794D02*
X13186610Y-15206270D01*
X13186610Y-15206270D02*
X13215182Y-15206270D01*
X13215182Y-15206270D02*
X13234230Y-15215794D01*
X13234230Y-15215794D02*
X13243753Y-15225318D01*
X13243753Y-15225318D02*
X13253277Y-15244366D01*
X13253277Y-15244366D02*
X13253277Y-15301508D01*
X13253277Y-15301508D02*
X13243753Y-15320556D01*
X13243753Y-15320556D02*
X13234230Y-15330080D01*
X13234230Y-15330080D02*
X13215182Y-15339604D01*
X13215182Y-15339604D02*
X13186610Y-15339604D01*
X13367563Y-15339604D02*
X13348515Y-15330080D01*
X13348515Y-15330080D02*
X13338991Y-15311032D01*
X13338991Y-15311032D02*
X13338991Y-15139604D01*
X13519944Y-15330080D02*
X13500896Y-15339604D01*
X13500896Y-15339604D02*
X13462801Y-15339604D01*
X13462801Y-15339604D02*
X13443753Y-15330080D01*
X13443753Y-15330080D02*
X13434230Y-15311032D01*
X13434230Y-15311032D02*
X13434230Y-15234842D01*
X13434230Y-15234842D02*
X13443753Y-15215794D01*
X13443753Y-15215794D02*
X13462801Y-15206270D01*
X13462801Y-15206270D02*
X13500896Y-15206270D01*
X13500896Y-15206270D02*
X13519944Y-15215794D01*
X13519944Y-15215794D02*
X13529468Y-15234842D01*
X13529468Y-15234842D02*
X13529468Y-15253889D01*
X13529468Y-15253889D02*
X13434230Y-15272937D01*
X13605658Y-15330080D02*
X13624706Y-15339604D01*
X13624706Y-15339604D02*
X13662801Y-15339604D01*
X13662801Y-15339604D02*
X13681849Y-15330080D01*
X13681849Y-15330080D02*
X13691372Y-15311032D01*
X13691372Y-15311032D02*
X13691372Y-15301508D01*
X13691372Y-15301508D02*
X13681849Y-15282461D01*
X13681849Y-15282461D02*
X13662801Y-15272937D01*
X13662801Y-15272937D02*
X13634230Y-15272937D01*
X13634230Y-15272937D02*
X13615182Y-15263413D01*
X13615182Y-15263413D02*
X13605658Y-15244366D01*
X13605658Y-15244366D02*
X13605658Y-15234842D01*
X13605658Y-15234842D02*
X13615182Y-15215794D01*
X13615182Y-15215794D02*
X13634230Y-15206270D01*
X13634230Y-15206270D02*
X13662801Y-15206270D01*
X13662801Y-15206270D02*
X13681849Y-15215794D01*
X13758039Y-15415794D02*
X13767563Y-15406270D01*
X13767563Y-15406270D02*
X13786611Y-15377699D01*
X13786611Y-15377699D02*
X13796134Y-15358651D01*
X13796134Y-15358651D02*
X13805658Y-15330080D01*
X13805658Y-15330080D02*
X13815182Y-15282461D01*
X13815182Y-15282461D02*
X13815182Y-15244366D01*
X13815182Y-15244366D02*
X13805658Y-15196746D01*
X13805658Y-15196746D02*
X13796134Y-15168175D01*
X13796134Y-15168175D02*
X13786611Y-15149127D01*
X13786611Y-15149127D02*
X13767563Y-15120556D01*
X13767563Y-15120556D02*
X13758039Y-15111032D01*
X14119944Y-15415794D02*
X14110420Y-15406270D01*
X14110420Y-15406270D02*
X14091372Y-15377699D01*
X14091372Y-15377699D02*
X14081849Y-15358651D01*
X14081849Y-15358651D02*
X14072325Y-15330080D01*
X14072325Y-15330080D02*
X14062801Y-15282461D01*
X14062801Y-15282461D02*
X14062801Y-15244366D01*
X14062801Y-15244366D02*
X14072325Y-15196746D01*
X14072325Y-15196746D02*
X14081849Y-15168175D01*
X14081849Y-15168175D02*
X14091372Y-15149127D01*
X14091372Y-15149127D02*
X14110420Y-15120556D01*
X14110420Y-15120556D02*
X14119944Y-15111032D01*
X14196134Y-15206270D02*
X14196134Y-15339604D01*
X14196134Y-15225318D02*
X14205658Y-15215794D01*
X14205658Y-15215794D02*
X14224706Y-15206270D01*
X14224706Y-15206270D02*
X14253277Y-15206270D01*
X14253277Y-15206270D02*
X14272325Y-15215794D01*
X14272325Y-15215794D02*
X14281849Y-15234842D01*
X14281849Y-15234842D02*
X14281849Y-15339604D01*
X14405658Y-15339604D02*
X14386611Y-15330080D01*
X14386611Y-15330080D02*
X14377087Y-15320556D01*
X14377087Y-15320556D02*
X14367563Y-15301508D01*
X14367563Y-15301508D02*
X14367563Y-15244366D01*
X14367563Y-15244366D02*
X14377087Y-15225318D01*
X14377087Y-15225318D02*
X14386611Y-15215794D01*
X14386611Y-15215794D02*
X14405658Y-15206270D01*
X14405658Y-15206270D02*
X14434230Y-15206270D01*
X14434230Y-15206270D02*
X14453277Y-15215794D01*
X14453277Y-15215794D02*
X14462801Y-15225318D01*
X14462801Y-15225318D02*
X14472325Y-15244366D01*
X14472325Y-15244366D02*
X14472325Y-15301508D01*
X14472325Y-15301508D02*
X14462801Y-15320556D01*
X14462801Y-15320556D02*
X14453277Y-15330080D01*
X14453277Y-15330080D02*
X14434230Y-15339604D01*
X14434230Y-15339604D02*
X14405658Y-15339604D01*
X14529468Y-15206270D02*
X14605658Y-15206270D01*
X14558039Y-15139604D02*
X14558039Y-15311032D01*
X14558039Y-15311032D02*
X14567563Y-15330080D01*
X14567563Y-15330080D02*
X14586611Y-15339604D01*
X14586611Y-15339604D02*
X14605658Y-15339604D01*
X14824706Y-15206270D02*
X14824706Y-15406270D01*
X14824706Y-15215794D02*
X14843753Y-15206270D01*
X14843753Y-15206270D02*
X14881849Y-15206270D01*
X14881849Y-15206270D02*
X14900896Y-15215794D01*
X14900896Y-15215794D02*
X14910420Y-15225318D01*
X14910420Y-15225318D02*
X14919944Y-15244366D01*
X14919944Y-15244366D02*
X14919944Y-15301508D01*
X14919944Y-15301508D02*
X14910420Y-15320556D01*
X14910420Y-15320556D02*
X14900896Y-15330080D01*
X14900896Y-15330080D02*
X14881849Y-15339604D01*
X14881849Y-15339604D02*
X14843753Y-15339604D01*
X14843753Y-15339604D02*
X14824706Y-15330080D01*
X15034230Y-15339604D02*
X15015182Y-15330080D01*
X15015182Y-15330080D02*
X15005658Y-15311032D01*
X15005658Y-15311032D02*
X15005658Y-15139604D01*
X15196134Y-15339604D02*
X15196134Y-15234842D01*
X15196134Y-15234842D02*
X15186611Y-15215794D01*
X15186611Y-15215794D02*
X15167563Y-15206270D01*
X15167563Y-15206270D02*
X15129468Y-15206270D01*
X15129468Y-15206270D02*
X15110420Y-15215794D01*
X15196134Y-15330080D02*
X15177087Y-15339604D01*
X15177087Y-15339604D02*
X15129468Y-15339604D01*
X15129468Y-15339604D02*
X15110420Y-15330080D01*
X15110420Y-15330080D02*
X15100896Y-15311032D01*
X15100896Y-15311032D02*
X15100896Y-15291985D01*
X15100896Y-15291985D02*
X15110420Y-15272937D01*
X15110420Y-15272937D02*
X15129468Y-15263413D01*
X15129468Y-15263413D02*
X15177087Y-15263413D01*
X15177087Y-15263413D02*
X15196134Y-15253889D01*
X15262801Y-15206270D02*
X15338992Y-15206270D01*
X15291373Y-15139604D02*
X15291373Y-15311032D01*
X15291373Y-15311032D02*
X15300896Y-15330080D01*
X15300896Y-15330080D02*
X15319944Y-15339604D01*
X15319944Y-15339604D02*
X15338992Y-15339604D01*
X15481849Y-15330080D02*
X15462801Y-15339604D01*
X15462801Y-15339604D02*
X15424706Y-15339604D01*
X15424706Y-15339604D02*
X15405658Y-15330080D01*
X15405658Y-15330080D02*
X15396134Y-15311032D01*
X15396134Y-15311032D02*
X15396134Y-15234842D01*
X15396134Y-15234842D02*
X15405658Y-15215794D01*
X15405658Y-15215794D02*
X15424706Y-15206270D01*
X15424706Y-15206270D02*
X15462801Y-15206270D01*
X15462801Y-15206270D02*
X15481849Y-15215794D01*
X15481849Y-15215794D02*
X15491373Y-15234842D01*
X15491373Y-15234842D02*
X15491373Y-15253889D01*
X15491373Y-15253889D02*
X15396134Y-15272937D01*
X15662801Y-15339604D02*
X15662801Y-15139604D01*
X15662801Y-15330080D02*
X15643754Y-15339604D01*
X15643754Y-15339604D02*
X15605658Y-15339604D01*
X15605658Y-15339604D02*
X15586611Y-15330080D01*
X15586611Y-15330080D02*
X15577087Y-15320556D01*
X15577087Y-15320556D02*
X15567563Y-15301508D01*
X15567563Y-15301508D02*
X15567563Y-15244366D01*
X15567563Y-15244366D02*
X15577087Y-15225318D01*
X15577087Y-15225318D02*
X15586611Y-15215794D01*
X15586611Y-15215794D02*
X15605658Y-15206270D01*
X15605658Y-15206270D02*
X15643754Y-15206270D01*
X15643754Y-15206270D02*
X15662801Y-15215794D01*
X15738992Y-15415794D02*
X15748515Y-15406270D01*
X15748515Y-15406270D02*
X15767563Y-15377699D01*
X15767563Y-15377699D02*
X15777087Y-15358651D01*
X15777087Y-15358651D02*
X15786611Y-15330080D01*
X15786611Y-15330080D02*
X15796134Y-15282461D01*
X15796134Y-15282461D02*
X15796134Y-15244366D01*
X15796134Y-15244366D02*
X15786611Y-15196746D01*
X15786611Y-15196746D02*
X15777087Y-15168175D01*
X15777087Y-15168175D02*
X15767563Y-15149127D01*
X15767563Y-15149127D02*
X15748515Y-15120556D01*
X15748515Y-15120556D02*
X15738992Y-15111032D01*
X8692500Y-15458120D02*
X8692500Y-15658120D01*
X8592500Y-15558120D02*
X8792500Y-15558120D01*
X9043753Y-15468651D02*
X9053277Y-15459127D01*
X9053277Y-15459127D02*
X9072324Y-15449604D01*
X9072324Y-15449604D02*
X9119944Y-15449604D01*
X9119944Y-15449604D02*
X9138991Y-15459127D01*
X9138991Y-15459127D02*
X9148515Y-15468651D01*
X9148515Y-15468651D02*
X9158039Y-15487699D01*
X9158039Y-15487699D02*
X9158039Y-15506746D01*
X9158039Y-15506746D02*
X9148515Y-15535318D01*
X9148515Y-15535318D02*
X9034229Y-15649604D01*
X9034229Y-15649604D02*
X9158039Y-15649604D01*
X9243753Y-15630556D02*
X9253277Y-15640080D01*
X9253277Y-15640080D02*
X9243753Y-15649604D01*
X9243753Y-15649604D02*
X9234229Y-15640080D01*
X9234229Y-15640080D02*
X9243753Y-15630556D01*
X9243753Y-15630556D02*
X9243753Y-15649604D01*
X9329467Y-15468651D02*
X9338991Y-15459127D01*
X9338991Y-15459127D02*
X9358039Y-15449604D01*
X9358039Y-15449604D02*
X9405658Y-15449604D01*
X9405658Y-15449604D02*
X9424705Y-15459127D01*
X9424705Y-15459127D02*
X9434229Y-15468651D01*
X9434229Y-15468651D02*
X9443753Y-15487699D01*
X9443753Y-15487699D02*
X9443753Y-15506746D01*
X9443753Y-15506746D02*
X9434229Y-15535318D01*
X9434229Y-15535318D02*
X9319944Y-15649604D01*
X9319944Y-15649604D02*
X9443753Y-15649604D01*
X9567563Y-15449604D02*
X9586610Y-15449604D01*
X9586610Y-15449604D02*
X9605658Y-15459127D01*
X9605658Y-15459127D02*
X9615182Y-15468651D01*
X9615182Y-15468651D02*
X9624705Y-15487699D01*
X9624705Y-15487699D02*
X9634229Y-15525794D01*
X9634229Y-15525794D02*
X9634229Y-15573413D01*
X9634229Y-15573413D02*
X9624705Y-15611508D01*
X9624705Y-15611508D02*
X9615182Y-15630556D01*
X9615182Y-15630556D02*
X9605658Y-15640080D01*
X9605658Y-15640080D02*
X9586610Y-15649604D01*
X9586610Y-15649604D02*
X9567563Y-15649604D01*
X9567563Y-15649604D02*
X9548515Y-15640080D01*
X9548515Y-15640080D02*
X9538991Y-15630556D01*
X9538991Y-15630556D02*
X9529467Y-15611508D01*
X9529467Y-15611508D02*
X9519944Y-15573413D01*
X9519944Y-15573413D02*
X9519944Y-15525794D01*
X9519944Y-15525794D02*
X9529467Y-15487699D01*
X9529467Y-15487699D02*
X9538991Y-15468651D01*
X9538991Y-15468651D02*
X9548515Y-15459127D01*
X9548515Y-15459127D02*
X9567563Y-15449604D01*
X9758039Y-15449604D02*
X9777086Y-15449604D01*
X9777086Y-15449604D02*
X9796134Y-15459127D01*
X9796134Y-15459127D02*
X9805658Y-15468651D01*
X9805658Y-15468651D02*
X9815182Y-15487699D01*
X9815182Y-15487699D02*
X9824705Y-15525794D01*
X9824705Y-15525794D02*
X9824705Y-15573413D01*
X9824705Y-15573413D02*
X9815182Y-15611508D01*
X9815182Y-15611508D02*
X9805658Y-15630556D01*
X9805658Y-15630556D02*
X9796134Y-15640080D01*
X9796134Y-15640080D02*
X9777086Y-15649604D01*
X9777086Y-15649604D02*
X9758039Y-15649604D01*
X9758039Y-15649604D02*
X9738991Y-15640080D01*
X9738991Y-15640080D02*
X9729467Y-15630556D01*
X9729467Y-15630556D02*
X9719944Y-15611508D01*
X9719944Y-15611508D02*
X9710420Y-15573413D01*
X9710420Y-15573413D02*
X9710420Y-15525794D01*
X9710420Y-15525794D02*
X9719944Y-15487699D01*
X9719944Y-15487699D02*
X9729467Y-15468651D01*
X9729467Y-15468651D02*
X9738991Y-15459127D01*
X9738991Y-15459127D02*
X9758039Y-15449604D01*
X9910420Y-15649604D02*
X9910420Y-15516270D01*
X9910420Y-15535318D02*
X9919944Y-15525794D01*
X9919944Y-15525794D02*
X9938991Y-15516270D01*
X9938991Y-15516270D02*
X9967563Y-15516270D01*
X9967563Y-15516270D02*
X9986610Y-15525794D01*
X9986610Y-15525794D02*
X9996134Y-15544842D01*
X9996134Y-15544842D02*
X9996134Y-15649604D01*
X9996134Y-15544842D02*
X10005658Y-15525794D01*
X10005658Y-15525794D02*
X10024705Y-15516270D01*
X10024705Y-15516270D02*
X10053277Y-15516270D01*
X10053277Y-15516270D02*
X10072325Y-15525794D01*
X10072325Y-15525794D02*
X10081848Y-15544842D01*
X10081848Y-15544842D02*
X10081848Y-15649604D01*
X10177086Y-15649604D02*
X10177086Y-15516270D01*
X10177086Y-15535318D02*
X10186610Y-15525794D01*
X10186610Y-15525794D02*
X10205658Y-15516270D01*
X10205658Y-15516270D02*
X10234229Y-15516270D01*
X10234229Y-15516270D02*
X10253277Y-15525794D01*
X10253277Y-15525794D02*
X10262801Y-15544842D01*
X10262801Y-15544842D02*
X10262801Y-15649604D01*
X10262801Y-15544842D02*
X10272325Y-15525794D01*
X10272325Y-15525794D02*
X10291372Y-15516270D01*
X10291372Y-15516270D02*
X10319944Y-15516270D01*
X10319944Y-15516270D02*
X10338991Y-15525794D01*
X10338991Y-15525794D02*
X10348515Y-15544842D01*
X10348515Y-15544842D02*
X10348515Y-15649604D01*
X10738991Y-15440080D02*
X10567563Y-15697223D01*
X10996134Y-15449604D02*
X11015182Y-15449604D01*
X11015182Y-15449604D02*
X11034229Y-15459127D01*
X11034229Y-15459127D02*
X11043753Y-15468651D01*
X11043753Y-15468651D02*
X11053277Y-15487699D01*
X11053277Y-15487699D02*
X11062801Y-15525794D01*
X11062801Y-15525794D02*
X11062801Y-15573413D01*
X11062801Y-15573413D02*
X11053277Y-15611508D01*
X11053277Y-15611508D02*
X11043753Y-15630556D01*
X11043753Y-15630556D02*
X11034229Y-15640080D01*
X11034229Y-15640080D02*
X11015182Y-15649604D01*
X11015182Y-15649604D02*
X10996134Y-15649604D01*
X10996134Y-15649604D02*
X10977087Y-15640080D01*
X10977087Y-15640080D02*
X10967563Y-15630556D01*
X10967563Y-15630556D02*
X10958039Y-15611508D01*
X10958039Y-15611508D02*
X10948515Y-15573413D01*
X10948515Y-15573413D02*
X10948515Y-15525794D01*
X10948515Y-15525794D02*
X10958039Y-15487699D01*
X10958039Y-15487699D02*
X10967563Y-15468651D01*
X10967563Y-15468651D02*
X10977087Y-15459127D01*
X10977087Y-15459127D02*
X10996134Y-15449604D01*
X11148515Y-15630556D02*
X11158039Y-15640080D01*
X11158039Y-15640080D02*
X11148515Y-15649604D01*
X11148515Y-15649604D02*
X11138991Y-15640080D01*
X11138991Y-15640080D02*
X11148515Y-15630556D01*
X11148515Y-15630556D02*
X11148515Y-15649604D01*
X11281848Y-15449604D02*
X11300896Y-15449604D01*
X11300896Y-15449604D02*
X11319944Y-15459127D01*
X11319944Y-15459127D02*
X11329467Y-15468651D01*
X11329467Y-15468651D02*
X11338991Y-15487699D01*
X11338991Y-15487699D02*
X11348515Y-15525794D01*
X11348515Y-15525794D02*
X11348515Y-15573413D01*
X11348515Y-15573413D02*
X11338991Y-15611508D01*
X11338991Y-15611508D02*
X11329467Y-15630556D01*
X11329467Y-15630556D02*
X11319944Y-15640080D01*
X11319944Y-15640080D02*
X11300896Y-15649604D01*
X11300896Y-15649604D02*
X11281848Y-15649604D01*
X11281848Y-15649604D02*
X11262801Y-15640080D01*
X11262801Y-15640080D02*
X11253277Y-15630556D01*
X11253277Y-15630556D02*
X11243753Y-15611508D01*
X11243753Y-15611508D02*
X11234229Y-15573413D01*
X11234229Y-15573413D02*
X11234229Y-15525794D01*
X11234229Y-15525794D02*
X11243753Y-15487699D01*
X11243753Y-15487699D02*
X11253277Y-15468651D01*
X11253277Y-15468651D02*
X11262801Y-15459127D01*
X11262801Y-15459127D02*
X11281848Y-15449604D01*
X11462801Y-15535318D02*
X11443753Y-15525794D01*
X11443753Y-15525794D02*
X11434229Y-15516270D01*
X11434229Y-15516270D02*
X11424706Y-15497223D01*
X11424706Y-15497223D02*
X11424706Y-15487699D01*
X11424706Y-15487699D02*
X11434229Y-15468651D01*
X11434229Y-15468651D02*
X11443753Y-15459127D01*
X11443753Y-15459127D02*
X11462801Y-15449604D01*
X11462801Y-15449604D02*
X11500896Y-15449604D01*
X11500896Y-15449604D02*
X11519944Y-15459127D01*
X11519944Y-15459127D02*
X11529467Y-15468651D01*
X11529467Y-15468651D02*
X11538991Y-15487699D01*
X11538991Y-15487699D02*
X11538991Y-15497223D01*
X11538991Y-15497223D02*
X11529467Y-15516270D01*
X11529467Y-15516270D02*
X11519944Y-15525794D01*
X11519944Y-15525794D02*
X11500896Y-15535318D01*
X11500896Y-15535318D02*
X11462801Y-15535318D01*
X11462801Y-15535318D02*
X11443753Y-15544842D01*
X11443753Y-15544842D02*
X11434229Y-15554366D01*
X11434229Y-15554366D02*
X11424706Y-15573413D01*
X11424706Y-15573413D02*
X11424706Y-15611508D01*
X11424706Y-15611508D02*
X11434229Y-15630556D01*
X11434229Y-15630556D02*
X11443753Y-15640080D01*
X11443753Y-15640080D02*
X11462801Y-15649604D01*
X11462801Y-15649604D02*
X11500896Y-15649604D01*
X11500896Y-15649604D02*
X11519944Y-15640080D01*
X11519944Y-15640080D02*
X11529467Y-15630556D01*
X11529467Y-15630556D02*
X11538991Y-15611508D01*
X11538991Y-15611508D02*
X11538991Y-15573413D01*
X11538991Y-15573413D02*
X11529467Y-15554366D01*
X11529467Y-15554366D02*
X11519944Y-15544842D01*
X11519944Y-15544842D02*
X11500896Y-15535318D01*
X11710420Y-15449604D02*
X11672325Y-15449604D01*
X11672325Y-15449604D02*
X11653277Y-15459127D01*
X11653277Y-15459127D02*
X11643753Y-15468651D01*
X11643753Y-15468651D02*
X11624706Y-15497223D01*
X11624706Y-15497223D02*
X11615182Y-15535318D01*
X11615182Y-15535318D02*
X11615182Y-15611508D01*
X11615182Y-15611508D02*
X11624706Y-15630556D01*
X11624706Y-15630556D02*
X11634229Y-15640080D01*
X11634229Y-15640080D02*
X11653277Y-15649604D01*
X11653277Y-15649604D02*
X11691372Y-15649604D01*
X11691372Y-15649604D02*
X11710420Y-15640080D01*
X11710420Y-15640080D02*
X11719944Y-15630556D01*
X11719944Y-15630556D02*
X11729467Y-15611508D01*
X11729467Y-15611508D02*
X11729467Y-15563889D01*
X11729467Y-15563889D02*
X11719944Y-15544842D01*
X11719944Y-15544842D02*
X11710420Y-15535318D01*
X11710420Y-15535318D02*
X11691372Y-15525794D01*
X11691372Y-15525794D02*
X11653277Y-15525794D01*
X11653277Y-15525794D02*
X11634229Y-15535318D01*
X11634229Y-15535318D02*
X11624706Y-15544842D01*
X11624706Y-15544842D02*
X11615182Y-15563889D01*
X11900896Y-15449604D02*
X11862801Y-15449604D01*
X11862801Y-15449604D02*
X11843753Y-15459127D01*
X11843753Y-15459127D02*
X11834229Y-15468651D01*
X11834229Y-15468651D02*
X11815182Y-15497223D01*
X11815182Y-15497223D02*
X11805658Y-15535318D01*
X11805658Y-15535318D02*
X11805658Y-15611508D01*
X11805658Y-15611508D02*
X11815182Y-15630556D01*
X11815182Y-15630556D02*
X11824706Y-15640080D01*
X11824706Y-15640080D02*
X11843753Y-15649604D01*
X11843753Y-15649604D02*
X11881848Y-15649604D01*
X11881848Y-15649604D02*
X11900896Y-15640080D01*
X11900896Y-15640080D02*
X11910420Y-15630556D01*
X11910420Y-15630556D02*
X11919944Y-15611508D01*
X11919944Y-15611508D02*
X11919944Y-15563889D01*
X11919944Y-15563889D02*
X11910420Y-15544842D01*
X11910420Y-15544842D02*
X11900896Y-15535318D01*
X11900896Y-15535318D02*
X11881848Y-15525794D01*
X11881848Y-15525794D02*
X11843753Y-15525794D01*
X11843753Y-15525794D02*
X11824706Y-15535318D01*
X11824706Y-15535318D02*
X11815182Y-15544842D01*
X11815182Y-15544842D02*
X11805658Y-15563889D01*
X11996134Y-15449604D02*
X11996134Y-15487699D01*
X12072325Y-15449604D02*
X12072325Y-15487699D01*
X12367563Y-15725794D02*
X12358039Y-15716270D01*
X12358039Y-15716270D02*
X12338991Y-15687699D01*
X12338991Y-15687699D02*
X12329468Y-15668651D01*
X12329468Y-15668651D02*
X12319944Y-15640080D01*
X12319944Y-15640080D02*
X12310420Y-15592461D01*
X12310420Y-15592461D02*
X12310420Y-15554366D01*
X12310420Y-15554366D02*
X12319944Y-15506746D01*
X12319944Y-15506746D02*
X12329468Y-15478175D01*
X12329468Y-15478175D02*
X12338991Y-15459127D01*
X12338991Y-15459127D02*
X12358039Y-15430556D01*
X12358039Y-15430556D02*
X12367563Y-15421032D01*
X12529468Y-15516270D02*
X12529468Y-15649604D01*
X12481848Y-15440080D02*
X12434229Y-15582937D01*
X12434229Y-15582937D02*
X12558039Y-15582937D01*
X12786610Y-15649604D02*
X12786610Y-15449604D01*
X12872325Y-15649604D02*
X12872325Y-15544842D01*
X12872325Y-15544842D02*
X12862801Y-15525794D01*
X12862801Y-15525794D02*
X12843753Y-15516270D01*
X12843753Y-15516270D02*
X12815182Y-15516270D01*
X12815182Y-15516270D02*
X12796134Y-15525794D01*
X12796134Y-15525794D02*
X12786610Y-15535318D01*
X12996134Y-15649604D02*
X12977087Y-15640080D01*
X12977087Y-15640080D02*
X12967563Y-15630556D01*
X12967563Y-15630556D02*
X12958039Y-15611508D01*
X12958039Y-15611508D02*
X12958039Y-15554366D01*
X12958039Y-15554366D02*
X12967563Y-15535318D01*
X12967563Y-15535318D02*
X12977087Y-15525794D01*
X12977087Y-15525794D02*
X12996134Y-15516270D01*
X12996134Y-15516270D02*
X13024706Y-15516270D01*
X13024706Y-15516270D02*
X13043753Y-15525794D01*
X13043753Y-15525794D02*
X13053277Y-15535318D01*
X13053277Y-15535318D02*
X13062801Y-15554366D01*
X13062801Y-15554366D02*
X13062801Y-15611508D01*
X13062801Y-15611508D02*
X13053277Y-15630556D01*
X13053277Y-15630556D02*
X13043753Y-15640080D01*
X13043753Y-15640080D02*
X13024706Y-15649604D01*
X13024706Y-15649604D02*
X12996134Y-15649604D01*
X13177087Y-15649604D02*
X13158039Y-15640080D01*
X13158039Y-15640080D02*
X13148515Y-15621032D01*
X13148515Y-15621032D02*
X13148515Y-15449604D01*
X13329468Y-15640080D02*
X13310420Y-15649604D01*
X13310420Y-15649604D02*
X13272325Y-15649604D01*
X13272325Y-15649604D02*
X13253277Y-15640080D01*
X13253277Y-15640080D02*
X13243753Y-15621032D01*
X13243753Y-15621032D02*
X13243753Y-15544842D01*
X13243753Y-15544842D02*
X13253277Y-15525794D01*
X13253277Y-15525794D02*
X13272325Y-15516270D01*
X13272325Y-15516270D02*
X13310420Y-15516270D01*
X13310420Y-15516270D02*
X13329468Y-15525794D01*
X13329468Y-15525794D02*
X13338991Y-15544842D01*
X13338991Y-15544842D02*
X13338991Y-15563889D01*
X13338991Y-15563889D02*
X13243753Y-15582937D01*
X13415182Y-15640080D02*
X13434230Y-15649604D01*
X13434230Y-15649604D02*
X13472325Y-15649604D01*
X13472325Y-15649604D02*
X13491372Y-15640080D01*
X13491372Y-15640080D02*
X13500896Y-15621032D01*
X13500896Y-15621032D02*
X13500896Y-15611508D01*
X13500896Y-15611508D02*
X13491372Y-15592461D01*
X13491372Y-15592461D02*
X13472325Y-15582937D01*
X13472325Y-15582937D02*
X13443753Y-15582937D01*
X13443753Y-15582937D02*
X13424706Y-15573413D01*
X13424706Y-15573413D02*
X13415182Y-15554366D01*
X13415182Y-15554366D02*
X13415182Y-15544842D01*
X13415182Y-15544842D02*
X13424706Y-15525794D01*
X13424706Y-15525794D02*
X13443753Y-15516270D01*
X13443753Y-15516270D02*
X13472325Y-15516270D01*
X13472325Y-15516270D02*
X13491372Y-15525794D01*
X13567563Y-15725794D02*
X13577087Y-15716270D01*
X13577087Y-15716270D02*
X13596134Y-15687699D01*
X13596134Y-15687699D02*
X13605658Y-15668651D01*
X13605658Y-15668651D02*
X13615182Y-15640080D01*
X13615182Y-15640080D02*
X13624706Y-15592461D01*
X13624706Y-15592461D02*
X13624706Y-15554366D01*
X13624706Y-15554366D02*
X13615182Y-15506746D01*
X13615182Y-15506746D02*
X13605658Y-15478175D01*
X13605658Y-15478175D02*
X13596134Y-15459127D01*
X13596134Y-15459127D02*
X13577087Y-15430556D01*
X13577087Y-15430556D02*
X13567563Y-15421032D01*
X13929468Y-15725794D02*
X13919944Y-15716270D01*
X13919944Y-15716270D02*
X13900896Y-15687699D01*
X13900896Y-15687699D02*
X13891372Y-15668651D01*
X13891372Y-15668651D02*
X13881849Y-15640080D01*
X13881849Y-15640080D02*
X13872325Y-15592461D01*
X13872325Y-15592461D02*
X13872325Y-15554366D01*
X13872325Y-15554366D02*
X13881849Y-15506746D01*
X13881849Y-15506746D02*
X13891372Y-15478175D01*
X13891372Y-15478175D02*
X13900896Y-15459127D01*
X13900896Y-15459127D02*
X13919944Y-15430556D01*
X13919944Y-15430556D02*
X13929468Y-15421032D01*
X14005658Y-15516270D02*
X14005658Y-15649604D01*
X14005658Y-15535318D02*
X14015182Y-15525794D01*
X14015182Y-15525794D02*
X14034230Y-15516270D01*
X14034230Y-15516270D02*
X14062801Y-15516270D01*
X14062801Y-15516270D02*
X14081849Y-15525794D01*
X14081849Y-15525794D02*
X14091372Y-15544842D01*
X14091372Y-15544842D02*
X14091372Y-15649604D01*
X14215182Y-15649604D02*
X14196134Y-15640080D01*
X14196134Y-15640080D02*
X14186611Y-15630556D01*
X14186611Y-15630556D02*
X14177087Y-15611508D01*
X14177087Y-15611508D02*
X14177087Y-15554366D01*
X14177087Y-15554366D02*
X14186611Y-15535318D01*
X14186611Y-15535318D02*
X14196134Y-15525794D01*
X14196134Y-15525794D02*
X14215182Y-15516270D01*
X14215182Y-15516270D02*
X14243753Y-15516270D01*
X14243753Y-15516270D02*
X14262801Y-15525794D01*
X14262801Y-15525794D02*
X14272325Y-15535318D01*
X14272325Y-15535318D02*
X14281849Y-15554366D01*
X14281849Y-15554366D02*
X14281849Y-15611508D01*
X14281849Y-15611508D02*
X14272325Y-15630556D01*
X14272325Y-15630556D02*
X14262801Y-15640080D01*
X14262801Y-15640080D02*
X14243753Y-15649604D01*
X14243753Y-15649604D02*
X14215182Y-15649604D01*
X14338992Y-15516270D02*
X14415182Y-15516270D01*
X14367563Y-15449604D02*
X14367563Y-15621032D01*
X14367563Y-15621032D02*
X14377087Y-15640080D01*
X14377087Y-15640080D02*
X14396134Y-15649604D01*
X14396134Y-15649604D02*
X14415182Y-15649604D01*
X14634230Y-15516270D02*
X14634230Y-15716270D01*
X14634230Y-15525794D02*
X14653277Y-15516270D01*
X14653277Y-15516270D02*
X14691373Y-15516270D01*
X14691373Y-15516270D02*
X14710420Y-15525794D01*
X14710420Y-15525794D02*
X14719944Y-15535318D01*
X14719944Y-15535318D02*
X14729468Y-15554366D01*
X14729468Y-15554366D02*
X14729468Y-15611508D01*
X14729468Y-15611508D02*
X14719944Y-15630556D01*
X14719944Y-15630556D02*
X14710420Y-15640080D01*
X14710420Y-15640080D02*
X14691373Y-15649604D01*
X14691373Y-15649604D02*
X14653277Y-15649604D01*
X14653277Y-15649604D02*
X14634230Y-15640080D01*
X14843753Y-15649604D02*
X14824706Y-15640080D01*
X14824706Y-15640080D02*
X14815182Y-15621032D01*
X14815182Y-15621032D02*
X14815182Y-15449604D01*
X15005658Y-15649604D02*
X15005658Y-15544842D01*
X15005658Y-15544842D02*
X14996134Y-15525794D01*
X14996134Y-15525794D02*
X14977087Y-15516270D01*
X14977087Y-15516270D02*
X14938992Y-15516270D01*
X14938992Y-15516270D02*
X14919944Y-15525794D01*
X15005658Y-15640080D02*
X14986611Y-15649604D01*
X14986611Y-15649604D02*
X14938992Y-15649604D01*
X14938992Y-15649604D02*
X14919944Y-15640080D01*
X14919944Y-15640080D02*
X14910420Y-15621032D01*
X14910420Y-15621032D02*
X14910420Y-15601985D01*
X14910420Y-15601985D02*
X14919944Y-15582937D01*
X14919944Y-15582937D02*
X14938992Y-15573413D01*
X14938992Y-15573413D02*
X14986611Y-15573413D01*
X14986611Y-15573413D02*
X15005658Y-15563889D01*
X15072325Y-15516270D02*
X15148515Y-15516270D01*
X15100896Y-15449604D02*
X15100896Y-15621032D01*
X15100896Y-15621032D02*
X15110420Y-15640080D01*
X15110420Y-15640080D02*
X15129468Y-15649604D01*
X15129468Y-15649604D02*
X15148515Y-15649604D01*
X15291373Y-15640080D02*
X15272325Y-15649604D01*
X15272325Y-15649604D02*
X15234230Y-15649604D01*
X15234230Y-15649604D02*
X15215182Y-15640080D01*
X15215182Y-15640080D02*
X15205658Y-15621032D01*
X15205658Y-15621032D02*
X15205658Y-15544842D01*
X15205658Y-15544842D02*
X15215182Y-15525794D01*
X15215182Y-15525794D02*
X15234230Y-15516270D01*
X15234230Y-15516270D02*
X15272325Y-15516270D01*
X15272325Y-15516270D02*
X15291373Y-15525794D01*
X15291373Y-15525794D02*
X15300896Y-15544842D01*
X15300896Y-15544842D02*
X15300896Y-15563889D01*
X15300896Y-15563889D02*
X15205658Y-15582937D01*
X15472325Y-15649604D02*
X15472325Y-15449604D01*
X15472325Y-15640080D02*
X15453277Y-15649604D01*
X15453277Y-15649604D02*
X15415182Y-15649604D01*
X15415182Y-15649604D02*
X15396134Y-15640080D01*
X15396134Y-15640080D02*
X15386611Y-15630556D01*
X15386611Y-15630556D02*
X15377087Y-15611508D01*
X15377087Y-15611508D02*
X15377087Y-15554366D01*
X15377087Y-15554366D02*
X15386611Y-15535318D01*
X15386611Y-15535318D02*
X15396134Y-15525794D01*
X15396134Y-15525794D02*
X15415182Y-15516270D01*
X15415182Y-15516270D02*
X15453277Y-15516270D01*
X15453277Y-15516270D02*
X15472325Y-15525794D01*
X15548515Y-15725794D02*
X15558039Y-15716270D01*
X15558039Y-15716270D02*
X15577087Y-15687699D01*
X15577087Y-15687699D02*
X15586611Y-15668651D01*
X15586611Y-15668651D02*
X15596134Y-15640080D01*
X15596134Y-15640080D02*
X15605658Y-15592461D01*
X15605658Y-15592461D02*
X15605658Y-15554366D01*
X15605658Y-15554366D02*
X15596134Y-15506746D01*
X15596134Y-15506746D02*
X15586611Y-15478175D01*
X15586611Y-15478175D02*
X15577087Y-15459127D01*
X15577087Y-15459127D02*
X15558039Y-15430556D01*
X15558039Y-15430556D02*
X15548515Y-15421032D01*
X8763211Y-15948831D02*
X8763211Y-15807408D01*
X8621789Y-15807408D01*
X8621789Y-15948831D01*
X8763211Y-15948831D01*
X9034229Y-15769604D02*
X9158039Y-15769604D01*
X9158039Y-15769604D02*
X9091372Y-15845794D01*
X9091372Y-15845794D02*
X9119944Y-15845794D01*
X9119944Y-15845794D02*
X9138991Y-15855318D01*
X9138991Y-15855318D02*
X9148515Y-15864842D01*
X9148515Y-15864842D02*
X9158039Y-15883889D01*
X9158039Y-15883889D02*
X9158039Y-15931508D01*
X9158039Y-15931508D02*
X9148515Y-15950556D01*
X9148515Y-15950556D02*
X9138991Y-15960080D01*
X9138991Y-15960080D02*
X9119944Y-15969604D01*
X9119944Y-15969604D02*
X9062801Y-15969604D01*
X9062801Y-15969604D02*
X9043753Y-15960080D01*
X9043753Y-15960080D02*
X9034229Y-15950556D01*
X9243753Y-15950556D02*
X9253277Y-15960080D01*
X9253277Y-15960080D02*
X9243753Y-15969604D01*
X9243753Y-15969604D02*
X9234229Y-15960080D01*
X9234229Y-15960080D02*
X9243753Y-15950556D01*
X9243753Y-15950556D02*
X9243753Y-15969604D01*
X9377086Y-15769604D02*
X9396134Y-15769604D01*
X9396134Y-15769604D02*
X9415182Y-15779127D01*
X9415182Y-15779127D02*
X9424705Y-15788651D01*
X9424705Y-15788651D02*
X9434229Y-15807699D01*
X9434229Y-15807699D02*
X9443753Y-15845794D01*
X9443753Y-15845794D02*
X9443753Y-15893413D01*
X9443753Y-15893413D02*
X9434229Y-15931508D01*
X9434229Y-15931508D02*
X9424705Y-15950556D01*
X9424705Y-15950556D02*
X9415182Y-15960080D01*
X9415182Y-15960080D02*
X9396134Y-15969604D01*
X9396134Y-15969604D02*
X9377086Y-15969604D01*
X9377086Y-15969604D02*
X9358039Y-15960080D01*
X9358039Y-15960080D02*
X9348515Y-15950556D01*
X9348515Y-15950556D02*
X9338991Y-15931508D01*
X9338991Y-15931508D02*
X9329467Y-15893413D01*
X9329467Y-15893413D02*
X9329467Y-15845794D01*
X9329467Y-15845794D02*
X9338991Y-15807699D01*
X9338991Y-15807699D02*
X9348515Y-15788651D01*
X9348515Y-15788651D02*
X9358039Y-15779127D01*
X9358039Y-15779127D02*
X9377086Y-15769604D01*
X9567563Y-15769604D02*
X9586610Y-15769604D01*
X9586610Y-15769604D02*
X9605658Y-15779127D01*
X9605658Y-15779127D02*
X9615182Y-15788651D01*
X9615182Y-15788651D02*
X9624705Y-15807699D01*
X9624705Y-15807699D02*
X9634229Y-15845794D01*
X9634229Y-15845794D02*
X9634229Y-15893413D01*
X9634229Y-15893413D02*
X9624705Y-15931508D01*
X9624705Y-15931508D02*
X9615182Y-15950556D01*
X9615182Y-15950556D02*
X9605658Y-15960080D01*
X9605658Y-15960080D02*
X9586610Y-15969604D01*
X9586610Y-15969604D02*
X9567563Y-15969604D01*
X9567563Y-15969604D02*
X9548515Y-15960080D01*
X9548515Y-15960080D02*
X9538991Y-15950556D01*
X9538991Y-15950556D02*
X9529467Y-15931508D01*
X9529467Y-15931508D02*
X9519944Y-15893413D01*
X9519944Y-15893413D02*
X9519944Y-15845794D01*
X9519944Y-15845794D02*
X9529467Y-15807699D01*
X9529467Y-15807699D02*
X9538991Y-15788651D01*
X9538991Y-15788651D02*
X9548515Y-15779127D01*
X9548515Y-15779127D02*
X9567563Y-15769604D01*
X9758039Y-15769604D02*
X9777086Y-15769604D01*
X9777086Y-15769604D02*
X9796134Y-15779127D01*
X9796134Y-15779127D02*
X9805658Y-15788651D01*
X9805658Y-15788651D02*
X9815182Y-15807699D01*
X9815182Y-15807699D02*
X9824705Y-15845794D01*
X9824705Y-15845794D02*
X9824705Y-15893413D01*
X9824705Y-15893413D02*
X9815182Y-15931508D01*
X9815182Y-15931508D02*
X9805658Y-15950556D01*
X9805658Y-15950556D02*
X9796134Y-15960080D01*
X9796134Y-15960080D02*
X9777086Y-15969604D01*
X9777086Y-15969604D02*
X9758039Y-15969604D01*
X9758039Y-15969604D02*
X9738991Y-15960080D01*
X9738991Y-15960080D02*
X9729467Y-15950556D01*
X9729467Y-15950556D02*
X9719944Y-15931508D01*
X9719944Y-15931508D02*
X9710420Y-15893413D01*
X9710420Y-15893413D02*
X9710420Y-15845794D01*
X9710420Y-15845794D02*
X9719944Y-15807699D01*
X9719944Y-15807699D02*
X9729467Y-15788651D01*
X9729467Y-15788651D02*
X9738991Y-15779127D01*
X9738991Y-15779127D02*
X9758039Y-15769604D01*
X9910420Y-15969604D02*
X9910420Y-15836270D01*
X9910420Y-15855318D02*
X9919944Y-15845794D01*
X9919944Y-15845794D02*
X9938991Y-15836270D01*
X9938991Y-15836270D02*
X9967563Y-15836270D01*
X9967563Y-15836270D02*
X9986610Y-15845794D01*
X9986610Y-15845794D02*
X9996134Y-15864842D01*
X9996134Y-15864842D02*
X9996134Y-15969604D01*
X9996134Y-15864842D02*
X10005658Y-15845794D01*
X10005658Y-15845794D02*
X10024705Y-15836270D01*
X10024705Y-15836270D02*
X10053277Y-15836270D01*
X10053277Y-15836270D02*
X10072325Y-15845794D01*
X10072325Y-15845794D02*
X10081848Y-15864842D01*
X10081848Y-15864842D02*
X10081848Y-15969604D01*
X10177086Y-15969604D02*
X10177086Y-15836270D01*
X10177086Y-15855318D02*
X10186610Y-15845794D01*
X10186610Y-15845794D02*
X10205658Y-15836270D01*
X10205658Y-15836270D02*
X10234229Y-15836270D01*
X10234229Y-15836270D02*
X10253277Y-15845794D01*
X10253277Y-15845794D02*
X10262801Y-15864842D01*
X10262801Y-15864842D02*
X10262801Y-15969604D01*
X10262801Y-15864842D02*
X10272325Y-15845794D01*
X10272325Y-15845794D02*
X10291372Y-15836270D01*
X10291372Y-15836270D02*
X10319944Y-15836270D01*
X10319944Y-15836270D02*
X10338991Y-15845794D01*
X10338991Y-15845794D02*
X10348515Y-15864842D01*
X10348515Y-15864842D02*
X10348515Y-15969604D01*
X10738991Y-15760080D02*
X10567563Y-16017223D01*
X10996134Y-15769604D02*
X11015182Y-15769604D01*
X11015182Y-15769604D02*
X11034229Y-15779127D01*
X11034229Y-15779127D02*
X11043753Y-15788651D01*
X11043753Y-15788651D02*
X11053277Y-15807699D01*
X11053277Y-15807699D02*
X11062801Y-15845794D01*
X11062801Y-15845794D02*
X11062801Y-15893413D01*
X11062801Y-15893413D02*
X11053277Y-15931508D01*
X11053277Y-15931508D02*
X11043753Y-15950556D01*
X11043753Y-15950556D02*
X11034229Y-15960080D01*
X11034229Y-15960080D02*
X11015182Y-15969604D01*
X11015182Y-15969604D02*
X10996134Y-15969604D01*
X10996134Y-15969604D02*
X10977087Y-15960080D01*
X10977087Y-15960080D02*
X10967563Y-15950556D01*
X10967563Y-15950556D02*
X10958039Y-15931508D01*
X10958039Y-15931508D02*
X10948515Y-15893413D01*
X10948515Y-15893413D02*
X10948515Y-15845794D01*
X10948515Y-15845794D02*
X10958039Y-15807699D01*
X10958039Y-15807699D02*
X10967563Y-15788651D01*
X10967563Y-15788651D02*
X10977087Y-15779127D01*
X10977087Y-15779127D02*
X10996134Y-15769604D01*
X11148515Y-15950556D02*
X11158039Y-15960080D01*
X11158039Y-15960080D02*
X11148515Y-15969604D01*
X11148515Y-15969604D02*
X11138991Y-15960080D01*
X11138991Y-15960080D02*
X11148515Y-15950556D01*
X11148515Y-15950556D02*
X11148515Y-15969604D01*
X11348515Y-15969604D02*
X11234229Y-15969604D01*
X11291372Y-15969604D02*
X11291372Y-15769604D01*
X11291372Y-15769604D02*
X11272325Y-15798175D01*
X11272325Y-15798175D02*
X11253277Y-15817223D01*
X11253277Y-15817223D02*
X11234229Y-15826746D01*
X11538991Y-15969604D02*
X11424706Y-15969604D01*
X11481848Y-15969604D02*
X11481848Y-15769604D01*
X11481848Y-15769604D02*
X11462801Y-15798175D01*
X11462801Y-15798175D02*
X11443753Y-15817223D01*
X11443753Y-15817223D02*
X11424706Y-15826746D01*
X11653277Y-15855318D02*
X11634229Y-15845794D01*
X11634229Y-15845794D02*
X11624706Y-15836270D01*
X11624706Y-15836270D02*
X11615182Y-15817223D01*
X11615182Y-15817223D02*
X11615182Y-15807699D01*
X11615182Y-15807699D02*
X11624706Y-15788651D01*
X11624706Y-15788651D02*
X11634229Y-15779127D01*
X11634229Y-15779127D02*
X11653277Y-15769604D01*
X11653277Y-15769604D02*
X11691372Y-15769604D01*
X11691372Y-15769604D02*
X11710420Y-15779127D01*
X11710420Y-15779127D02*
X11719944Y-15788651D01*
X11719944Y-15788651D02*
X11729467Y-15807699D01*
X11729467Y-15807699D02*
X11729467Y-15817223D01*
X11729467Y-15817223D02*
X11719944Y-15836270D01*
X11719944Y-15836270D02*
X11710420Y-15845794D01*
X11710420Y-15845794D02*
X11691372Y-15855318D01*
X11691372Y-15855318D02*
X11653277Y-15855318D01*
X11653277Y-15855318D02*
X11634229Y-15864842D01*
X11634229Y-15864842D02*
X11624706Y-15874366D01*
X11624706Y-15874366D02*
X11615182Y-15893413D01*
X11615182Y-15893413D02*
X11615182Y-15931508D01*
X11615182Y-15931508D02*
X11624706Y-15950556D01*
X11624706Y-15950556D02*
X11634229Y-15960080D01*
X11634229Y-15960080D02*
X11653277Y-15969604D01*
X11653277Y-15969604D02*
X11691372Y-15969604D01*
X11691372Y-15969604D02*
X11710420Y-15960080D01*
X11710420Y-15960080D02*
X11719944Y-15950556D01*
X11719944Y-15950556D02*
X11729467Y-15931508D01*
X11729467Y-15931508D02*
X11729467Y-15893413D01*
X11729467Y-15893413D02*
X11719944Y-15874366D01*
X11719944Y-15874366D02*
X11710420Y-15864842D01*
X11710420Y-15864842D02*
X11691372Y-15855318D01*
X11919944Y-15969604D02*
X11805658Y-15969604D01*
X11862801Y-15969604D02*
X11862801Y-15769604D01*
X11862801Y-15769604D02*
X11843753Y-15798175D01*
X11843753Y-15798175D02*
X11824706Y-15817223D01*
X11824706Y-15817223D02*
X11805658Y-15826746D01*
X11996134Y-15769604D02*
X11996134Y-15807699D01*
X12072325Y-15769604D02*
X12072325Y-15807699D01*
X12367563Y-16045794D02*
X12358039Y-16036270D01*
X12358039Y-16036270D02*
X12338991Y-16007699D01*
X12338991Y-16007699D02*
X12329468Y-15988651D01*
X12329468Y-15988651D02*
X12319944Y-15960080D01*
X12319944Y-15960080D02*
X12310420Y-15912461D01*
X12310420Y-15912461D02*
X12310420Y-15874366D01*
X12310420Y-15874366D02*
X12319944Y-15826746D01*
X12319944Y-15826746D02*
X12329468Y-15798175D01*
X12329468Y-15798175D02*
X12338991Y-15779127D01*
X12338991Y-15779127D02*
X12358039Y-15750556D01*
X12358039Y-15750556D02*
X12367563Y-15741032D01*
X12529468Y-15836270D02*
X12529468Y-15969604D01*
X12481848Y-15760080D02*
X12434229Y-15902937D01*
X12434229Y-15902937D02*
X12558039Y-15902937D01*
X12719944Y-15836270D02*
X12719944Y-15969604D01*
X12672325Y-15760080D02*
X12624706Y-15902937D01*
X12624706Y-15902937D02*
X12748515Y-15902937D01*
X12977087Y-15969604D02*
X12977087Y-15769604D01*
X13062801Y-15969604D02*
X13062801Y-15864842D01*
X13062801Y-15864842D02*
X13053277Y-15845794D01*
X13053277Y-15845794D02*
X13034230Y-15836270D01*
X13034230Y-15836270D02*
X13005658Y-15836270D01*
X13005658Y-15836270D02*
X12986610Y-15845794D01*
X12986610Y-15845794D02*
X12977087Y-15855318D01*
X13186610Y-15969604D02*
X13167563Y-15960080D01*
X13167563Y-15960080D02*
X13158039Y-15950556D01*
X13158039Y-15950556D02*
X13148515Y-15931508D01*
X13148515Y-15931508D02*
X13148515Y-15874366D01*
X13148515Y-15874366D02*
X13158039Y-15855318D01*
X13158039Y-15855318D02*
X13167563Y-15845794D01*
X13167563Y-15845794D02*
X13186610Y-15836270D01*
X13186610Y-15836270D02*
X13215182Y-15836270D01*
X13215182Y-15836270D02*
X13234230Y-15845794D01*
X13234230Y-15845794D02*
X13243753Y-15855318D01*
X13243753Y-15855318D02*
X13253277Y-15874366D01*
X13253277Y-15874366D02*
X13253277Y-15931508D01*
X13253277Y-15931508D02*
X13243753Y-15950556D01*
X13243753Y-15950556D02*
X13234230Y-15960080D01*
X13234230Y-15960080D02*
X13215182Y-15969604D01*
X13215182Y-15969604D02*
X13186610Y-15969604D01*
X13367563Y-15969604D02*
X13348515Y-15960080D01*
X13348515Y-15960080D02*
X13338991Y-15941032D01*
X13338991Y-15941032D02*
X13338991Y-15769604D01*
X13519944Y-15960080D02*
X13500896Y-15969604D01*
X13500896Y-15969604D02*
X13462801Y-15969604D01*
X13462801Y-15969604D02*
X13443753Y-15960080D01*
X13443753Y-15960080D02*
X13434230Y-15941032D01*
X13434230Y-15941032D02*
X13434230Y-15864842D01*
X13434230Y-15864842D02*
X13443753Y-15845794D01*
X13443753Y-15845794D02*
X13462801Y-15836270D01*
X13462801Y-15836270D02*
X13500896Y-15836270D01*
X13500896Y-15836270D02*
X13519944Y-15845794D01*
X13519944Y-15845794D02*
X13529468Y-15864842D01*
X13529468Y-15864842D02*
X13529468Y-15883889D01*
X13529468Y-15883889D02*
X13434230Y-15902937D01*
X13605658Y-15960080D02*
X13624706Y-15969604D01*
X13624706Y-15969604D02*
X13662801Y-15969604D01*
X13662801Y-15969604D02*
X13681849Y-15960080D01*
X13681849Y-15960080D02*
X13691372Y-15941032D01*
X13691372Y-15941032D02*
X13691372Y-15931508D01*
X13691372Y-15931508D02*
X13681849Y-15912461D01*
X13681849Y-15912461D02*
X13662801Y-15902937D01*
X13662801Y-15902937D02*
X13634230Y-15902937D01*
X13634230Y-15902937D02*
X13615182Y-15893413D01*
X13615182Y-15893413D02*
X13605658Y-15874366D01*
X13605658Y-15874366D02*
X13605658Y-15864842D01*
X13605658Y-15864842D02*
X13615182Y-15845794D01*
X13615182Y-15845794D02*
X13634230Y-15836270D01*
X13634230Y-15836270D02*
X13662801Y-15836270D01*
X13662801Y-15836270D02*
X13681849Y-15845794D01*
X13758039Y-16045794D02*
X13767563Y-16036270D01*
X13767563Y-16036270D02*
X13786611Y-16007699D01*
X13786611Y-16007699D02*
X13796134Y-15988651D01*
X13796134Y-15988651D02*
X13805658Y-15960080D01*
X13805658Y-15960080D02*
X13815182Y-15912461D01*
X13815182Y-15912461D02*
X13815182Y-15874366D01*
X13815182Y-15874366D02*
X13805658Y-15826746D01*
X13805658Y-15826746D02*
X13796134Y-15798175D01*
X13796134Y-15798175D02*
X13786611Y-15779127D01*
X13786611Y-15779127D02*
X13767563Y-15750556D01*
X13767563Y-15750556D02*
X13758039Y-15741032D01*
X14119944Y-16045794D02*
X14110420Y-16036270D01*
X14110420Y-16036270D02*
X14091372Y-16007699D01*
X14091372Y-16007699D02*
X14081849Y-15988651D01*
X14081849Y-15988651D02*
X14072325Y-15960080D01*
X14072325Y-15960080D02*
X14062801Y-15912461D01*
X14062801Y-15912461D02*
X14062801Y-15874366D01*
X14062801Y-15874366D02*
X14072325Y-15826746D01*
X14072325Y-15826746D02*
X14081849Y-15798175D01*
X14081849Y-15798175D02*
X14091372Y-15779127D01*
X14091372Y-15779127D02*
X14110420Y-15750556D01*
X14110420Y-15750556D02*
X14119944Y-15741032D01*
X14196134Y-15836270D02*
X14196134Y-15969604D01*
X14196134Y-15855318D02*
X14205658Y-15845794D01*
X14205658Y-15845794D02*
X14224706Y-15836270D01*
X14224706Y-15836270D02*
X14253277Y-15836270D01*
X14253277Y-15836270D02*
X14272325Y-15845794D01*
X14272325Y-15845794D02*
X14281849Y-15864842D01*
X14281849Y-15864842D02*
X14281849Y-15969604D01*
X14405658Y-15969604D02*
X14386611Y-15960080D01*
X14386611Y-15960080D02*
X14377087Y-15950556D01*
X14377087Y-15950556D02*
X14367563Y-15931508D01*
X14367563Y-15931508D02*
X14367563Y-15874366D01*
X14367563Y-15874366D02*
X14377087Y-15855318D01*
X14377087Y-15855318D02*
X14386611Y-15845794D01*
X14386611Y-15845794D02*
X14405658Y-15836270D01*
X14405658Y-15836270D02*
X14434230Y-15836270D01*
X14434230Y-15836270D02*
X14453277Y-15845794D01*
X14453277Y-15845794D02*
X14462801Y-15855318D01*
X14462801Y-15855318D02*
X14472325Y-15874366D01*
X14472325Y-15874366D02*
X14472325Y-15931508D01*
X14472325Y-15931508D02*
X14462801Y-15950556D01*
X14462801Y-15950556D02*
X14453277Y-15960080D01*
X14453277Y-15960080D02*
X14434230Y-15969604D01*
X14434230Y-15969604D02*
X14405658Y-15969604D01*
X14529468Y-15836270D02*
X14605658Y-15836270D01*
X14558039Y-15769604D02*
X14558039Y-15941032D01*
X14558039Y-15941032D02*
X14567563Y-15960080D01*
X14567563Y-15960080D02*
X14586611Y-15969604D01*
X14586611Y-15969604D02*
X14605658Y-15969604D01*
X14824706Y-15836270D02*
X14824706Y-16036270D01*
X14824706Y-15845794D02*
X14843753Y-15836270D01*
X14843753Y-15836270D02*
X14881849Y-15836270D01*
X14881849Y-15836270D02*
X14900896Y-15845794D01*
X14900896Y-15845794D02*
X14910420Y-15855318D01*
X14910420Y-15855318D02*
X14919944Y-15874366D01*
X14919944Y-15874366D02*
X14919944Y-15931508D01*
X14919944Y-15931508D02*
X14910420Y-15950556D01*
X14910420Y-15950556D02*
X14900896Y-15960080D01*
X14900896Y-15960080D02*
X14881849Y-15969604D01*
X14881849Y-15969604D02*
X14843753Y-15969604D01*
X14843753Y-15969604D02*
X14824706Y-15960080D01*
X15034230Y-15969604D02*
X15015182Y-15960080D01*
X15015182Y-15960080D02*
X15005658Y-15941032D01*
X15005658Y-15941032D02*
X15005658Y-15769604D01*
X15196134Y-15969604D02*
X15196134Y-15864842D01*
X15196134Y-15864842D02*
X15186611Y-15845794D01*
X15186611Y-15845794D02*
X15167563Y-15836270D01*
X15167563Y-15836270D02*
X15129468Y-15836270D01*
X15129468Y-15836270D02*
X15110420Y-15845794D01*
X15196134Y-15960080D02*
X15177087Y-15969604D01*
X15177087Y-15969604D02*
X15129468Y-15969604D01*
X15129468Y-15969604D02*
X15110420Y-15960080D01*
X15110420Y-15960080D02*
X15100896Y-15941032D01*
X15100896Y-15941032D02*
X15100896Y-15921985D01*
X15100896Y-15921985D02*
X15110420Y-15902937D01*
X15110420Y-15902937D02*
X15129468Y-15893413D01*
X15129468Y-15893413D02*
X15177087Y-15893413D01*
X15177087Y-15893413D02*
X15196134Y-15883889D01*
X15262801Y-15836270D02*
X15338992Y-15836270D01*
X15291373Y-15769604D02*
X15291373Y-15941032D01*
X15291373Y-15941032D02*
X15300896Y-15960080D01*
X15300896Y-15960080D02*
X15319944Y-15969604D01*
X15319944Y-15969604D02*
X15338992Y-15969604D01*
X15481849Y-15960080D02*
X15462801Y-15969604D01*
X15462801Y-15969604D02*
X15424706Y-15969604D01*
X15424706Y-15969604D02*
X15405658Y-15960080D01*
X15405658Y-15960080D02*
X15396134Y-15941032D01*
X15396134Y-15941032D02*
X15396134Y-15864842D01*
X15396134Y-15864842D02*
X15405658Y-15845794D01*
X15405658Y-15845794D02*
X15424706Y-15836270D01*
X15424706Y-15836270D02*
X15462801Y-15836270D01*
X15462801Y-15836270D02*
X15481849Y-15845794D01*
X15481849Y-15845794D02*
X15491373Y-15864842D01*
X15491373Y-15864842D02*
X15491373Y-15883889D01*
X15491373Y-15883889D02*
X15396134Y-15902937D01*
X15662801Y-15969604D02*
X15662801Y-15769604D01*
X15662801Y-15960080D02*
X15643754Y-15969604D01*
X15643754Y-15969604D02*
X15605658Y-15969604D01*
X15605658Y-15969604D02*
X15586611Y-15960080D01*
X15586611Y-15960080D02*
X15577087Y-15950556D01*
X15577087Y-15950556D02*
X15567563Y-15931508D01*
X15567563Y-15931508D02*
X15567563Y-15874366D01*
X15567563Y-15874366D02*
X15577087Y-15855318D01*
X15577087Y-15855318D02*
X15586611Y-15845794D01*
X15586611Y-15845794D02*
X15605658Y-15836270D01*
X15605658Y-15836270D02*
X15643754Y-15836270D01*
X15643754Y-15836270D02*
X15662801Y-15845794D01*
X15738992Y-16045794D02*
X15748515Y-16036270D01*
X15748515Y-16036270D02*
X15767563Y-16007699D01*
X15767563Y-16007699D02*
X15777087Y-15988651D01*
X15777087Y-15988651D02*
X15786611Y-15960080D01*
X15786611Y-15960080D02*
X15796134Y-15912461D01*
X15796134Y-15912461D02*
X15796134Y-15874366D01*
X15796134Y-15874366D02*
X15786611Y-15826746D01*
X15786611Y-15826746D02*
X15777087Y-15798175D01*
X15777087Y-15798175D02*
X15767563Y-15779127D01*
X15767563Y-15779127D02*
X15748515Y-15750556D01*
X15748515Y-15750556D02*
X15738992Y-15741032D01*
X8692500Y-16298120D02*
X8792500Y-16198120D01*
X8692500Y-16098120D01*
X8592500Y-16198120D01*
X8692500Y-16298120D01*
X9148515Y-16089604D02*
X9053277Y-16089604D01*
X9053277Y-16089604D02*
X9043753Y-16184842D01*
X9043753Y-16184842D02*
X9053277Y-16175318D01*
X9053277Y-16175318D02*
X9072324Y-16165794D01*
X9072324Y-16165794D02*
X9119944Y-16165794D01*
X9119944Y-16165794D02*
X9138991Y-16175318D01*
X9138991Y-16175318D02*
X9148515Y-16184842D01*
X9148515Y-16184842D02*
X9158039Y-16203889D01*
X9158039Y-16203889D02*
X9158039Y-16251508D01*
X9158039Y-16251508D02*
X9148515Y-16270556D01*
X9148515Y-16270556D02*
X9138991Y-16280080D01*
X9138991Y-16280080D02*
X9119944Y-16289604D01*
X9119944Y-16289604D02*
X9072324Y-16289604D01*
X9072324Y-16289604D02*
X9053277Y-16280080D01*
X9053277Y-16280080D02*
X9043753Y-16270556D01*
X9243753Y-16270556D02*
X9253277Y-16280080D01*
X9253277Y-16280080D02*
X9243753Y-16289604D01*
X9243753Y-16289604D02*
X9234229Y-16280080D01*
X9234229Y-16280080D02*
X9243753Y-16270556D01*
X9243753Y-16270556D02*
X9243753Y-16289604D01*
X9377086Y-16089604D02*
X9396134Y-16089604D01*
X9396134Y-16089604D02*
X9415182Y-16099127D01*
X9415182Y-16099127D02*
X9424705Y-16108651D01*
X9424705Y-16108651D02*
X9434229Y-16127699D01*
X9434229Y-16127699D02*
X9443753Y-16165794D01*
X9443753Y-16165794D02*
X9443753Y-16213413D01*
X9443753Y-16213413D02*
X9434229Y-16251508D01*
X9434229Y-16251508D02*
X9424705Y-16270556D01*
X9424705Y-16270556D02*
X9415182Y-16280080D01*
X9415182Y-16280080D02*
X9396134Y-16289604D01*
X9396134Y-16289604D02*
X9377086Y-16289604D01*
X9377086Y-16289604D02*
X9358039Y-16280080D01*
X9358039Y-16280080D02*
X9348515Y-16270556D01*
X9348515Y-16270556D02*
X9338991Y-16251508D01*
X9338991Y-16251508D02*
X9329467Y-16213413D01*
X9329467Y-16213413D02*
X9329467Y-16165794D01*
X9329467Y-16165794D02*
X9338991Y-16127699D01*
X9338991Y-16127699D02*
X9348515Y-16108651D01*
X9348515Y-16108651D02*
X9358039Y-16099127D01*
X9358039Y-16099127D02*
X9377086Y-16089604D01*
X9567563Y-16089604D02*
X9586610Y-16089604D01*
X9586610Y-16089604D02*
X9605658Y-16099127D01*
X9605658Y-16099127D02*
X9615182Y-16108651D01*
X9615182Y-16108651D02*
X9624705Y-16127699D01*
X9624705Y-16127699D02*
X9634229Y-16165794D01*
X9634229Y-16165794D02*
X9634229Y-16213413D01*
X9634229Y-16213413D02*
X9624705Y-16251508D01*
X9624705Y-16251508D02*
X9615182Y-16270556D01*
X9615182Y-16270556D02*
X9605658Y-16280080D01*
X9605658Y-16280080D02*
X9586610Y-16289604D01*
X9586610Y-16289604D02*
X9567563Y-16289604D01*
X9567563Y-16289604D02*
X9548515Y-16280080D01*
X9548515Y-16280080D02*
X9538991Y-16270556D01*
X9538991Y-16270556D02*
X9529467Y-16251508D01*
X9529467Y-16251508D02*
X9519944Y-16213413D01*
X9519944Y-16213413D02*
X9519944Y-16165794D01*
X9519944Y-16165794D02*
X9529467Y-16127699D01*
X9529467Y-16127699D02*
X9538991Y-16108651D01*
X9538991Y-16108651D02*
X9548515Y-16099127D01*
X9548515Y-16099127D02*
X9567563Y-16089604D01*
X9758039Y-16089604D02*
X9777086Y-16089604D01*
X9777086Y-16089604D02*
X9796134Y-16099127D01*
X9796134Y-16099127D02*
X9805658Y-16108651D01*
X9805658Y-16108651D02*
X9815182Y-16127699D01*
X9815182Y-16127699D02*
X9824705Y-16165794D01*
X9824705Y-16165794D02*
X9824705Y-16213413D01*
X9824705Y-16213413D02*
X9815182Y-16251508D01*
X9815182Y-16251508D02*
X9805658Y-16270556D01*
X9805658Y-16270556D02*
X9796134Y-16280080D01*
X9796134Y-16280080D02*
X9777086Y-16289604D01*
X9777086Y-16289604D02*
X9758039Y-16289604D01*
X9758039Y-16289604D02*
X9738991Y-16280080D01*
X9738991Y-16280080D02*
X9729467Y-16270556D01*
X9729467Y-16270556D02*
X9719944Y-16251508D01*
X9719944Y-16251508D02*
X9710420Y-16213413D01*
X9710420Y-16213413D02*
X9710420Y-16165794D01*
X9710420Y-16165794D02*
X9719944Y-16127699D01*
X9719944Y-16127699D02*
X9729467Y-16108651D01*
X9729467Y-16108651D02*
X9738991Y-16099127D01*
X9738991Y-16099127D02*
X9758039Y-16089604D01*
X9910420Y-16289604D02*
X9910420Y-16156270D01*
X9910420Y-16175318D02*
X9919944Y-16165794D01*
X9919944Y-16165794D02*
X9938991Y-16156270D01*
X9938991Y-16156270D02*
X9967563Y-16156270D01*
X9967563Y-16156270D02*
X9986610Y-16165794D01*
X9986610Y-16165794D02*
X9996134Y-16184842D01*
X9996134Y-16184842D02*
X9996134Y-16289604D01*
X9996134Y-16184842D02*
X10005658Y-16165794D01*
X10005658Y-16165794D02*
X10024705Y-16156270D01*
X10024705Y-16156270D02*
X10053277Y-16156270D01*
X10053277Y-16156270D02*
X10072325Y-16165794D01*
X10072325Y-16165794D02*
X10081848Y-16184842D01*
X10081848Y-16184842D02*
X10081848Y-16289604D01*
X10177086Y-16289604D02*
X10177086Y-16156270D01*
X10177086Y-16175318D02*
X10186610Y-16165794D01*
X10186610Y-16165794D02*
X10205658Y-16156270D01*
X10205658Y-16156270D02*
X10234229Y-16156270D01*
X10234229Y-16156270D02*
X10253277Y-16165794D01*
X10253277Y-16165794D02*
X10262801Y-16184842D01*
X10262801Y-16184842D02*
X10262801Y-16289604D01*
X10262801Y-16184842D02*
X10272325Y-16165794D01*
X10272325Y-16165794D02*
X10291372Y-16156270D01*
X10291372Y-16156270D02*
X10319944Y-16156270D01*
X10319944Y-16156270D02*
X10338991Y-16165794D01*
X10338991Y-16165794D02*
X10348515Y-16184842D01*
X10348515Y-16184842D02*
X10348515Y-16289604D01*
X10738991Y-16080080D02*
X10567563Y-16337223D01*
X10996134Y-16089604D02*
X11015182Y-16089604D01*
X11015182Y-16089604D02*
X11034229Y-16099127D01*
X11034229Y-16099127D02*
X11043753Y-16108651D01*
X11043753Y-16108651D02*
X11053277Y-16127699D01*
X11053277Y-16127699D02*
X11062801Y-16165794D01*
X11062801Y-16165794D02*
X11062801Y-16213413D01*
X11062801Y-16213413D02*
X11053277Y-16251508D01*
X11053277Y-16251508D02*
X11043753Y-16270556D01*
X11043753Y-16270556D02*
X11034229Y-16280080D01*
X11034229Y-16280080D02*
X11015182Y-16289604D01*
X11015182Y-16289604D02*
X10996134Y-16289604D01*
X10996134Y-16289604D02*
X10977087Y-16280080D01*
X10977087Y-16280080D02*
X10967563Y-16270556D01*
X10967563Y-16270556D02*
X10958039Y-16251508D01*
X10958039Y-16251508D02*
X10948515Y-16213413D01*
X10948515Y-16213413D02*
X10948515Y-16165794D01*
X10948515Y-16165794D02*
X10958039Y-16127699D01*
X10958039Y-16127699D02*
X10967563Y-16108651D01*
X10967563Y-16108651D02*
X10977087Y-16099127D01*
X10977087Y-16099127D02*
X10996134Y-16089604D01*
X11148515Y-16270556D02*
X11158039Y-16280080D01*
X11158039Y-16280080D02*
X11148515Y-16289604D01*
X11148515Y-16289604D02*
X11138991Y-16280080D01*
X11138991Y-16280080D02*
X11148515Y-16270556D01*
X11148515Y-16270556D02*
X11148515Y-16289604D01*
X11348515Y-16289604D02*
X11234229Y-16289604D01*
X11291372Y-16289604D02*
X11291372Y-16089604D01*
X11291372Y-16089604D02*
X11272325Y-16118175D01*
X11272325Y-16118175D02*
X11253277Y-16137223D01*
X11253277Y-16137223D02*
X11234229Y-16146746D01*
X11443753Y-16289604D02*
X11481848Y-16289604D01*
X11481848Y-16289604D02*
X11500896Y-16280080D01*
X11500896Y-16280080D02*
X11510420Y-16270556D01*
X11510420Y-16270556D02*
X11529467Y-16241985D01*
X11529467Y-16241985D02*
X11538991Y-16203889D01*
X11538991Y-16203889D02*
X11538991Y-16127699D01*
X11538991Y-16127699D02*
X11529467Y-16108651D01*
X11529467Y-16108651D02*
X11519944Y-16099127D01*
X11519944Y-16099127D02*
X11500896Y-16089604D01*
X11500896Y-16089604D02*
X11462801Y-16089604D01*
X11462801Y-16089604D02*
X11443753Y-16099127D01*
X11443753Y-16099127D02*
X11434229Y-16108651D01*
X11434229Y-16108651D02*
X11424706Y-16127699D01*
X11424706Y-16127699D02*
X11424706Y-16175318D01*
X11424706Y-16175318D02*
X11434229Y-16194366D01*
X11434229Y-16194366D02*
X11443753Y-16203889D01*
X11443753Y-16203889D02*
X11462801Y-16213413D01*
X11462801Y-16213413D02*
X11500896Y-16213413D01*
X11500896Y-16213413D02*
X11519944Y-16203889D01*
X11519944Y-16203889D02*
X11529467Y-16194366D01*
X11529467Y-16194366D02*
X11538991Y-16175318D01*
X11710420Y-16089604D02*
X11672325Y-16089604D01*
X11672325Y-16089604D02*
X11653277Y-16099127D01*
X11653277Y-16099127D02*
X11643753Y-16108651D01*
X11643753Y-16108651D02*
X11624706Y-16137223D01*
X11624706Y-16137223D02*
X11615182Y-16175318D01*
X11615182Y-16175318D02*
X11615182Y-16251508D01*
X11615182Y-16251508D02*
X11624706Y-16270556D01*
X11624706Y-16270556D02*
X11634229Y-16280080D01*
X11634229Y-16280080D02*
X11653277Y-16289604D01*
X11653277Y-16289604D02*
X11691372Y-16289604D01*
X11691372Y-16289604D02*
X11710420Y-16280080D01*
X11710420Y-16280080D02*
X11719944Y-16270556D01*
X11719944Y-16270556D02*
X11729467Y-16251508D01*
X11729467Y-16251508D02*
X11729467Y-16203889D01*
X11729467Y-16203889D02*
X11719944Y-16184842D01*
X11719944Y-16184842D02*
X11710420Y-16175318D01*
X11710420Y-16175318D02*
X11691372Y-16165794D01*
X11691372Y-16165794D02*
X11653277Y-16165794D01*
X11653277Y-16165794D02*
X11634229Y-16175318D01*
X11634229Y-16175318D02*
X11624706Y-16184842D01*
X11624706Y-16184842D02*
X11615182Y-16203889D01*
X11824706Y-16289604D02*
X11862801Y-16289604D01*
X11862801Y-16289604D02*
X11881848Y-16280080D01*
X11881848Y-16280080D02*
X11891372Y-16270556D01*
X11891372Y-16270556D02*
X11910420Y-16241985D01*
X11910420Y-16241985D02*
X11919944Y-16203889D01*
X11919944Y-16203889D02*
X11919944Y-16127699D01*
X11919944Y-16127699D02*
X11910420Y-16108651D01*
X11910420Y-16108651D02*
X11900896Y-16099127D01*
X11900896Y-16099127D02*
X11881848Y-16089604D01*
X11881848Y-16089604D02*
X11843753Y-16089604D01*
X11843753Y-16089604D02*
X11824706Y-16099127D01*
X11824706Y-16099127D02*
X11815182Y-16108651D01*
X11815182Y-16108651D02*
X11805658Y-16127699D01*
X11805658Y-16127699D02*
X11805658Y-16175318D01*
X11805658Y-16175318D02*
X11815182Y-16194366D01*
X11815182Y-16194366D02*
X11824706Y-16203889D01*
X11824706Y-16203889D02*
X11843753Y-16213413D01*
X11843753Y-16213413D02*
X11881848Y-16213413D01*
X11881848Y-16213413D02*
X11900896Y-16203889D01*
X11900896Y-16203889D02*
X11910420Y-16194366D01*
X11910420Y-16194366D02*
X11919944Y-16175318D01*
X11996134Y-16089604D02*
X11996134Y-16127699D01*
X12072325Y-16089604D02*
X12072325Y-16127699D01*
X12367563Y-16365794D02*
X12358039Y-16356270D01*
X12358039Y-16356270D02*
X12338991Y-16327699D01*
X12338991Y-16327699D02*
X12329468Y-16308651D01*
X12329468Y-16308651D02*
X12319944Y-16280080D01*
X12319944Y-16280080D02*
X12310420Y-16232461D01*
X12310420Y-16232461D02*
X12310420Y-16194366D01*
X12310420Y-16194366D02*
X12319944Y-16146746D01*
X12319944Y-16146746D02*
X12329468Y-16118175D01*
X12329468Y-16118175D02*
X12338991Y-16099127D01*
X12338991Y-16099127D02*
X12358039Y-16070556D01*
X12358039Y-16070556D02*
X12367563Y-16061032D01*
X12434229Y-16108651D02*
X12443753Y-16099127D01*
X12443753Y-16099127D02*
X12462801Y-16089604D01*
X12462801Y-16089604D02*
X12510420Y-16089604D01*
X12510420Y-16089604D02*
X12529468Y-16099127D01*
X12529468Y-16099127D02*
X12538991Y-16108651D01*
X12538991Y-16108651D02*
X12548515Y-16127699D01*
X12548515Y-16127699D02*
X12548515Y-16146746D01*
X12548515Y-16146746D02*
X12538991Y-16175318D01*
X12538991Y-16175318D02*
X12424706Y-16289604D01*
X12424706Y-16289604D02*
X12548515Y-16289604D01*
X12624706Y-16108651D02*
X12634229Y-16099127D01*
X12634229Y-16099127D02*
X12653277Y-16089604D01*
X12653277Y-16089604D02*
X12700896Y-16089604D01*
X12700896Y-16089604D02*
X12719944Y-16099127D01*
X12719944Y-16099127D02*
X12729468Y-16108651D01*
X12729468Y-16108651D02*
X12738991Y-16127699D01*
X12738991Y-16127699D02*
X12738991Y-16146746D01*
X12738991Y-16146746D02*
X12729468Y-16175318D01*
X12729468Y-16175318D02*
X12615182Y-16289604D01*
X12615182Y-16289604D02*
X12738991Y-16289604D01*
X12977087Y-16289604D02*
X12977087Y-16089604D01*
X13062801Y-16289604D02*
X13062801Y-16184842D01*
X13062801Y-16184842D02*
X13053277Y-16165794D01*
X13053277Y-16165794D02*
X13034230Y-16156270D01*
X13034230Y-16156270D02*
X13005658Y-16156270D01*
X13005658Y-16156270D02*
X12986610Y-16165794D01*
X12986610Y-16165794D02*
X12977087Y-16175318D01*
X13186610Y-16289604D02*
X13167563Y-16280080D01*
X13167563Y-16280080D02*
X13158039Y-16270556D01*
X13158039Y-16270556D02*
X13148515Y-16251508D01*
X13148515Y-16251508D02*
X13148515Y-16194366D01*
X13148515Y-16194366D02*
X13158039Y-16175318D01*
X13158039Y-16175318D02*
X13167563Y-16165794D01*
X13167563Y-16165794D02*
X13186610Y-16156270D01*
X13186610Y-16156270D02*
X13215182Y-16156270D01*
X13215182Y-16156270D02*
X13234230Y-16165794D01*
X13234230Y-16165794D02*
X13243753Y-16175318D01*
X13243753Y-16175318D02*
X13253277Y-16194366D01*
X13253277Y-16194366D02*
X13253277Y-16251508D01*
X13253277Y-16251508D02*
X13243753Y-16270556D01*
X13243753Y-16270556D02*
X13234230Y-16280080D01*
X13234230Y-16280080D02*
X13215182Y-16289604D01*
X13215182Y-16289604D02*
X13186610Y-16289604D01*
X13367563Y-16289604D02*
X13348515Y-16280080D01*
X13348515Y-16280080D02*
X13338991Y-16261032D01*
X13338991Y-16261032D02*
X13338991Y-16089604D01*
X13519944Y-16280080D02*
X13500896Y-16289604D01*
X13500896Y-16289604D02*
X13462801Y-16289604D01*
X13462801Y-16289604D02*
X13443753Y-16280080D01*
X13443753Y-16280080D02*
X13434230Y-16261032D01*
X13434230Y-16261032D02*
X13434230Y-16184842D01*
X13434230Y-16184842D02*
X13443753Y-16165794D01*
X13443753Y-16165794D02*
X13462801Y-16156270D01*
X13462801Y-16156270D02*
X13500896Y-16156270D01*
X13500896Y-16156270D02*
X13519944Y-16165794D01*
X13519944Y-16165794D02*
X13529468Y-16184842D01*
X13529468Y-16184842D02*
X13529468Y-16203889D01*
X13529468Y-16203889D02*
X13434230Y-16222937D01*
X13605658Y-16280080D02*
X13624706Y-16289604D01*
X13624706Y-16289604D02*
X13662801Y-16289604D01*
X13662801Y-16289604D02*
X13681849Y-16280080D01*
X13681849Y-16280080D02*
X13691372Y-16261032D01*
X13691372Y-16261032D02*
X13691372Y-16251508D01*
X13691372Y-16251508D02*
X13681849Y-16232461D01*
X13681849Y-16232461D02*
X13662801Y-16222937D01*
X13662801Y-16222937D02*
X13634230Y-16222937D01*
X13634230Y-16222937D02*
X13615182Y-16213413D01*
X13615182Y-16213413D02*
X13605658Y-16194366D01*
X13605658Y-16194366D02*
X13605658Y-16184842D01*
X13605658Y-16184842D02*
X13615182Y-16165794D01*
X13615182Y-16165794D02*
X13634230Y-16156270D01*
X13634230Y-16156270D02*
X13662801Y-16156270D01*
X13662801Y-16156270D02*
X13681849Y-16165794D01*
X13758039Y-16365794D02*
X13767563Y-16356270D01*
X13767563Y-16356270D02*
X13786611Y-16327699D01*
X13786611Y-16327699D02*
X13796134Y-16308651D01*
X13796134Y-16308651D02*
X13805658Y-16280080D01*
X13805658Y-16280080D02*
X13815182Y-16232461D01*
X13815182Y-16232461D02*
X13815182Y-16194366D01*
X13815182Y-16194366D02*
X13805658Y-16146746D01*
X13805658Y-16146746D02*
X13796134Y-16118175D01*
X13796134Y-16118175D02*
X13786611Y-16099127D01*
X13786611Y-16099127D02*
X13767563Y-16070556D01*
X13767563Y-16070556D02*
X13758039Y-16061032D01*
X14119944Y-16365794D02*
X14110420Y-16356270D01*
X14110420Y-16356270D02*
X14091372Y-16327699D01*
X14091372Y-16327699D02*
X14081849Y-16308651D01*
X14081849Y-16308651D02*
X14072325Y-16280080D01*
X14072325Y-16280080D02*
X14062801Y-16232461D01*
X14062801Y-16232461D02*
X14062801Y-16194366D01*
X14062801Y-16194366D02*
X14072325Y-16146746D01*
X14072325Y-16146746D02*
X14081849Y-16118175D01*
X14081849Y-16118175D02*
X14091372Y-16099127D01*
X14091372Y-16099127D02*
X14110420Y-16070556D01*
X14110420Y-16070556D02*
X14119944Y-16061032D01*
X14196134Y-16156270D02*
X14196134Y-16289604D01*
X14196134Y-16175318D02*
X14205658Y-16165794D01*
X14205658Y-16165794D02*
X14224706Y-16156270D01*
X14224706Y-16156270D02*
X14253277Y-16156270D01*
X14253277Y-16156270D02*
X14272325Y-16165794D01*
X14272325Y-16165794D02*
X14281849Y-16184842D01*
X14281849Y-16184842D02*
X14281849Y-16289604D01*
X14405658Y-16289604D02*
X14386611Y-16280080D01*
X14386611Y-16280080D02*
X14377087Y-16270556D01*
X14377087Y-16270556D02*
X14367563Y-16251508D01*
X14367563Y-16251508D02*
X14367563Y-16194366D01*
X14367563Y-16194366D02*
X14377087Y-16175318D01*
X14377087Y-16175318D02*
X14386611Y-16165794D01*
X14386611Y-16165794D02*
X14405658Y-16156270D01*
X14405658Y-16156270D02*
X14434230Y-16156270D01*
X14434230Y-16156270D02*
X14453277Y-16165794D01*
X14453277Y-16165794D02*
X14462801Y-16175318D01*
X14462801Y-16175318D02*
X14472325Y-16194366D01*
X14472325Y-16194366D02*
X14472325Y-16251508D01*
X14472325Y-16251508D02*
X14462801Y-16270556D01*
X14462801Y-16270556D02*
X14453277Y-16280080D01*
X14453277Y-16280080D02*
X14434230Y-16289604D01*
X14434230Y-16289604D02*
X14405658Y-16289604D01*
X14529468Y-16156270D02*
X14605658Y-16156270D01*
X14558039Y-16089604D02*
X14558039Y-16261032D01*
X14558039Y-16261032D02*
X14567563Y-16280080D01*
X14567563Y-16280080D02*
X14586611Y-16289604D01*
X14586611Y-16289604D02*
X14605658Y-16289604D01*
X14824706Y-16156270D02*
X14824706Y-16356270D01*
X14824706Y-16165794D02*
X14843753Y-16156270D01*
X14843753Y-16156270D02*
X14881849Y-16156270D01*
X14881849Y-16156270D02*
X14900896Y-16165794D01*
X14900896Y-16165794D02*
X14910420Y-16175318D01*
X14910420Y-16175318D02*
X14919944Y-16194366D01*
X14919944Y-16194366D02*
X14919944Y-16251508D01*
X14919944Y-16251508D02*
X14910420Y-16270556D01*
X14910420Y-16270556D02*
X14900896Y-16280080D01*
X14900896Y-16280080D02*
X14881849Y-16289604D01*
X14881849Y-16289604D02*
X14843753Y-16289604D01*
X14843753Y-16289604D02*
X14824706Y-16280080D01*
X15034230Y-16289604D02*
X15015182Y-16280080D01*
X15015182Y-16280080D02*
X15005658Y-16261032D01*
X15005658Y-16261032D02*
X15005658Y-16089604D01*
X15196134Y-16289604D02*
X15196134Y-16184842D01*
X15196134Y-16184842D02*
X15186611Y-16165794D01*
X15186611Y-16165794D02*
X15167563Y-16156270D01*
X15167563Y-16156270D02*
X15129468Y-16156270D01*
X15129468Y-16156270D02*
X15110420Y-16165794D01*
X15196134Y-16280080D02*
X15177087Y-16289604D01*
X15177087Y-16289604D02*
X15129468Y-16289604D01*
X15129468Y-16289604D02*
X15110420Y-16280080D01*
X15110420Y-16280080D02*
X15100896Y-16261032D01*
X15100896Y-16261032D02*
X15100896Y-16241985D01*
X15100896Y-16241985D02*
X15110420Y-16222937D01*
X15110420Y-16222937D02*
X15129468Y-16213413D01*
X15129468Y-16213413D02*
X15177087Y-16213413D01*
X15177087Y-16213413D02*
X15196134Y-16203889D01*
X15262801Y-16156270D02*
X15338992Y-16156270D01*
X15291373Y-16089604D02*
X15291373Y-16261032D01*
X15291373Y-16261032D02*
X15300896Y-16280080D01*
X15300896Y-16280080D02*
X15319944Y-16289604D01*
X15319944Y-16289604D02*
X15338992Y-16289604D01*
X15481849Y-16280080D02*
X15462801Y-16289604D01*
X15462801Y-16289604D02*
X15424706Y-16289604D01*
X15424706Y-16289604D02*
X15405658Y-16280080D01*
X15405658Y-16280080D02*
X15396134Y-16261032D01*
X15396134Y-16261032D02*
X15396134Y-16184842D01*
X15396134Y-16184842D02*
X15405658Y-16165794D01*
X15405658Y-16165794D02*
X15424706Y-16156270D01*
X15424706Y-16156270D02*
X15462801Y-16156270D01*
X15462801Y-16156270D02*
X15481849Y-16165794D01*
X15481849Y-16165794D02*
X15491373Y-16184842D01*
X15491373Y-16184842D02*
X15491373Y-16203889D01*
X15491373Y-16203889D02*
X15396134Y-16222937D01*
X15662801Y-16289604D02*
X15662801Y-16089604D01*
X15662801Y-16280080D02*
X15643754Y-16289604D01*
X15643754Y-16289604D02*
X15605658Y-16289604D01*
X15605658Y-16289604D02*
X15586611Y-16280080D01*
X15586611Y-16280080D02*
X15577087Y-16270556D01*
X15577087Y-16270556D02*
X15567563Y-16251508D01*
X15567563Y-16251508D02*
X15567563Y-16194366D01*
X15567563Y-16194366D02*
X15577087Y-16175318D01*
X15577087Y-16175318D02*
X15586611Y-16165794D01*
X15586611Y-16165794D02*
X15605658Y-16156270D01*
X15605658Y-16156270D02*
X15643754Y-16156270D01*
X15643754Y-16156270D02*
X15662801Y-16165794D01*
X15738992Y-16365794D02*
X15748515Y-16356270D01*
X15748515Y-16356270D02*
X15767563Y-16327699D01*
X15767563Y-16327699D02*
X15777087Y-16308651D01*
X15777087Y-16308651D02*
X15786611Y-16280080D01*
X15786611Y-16280080D02*
X15796134Y-16232461D01*
X15796134Y-16232461D02*
X15796134Y-16194366D01*
X15796134Y-16194366D02*
X15786611Y-16146746D01*
X15786611Y-16146746D02*
X15777087Y-16118175D01*
X15777087Y-16118175D02*
X15767563Y-16099127D01*
X15767563Y-16099127D02*
X15748515Y-16070556D01*
X15748515Y-16070556D02*
X15738992Y-16061032D01*
M02*
