%TF.GenerationSoftware,KiCad,Pcbnew,10.0.5*%
%TF.CreationDate,2026-09-02T17:36:25+09:00*%
%TF.ProjectId,first_left,66697273-745f-46c6-9566-742e6b696361,0.2.0*%
%TF.SameCoordinates,Original*%
%TF.FileFunction,Paste,Bot*%
%TF.FilePolarity,Positive*%
%FSLAX46Y46*%
G04 Gerber Fmt 4.6, Leading zero omitted, Abs format (unit mm)*
G04 Created by KiCad (PCBNEW 10.0.5) date 2026-09-02 17:36:25*
%MOMM*%
%LPD*%
G01*
G04 APERTURE LIST*
G04 Aperture macros list*
%AMRotRect*
0 Rectangle, with rotation*
0 The origin of the aperture is its center*
0 $1 length*
0 $2 width*
0 $3 Rotation angle, in degrees counterclockwise*
0 Add horizontal line*
21,1,$1,$2,0,0,$3*%
G04 Aperture macros list end*
%ADD10R,0.900000X1.200000*%
%ADD11R,2.600000X2.600000*%
%ADD12RotRect,2.600000X2.600000X254.000000*%
%ADD13RotRect,0.900000X1.200000X246.000000*%
%ADD14RotRect,0.900000X1.200000X254.000000*%
%ADD15R,1.200000X0.900000*%
%ADD16RotRect,0.900000X1.200000X262.000000*%
%ADD17RotRect,2.600000X2.600000X262.000000*%
%ADD18RotRect,2.600000X2.600000X246.000000*%
G04 APERTURE END LIST*
D10*
%TO.C,D6*%
X116350000Y-71200000D03*
X119650000Y-71200000D03*
%TD*%
%TO.C,D3*%
X98350000Y-71200000D03*
X101650000Y-71200000D03*
%TD*%
D11*
%TO.C,S8*%
X132725000Y-69750000D03*
X144275000Y-71950000D03*
%TD*%
D10*
%TO.C,D11*%
X152350000Y-80380000D03*
X155650000Y-80380000D03*
%TD*%
D11*
%TO.C,S17*%
X186725000Y-73710000D03*
X198275000Y-75910000D03*
%TD*%
D10*
%TO.C,D17*%
X188350000Y-86860000D03*
X191650000Y-86860000D03*
%TD*%
D11*
%TO.C,S19*%
X156350000Y-113105000D03*
X154150000Y-124655000D03*
%TD*%
%TO.C,S2*%
X96725000Y-76050000D03*
X108275000Y-78250000D03*
%TD*%
D10*
%TO.C,D16*%
X188350000Y-104860000D03*
X191650000Y-104860000D03*
%TD*%
D12*
%TO.C,S21*%
X195611419Y-120295310D03*
X190313032Y-130791481D03*
%TD*%
D11*
%TO.C,S15*%
X168725000Y-53730000D03*
X180275000Y-55930000D03*
%TD*%
D13*
%TO.C,D22*%
X201436715Y-124047750D03*
X200094485Y-127062450D03*
%TD*%
D14*
%TO.C,D21*%
X182522902Y-118232718D03*
X181613298Y-121404882D03*
%TD*%
D11*
%TO.C,S6*%
X114725000Y-58050000D03*
X126275000Y-60250000D03*
%TD*%
D10*
%TO.C,D15*%
X170350000Y-66880000D03*
X173650000Y-66880000D03*
%TD*%
%TO.C,D4*%
X116350000Y-107200000D03*
X119650000Y-107200000D03*
%TD*%
D11*
%TO.C,S16*%
X186725000Y-91710000D03*
X198275000Y-93910000D03*
%TD*%
%TO.C,S13*%
X168725000Y-89730000D03*
X180275000Y-91930000D03*
%TD*%
%TO.C,S4*%
X114725000Y-94050000D03*
X126275000Y-96250000D03*
%TD*%
D15*
%TO.C,D19*%
X143200000Y-114730000D03*
X143200000Y-118030000D03*
%TD*%
D11*
%TO.C,S1*%
X96725000Y-94050000D03*
X108275000Y-96250000D03*
%TD*%
%TO.C,S7*%
X132725000Y-87750000D03*
X144275000Y-89950000D03*
%TD*%
D10*
%TO.C,D18*%
X188350000Y-68860000D03*
X191650000Y-68860000D03*
%TD*%
D11*
%TO.C,S18*%
X186725000Y-55710000D03*
X198275000Y-57910000D03*
%TD*%
D16*
%TO.C,D20*%
X162983936Y-115106458D03*
X162524664Y-118374342D03*
%TD*%
D11*
%TO.C,S5*%
X114725000Y-76050000D03*
X126275000Y-78250000D03*
%TD*%
%TO.C,S9*%
X132725000Y-51750000D03*
X144275000Y-53950000D03*
%TD*%
%TO.C,S14*%
X168725000Y-71730000D03*
X180275000Y-73930000D03*
%TD*%
D10*
%TO.C,D8*%
X134350000Y-82900000D03*
X137650000Y-82900000D03*
%TD*%
%TO.C,D5*%
X116350000Y-89200000D03*
X119650000Y-89200000D03*
%TD*%
D11*
%TO.C,S3*%
X96725000Y-58050000D03*
X108275000Y-60250000D03*
%TD*%
D10*
%TO.C,D10*%
X152350000Y-98380000D03*
X155650000Y-98380000D03*
%TD*%
%TO.C,D7*%
X134350000Y-100900000D03*
X137650000Y-100900000D03*
%TD*%
D11*
%TO.C,S12*%
X150725000Y-49230000D03*
X162275000Y-51430000D03*
%TD*%
D10*
%TO.C,D12*%
X152350000Y-62380000D03*
X155650000Y-62380000D03*
%TD*%
D11*
%TO.C,S10*%
X150725000Y-85230000D03*
X162275000Y-87430000D03*
%TD*%
D10*
%TO.C,D1*%
X98350000Y-107200000D03*
X101650000Y-107200000D03*
%TD*%
%TO.C,D13*%
X170350000Y-102880000D03*
X173650000Y-102880000D03*
%TD*%
%TO.C,D2*%
X98350000Y-89200000D03*
X101650000Y-89200000D03*
%TD*%
%TO.C,D9*%
X134350000Y-64900000D03*
X137650000Y-64900000D03*
%TD*%
D11*
%TO.C,S11*%
X150725000Y-67230000D03*
X162275000Y-69430000D03*
%TD*%
D17*
%TO.C,S20*%
X176232087Y-115327452D03*
X172446048Y-126458867D03*
%TD*%
D10*
%TO.C,D14*%
X170350000Y-84880000D03*
X173650000Y-84880000D03*
%TD*%
D18*
%TO.C,S22*%
X214110758Y-127911822D03*
X207403150Y-137568451D03*
%TD*%
M02*
