M48
; DRILL file KiCad 10.0.5 date 2026-09-02T17:36:25
; FORMAT={-:-/ absolute / metric / decimal}
; #@! TF.CreationDate,2026-09-02T17:36:25+09:00
; #@! TF.GenerationSoftware,Kicad,Pcbnew,10.0.5
; #@! TF.FileFunction,Plated,1,2,PTH
FMAT,2
METRIC
; #@! TA.AperFunction,Plated,PTH,ViaDrill
T1C0.300
; #@! TA.AperFunction,Plated,PTH,ComponentDrill
T2C0.750
; #@! TA.AperFunction,Plated,PTH,ComponentDrill
T3C0.800
; #@! TA.AperFunction,Plated,PTH,ComponentDrill
T4C1.600
%
G90
G05
T1
X116.146Y-53.279
X118.249Y-55.594
X132.067Y-89.815
X134.187Y-54.277
X135.339Y-65.137
X151.951Y-79.278
X153.897Y-112.122
X161.671Y-56.063
X164.953Y-114.616
X169.362Y-84.947
X169.376Y-67.123
X183.627Y-64.815
X184.13Y-114.799
X185.0Y-48.75
X188.901Y-103.218
X190.2Y-69.101
X200.149Y-67.78
X200.478Y-65.415
X203.8Y-52.54
X210.19Y-71.984
T2
X209.0Y-74.16
X211.0Y-74.16
T3
X209.006Y-65.678
X211.006Y-65.678
T4
X95.0Y-69.15
X95.0Y-87.15
X95.0Y-105.15
X113.0Y-69.15
X113.0Y-87.15
X113.0Y-105.15
X131.0Y-62.85
X131.0Y-80.85
X131.0Y-98.85
X145.25Y-111.38
X149.0Y-60.33
X149.0Y-78.33
X149.0Y-96.33
X165.48Y-112.074
X167.0Y-64.83
X167.0Y-82.83
X167.0Y-100.83
X185.0Y-66.81
X185.0Y-84.81
X185.0Y-102.81
X185.417Y-115.578
X204.672Y-121.821
M30
