%TF.GenerationSoftware,KiCad,Pcbnew,10.0.5*%
%TF.CreationDate,2026-09-02T17:36:25+09:00*%
%TF.ProjectId,first_left,66697273-745f-46c6-9566-742e6b696361,0.2.0*%
%TF.SameCoordinates,Original*%
%TF.FileFunction,Legend,Top*%
%TF.FilePolarity,Positive*%
%FSLAX46Y46*%
G04 Gerber Fmt 4.6, Leading zero omitted, Abs format (unit mm)*
G04 Created by KiCad (PCBNEW 10.0.5) date 2026-09-02 17:36:25*
%MOMM*%
%LPD*%
G01*
G04 APERTURE LIST*
G04 Aperture macros list*
%AMRoundRect*
0 Rectangle with rounded corners*
0 $1 Rounding radius*
0 $2 $3 $4 $5 $6 $7 $8 $9 X,Y pos of 4 corners*
0 Add a 4 corners polygon primitive as box body*
4,1,4,$2,$3,$4,$5,$6,$7,$8,$9,$2,$3,0*
0 Add four circle primitives for the rounded corners*
1,1,$1+$1,$2,$3*
1,1,$1+$1,$4,$5*
1,1,$1+$1,$6,$7*
1,1,$1+$1,$8,$9*
0 Add four rect primitives between the rounded corners*
20,1,$1+$1,$2,$3,$4,$5,0*
20,1,$1+$1,$4,$5,$6,$7,0*
20,1,$1+$1,$6,$7,$8,$9,0*
20,1,$1+$1,$8,$9,$2,$3,0*%
G04 Aperture macros list end*
%ADD10C,0.120000*%
%ADD11C,0.150000*%
%ADD12C,0.100000*%
%ADD13C,2.300000*%
%ADD14RoundRect,0.287500X-0.237500X-0.778500X0.237500X-0.778500X0.237500X0.778500X-0.237500X0.778500X0*%
%ADD15C,1.700000*%
%ADD16RoundRect,0.050000X0.400000X-0.500000X0.400000X0.500000X-0.400000X0.500000X-0.400000X-0.500000X0*%
%ADD17C,1.000000*%
%ADD18RoundRect,0.050000X0.750000X-0.350000X0.750000X0.350000X-0.750000X0.350000X-0.750000X-0.350000X0*%
%ADD19RoundRect,0.290000X-0.360000X-0.635000X0.360000X-0.635000X0.360000X0.635000X-0.360000X0.635000X0*%
%ADD20O,1.300000X1.850000*%
%ADD21C,2.000000*%
%ADD22C,3.100000*%
%ADD23C,5.100000*%
G04 APERTURE END LIST*
D10*
X198094624Y-52903855D02*
X198094624Y-52103855D01*
X198094624Y-52103855D02*
X198285100Y-52103855D01*
X198285100Y-52103855D02*
X198399386Y-52141950D01*
X198399386Y-52141950D02*
X198475576Y-52218140D01*
X198475576Y-52218140D02*
X198513671Y-52294331D01*
X198513671Y-52294331D02*
X198551767Y-52446712D01*
X198551767Y-52446712D02*
X198551767Y-52560998D01*
X198551767Y-52560998D02*
X198513671Y-52713379D01*
X198513671Y-52713379D02*
X198475576Y-52789569D01*
X198475576Y-52789569D02*
X198399386Y-52865760D01*
X198399386Y-52865760D02*
X198285100Y-52903855D01*
X198285100Y-52903855D02*
X198094624Y-52903855D01*
X199047005Y-52103855D02*
X199123195Y-52103855D01*
X199123195Y-52103855D02*
X199199386Y-52141950D01*
X199199386Y-52141950D02*
X199237481Y-52180045D01*
X199237481Y-52180045D02*
X199275576Y-52256236D01*
X199275576Y-52256236D02*
X199313671Y-52408617D01*
X199313671Y-52408617D02*
X199313671Y-52599093D01*
X199313671Y-52599093D02*
X199275576Y-52751474D01*
X199275576Y-52751474D02*
X199237481Y-52827664D01*
X199237481Y-52827664D02*
X199199386Y-52865760D01*
X199199386Y-52865760D02*
X199123195Y-52903855D01*
X199123195Y-52903855D02*
X199047005Y-52903855D01*
X199047005Y-52903855D02*
X198970814Y-52865760D01*
X198970814Y-52865760D02*
X198932719Y-52827664D01*
X198932719Y-52827664D02*
X198894624Y-52751474D01*
X198894624Y-52751474D02*
X198856528Y-52599093D01*
X198856528Y-52599093D02*
X198856528Y-52408617D01*
X198856528Y-52408617D02*
X198894624Y-52256236D01*
X198894624Y-52256236D02*
X198932719Y-52180045D01*
X198932719Y-52180045D02*
X198970814Y-52141950D01*
X198970814Y-52141950D02*
X199047005Y-52103855D01*
X198094624Y-55443855D02*
X198094624Y-54643855D01*
X198094624Y-54643855D02*
X198285100Y-54643855D01*
X198285100Y-54643855D02*
X198399386Y-54681950D01*
X198399386Y-54681950D02*
X198475576Y-54758140D01*
X198475576Y-54758140D02*
X198513671Y-54834331D01*
X198513671Y-54834331D02*
X198551767Y-54986712D01*
X198551767Y-54986712D02*
X198551767Y-55100998D01*
X198551767Y-55100998D02*
X198513671Y-55253379D01*
X198513671Y-55253379D02*
X198475576Y-55329569D01*
X198475576Y-55329569D02*
X198399386Y-55405760D01*
X198399386Y-55405760D02*
X198285100Y-55443855D01*
X198285100Y-55443855D02*
X198094624Y-55443855D01*
X199313671Y-55443855D02*
X198856528Y-55443855D01*
X199085100Y-55443855D02*
X199085100Y-54643855D01*
X199085100Y-54643855D02*
X199008909Y-54758140D01*
X199008909Y-54758140D02*
X198932719Y-54834331D01*
X198932719Y-54834331D02*
X198856528Y-54872426D01*
X198094624Y-57983855D02*
X198094624Y-57183855D01*
X198094624Y-57183855D02*
X198285100Y-57183855D01*
X198285100Y-57183855D02*
X198399386Y-57221950D01*
X198399386Y-57221950D02*
X198475576Y-57298140D01*
X198475576Y-57298140D02*
X198513671Y-57374331D01*
X198513671Y-57374331D02*
X198551767Y-57526712D01*
X198551767Y-57526712D02*
X198551767Y-57640998D01*
X198551767Y-57640998D02*
X198513671Y-57793379D01*
X198513671Y-57793379D02*
X198475576Y-57869569D01*
X198475576Y-57869569D02*
X198399386Y-57945760D01*
X198399386Y-57945760D02*
X198285100Y-57983855D01*
X198285100Y-57983855D02*
X198094624Y-57983855D01*
X198856528Y-57260045D02*
X198894624Y-57221950D01*
X198894624Y-57221950D02*
X198970814Y-57183855D01*
X198970814Y-57183855D02*
X199161290Y-57183855D01*
X199161290Y-57183855D02*
X199237481Y-57221950D01*
X199237481Y-57221950D02*
X199275576Y-57260045D01*
X199275576Y-57260045D02*
X199313671Y-57336236D01*
X199313671Y-57336236D02*
X199313671Y-57412426D01*
X199313671Y-57412426D02*
X199275576Y-57526712D01*
X199275576Y-57526712D02*
X198818433Y-57983855D01*
X198818433Y-57983855D02*
X199313671Y-57983855D01*
X198094624Y-60523855D02*
X198094624Y-59723855D01*
X198094624Y-59723855D02*
X198285100Y-59723855D01*
X198285100Y-59723855D02*
X198399386Y-59761950D01*
X198399386Y-59761950D02*
X198475576Y-59838140D01*
X198475576Y-59838140D02*
X198513671Y-59914331D01*
X198513671Y-59914331D02*
X198551767Y-60066712D01*
X198551767Y-60066712D02*
X198551767Y-60180998D01*
X198551767Y-60180998D02*
X198513671Y-60333379D01*
X198513671Y-60333379D02*
X198475576Y-60409569D01*
X198475576Y-60409569D02*
X198399386Y-60485760D01*
X198399386Y-60485760D02*
X198285100Y-60523855D01*
X198285100Y-60523855D02*
X198094624Y-60523855D01*
X198818433Y-59723855D02*
X199313671Y-59723855D01*
X199313671Y-59723855D02*
X199047005Y-60028617D01*
X199047005Y-60028617D02*
X199161290Y-60028617D01*
X199161290Y-60028617D02*
X199237481Y-60066712D01*
X199237481Y-60066712D02*
X199275576Y-60104807D01*
X199275576Y-60104807D02*
X199313671Y-60180998D01*
X199313671Y-60180998D02*
X199313671Y-60371474D01*
X199313671Y-60371474D02*
X199275576Y-60447664D01*
X199275576Y-60447664D02*
X199237481Y-60485760D01*
X199237481Y-60485760D02*
X199161290Y-60523855D01*
X199161290Y-60523855D02*
X198932719Y-60523855D01*
X198932719Y-60523855D02*
X198856528Y-60485760D01*
X198856528Y-60485760D02*
X198818433Y-60447664D01*
X198094624Y-63063855D02*
X198094624Y-62263855D01*
X198094624Y-62263855D02*
X198285100Y-62263855D01*
X198285100Y-62263855D02*
X198399386Y-62301950D01*
X198399386Y-62301950D02*
X198475576Y-62378140D01*
X198475576Y-62378140D02*
X198513671Y-62454331D01*
X198513671Y-62454331D02*
X198551767Y-62606712D01*
X198551767Y-62606712D02*
X198551767Y-62720998D01*
X198551767Y-62720998D02*
X198513671Y-62873379D01*
X198513671Y-62873379D02*
X198475576Y-62949569D01*
X198475576Y-62949569D02*
X198399386Y-63025760D01*
X198399386Y-63025760D02*
X198285100Y-63063855D01*
X198285100Y-63063855D02*
X198094624Y-63063855D01*
X199237481Y-62530521D02*
X199237481Y-63063855D01*
X199047005Y-62225760D02*
X198856528Y-62797188D01*
X198856528Y-62797188D02*
X199351767Y-62797188D01*
X198094624Y-65603855D02*
X198094624Y-64803855D01*
X198094624Y-64803855D02*
X198285100Y-64803855D01*
X198285100Y-64803855D02*
X198399386Y-64841950D01*
X198399386Y-64841950D02*
X198475576Y-64918140D01*
X198475576Y-64918140D02*
X198513671Y-64994331D01*
X198513671Y-64994331D02*
X198551767Y-65146712D01*
X198551767Y-65146712D02*
X198551767Y-65260998D01*
X198551767Y-65260998D02*
X198513671Y-65413379D01*
X198513671Y-65413379D02*
X198475576Y-65489569D01*
X198475576Y-65489569D02*
X198399386Y-65565760D01*
X198399386Y-65565760D02*
X198285100Y-65603855D01*
X198285100Y-65603855D02*
X198094624Y-65603855D01*
X199275576Y-64803855D02*
X198894624Y-64803855D01*
X198894624Y-64803855D02*
X198856528Y-65184807D01*
X198856528Y-65184807D02*
X198894624Y-65146712D01*
X198894624Y-65146712D02*
X198970814Y-65108617D01*
X198970814Y-65108617D02*
X199161290Y-65108617D01*
X199161290Y-65108617D02*
X199237481Y-65146712D01*
X199237481Y-65146712D02*
X199275576Y-65184807D01*
X199275576Y-65184807D02*
X199313671Y-65260998D01*
X199313671Y-65260998D02*
X199313671Y-65451474D01*
X199313671Y-65451474D02*
X199275576Y-65527664D01*
X199275576Y-65527664D02*
X199237481Y-65565760D01*
X199237481Y-65565760D02*
X199161290Y-65603855D01*
X199161290Y-65603855D02*
X198970814Y-65603855D01*
X198970814Y-65603855D02*
X198894624Y-65565760D01*
X198894624Y-65565760D02*
X198856528Y-65527664D01*
X198094624Y-68143855D02*
X198094624Y-67343855D01*
X198094624Y-67343855D02*
X198285100Y-67343855D01*
X198285100Y-67343855D02*
X198399386Y-67381950D01*
X198399386Y-67381950D02*
X198475576Y-67458140D01*
X198475576Y-67458140D02*
X198513671Y-67534331D01*
X198513671Y-67534331D02*
X198551767Y-67686712D01*
X198551767Y-67686712D02*
X198551767Y-67800998D01*
X198551767Y-67800998D02*
X198513671Y-67953379D01*
X198513671Y-67953379D02*
X198475576Y-68029569D01*
X198475576Y-68029569D02*
X198399386Y-68105760D01*
X198399386Y-68105760D02*
X198285100Y-68143855D01*
X198285100Y-68143855D02*
X198094624Y-68143855D01*
X199237481Y-67343855D02*
X199085100Y-67343855D01*
X199085100Y-67343855D02*
X199008909Y-67381950D01*
X199008909Y-67381950D02*
X198970814Y-67420045D01*
X198970814Y-67420045D02*
X198894624Y-67534331D01*
X198894624Y-67534331D02*
X198856528Y-67686712D01*
X198856528Y-67686712D02*
X198856528Y-67991474D01*
X198856528Y-67991474D02*
X198894624Y-68067664D01*
X198894624Y-68067664D02*
X198932719Y-68105760D01*
X198932719Y-68105760D02*
X199008909Y-68143855D01*
X199008909Y-68143855D02*
X199161290Y-68143855D01*
X199161290Y-68143855D02*
X199237481Y-68105760D01*
X199237481Y-68105760D02*
X199275576Y-68067664D01*
X199275576Y-68067664D02*
X199313671Y-67991474D01*
X199313671Y-67991474D02*
X199313671Y-67800998D01*
X199313671Y-67800998D02*
X199275576Y-67724807D01*
X199275576Y-67724807D02*
X199237481Y-67686712D01*
X199237481Y-67686712D02*
X199161290Y-67648617D01*
X199161290Y-67648617D02*
X199008909Y-67648617D01*
X199008909Y-67648617D02*
X198932719Y-67686712D01*
X198932719Y-67686712D02*
X198894624Y-67724807D01*
X198894624Y-67724807D02*
X198856528Y-67800998D01*
X207920285Y-67504807D02*
X208034571Y-67542902D01*
X208034571Y-67542902D02*
X208072666Y-67580998D01*
X208072666Y-67580998D02*
X208110762Y-67657188D01*
X208110762Y-67657188D02*
X208110762Y-67771474D01*
X208110762Y-67771474D02*
X208072666Y-67847664D01*
X208072666Y-67847664D02*
X208034571Y-67885760D01*
X208034571Y-67885760D02*
X207958381Y-67923855D01*
X207958381Y-67923855D02*
X207653619Y-67923855D01*
X207653619Y-67923855D02*
X207653619Y-67123855D01*
X207653619Y-67123855D02*
X207920285Y-67123855D01*
X207920285Y-67123855D02*
X207996476Y-67161950D01*
X207996476Y-67161950D02*
X208034571Y-67200045D01*
X208034571Y-67200045D02*
X208072666Y-67276236D01*
X208072666Y-67276236D02*
X208072666Y-67352426D01*
X208072666Y-67352426D02*
X208034571Y-67428617D01*
X208034571Y-67428617D02*
X207996476Y-67466712D01*
X207996476Y-67466712D02*
X207920285Y-67504807D01*
X207920285Y-67504807D02*
X207653619Y-67504807D01*
X208415523Y-67695283D02*
X208796476Y-67695283D01*
X208339333Y-67923855D02*
X208606000Y-67123855D01*
X208606000Y-67123855D02*
X208872666Y-67923855D01*
X209025047Y-67123855D02*
X209482190Y-67123855D01*
X209253618Y-67923855D02*
X209253618Y-67123855D01*
X209748857Y-67619093D02*
X210358381Y-67619093D01*
X210053619Y-67923855D02*
X210053619Y-67314331D01*
X208990476Y-50323855D02*
X208990476Y-50971474D01*
X208990476Y-50971474D02*
X209028571Y-51047664D01*
X209028571Y-51047664D02*
X209066666Y-51085760D01*
X209066666Y-51085760D02*
X209142857Y-51123855D01*
X209142857Y-51123855D02*
X209295238Y-51123855D01*
X209295238Y-51123855D02*
X209371428Y-51085760D01*
X209371428Y-51085760D02*
X209409523Y-51047664D01*
X209409523Y-51047664D02*
X209447619Y-50971474D01*
X209447619Y-50971474D02*
X209447619Y-50323855D01*
X209790475Y-51085760D02*
X209904761Y-51123855D01*
X209904761Y-51123855D02*
X210095237Y-51123855D01*
X210095237Y-51123855D02*
X210171428Y-51085760D01*
X210171428Y-51085760D02*
X210209523Y-51047664D01*
X210209523Y-51047664D02*
X210247618Y-50971474D01*
X210247618Y-50971474D02*
X210247618Y-50895283D01*
X210247618Y-50895283D02*
X210209523Y-50819093D01*
X210209523Y-50819093D02*
X210171428Y-50780998D01*
X210171428Y-50780998D02*
X210095237Y-50742902D01*
X210095237Y-50742902D02*
X209942856Y-50704807D01*
X209942856Y-50704807D02*
X209866666Y-50666712D01*
X209866666Y-50666712D02*
X209828571Y-50628617D01*
X209828571Y-50628617D02*
X209790475Y-50552426D01*
X209790475Y-50552426D02*
X209790475Y-50476236D01*
X209790475Y-50476236D02*
X209828571Y-50400045D01*
X209828571Y-50400045D02*
X209866666Y-50361950D01*
X209866666Y-50361950D02*
X209942856Y-50323855D01*
X209942856Y-50323855D02*
X210133333Y-50323855D01*
X210133333Y-50323855D02*
X210247618Y-50361950D01*
X210857142Y-50704807D02*
X210971428Y-50742902D01*
X210971428Y-50742902D02*
X211009523Y-50780998D01*
X211009523Y-50780998D02*
X211047619Y-50857188D01*
X211047619Y-50857188D02*
X211047619Y-50971474D01*
X211047619Y-50971474D02*
X211009523Y-51047664D01*
X211009523Y-51047664D02*
X210971428Y-51085760D01*
X210971428Y-51085760D02*
X210895238Y-51123855D01*
X210895238Y-51123855D02*
X210590476Y-51123855D01*
X210590476Y-51123855D02*
X210590476Y-50323855D01*
X210590476Y-50323855D02*
X210857142Y-50323855D01*
X210857142Y-50323855D02*
X210933333Y-50361950D01*
X210933333Y-50361950D02*
X210971428Y-50400045D01*
X210971428Y-50400045D02*
X211009523Y-50476236D01*
X211009523Y-50476236D02*
X211009523Y-50552426D01*
X211009523Y-50552426D02*
X210971428Y-50628617D01*
X210971428Y-50628617D02*
X210933333Y-50666712D01*
X210933333Y-50666712D02*
X210857142Y-50704807D01*
X210857142Y-50704807D02*
X210590476Y-50704807D01*
X220610137Y-52103855D02*
X220876804Y-52903855D01*
X220876804Y-52903855D02*
X221143470Y-52103855D01*
X221676803Y-52484807D02*
X221791089Y-52522902D01*
X221791089Y-52522902D02*
X221829184Y-52560998D01*
X221829184Y-52560998D02*
X221867280Y-52637188D01*
X221867280Y-52637188D02*
X221867280Y-52751474D01*
X221867280Y-52751474D02*
X221829184Y-52827664D01*
X221829184Y-52827664D02*
X221791089Y-52865760D01*
X221791089Y-52865760D02*
X221714899Y-52903855D01*
X221714899Y-52903855D02*
X221410137Y-52903855D01*
X221410137Y-52903855D02*
X221410137Y-52103855D01*
X221410137Y-52103855D02*
X221676803Y-52103855D01*
X221676803Y-52103855D02*
X221752994Y-52141950D01*
X221752994Y-52141950D02*
X221791089Y-52180045D01*
X221791089Y-52180045D02*
X221829184Y-52256236D01*
X221829184Y-52256236D02*
X221829184Y-52332426D01*
X221829184Y-52332426D02*
X221791089Y-52408617D01*
X221791089Y-52408617D02*
X221752994Y-52446712D01*
X221752994Y-52446712D02*
X221676803Y-52484807D01*
X221676803Y-52484807D02*
X221410137Y-52484807D01*
X222210137Y-52103855D02*
X222210137Y-52751474D01*
X222210137Y-52751474D02*
X222248232Y-52827664D01*
X222248232Y-52827664D02*
X222286327Y-52865760D01*
X222286327Y-52865760D02*
X222362518Y-52903855D01*
X222362518Y-52903855D02*
X222514899Y-52903855D01*
X222514899Y-52903855D02*
X222591089Y-52865760D01*
X222591089Y-52865760D02*
X222629184Y-52827664D01*
X222629184Y-52827664D02*
X222667280Y-52751474D01*
X222667280Y-52751474D02*
X222667280Y-52103855D01*
X223010136Y-52865760D02*
X223124422Y-52903855D01*
X223124422Y-52903855D02*
X223314898Y-52903855D01*
X223314898Y-52903855D02*
X223391089Y-52865760D01*
X223391089Y-52865760D02*
X223429184Y-52827664D01*
X223429184Y-52827664D02*
X223467279Y-52751474D01*
X223467279Y-52751474D02*
X223467279Y-52675283D01*
X223467279Y-52675283D02*
X223429184Y-52599093D01*
X223429184Y-52599093D02*
X223391089Y-52560998D01*
X223391089Y-52560998D02*
X223314898Y-52522902D01*
X223314898Y-52522902D02*
X223162517Y-52484807D01*
X223162517Y-52484807D02*
X223086327Y-52446712D01*
X223086327Y-52446712D02*
X223048232Y-52408617D01*
X223048232Y-52408617D02*
X223010136Y-52332426D01*
X223010136Y-52332426D02*
X223010136Y-52256236D01*
X223010136Y-52256236D02*
X223048232Y-52180045D01*
X223048232Y-52180045D02*
X223086327Y-52141950D01*
X223086327Y-52141950D02*
X223162517Y-52103855D01*
X223162517Y-52103855D02*
X223352994Y-52103855D01*
X223352994Y-52103855D02*
X223467279Y-52141950D01*
X221143470Y-54681950D02*
X221067280Y-54643855D01*
X221067280Y-54643855D02*
X220952994Y-54643855D01*
X220952994Y-54643855D02*
X220838708Y-54681950D01*
X220838708Y-54681950D02*
X220762518Y-54758140D01*
X220762518Y-54758140D02*
X220724423Y-54834331D01*
X220724423Y-54834331D02*
X220686327Y-54986712D01*
X220686327Y-54986712D02*
X220686327Y-55100998D01*
X220686327Y-55100998D02*
X220724423Y-55253379D01*
X220724423Y-55253379D02*
X220762518Y-55329569D01*
X220762518Y-55329569D02*
X220838708Y-55405760D01*
X220838708Y-55405760D02*
X220952994Y-55443855D01*
X220952994Y-55443855D02*
X221029185Y-55443855D01*
X221029185Y-55443855D02*
X221143470Y-55405760D01*
X221143470Y-55405760D02*
X221181566Y-55367664D01*
X221181566Y-55367664D02*
X221181566Y-55100998D01*
X221181566Y-55100998D02*
X221029185Y-55100998D01*
X221524423Y-55443855D02*
X221524423Y-54643855D01*
X221524423Y-54643855D02*
X221981566Y-55443855D01*
X221981566Y-55443855D02*
X221981566Y-54643855D01*
X222362518Y-55443855D02*
X222362518Y-54643855D01*
X222362518Y-54643855D02*
X222552994Y-54643855D01*
X222552994Y-54643855D02*
X222667280Y-54681950D01*
X222667280Y-54681950D02*
X222743470Y-54758140D01*
X222743470Y-54758140D02*
X222781565Y-54834331D01*
X222781565Y-54834331D02*
X222819661Y-54986712D01*
X222819661Y-54986712D02*
X222819661Y-55100998D01*
X222819661Y-55100998D02*
X222781565Y-55253379D01*
X222781565Y-55253379D02*
X222743470Y-55329569D01*
X222743470Y-55329569D02*
X222667280Y-55405760D01*
X222667280Y-55405760D02*
X222552994Y-55443855D01*
X222552994Y-55443855D02*
X222362518Y-55443855D01*
X220648232Y-57183855D02*
X221143470Y-57183855D01*
X221143470Y-57183855D02*
X220876804Y-57488617D01*
X220876804Y-57488617D02*
X220991089Y-57488617D01*
X220991089Y-57488617D02*
X221067280Y-57526712D01*
X221067280Y-57526712D02*
X221105375Y-57564807D01*
X221105375Y-57564807D02*
X221143470Y-57640998D01*
X221143470Y-57640998D02*
X221143470Y-57831474D01*
X221143470Y-57831474D02*
X221105375Y-57907664D01*
X221105375Y-57907664D02*
X221067280Y-57945760D01*
X221067280Y-57945760D02*
X220991089Y-57983855D01*
X220991089Y-57983855D02*
X220762518Y-57983855D01*
X220762518Y-57983855D02*
X220686327Y-57945760D01*
X220686327Y-57945760D02*
X220648232Y-57907664D01*
X221372042Y-57183855D02*
X221638709Y-57983855D01*
X221638709Y-57983855D02*
X221905375Y-57183855D01*
X222095851Y-57183855D02*
X222591089Y-57183855D01*
X222591089Y-57183855D02*
X222324423Y-57488617D01*
X222324423Y-57488617D02*
X222438708Y-57488617D01*
X222438708Y-57488617D02*
X222514899Y-57526712D01*
X222514899Y-57526712D02*
X222552994Y-57564807D01*
X222552994Y-57564807D02*
X222591089Y-57640998D01*
X222591089Y-57640998D02*
X222591089Y-57831474D01*
X222591089Y-57831474D02*
X222552994Y-57907664D01*
X222552994Y-57907664D02*
X222514899Y-57945760D01*
X222514899Y-57945760D02*
X222438708Y-57983855D01*
X222438708Y-57983855D02*
X222210137Y-57983855D01*
X222210137Y-57983855D02*
X222133946Y-57945760D01*
X222133946Y-57945760D02*
X222095851Y-57907664D01*
X220724423Y-60523855D02*
X220724423Y-59723855D01*
X220724423Y-59723855D02*
X220914899Y-59723855D01*
X220914899Y-59723855D02*
X221029185Y-59761950D01*
X221029185Y-59761950D02*
X221105375Y-59838140D01*
X221105375Y-59838140D02*
X221143470Y-59914331D01*
X221143470Y-59914331D02*
X221181566Y-60066712D01*
X221181566Y-60066712D02*
X221181566Y-60180998D01*
X221181566Y-60180998D02*
X221143470Y-60333379D01*
X221143470Y-60333379D02*
X221105375Y-60409569D01*
X221105375Y-60409569D02*
X221029185Y-60485760D01*
X221029185Y-60485760D02*
X220914899Y-60523855D01*
X220914899Y-60523855D02*
X220724423Y-60523855D01*
X221943470Y-60523855D02*
X221486327Y-60523855D01*
X221714899Y-60523855D02*
X221714899Y-59723855D01*
X221714899Y-59723855D02*
X221638708Y-59838140D01*
X221638708Y-59838140D02*
X221562518Y-59914331D01*
X221562518Y-59914331D02*
X221486327Y-59952426D01*
X222438709Y-59723855D02*
X222514899Y-59723855D01*
X222514899Y-59723855D02*
X222591090Y-59761950D01*
X222591090Y-59761950D02*
X222629185Y-59800045D01*
X222629185Y-59800045D02*
X222667280Y-59876236D01*
X222667280Y-59876236D02*
X222705375Y-60028617D01*
X222705375Y-60028617D02*
X222705375Y-60219093D01*
X222705375Y-60219093D02*
X222667280Y-60371474D01*
X222667280Y-60371474D02*
X222629185Y-60447664D01*
X222629185Y-60447664D02*
X222591090Y-60485760D01*
X222591090Y-60485760D02*
X222514899Y-60523855D01*
X222514899Y-60523855D02*
X222438709Y-60523855D01*
X222438709Y-60523855D02*
X222362518Y-60485760D01*
X222362518Y-60485760D02*
X222324423Y-60447664D01*
X222324423Y-60447664D02*
X222286328Y-60371474D01*
X222286328Y-60371474D02*
X222248232Y-60219093D01*
X222248232Y-60219093D02*
X222248232Y-60028617D01*
X222248232Y-60028617D02*
X222286328Y-59876236D01*
X222286328Y-59876236D02*
X222324423Y-59800045D01*
X222324423Y-59800045D02*
X222362518Y-59761950D01*
X222362518Y-59761950D02*
X222438709Y-59723855D01*
X220724423Y-63063855D02*
X220724423Y-62263855D01*
X220724423Y-62263855D02*
X220914899Y-62263855D01*
X220914899Y-62263855D02*
X221029185Y-62301950D01*
X221029185Y-62301950D02*
X221105375Y-62378140D01*
X221105375Y-62378140D02*
X221143470Y-62454331D01*
X221143470Y-62454331D02*
X221181566Y-62606712D01*
X221181566Y-62606712D02*
X221181566Y-62720998D01*
X221181566Y-62720998D02*
X221143470Y-62873379D01*
X221143470Y-62873379D02*
X221105375Y-62949569D01*
X221105375Y-62949569D02*
X221029185Y-63025760D01*
X221029185Y-63025760D02*
X220914899Y-63063855D01*
X220914899Y-63063855D02*
X220724423Y-63063855D01*
X221562518Y-63063855D02*
X221714899Y-63063855D01*
X221714899Y-63063855D02*
X221791089Y-63025760D01*
X221791089Y-63025760D02*
X221829185Y-62987664D01*
X221829185Y-62987664D02*
X221905375Y-62873379D01*
X221905375Y-62873379D02*
X221943470Y-62720998D01*
X221943470Y-62720998D02*
X221943470Y-62416236D01*
X221943470Y-62416236D02*
X221905375Y-62340045D01*
X221905375Y-62340045D02*
X221867280Y-62301950D01*
X221867280Y-62301950D02*
X221791089Y-62263855D01*
X221791089Y-62263855D02*
X221638708Y-62263855D01*
X221638708Y-62263855D02*
X221562518Y-62301950D01*
X221562518Y-62301950D02*
X221524423Y-62340045D01*
X221524423Y-62340045D02*
X221486327Y-62416236D01*
X221486327Y-62416236D02*
X221486327Y-62606712D01*
X221486327Y-62606712D02*
X221524423Y-62682902D01*
X221524423Y-62682902D02*
X221562518Y-62720998D01*
X221562518Y-62720998D02*
X221638708Y-62759093D01*
X221638708Y-62759093D02*
X221791089Y-62759093D01*
X221791089Y-62759093D02*
X221867280Y-62720998D01*
X221867280Y-62720998D02*
X221905375Y-62682902D01*
X221905375Y-62682902D02*
X221943470Y-62606712D01*
X220724423Y-65603855D02*
X220724423Y-64803855D01*
X220724423Y-64803855D02*
X220914899Y-64803855D01*
X220914899Y-64803855D02*
X221029185Y-64841950D01*
X221029185Y-64841950D02*
X221105375Y-64918140D01*
X221105375Y-64918140D02*
X221143470Y-64994331D01*
X221143470Y-64994331D02*
X221181566Y-65146712D01*
X221181566Y-65146712D02*
X221181566Y-65260998D01*
X221181566Y-65260998D02*
X221143470Y-65413379D01*
X221143470Y-65413379D02*
X221105375Y-65489569D01*
X221105375Y-65489569D02*
X221029185Y-65565760D01*
X221029185Y-65565760D02*
X220914899Y-65603855D01*
X220914899Y-65603855D02*
X220724423Y-65603855D01*
X221638708Y-65146712D02*
X221562518Y-65108617D01*
X221562518Y-65108617D02*
X221524423Y-65070521D01*
X221524423Y-65070521D02*
X221486327Y-64994331D01*
X221486327Y-64994331D02*
X221486327Y-64956236D01*
X221486327Y-64956236D02*
X221524423Y-64880045D01*
X221524423Y-64880045D02*
X221562518Y-64841950D01*
X221562518Y-64841950D02*
X221638708Y-64803855D01*
X221638708Y-64803855D02*
X221791089Y-64803855D01*
X221791089Y-64803855D02*
X221867280Y-64841950D01*
X221867280Y-64841950D02*
X221905375Y-64880045D01*
X221905375Y-64880045D02*
X221943470Y-64956236D01*
X221943470Y-64956236D02*
X221943470Y-64994331D01*
X221943470Y-64994331D02*
X221905375Y-65070521D01*
X221905375Y-65070521D02*
X221867280Y-65108617D01*
X221867280Y-65108617D02*
X221791089Y-65146712D01*
X221791089Y-65146712D02*
X221638708Y-65146712D01*
X221638708Y-65146712D02*
X221562518Y-65184807D01*
X221562518Y-65184807D02*
X221524423Y-65222902D01*
X221524423Y-65222902D02*
X221486327Y-65299093D01*
X221486327Y-65299093D02*
X221486327Y-65451474D01*
X221486327Y-65451474D02*
X221524423Y-65527664D01*
X221524423Y-65527664D02*
X221562518Y-65565760D01*
X221562518Y-65565760D02*
X221638708Y-65603855D01*
X221638708Y-65603855D02*
X221791089Y-65603855D01*
X221791089Y-65603855D02*
X221867280Y-65565760D01*
X221867280Y-65565760D02*
X221905375Y-65527664D01*
X221905375Y-65527664D02*
X221943470Y-65451474D01*
X221943470Y-65451474D02*
X221943470Y-65299093D01*
X221943470Y-65299093D02*
X221905375Y-65222902D01*
X221905375Y-65222902D02*
X221867280Y-65184807D01*
X221867280Y-65184807D02*
X221791089Y-65146712D01*
X220724423Y-68143855D02*
X220724423Y-67343855D01*
X220724423Y-67343855D02*
X220914899Y-67343855D01*
X220914899Y-67343855D02*
X221029185Y-67381950D01*
X221029185Y-67381950D02*
X221105375Y-67458140D01*
X221105375Y-67458140D02*
X221143470Y-67534331D01*
X221143470Y-67534331D02*
X221181566Y-67686712D01*
X221181566Y-67686712D02*
X221181566Y-67800998D01*
X221181566Y-67800998D02*
X221143470Y-67953379D01*
X221143470Y-67953379D02*
X221105375Y-68029569D01*
X221105375Y-68029569D02*
X221029185Y-68105760D01*
X221029185Y-68105760D02*
X220914899Y-68143855D01*
X220914899Y-68143855D02*
X220724423Y-68143855D01*
X221448232Y-67343855D02*
X221981566Y-67343855D01*
X221981566Y-67343855D02*
X221638708Y-68143855D01*
D11*
X218947619Y-77614819D02*
X219138095Y-77614819D01*
X219138095Y-77614819D02*
X219233333Y-77662438D01*
X219233333Y-77662438D02*
X219328571Y-77757676D01*
X219328571Y-77757676D02*
X219376190Y-77948152D01*
X219376190Y-77948152D02*
X219376190Y-78281485D01*
X219376190Y-78281485D02*
X219328571Y-78471961D01*
X219328571Y-78471961D02*
X219233333Y-78567200D01*
X219233333Y-78567200D02*
X219138095Y-78614819D01*
X219138095Y-78614819D02*
X218947619Y-78614819D01*
X218947619Y-78614819D02*
X218852381Y-78567200D01*
X218852381Y-78567200D02*
X218757143Y-78471961D01*
X218757143Y-78471961D02*
X218709524Y-78281485D01*
X218709524Y-78281485D02*
X218709524Y-77948152D01*
X218709524Y-77948152D02*
X218757143Y-77757676D01*
X218757143Y-77757676D02*
X218852381Y-77662438D01*
X218852381Y-77662438D02*
X218947619Y-77614819D01*
X220138095Y-78091009D02*
X219804762Y-78091009D01*
X219804762Y-78614819D02*
X219804762Y-77614819D01*
X219804762Y-77614819D02*
X220280952Y-77614819D01*
X220995238Y-78091009D02*
X220661905Y-78091009D01*
X220661905Y-78614819D02*
X220661905Y-77614819D01*
X220661905Y-77614819D02*
X221138095Y-77614819D01*
X219280952Y-87614819D02*
X219471428Y-87614819D01*
X219471428Y-87614819D02*
X219566666Y-87662438D01*
X219566666Y-87662438D02*
X219661904Y-87757676D01*
X219661904Y-87757676D02*
X219709523Y-87948152D01*
X219709523Y-87948152D02*
X219709523Y-88281485D01*
X219709523Y-88281485D02*
X219661904Y-88471961D01*
X219661904Y-88471961D02*
X219566666Y-88567200D01*
X219566666Y-88567200D02*
X219471428Y-88614819D01*
X219471428Y-88614819D02*
X219280952Y-88614819D01*
X219280952Y-88614819D02*
X219185714Y-88567200D01*
X219185714Y-88567200D02*
X219090476Y-88471961D01*
X219090476Y-88471961D02*
X219042857Y-88281485D01*
X219042857Y-88281485D02*
X219042857Y-87948152D01*
X219042857Y-87948152D02*
X219090476Y-87757676D01*
X219090476Y-87757676D02*
X219185714Y-87662438D01*
X219185714Y-87662438D02*
X219280952Y-87614819D01*
X220138095Y-88614819D02*
X220138095Y-87614819D01*
X220138095Y-87614819D02*
X220709523Y-88614819D01*
X220709523Y-88614819D02*
X220709523Y-87614819D01*
%TO.C,MCU1*%
D10*
X201110000Y-49660000D02*
X201110000Y-70660000D01*
X201110000Y-49660000D02*
X218890000Y-49660000D01*
X201110000Y-70660000D02*
X218890000Y-70660000D01*
X218890000Y-49660000D02*
X218890000Y-70660000D01*
%TO.C,PWR1*%
X218475000Y-81760000D02*
X218475000Y-81560000D01*
X218475000Y-84760000D02*
X218475000Y-83060000D01*
X219525000Y-86610000D02*
X220315000Y-86610000D01*
X220315000Y-79710000D02*
X219525000Y-79710000D01*
X221325000Y-86010000D02*
X221325000Y-80310000D01*
%TO.C,JST1*%
X206940000Y-72700000D02*
X206940000Y-73700000D01*
X206940000Y-80520000D02*
X206940000Y-79520000D01*
X207860000Y-80520000D02*
X206940000Y-80520000D01*
X207940000Y-72700000D02*
X206940000Y-72700000D01*
D12*
X208500000Y-81560000D02*
X209500000Y-81560000D01*
X211000000Y-81060000D02*
X211000000Y-82060000D01*
X211500000Y-81560000D02*
X210500000Y-81560000D01*
D10*
X212140000Y-72700000D02*
X213060000Y-72700000D01*
X212140000Y-80520000D02*
X213060000Y-80520000D01*
X213060000Y-72700000D02*
X213060000Y-73700000D01*
X213060000Y-80520000D02*
X213060000Y-79520000D01*
%TD*%
%LPC*%
D13*
%TO.C,MH1*%
X109000000Y-73000000D03*
%TD*%
%TO.C,MH4*%
X190000000Y-110620000D03*
%TD*%
D14*
%TO.C,MCU1*%
X201745000Y-52540000D03*
X201745000Y-55080000D03*
X201745000Y-57620000D03*
X201745000Y-60160000D03*
X201745000Y-62700000D03*
X201745000Y-65240000D03*
X201745000Y-67780000D03*
X218255000Y-52540000D03*
X218255000Y-55080000D03*
X218255000Y-57620000D03*
X218255000Y-60160000D03*
X218255000Y-62700000D03*
X218255000Y-65240000D03*
X218255000Y-67780000D03*
D15*
X209006000Y-65678000D03*
X211006000Y-65678000D03*
%TD*%
D16*
%TO.C,PWR1*%
X218815000Y-79510000D03*
X218815000Y-86810000D03*
D17*
X219925000Y-81660000D03*
X219925000Y-84660000D03*
D16*
X221025000Y-79510000D03*
X221025000Y-86810000D03*
D18*
X218165000Y-85410000D03*
X218165000Y-82410000D03*
X218165000Y-80910000D03*
%TD*%
D13*
%TO.C,MH3*%
X154000000Y-104140000D03*
%TD*%
%TO.C,MH2*%
X109000000Y-91000000D03*
%TD*%
D19*
%TO.C,JST1*%
X209000000Y-74160000D03*
D20*
X211000000Y-74160000D03*
%TD*%
D21*
%TO.C,S8*%
X130500000Y-75700000D03*
X131000000Y-80850000D03*
D22*
X136000000Y-69750000D03*
D23*
X136000000Y-75700000D03*
D22*
X141000000Y-71950000D03*
D21*
X141500000Y-75700000D03*
%TD*%
%TO.C,S17*%
X184500000Y-79660000D03*
X185000000Y-84810000D03*
D22*
X190000000Y-73710000D03*
D23*
X190000000Y-79660000D03*
D22*
X195000000Y-75910000D03*
D21*
X195500000Y-79660000D03*
%TD*%
%TO.C,S19*%
X150400000Y-110880000D03*
X145250000Y-111380000D03*
D22*
X156350000Y-116380000D03*
D23*
X150400000Y-116380000D03*
D22*
X154150000Y-121380000D03*
D21*
X150400000Y-121880000D03*
%TD*%
%TO.C,S2*%
X94500000Y-82000000D03*
X95000000Y-87150000D03*
D22*
X100000000Y-76050000D03*
D23*
X100000000Y-82000000D03*
D22*
X105000000Y-78250000D03*
D21*
X105500000Y-82000000D03*
%TD*%
%TO.C,S21*%
X190505205Y-116516461D03*
X185416889Y-115577559D03*
D22*
X194708707Y-123443442D03*
D23*
X188989200Y-121803400D03*
D22*
X191215746Y-127643349D03*
D21*
X187473195Y-127090339D03*
%TD*%
%TO.C,S15*%
X166500000Y-59680000D03*
X167000000Y-64830000D03*
D22*
X172000000Y-53730000D03*
D23*
X172000000Y-59680000D03*
D22*
X177000000Y-55930000D03*
D21*
X177500000Y-59680000D03*
%TD*%
%TO.C,S6*%
X112500000Y-64000000D03*
X113000000Y-69150000D03*
D22*
X118000000Y-58050000D03*
D23*
X118000000Y-64000000D03*
D22*
X123000000Y-60250000D03*
D21*
X123500000Y-64000000D03*
%TD*%
%TO.C,S16*%
X184500000Y-97660000D03*
X185000000Y-102810000D03*
D22*
X190000000Y-91710000D03*
D23*
X190000000Y-97660000D03*
D22*
X195000000Y-93910000D03*
D21*
X195500000Y-97660000D03*
%TD*%
%TO.C,S13*%
X166500000Y-95680000D03*
X167000000Y-100830000D03*
D22*
X172000000Y-89730000D03*
D23*
X172000000Y-95680000D03*
D22*
X177000000Y-91930000D03*
D21*
X177500000Y-95680000D03*
%TD*%
%TO.C,S4*%
X112500000Y-100000000D03*
X113000000Y-105150000D03*
D22*
X118000000Y-94050000D03*
D23*
X118000000Y-100000000D03*
D22*
X123000000Y-96250000D03*
D21*
X123500000Y-100000000D03*
%TD*%
%TO.C,S1*%
X94500000Y-100000000D03*
X95000000Y-105150000D03*
D22*
X100000000Y-94050000D03*
D23*
X100000000Y-100000000D03*
D22*
X105000000Y-96250000D03*
D21*
X105500000Y-100000000D03*
%TD*%
%TO.C,S7*%
X130500000Y-93700000D03*
X131000000Y-98850000D03*
D22*
X136000000Y-87750000D03*
D23*
X136000000Y-93700000D03*
D22*
X141000000Y-89950000D03*
D21*
X141500000Y-93700000D03*
%TD*%
%TO.C,S18*%
X184500000Y-61660000D03*
X185000000Y-66810000D03*
D22*
X190000000Y-55710000D03*
D23*
X190000000Y-61660000D03*
D22*
X195000000Y-57910000D03*
D21*
X195500000Y-61660000D03*
%TD*%
%TO.C,S5*%
X112500000Y-82000000D03*
X113000000Y-87150000D03*
D22*
X118000000Y-76050000D03*
D23*
X118000000Y-82000000D03*
D22*
X123000000Y-78250000D03*
D21*
X123500000Y-82000000D03*
%TD*%
%TO.C,S9*%
X130500000Y-57700000D03*
X131000000Y-62850000D03*
D22*
X136000000Y-51750000D03*
D23*
X136000000Y-57700000D03*
D22*
X141000000Y-53950000D03*
D21*
X141500000Y-57700000D03*
%TD*%
%TO.C,S14*%
X166500000Y-77680000D03*
X167000000Y-82830000D03*
D22*
X172000000Y-71730000D03*
D23*
X172000000Y-77680000D03*
D22*
X177000000Y-73930000D03*
D21*
X177500000Y-77680000D03*
%TD*%
%TO.C,S3*%
X94500000Y-64000000D03*
X95000000Y-69150000D03*
D22*
X100000000Y-58050000D03*
D23*
X100000000Y-64000000D03*
D22*
X105000000Y-60250000D03*
D21*
X105500000Y-64000000D03*
%TD*%
%TO.C,S12*%
X148500000Y-55180000D03*
X149000000Y-60330000D03*
D22*
X154000000Y-49230000D03*
D23*
X154000000Y-55180000D03*
D22*
X159000000Y-51430000D03*
D21*
X159500000Y-55180000D03*
%TD*%
%TO.C,S10*%
X148500000Y-91180000D03*
X149000000Y-96330000D03*
D22*
X154000000Y-85230000D03*
D23*
X154000000Y-91180000D03*
D22*
X159000000Y-87430000D03*
D21*
X159500000Y-91180000D03*
%TD*%
%TO.C,S11*%
X148500000Y-73180000D03*
X149000000Y-78330000D03*
D22*
X154000000Y-67230000D03*
D23*
X154000000Y-73180000D03*
D22*
X159000000Y-69430000D03*
D21*
X159500000Y-73180000D03*
%TD*%
%TO.C,S20*%
X170649652Y-112296026D03*
X165480185Y-112074418D03*
D22*
X175776295Y-118570580D03*
D23*
X169884200Y-117742500D03*
D22*
X172901840Y-123215738D03*
D21*
X169118748Y-123188974D03*
%TD*%
%TO.C,S22*%
X209580152Y-123459100D03*
X204672024Y-121821179D03*
D22*
X212778695Y-130903683D03*
D23*
X207343100Y-128483600D03*
D22*
X208735212Y-134576590D03*
D21*
X205106048Y-133508100D03*
%TD*%
%LPD*%
M02*
