%TF.GenerationSoftware,KiCad,Pcbnew,10.0.5*%
%TF.CreationDate,2026-09-02T17:36:25+09:00*%
%TF.ProjectId,first_left,66697273-745f-46c6-9566-742e6b696361,0.2.0*%
%TF.SameCoordinates,Original*%
%TF.FileFunction,Copper,L1,Top*%
%TF.FilePolarity,Positive*%
%FSLAX46Y46*%
G04 Gerber Fmt 4.6, Leading zero omitted, Abs format (unit mm)*
G04 Created by KiCad (PCBNEW 10.0.5) date 2026-09-02 17:36:25*
%MOMM*%
%LPD*%
G01*
G04 APERTURE LIST*
G04 Aperture macros list*
%AMRoundRect*
0 Rectangle with rounded corners*
0 $1 Rounding radius*
0 $2 $3 $4 $5 $6 $7 $8 $9 X,Y pos of 4 corners*
0 Add a 4 corners polygon primitive as box body*
4,1,4,$2,$3,$4,$5,$6,$7,$8,$9,$2,$3,0*
0 Add four circle primitives for the rounded corners*
1,1,$1+$1,$2,$3*
1,1,$1+$1,$4,$5*
1,1,$1+$1,$6,$7*
1,1,$1+$1,$8,$9*
0 Add four rect primitives between the rounded corners*
20,1,$1+$1,$2,$3,$4,$5,0*
20,1,$1+$1,$4,$5,$6,$7,0*
20,1,$1+$1,$6,$7,$8,$9,0*
20,1,$1+$1,$8,$9,$2,$3,0*%
G04 Aperture macros list end*
%TA.AperFunction,SMDPad,CuDef*%
%ADD10RoundRect,0.237500X-0.237500X-0.778500X0.237500X-0.778500X0.237500X0.778500X-0.237500X0.778500X0*%
%TD*%
%TA.AperFunction,ComponentPad*%
%ADD11C,1.600000*%
%TD*%
%TA.AperFunction,SMDPad,CuDef*%
%ADD12R,0.800000X1.000000*%
%TD*%
%TA.AperFunction,SMDPad,CuDef*%
%ADD13R,1.500000X0.700000*%
%TD*%
%TA.AperFunction,ComponentPad*%
%ADD14RoundRect,0.240000X-0.360000X-0.635000X0.360000X-0.635000X0.360000X0.635000X-0.360000X0.635000X0*%
%TD*%
%TA.AperFunction,ComponentPad*%
%ADD15O,1.200000X1.750000*%
%TD*%
%TA.AperFunction,ComponentPad*%
%ADD16C,1.900000*%
%TD*%
%TA.AperFunction,ViaPad*%
%ADD17C,0.600000*%
%TD*%
%TA.AperFunction,Conductor*%
%ADD18C,0.200000*%
%TD*%
G04 APERTURE END LIST*
D10*
%TO.P,MCU1,1*%
%TO.N,D0*%
X201745000Y-52540000D03*
%TO.P,MCU1,2*%
%TO.N,D1*%
X201745000Y-55080000D03*
%TO.P,MCU1,3*%
%TO.N,D2*%
X201745000Y-57620000D03*
%TO.P,MCU1,4*%
%TO.N,D3*%
X201745000Y-60160000D03*
%TO.P,MCU1,5*%
%TO.N,D4*%
X201745000Y-62700000D03*
%TO.P,MCU1,6*%
%TO.N,D5*%
X201745000Y-65240000D03*
%TO.P,MCU1,7*%
%TO.N,D6*%
X201745000Y-67780000D03*
%TO.P,MCU1,8*%
%TO.N,VBUS*%
X218255000Y-52540000D03*
%TO.P,MCU1,9*%
%TO.N,GND*%
X218255000Y-55080000D03*
%TO.P,MCU1,10*%
%TO.N,3V3*%
X218255000Y-57620000D03*
%TO.P,MCU1,11*%
%TO.N,D10*%
X218255000Y-60160000D03*
%TO.P,MCU1,12*%
%TO.N,D9*%
X218255000Y-62700000D03*
%TO.P,MCU1,13*%
%TO.N,D8*%
X218255000Y-65240000D03*
%TO.P,MCU1,14*%
%TO.N,D7*%
X218255000Y-67780000D03*
D11*
%TO.P,MCU1,28*%
%TO.N,VBAT*%
X209006000Y-65678000D03*
%TO.P,MCU1,29*%
%TO.N,GND*%
X211006000Y-65678000D03*
%TD*%
D12*
%TO.P,PWR1,*%
%TO.N,*%
X218815000Y-79510000D03*
X218815000Y-86810000D03*
X221025000Y-79510000D03*
X221025000Y-86810000D03*
D13*
%TO.P,PWR1,1*%
%TO.N,BAT_P*%
X218165000Y-85410000D03*
%TO.P,PWR1,2*%
%TO.N,VBAT*%
X218165000Y-82410000D03*
%TO.P,PWR1,3*%
%TO.N,N/C*%
X218165000Y-80910000D03*
%TD*%
D14*
%TO.P,JST1,1*%
%TO.N,GND*%
X209000000Y-74160000D03*
D15*
%TO.P,JST1,2*%
%TO.N,BAT_P*%
X211000000Y-74160000D03*
%TD*%
D16*
%TO.P,S8,*%
%TO.N,*%
X131000000Y-80850000D03*
%TD*%
%TO.P,S17,*%
%TO.N,*%
X185000000Y-84810000D03*
%TD*%
%TO.P,S19,*%
%TO.N,*%
X145250000Y-111380000D03*
%TD*%
%TO.P,S2,*%
%TO.N,*%
X95000000Y-87150000D03*
%TD*%
%TO.P,S21,*%
%TO.N,*%
X185416889Y-115577559D03*
%TD*%
%TO.P,S15,*%
%TO.N,*%
X167000000Y-64830000D03*
%TD*%
%TO.P,S6,*%
%TO.N,*%
X113000000Y-69150000D03*
%TD*%
%TO.P,S16,*%
%TO.N,*%
X185000000Y-102810000D03*
%TD*%
%TO.P,S13,*%
%TO.N,*%
X167000000Y-100830000D03*
%TD*%
%TO.P,S4,*%
%TO.N,*%
X113000000Y-105150000D03*
%TD*%
%TO.P,S1,*%
%TO.N,*%
X95000000Y-105150000D03*
%TD*%
%TO.P,S7,*%
%TO.N,*%
X131000000Y-98850000D03*
%TD*%
%TO.P,S18,*%
%TO.N,*%
X185000000Y-66810000D03*
%TD*%
%TO.P,S5,*%
%TO.N,*%
X113000000Y-87150000D03*
%TD*%
%TO.P,S9,*%
%TO.N,*%
X131000000Y-62850000D03*
%TD*%
%TO.P,S14,*%
%TO.N,*%
X167000000Y-82830000D03*
%TD*%
%TO.P,S3,*%
%TO.N,*%
X95000000Y-69150000D03*
%TD*%
%TO.P,S12,*%
%TO.N,*%
X149000000Y-60330000D03*
%TD*%
%TO.P,S10,*%
%TO.N,*%
X149000000Y-96330000D03*
%TD*%
%TO.P,S11,*%
%TO.N,*%
X149000000Y-78330000D03*
%TD*%
%TO.P,S20,*%
%TO.N,*%
X165480185Y-112074418D03*
%TD*%
%TO.P,S22,*%
%TO.N,*%
X204672024Y-121821179D03*
%TD*%
D17*
%TO.N,D0*%
X185000000Y-48750000D03*
X116146100Y-53279500D03*
X203800000Y-52540000D03*
%TO.N,D1*%
X118249000Y-55594500D03*
%TO.N,D2*%
X134187200Y-54276800D03*
X132067300Y-89814600D03*
X153896800Y-112122500D03*
%TO.N,D3*%
X161670700Y-56063400D03*
%TO.N,D4*%
X183626600Y-64814700D03*
%TO.N,D5*%
X200478000Y-65414900D03*
%TO.N,D6*%
X184129700Y-114799500D03*
X164953200Y-114616100D03*
X200149100Y-67780000D03*
%TO.N,D9*%
X190199800Y-69100700D03*
X169376500Y-67123400D03*
X135339100Y-65137400D03*
%TO.N,D8*%
X151950600Y-79277600D03*
X169362500Y-84947000D03*
%TO.N,D7*%
X188900900Y-103218300D03*
%TO.N,VBAT*%
X210190500Y-71983700D03*
%TD*%
%TO.N,D0*%
D18*
X183500000Y-48976000D02*
X185000000Y-48750000D01*
X122256800Y-47168800D02*
X116146100Y-53279500D01*
X157651000Y-48976000D02*
X155843700Y-47168800D01*
X203800000Y-52540000D02*
X201745000Y-52540000D01*
X157651000Y-48976000D02*
X183500000Y-48976000D01*
X155843700Y-47168800D02*
X122256800Y-47168800D01*
%TO.N,D1*%
X120181700Y-53661800D02*
X118249000Y-55594500D01*
X137425200Y-53838400D02*
X135040500Y-53838400D01*
X135040500Y-53838400D02*
X134863900Y-53661800D01*
X139981900Y-51281700D02*
X137425200Y-53838400D01*
X201745000Y-55080000D02*
X196042800Y-49377800D01*
X134863900Y-53661800D02*
X120181700Y-53661800D01*
X155998900Y-51281700D02*
X139981900Y-51281700D01*
X157902800Y-49377800D02*
X155998900Y-51281700D01*
X196042800Y-49377800D02*
X157902800Y-49377800D01*
%TO.N,D2*%
X146437200Y-108463700D02*
X150238000Y-108463700D01*
X132067300Y-94093800D02*
X146437200Y-108463700D01*
X137766500Y-54276800D02*
X140173300Y-51870000D01*
X195771300Y-51646300D02*
X201745000Y-57620000D01*
X134187200Y-54276800D02*
X137766500Y-54276800D01*
X155922200Y-51870000D02*
X157580800Y-53528600D01*
X140173300Y-51870000D02*
X155922200Y-51870000D01*
X157580800Y-53528600D02*
X161582000Y-53528600D01*
X132067300Y-89814600D02*
X132067300Y-94093800D01*
X163464300Y-51646300D02*
X195771300Y-51646300D01*
X150238000Y-108463700D02*
X153896800Y-112122500D01*
X161582000Y-53528600D02*
X163464300Y-51646300D01*
%TO.N,D3*%
X191221900Y-57999900D02*
X175201900Y-57999900D01*
X201745000Y-60160000D02*
X201564900Y-59979900D01*
X173265400Y-56063400D02*
X161670700Y-56063400D01*
X193201900Y-59979900D02*
X191221900Y-57999900D01*
X175201900Y-57999900D02*
X173265400Y-56063400D01*
X201564900Y-59979900D02*
X193201900Y-59979900D01*
%TO.N,D4*%
X199630300Y-64814700D02*
X201745000Y-62700000D01*
X183626600Y-64814700D02*
X199630300Y-64814700D01*
%TO.N,D5*%
X200652900Y-65240000D02*
X200478000Y-65414900D01*
X201745000Y-65240000D02*
X200652900Y-65240000D01*
%TO.N,D6*%
X164953200Y-114616100D02*
X183946300Y-114616100D01*
X183946300Y-114616100D02*
X184129700Y-114799500D01*
X201745000Y-67780000D02*
X200149100Y-67780000D01*
%TO.N,GND*%
X211006000Y-62329000D02*
X218255000Y-55080000D01*
X211006000Y-65678000D02*
X211006000Y-62329000D01*
%TO.N,D9*%
X190199800Y-69100700D02*
X171353800Y-69100700D01*
X160307700Y-65137400D02*
X135339100Y-65137400D01*
X171353800Y-69100700D02*
X169376500Y-67123400D01*
X162293700Y-67123400D02*
X160307700Y-65137400D01*
X211854300Y-69100700D02*
X190199800Y-69100700D01*
X169376500Y-67123400D02*
X162293700Y-67123400D01*
X218255000Y-62700000D02*
X211854300Y-69100700D01*
%TO.N,D8*%
X151950600Y-79277600D02*
X157620000Y-84947000D01*
X157620000Y-84947000D02*
X169362500Y-84947000D01*
X169362500Y-84947000D02*
X175797600Y-84947000D01*
X213532200Y-69962800D02*
X218255000Y-65240000D01*
X213532200Y-69962900D02*
X213532200Y-69962800D01*
X175797600Y-84947000D02*
X190781700Y-69962900D01*
X190781700Y-69962900D02*
X213532200Y-69962900D01*
%TO.N,D7*%
X193275000Y-98844200D02*
X188900900Y-103218300D01*
X193275000Y-97668700D02*
X193275000Y-98844200D01*
X214653000Y-71382000D02*
X209941400Y-71382000D01*
X209941400Y-71382000D02*
X197402600Y-83920800D01*
X197402600Y-83920800D02*
X197402600Y-94454400D01*
X197402600Y-94454400D02*
X195797000Y-96060000D01*
X218255000Y-67780000D02*
X214653000Y-71382000D01*
X195797000Y-96060000D02*
X194883700Y-96060000D01*
X194883700Y-96060000D02*
X193275000Y-97668700D01*
%TO.N,VBAT*%
X217113300Y-78692300D02*
X210404700Y-71983700D01*
X218165000Y-82410000D02*
X217113300Y-82410000D01*
X210404700Y-71983700D02*
X210190500Y-71983700D01*
X217113300Y-82410000D02*
X217113300Y-78692300D01*
%TO.N,BAT_P*%
X217113300Y-85410000D02*
X211000000Y-79296700D01*
X218165000Y-85410000D02*
X217113300Y-85410000D01*
X211000000Y-79296700D02*
X211000000Y-74160000D01*
%TD*%
M02*
