%TF.GenerationSoftware,KiCad,Pcbnew,10.0.5*%
%TF.CreationDate,2026-09-02T17:36:25+09:00*%
%TF.ProjectId,first_left,66697273-745f-46c6-9566-742e6b696361,0.2.0*%
%TF.SameCoordinates,Original*%
%TF.FileFunction,Profile,NP*%
%FSLAX46Y46*%
G04 Gerber Fmt 4.6, Leading zero omitted, Abs format (unit mm)*
G04 Created by KiCad (PCBNEW 10.0.5) date 2026-09-02 17:36:25*
%MOMM*%
%LPD*%
G01*
G04 APERTURE LIST*
%TA.AperFunction,Profile*%
%ADD10C,0.150000*%
%TD*%
G04 APERTURE END LIST*
D10*
X88000000Y-55000000D02*
G75*
G02*
X90482859Y-52044909I3000000J0D01*
G01*
X88000000Y-109000000D02*
X88000000Y-55000000D01*
X91000000Y-112000000D02*
G75*
G02*
X88000000Y-109000000I0J3000000D01*
G01*
X91000000Y-112000000D02*
X108284770Y-112000000D01*
X108284770Y-112000000D02*
X140046473Y-128057306D01*
X126482859Y-45744909D02*
X90482859Y-52044909D01*
X126482859Y-45744909D02*
G75*
G02*
X126584057Y-45728975I517141J-2955091D01*
G01*
X141400000Y-128380000D02*
G75*
G02*
X140046473Y-128057306I0J3000000D01*
G01*
X141400000Y-128380000D02*
X159295238Y-128380000D01*
X144584057Y-43208975D02*
X126584057Y-45728975D01*
X144584057Y-43208975D02*
G75*
G02*
X145000000Y-43180006I415943J-2971625D01*
G01*
X159295238Y-128380000D02*
X159405487Y-128387709D01*
X159405487Y-128387709D02*
X176816155Y-130834619D01*
X163000000Y-43180000D02*
X145000000Y-43180000D01*
X163000000Y-43180000D02*
G75*
G02*
X163727608Y-43269570I0J-3000100D01*
G01*
X176816155Y-130834619D02*
X210881785Y-143186501D01*
X181445993Y-47699169D02*
X163727607Y-43269573D01*
X214645046Y-141586385D02*
G75*
G02*
X210881776Y-143186525I-2740646J1220185D01*
G01*
X214645046Y-141586385D02*
X221966305Y-125142567D01*
X219156104Y-49664064D02*
X181445993Y-47699169D01*
X219156104Y-49664064D02*
G75*
G02*
X222000000Y-52660000I-156104J-2995936D01*
G01*
X222000000Y-104142874D02*
X222000000Y-52660000D01*
X222225473Y-123888101D02*
G75*
G02*
X221966295Y-125142563I-2999473J-34299D01*
G01*
X222225473Y-123888101D02*
X222000000Y-104142874D01*
M02*
